<svg width="20" height="21" viewBox="0 0 20 21" fill="none" xmlns="http://www.w3.org/2000/svg">
<path fill-rule="evenodd" clip-rule="evenodd" d="M5.8885 1.53583L4.6073 0L0 3.84363L1.2811 5.37939L5.8885 1.53583ZM15.2805 0.000610352L19.8879 3.84424L18.6067 5.38L13.9993 1.53644L15.2805 0.000610352ZM10.444 6.18958H8.944V12.1896L13.694 15.0396L14.444 13.8096L10.444 11.4396V6.18958ZM9.944 2.18958C4.974 2.18958 0.944 6.2196 0.944 11.1896C0.944 16.1595 4.974 20.1896 9.944 20.1896C14.914 20.1896 18.944 16.1595 18.944 11.1896C18.944 6.2196 14.914 2.18958 9.944 2.18958ZM2.944 11.1896C2.944 15.0496 6.084 18.1896 9.944 18.1896C13.804 18.1896 16.944 15.0496 16.944 11.1896C16.944 7.32959 13.804 4.18958 9.944 4.18958C6.084 4.18958 2.944 7.32959 2.944 11.1896Z" fill="#C8C8D2"/>
</svg>
