<svg width="20" height="17" viewBox="0 0 20 17" fill="none" xmlns="http://www.w3.org/2000/svg">
<path d="M18.4743 3.67625L14.7074 7.68692C14.5742 7.82859 14.3491 7.79845 14.2543 7.62604L10.2268 0.301569C10.0057 -0.100523 9.45329 -0.100523 9.23221 0.301569L5.20348 7.62664C5.10874 7.79905 4.88364 7.82919 4.75042 7.68753L0.98354 3.67685C0.604555 3.27295 -0.0477595 3.59185 0.00277186 4.15671L0.997321 15.2754L0.976649 15.3122H1.00077C1.00077 16.2442 4.90833 17.0002 9.72891 17.0002C14.5495 17.0002 18.4571 16.2442 18.4571 15.3122H18.4812L18.4605 15.2742L19.4551 4.15611C19.5056 3.59185 18.8538 3.27295 18.4743 3.67625Z" fill="#979798"/>
</svg>
