<svg width="19" height="15" viewBox="0 0 19 15" fill="none" xmlns="http://www.w3.org/2000/svg">
<path fill-rule="evenodd" clip-rule="evenodd" d="M0 1.5C0 0.670013 0.67 0 1.5 0C2.33 0 3 0.670013 3 1.5C3 2.32999 2.33 3 1.5 3C0.67 3 0 2.32999 0 1.5ZM0 7.5C0 6.67001 0.67 6 1.5 6C2.33 6 3 6.67001 3 7.5C3 8.32999 2.33 9 1.5 9C0.67 9 0 8.32999 0 7.5ZM1.5 12C0.67 12 0 12.68 0 13.5C0 14.32 0.68 15 1.5 15C2.32 15 3 14.32 3 13.5C3 12.68 2.33 12 1.5 12ZM18.5 14.5H4.5V12.5H18.5V14.5ZM4.5 8.5H18.5V6.5H4.5V8.5ZM4.5 2.5V0.5H18.5V2.5H4.5Z" fill="#C8C8D2"/>
</svg>
