<svg xmlns="http://www.w3.org/2000/svg" viewBox="0 0 24 24" id="Alerts-Information-Circle--Streamline-Freehand.svg" height="20" width="20"><desc>Alerts Information Circle Streamline Icon: https://streamlinehq.com</desc><g><path d="M23.91 10.35A9.88 9.88 0 0 0 22 5.56 13 13 0 0 0 12.87 0.31a11.13 11.13 0 0 0 -9.75 3.91A12.92 12.92 0 0 0 0.69 16.65c1.38 3.7 4.82 6.59 10.29 7a16.38 16.38 0 0 0 2.89 0 12.35 12.35 0 0 0 2.84 -0.61 0.37 0.37 0 0 0 0.22 -0.45 0.35 0.35 0 0 0 -0.44 -0.22 11.25 11.25 0 0 1 -2.69 0.53 14.92 14.92 0 0 1 -2.75 0c-5 -0.5 -8.19 -3.17 -9.41 -6.6A11.87 11.87 0 0 1 4 5a10 10 0 0 1 8.72 -3.48 12.12 12.12 0 0 1 8.42 4.7A8.93 8.93 0 0 1 23 10.47a12.19 12.19 0 0 1 -0.3 4.77 12.38 12.38 0 0 1 -1.42 3.4 9.41 9.41 0 0 1 -2.51 2.66 0.29 0.29 0 0 0 -0.08 0.42 0.31 0.31 0 0 0 0.43 0.09A9.89 9.89 0 0 0 21.9 19a13 13 0 0 0 1.58 -3.57 13 13 0 0 0 0.43 -5.08Z" fill="currentColor" stroke-width="1"></path><path d="M11.6 4a0.31 0.31 0 0 0 -0.12 -0.6c-1.45 0.16 -1.85 1 -1.8 1.68a1.88 1.88 0 0 0 0.68 1.25 2.33 2.33 0 0 0 1.24 0.54 2 2 0 0 0 2.05 -1.09 1.72 1.72 0 0 0 -0.47 -2.17 0.37 0.37 0 0 0 -0.5 0 0.36 0.36 0 0 0 0 0.5 0.88 0.88 0 0 1 0.08 1.15 1 1 0 0 1 -1.05 0.4 1.33 1.33 0 0 1 -0.89 -0.48c-0.12 -0.16 -0.25 -0.31 -0.21 -0.49s0.39 -0.53 0.99 -0.69Z" fill="currentColor" stroke-width="1"></path><path d="M10.58 17.93a0.77 0.77 0 0 0 0.2 0.43 3.87 3.87 0 0 0 2 0.55 8.84 8.84 0 0 0 2.8 -0.18 0.87 0.87 0 0 0 0.43 -0.49 2.83 2.83 0 0 0 0.13 -0.7l0.11 -0.67a1 1 0 0 0 -0.4 -1 2.93 2.93 0 0 0 -1.28 -0.4c-0.19 0 -0.39 0 -0.55 -0.09a1.1 1.1 0 0 1 0 -0.18c0 -1.05 0 -3.41 -0.07 -4.9a5.32 5.32 0 0 0 -0.2 -1.34 0.57 0.57 0 0 0 -0.29 -0.33 5.72 5.72 0 0 0 -1.92 -0.49 7.65 7.65 0 0 0 -1.93 0.05 0.36 0.36 0 0 0 -0.31 0.39 0.35 0.35 0 0 0 0.39 0.3 8.11 8.11 0 0 1 1.77 0c2 0.27 1.57 0.53 1.59 1.31 0 1.41 -0.08 3.71 -0.11 4.85l0 0.66a0.59 0.59 0 0 0 0.17 0.41 1.51 1.51 0 0 0 0.75 0.36c0.26 0.06 0.57 0.1 0.85 0.16s0.29 0.16 0.38 0.17l-0.1 0.6 0 0.32a9 9 0 0 1 -1.67 0.05 8.51 8.51 0 0 1 -1.36 -0.14l-0.22 0a2.35 2.35 0 0 0 0 -0.26c-0.09 -1.26 -0.09 -4.17 -0.1 -5.49l0 -0.64a0.5 0.5 0 0 0 -0.14 -0.34 1.64 1.64 0 0 0 -0.88 -0.44c-0.5 -0.09 -1 0.07 -1.66 -0.08 0 -0.06 -0.09 -0.18 -0.1 -0.29a3.57 3.57 0 0 1 0 -0.86l0 -0.05a0.25 0.25 0 0 0 0 -0.19 0.3 0.3 0 0 0 -0.33 -0.26 0.31 0.31 0 0 0 -0.23 0.12 1.23 1.23 0 0 0 -0.13 0.48 3.63 3.63 0 0 0 0.09 1.28 0.67 0.67 0 0 0 0.38 0.42 11.24 11.24 0 0 0 1.8 0.2 1 1 0 0 1 0.3 0.13 3.45 3.45 0 0 1 0 0.38c0 1.06 -0.17 3.42 -0.18 4.93a9.72 9.72 0 0 0 0.02 1.26Z" fill="currentColor" stroke-width="1"></path></g></svg>
