<svg width="20" height="19" viewBox="0 0 20 19" fill="none" xmlns="http://www.w3.org/2000/svg">
<path fill-rule="evenodd" clip-rule="evenodd" d="M9.38329 0C3.89031 0 0 4.02999 0 9.5C0 14.9694 3.89031 19 9.38329 19C11.2524 19 12.8544 18.463 14.2148 17.5867L15.0032 18.6595H20L17.1904 14.7341C18.182 13.2813 18.7666 11.5542 18.7666 9.5C18.7666 4.02999 14.8763 0 9.38329 0ZM9.38329 4.18749C12.2819 4.18749 14.3422 6.35968 14.3422 9.5C14.3422 10.102 14.2659 10.6645 14.1257 11.1881L13.5538 10.3897H8.92564L11.7353 14.2628C11.0491 14.6161 10.2481 14.8125 9.38329 14.8125C6.48405 14.8125 4.42433 12.6403 4.42433 9.5C4.42433 6.35968 6.48405 4.18749 9.38329 4.18749Z" fill="#FF4D67"/>
</svg>
