<svg xmlns="http://www.w3.org/2000/svg" viewBox="0 0 24 24" id="Light-Bulb-Shine--Streamline-Freehand.svg"><desc>Light Bulb Shine Streamline Icon: https://streamlinehq.com</desc><g><path d="M11.91 3.85a0.35 0.35 0 0 0 0.35 -0.34 11.73 11.73 0 0 0 0.25 -1.29 8.23 8.23 0 0 0 0 -0.86A3.49 3.49 0 0 0 12.26 0.2a0.29 0.29 0 0 0 -0.34 -0.2c-0.08 0 -0.21 0.08 -0.31 0.31a9.44 9.44 0 0 0 -0.21 1 8.14 8.14 0 0 0 0 0.86c0 0.44 0.14 0.85 0.2 1.28a0.35 0.35 0 0 0 0.31 0.4Z" fill="#000000" stroke-width="1"></path><path d="M6 6.25a0.35 0.35 0 0 0 0 -0.49 8.49 8.49 0 0 0 -1 -1.28c-0.26 -0.24 -0.57 -0.42 -0.85 -0.64l-0.8 -0.4A1.87 1.87 0 0 0 3 3.27c-0.28 0 -0.4 0.08 -0.42 0.2a0.24 0.24 0 0 0 0 0.23 11.2 11.2 0 0 0 0.9 1c0.26 0.23 0.5 0.48 0.78 0.69s0.86 0.55 1.27 0.87A0.35 0.35 0 0 0 6 6.25Z" fill="#000000" stroke-width="1"></path><path d="M3.8 11.8a5.6 5.6 0 0 0 -1.47 -0.17 4.47 4.47 0 0 0 -0.82 0.08 6.05 6.05 0 0 1 -1.12 0.2 0.31 0.31 0 0 0 -0.38 0.22 0.3 0.3 0 0 0 0.22 0.37 3.39 3.39 0 0 0 1.5 0.33 4.69 4.69 0 0 0 0.84 -0.09c0.43 -0.08 0.81 -0.22 1.17 -0.25a0.36 0.36 0 0 0 0.38 -0.32 0.35 0.35 0 0 0 -0.32 -0.37Z" fill="#000000" stroke-width="1"></path><path d="M21.14 3a0.31 0.31 0 0 0 -0.43 0c-0.38 0.21 -0.76 0.38 -1.13 0.63a4.46 4.46 0 0 0 -0.43 0.33l-0.38 0.38c-0.29 0.32 -0.55 0.65 -0.83 1a0.34 0.34 0 0 0 0 0.49 0.35 0.35 0 0 0 0.48 0c0.38 -0.22 0.74 -0.42 1.1 -0.67l0.44 -0.32a3.5 3.5 0 0 0 0.39 -0.38c0.29 -0.32 0.52 -0.67 0.79 -1a0.3 0.3 0 0 0 0 -0.46Z" fill="#000000" stroke-width="1"></path><path d="M23.05 11.8c-0.12 0 -0.23 -0.05 -0.35 -0.06a2.79 2.79 0 0 0 -0.5 0c-0.44 0.06 -0.83 0.21 -1.26 0.31a0.35 0.35 0 0 0 0 0.69 8.24 8.24 0 0 0 1.31 0.17 2.16 2.16 0 0 0 0.51 -0.07 2.24 2.24 0 0 0 0.34 -0.11 2.91 2.91 0 0 0 0.67 -0.27c0.13 -0.12 0.22 -0.21 0.2 -0.32 0.03 -0.31 -0.4 -0.25 -0.92 -0.34Z" fill="#000000" stroke-width="1"></path><path d="M15 6a6.68 6.68 0 0 0 -4.67 -0.58 7 7 0 0 0 -4.92 5.15 6.16 6.16 0 0 0 0 2.6 6.45 6.45 0 0 0 1 2.36 3.87 3.87 0 0 0 0.49 0.57 4.71 4.71 0 0 0 1.15 0.79 1.87 1.87 0 0 1 0.06 0.44l0 1 0 0.36a1.57 1.57 0 0 0 -0.57 0.8 1.91 1.91 0 0 0 -0.06 0.89 1.4 1.4 0 0 0 0.27 0.67 1.59 1.59 0 0 0 0.36 0.32 1.73 1.73 0 0 0 -0.38 1 1.34 1.34 0 0 0 0.37 1.1 1.9 1.9 0 0 0 0.93 0.46 6.1 6.1 0 0 0 1.37 0.07 5.39 5.39 0 0 0 1.1 -0.11 0.32 0.32 0 0 0 0.1 -0.27 0.32 0.32 0 0 0 -0.16 -0.24 2.59 2.59 0 0 0 -0.44 0h-0.6a5.86 5.86 0 0 1 -1.16 -0.12 1.1 1.1 0 0 1 -0.53 -0.31 0.51 0.51 0 0 1 -0.09 -0.44 1 1 0 0 1 0.77 -0.88c0.3 0 0.88 0.15 1.57 0.2a6.57 6.57 0 0 0 0.77 0l0.68 0a15.89 15.89 0 0 0 1.59 -0.35l0.27 -0.07a0.71 0.71 0 0 1 0 0.21 2 2 0 0 1 -0.12 0.71 1.66 1.66 0 0 1 -0.78 0.71 1.22 1.22 0 0 1 -1 0.21 0.36 0.36 0 0 0 -0.47 0.16 0.35 0.35 0 0 0 0.16 0.46 1.93 1.93 0 0 0 1.63 -0.15A2.54 2.54 0 0 0 15 22.65a2.66 2.66 0 0 0 0.23 -1.26 1.27 1.27 0 0 0 -0.29 -0.76 1.62 1.62 0 0 0 0.36 -0.43 1 1 0 0 0 0.11 -0.62 1.52 1.52 0 0 0 -0.69 -1.08c0 -0.33 -0.07 -0.7 -0.06 -1.06a1.14 1.14 0 0 1 0 -0.26 2.24 2.24 0 0 0 0.61 -0.31c0.33 -0.24 0.67 -0.48 1 -0.75a5.2 5.2 0 0 0 0.61 -0.63 7.1 7.1 0 0 0 1.27 -2.81 6.48 6.48 0 0 0 0 -3.13A6 6 0 0 0 15 6Zm-2.61 14.62 -0.69 0 -0.76 0a9 9 0 0 1 -2.15 0c-0.08 0 -0.13 -0.1 -0.18 -0.16a0.48 0.48 0 0 1 0 -0.18 0.88 0.88 0 0 1 0 -0.4 0.5 0.5 0 0 1 0.19 -0.24 1.76 1.76 0 0 1 0.71 -0.25 13.13 13.13 0 0 1 1.42 -0.13 10.68 10.68 0 0 1 2.52 -0.05c0.21 0 0.93 0.34 0.88 0.69a1.06 1.06 0 0 1 -0.87 0.81c-0.31 0 -0.67 -0.07 -1.07 -0.09Zm4.82 -8.12a6.21 6.21 0 0 1 -1 2.48 4.88 4.88 0 0 1 -0.48 0.54 8.87 8.87 0 0 1 -0.9 0.72c-0.1 0.08 -0.51 0.21 -0.65 0.33a0.45 0.45 0 0 0 -0.17 0.24 1.66 1.66 0 0 0 -0.08 0.64 6 6 0 0 0 0.06 0.72 10.08 10.08 0 0 0 -3.11 -0.09 11.8 11.8 0 0 0 -1.56 0.16 3.8 3.8 0 0 0 -0.51 0.15v-0.09c0 -0.28 0.06 -0.76 0.05 -1.16a1.59 1.59 0 0 0 -0.13 -0.63 0.77 0.77 0 0 0 -0.22 -0.24c-0.2 -0.11 -0.51 -0.27 -0.57 -0.27a3.47 3.47 0 0 1 -0.46 -0.4 3 3 0 0 1 -0.37 -0.48A5.67 5.67 0 0 1 6.32 13a5.33 5.33 0 0 1 0.1 -2.21A6.06 6.06 0 0 1 8 8.1a5.82 5.82 0 0 1 2.66 -1.56 5.6 5.6 0 0 1 3.86 0.46 4.9 4.9 0 0 1 2.59 2.83 5.59 5.59 0 0 1 0.1 2.67Z" fill="#000000" stroke-width="1"></path><path d="M14.73 9.91a3.28 3.28 0 0 0 -0.56 -0.86 2.65 2.65 0 0 0 -0.6 -0.44 1.86 1.86 0 0 0 -0.74 -0.25 1.6 1.6 0 0 0 -0.6 0c-0.24 0.11 -0.35 0.26 -0.26 0.47s0.48 0.13 0.69 0.22a1 1 0 0 1 0.37 0.27 2.71 2.71 0 0 1 0.3 0.39 3.7 3.7 0 0 1 0.39 0.77 4.83 4.83 0 0 1 0.29 0.86 2.54 2.54 0 0 1 0 1.19 0.35 0.35 0 0 0 0.2 0.45 0.36 0.36 0 0 0 0.45 -0.2 3.42 3.42 0 0 0 0.28 -2 3.39 3.39 0 0 0 -0.21 -0.87Z" fill="#000000" stroke-width="1"></path></g></svg>