<svg width="24" height="24" viewBox="0 0 24 24" fill="none" xmlns="http://www.w3.org/2000/svg">
<circle cx="12" cy="12" r="12" fill="black"/>
<path d="M8.52393 8.70646L8.50874 9.29893C8.50874 9.45085 8.63028 9.57238 8.767 9.55719H13.4764L8.29606 14.7376C8.18971 14.8439 8.20491 15.011 8.29606 15.1022L8.72143 15.5275C8.82777 15.6339 8.97969 15.6339 9.08603 15.5275L14.2664 10.3472L14.2816 15.0718C14.2664 15.2085 14.3879 15.3301 14.5399 15.3301L15.1323 15.3149C15.2691 15.3301 15.3906 15.2085 15.3906 15.0566V8.70646C15.3906 8.55454 15.2843 8.4482 15.1323 8.4482H8.78219C8.63028 8.4482 8.50874 8.56973 8.52393 8.70646Z" fill="white"/>
</svg>
