<svg width="19" height="21" viewBox="0 0 19 21" fill="none" xmlns="http://www.w3.org/2000/svg">
<path d="M5.44809 1.53L4.26211 0L0 3.85L1.19524 5.38L5.44809 1.53ZM18.5309 3.86L14.2688 0L13.0736 1.53L17.3357 5.39L18.5309 3.86ZM9.26546 2.14C4.66053 2.14 0.926546 6.17 0.926546 11.14C0.926546 16.11 4.65126 20.14 9.26546 20.14C13.8704 20.14 17.6044 16.11 17.6044 11.14C17.6044 6.17 13.8704 2.14 9.26546 2.14ZM9.26546 18.14C5.67973 18.14 2.77964 15.01 2.77964 11.14C2.77964 7.27 5.67973 4.14 9.26546 4.14C12.8512 4.14 15.7513 7.27 15.7513 11.14C15.7513 15.01 12.8512 18.14 9.26546 18.14ZM6.48582 9.14H9.84918L6.48582 13.34V15.14H12.0451V13.14H8.68173L12.0451 8.94V7.14H6.48582V9.14Z" fill="#F7F7F7"/>
</svg>
