<svg xmlns="http://www.w3.org/2000/svg" viewBox="0 0 100 100" id="Mastodon-Logo-1--Streamline-Ultimate.svg" height="100" width="100"><desc>Mastodon Logo 1 Streamline Icon: https://streamlinehq.com</desc><path d="M94.83333333333334 20.208333333333332A25.25 25.25 0 0 0 80.75 4.166666666666667a69.16666666666667 69.16666666666667 0 0 0 -21.958333333333332 -3.8750000000000004l-1.416666666666667 0a142.66666666666669 142.66666666666669 0 0 0 -31.375000000000004 1.7083333333333333 26.583333333333336 26.583333333333336 0 0 0 -20.250000000000004 16.666666666666668 63.66666666666667 63.66666666666667 0 0 0 -2.625 22.000000000000004c0 3.7083333333333335 0 7.375000000000001 0.375 10.916666666666668 0.375 5.500000000000001 0.75 10.041666666666668 1.166666666666667 13.416666666666668a59.37500000000001 59.37500000000001 0 0 0 5.791666666666667 20.583333333333336 26.375000000000004 26.375000000000004 0 0 0 16.666666666666668 12.083333333333334 84.58333333333334 84.58333333333334 0 0 0 19.54166666666667 2.333333333333334 49.708333333333336 49.708333333333336 0 0 0 18.208333333333336 -2.9583333333333335c2.833333333333334 -1.166666666666667 3.5833333333333335 -6.208333333333334 3.4166666666666665 -8.333333333333334a5.916666666666667 5.916666666666667 0 0 0 -7.041666666666667 -5.166666666666667 19.458333333333336 19.458333333333336 0 0 1 -3.666666666666667 0.5h-0.5416666666666667a120.29166666666669 120.29166666666669 0 0 1 -17.416666666666668 -0.5833333333333335 10.583333333333334 10.583333333333334 0 0 1 -7.750000000000001 -10.541666666666666l0.625 0c2.291666666666667 0.41666666666666674 4.541666666666667 0.7916666666666667 6.833333333333333 1.0416666666666667 14.625 1.5 53.458333333333336 5.458333333333334 56.29166666666667 -20.833333333333336v-0.45833333333333337c1.1250000000000002 -9.875000000000002 2.4583333333333335 -22.416666666666668 -0.7916666666666667 -32.458333333333336ZM76.16666666666667 54.16666666666667a4.166666666666667 4.166666666666667 0 0 1 -8.333333333333334 0V34.20833333333334c0 -2.7500000000000004 -3.125 -5.041666666666667 -6.791666666666667 -5.041666666666667S54.16666666666667 31.458333333333336 54.16666666666667 34.20833333333334v13.708333333333334a4.166666666666667 4.166666666666667 0 0 1 -8.333333333333334 0V34.20833333333334C45.833333333333336 31.458333333333336 42.833333333333336 29.166666666666668 39.16666666666667 29.166666666666668s-6.750000000000001 2.291666666666667 -6.750000000000001 5.041666666666667V54.16666666666667a4.166666666666667 4.166666666666667 0 0 1 -8.333333333333334 0V34.20833333333334A14.291666666666668 14.291666666666668 0 0 1 39.16666666666667 20.833333333333336 15.958333333333334 15.958333333333334 0 0 1 50 25a15.916666666666668 15.916666666666668 0 0 1 10.916666666666668 -4.166666666666667 14.333333333333334 14.333333333333334 0 0 1 15.125 13.375Z" fill="currentcolor" stroke-width="1"></path></svg>