<?xml version="1.0" encoding="UTF-8" standalone="no"?>
<!DOCTYPE svg PUBLIC "-//W3C//DTD SVG 1.1//EN" "http://www.w3.org/Graphics/SVG/1.1/DTD/svg11.dtd">
<svg width="100%" height="100%" viewBox="0 0 600 530" version="1.1" xmlns="http://www.w3.org/2000/svg" xmlns:xlink="http://www.w3.org/1999/xlink" xml:space="preserve" xmlns:serif="http://www.serif.com/" style="fill-rule:evenodd;clip-rule:evenodd;stroke-linejoin:round;stroke-miterlimit:2;">
    <path d="M135.72,44.03C202.216,93.951 273.74,195.17 300,249.49C326.262,195.174 397.782,93.95 464.28,44.03C512.26,8.009 590,-19.862 590,68.825C590,86.537 579.845,217.615 573.889,238.895C553.186,312.879 477.745,331.749 410.639,320.328C527.939,340.292 557.779,406.42 493.336,472.548C370.946,598.138 317.426,441.037 303.706,400.782C301.192,393.402 300.016,389.95 299.998,392.886C299.981,389.95 298.805,393.402 296.291,400.782C282.577,441.037 229.058,598.142 106.661,472.548C42.217,406.42 72.056,340.288 189.358,320.328C122.25,331.749 46.808,312.879 26.108,238.895C20.151,217.613 9.997,86.535 9.997,68.825C9.997,-19.862 87.739,8.009 135.717,44.03L135.72,44.03Z" style="fill-rule:nonzero;"/>
</svg>
