<svg xmlns="http://www.w3.org/2000/svg" viewBox="0 0 100 100" id="Youtube-Clip-Logo--Streamline-Ultimate.svg" height="100" width="100"><desc>Youtube Clip Logo Streamline Icon: https://streamlinehq.com</desc><path d="M83.58333333333333 14.583333333333334H16.416666666666668A16.666666666666668 16.666666666666668 0 0 0 0 31.000000000000004v38a16.666666666666668 16.666666666666668 0 0 0 16.416666666666668 16.416666666666668h67.16666666666667A16.666666666666668 16.666666666666668 0 0 0 100 69V31.000000000000004a16.666666666666668 16.666666666666668 0 0 0 -16.416666666666668 -16.416666666666668ZM68.91666666666667 50l-28.208333333333332 18.166666666666668a1.8750000000000002 1.8750000000000002 0 0 1 -1.1250000000000002 0.33333333333333337 2.0833333333333335 2.0833333333333335 0 0 1 -1 -0.25 2.125 2.125 0 0 1 -1.0833333333333335 -1.8333333333333335V30.333333333333336a2.125 2.125 0 0 1 1.0833333333333335 -1.8333333333333335 2.041666666666667 2.041666666666667 0 0 1 2.125 0l28.208333333333332 18.041666666666668a2.0833333333333335 2.0833333333333335 0 0 1 0 3.5Z" fill="currentcolor" stroke-width="1"></path></svg>