<svg xmlns="http://www.w3.org/2000/svg" viewBox="0 0 100 100" id="Professional-Network-Linkedin--Streamline-Streamline--3.0.svg" height="100" width="100"><desc>Professional Network Linkedin Streamline Icon: https://streamlinehq.com</desc><g><path d="M5.666666666666668 33.66666666666667H24.333333333333336S26.66666666666667 33.66666666666667 26.66666666666667 36.00000000000001V96.66666666666667S26.66666666666667 99.00000000000001 24.333333333333336 99.00000000000001H5.666666666666668S3.333333333333334 99.00000000000001 3.333333333333334 96.66666666666667V36.00000000000001S3.333333333333334 33.66666666666667 5.666666666666668 33.66666666666667" fill="#000000" stroke-width="1"></path><path d="M14.906666666666668 24.333333333333336C23.8875 24.405 29.578333333333333 14.728333333333335 25.15 6.914583333333334C20.721666666666668 -0.89875 9.495833333333334 -0.9887500000000001 4.943333333333333 6.752916666666668C3.889166666666667 8.545416666666666 3.333333333333334 10.587083333333334 3.333333333333334 12.666666666666668C3.3075 19.084166666666665 8.489166666666668 24.3075 14.906666666666668 24.333333333333336Z" fill="#000000" stroke-width="1"></path><path d="M80.33333333333334 99.00000000000001H94.33333333333334C95.62208333333335 99.00000000000001 96.66666666666667 97.95541666666668 96.66666666666667 96.66666666666667V57.46666666666667C96.66666666666667 39.873333333333335 86.72666666666667 31.333333333333332 72.82000000000001 31.333333333333332C67.25083333333333 31.135000000000005 61.85875 33.305416666666666 57.980000000000004 37.306666666666665C57.445 37.88708333333334 56.59708333333334 38.05708333333333 55.88 37.72666666666667C55.15791666666667 37.45666666666666 54.67583333333334 36.770833333333336 54.666666666666664 36.00000000000001C54.666666666666664 34.71125000000001 53.62208333333334 33.66666666666667 52.333333333333336 33.66666666666667H38.333333333333336C37.044583333333335 33.66666666666667 36.00000000000001 34.71125000000001 36.00000000000001 36.00000000000001V96.66666666666667C36.00000000000001 97.95541666666668 37.044583333333335 99.00000000000001 38.333333333333336 99.00000000000001H52.333333333333336C53.62208333333334 99.00000000000001 54.666666666666664 97.95541666666668 54.666666666666664 96.66666666666667V61.66666666666667C54.666666666666664 52.68583333333334 64.38875 47.072500000000005 72.16666666666667 51.562916666666666C75.77625 53.647083333333335 78 57.49875 78 61.66666666666667V96.66666666666667C78 97.95541666666668 79.04458333333334 99.00000000000001 80.33333333333334 99.00000000000001Z" fill="#000000" stroke-width="1"></path></g></svg>