<svg xmlns="http://www.w3.org/2000/svg" fill="none" viewBox="0 0 100 100" id="X-Logo--Streamline-Ultimate.svg" height="100" width="100"><desc>X Logo Streamline Icon: https://streamlinehq.com</desc><path fill="currentcolor" fill-rule="evenodd" d="M95.43750000000001 1.2666666666666668a4.166666666666667 4.166666666666667 0 0 1 0.20833333333333337 5.891666666666667l-33.9 36.354166666666664 37.41666666666667 49.66666666666667A4.166666666666667 4.166666666666667 0 0 1 95.83333333333334 99.85h-22.825a4.166666666666667 4.166666666666667 0 0 1 -3.329166666666667 -1.6583333333333334l-26.333333333333336 -34.94583333333334 -32.89166666666667 35.27916666666667a4.166666666666667 4.166666666666667 0 1 1 -6.095833333333334 -5.6833333333333345l33.9 -36.354166666666664 -37.41666666666667 -49.66666666666667A4.166666666666667 4.166666666666667 0 0 1 4.166666666666667 0.15h22.82916666666667a4.166666666666667 4.166666666666667 0 0 1 3.3250000000000006 1.6583333333333334l26.333333333333336 34.94583333333334L89.54166666666667 1.475a4.166666666666667 4.166666666666667 0 0 1 5.891666666666667 -0.20833333333333337Zm-42.29166666666667 44.68333333333334a4.158333333333333 4.158333333333333 0 0 1 -0.325 -0.4291666666666667L24.91666666666667 8.479166666666668H12.520833333333334l62.56250000000001 83.04166666666667h12.395833333333334l-34.333333333333336 -45.57083333333333Z" clip-rule="evenodd" stroke-width="1"></path></svg>