<?xml version="1.0" encoding="UTF-8" standalone="no"?>
<svg
   xmlns:dc="http://purl.org/dc/elements/1.1/"
   xmlns:cc="http://creativecommons.org/ns#"
   xmlns:rdf="http://www.w3.org/1999/02/22-rdf-syntax-ns#"
   xmlns:svg="http://www.w3.org/2000/svg"
   xmlns="http://www.w3.org/2000/svg"
   xmlns:sodipodi="http://sodipodi.sourceforge.net/DTD/sodipodi-0.dtd"
   xmlns:inkscape="http://www.inkscape.org/namespaces/inkscape"
   height="24"
   viewBox="0 0 24 24"
   width="24"
   version="1.1"
   id="svg4"
   sodipodi:docname="whip.svg"
   inkscape:version="0.92.4 (5da689c313, 2019-01-14)">
  <metadata
     id="metadata10">
    <rdf:RDF>
      <cc:Work
         rdf:about="">
        <dc:format>image/svg+xml</dc:format>
        <dc:type
           rdf:resource="http://purl.org/dc/dcmitype/StillImage" />
        <dc:title></dc:title>
      </cc:Work>
    </rdf:RDF>
  </metadata>
  <defs
     id="defs8" />
  <sodipodi:namedview
     pagecolor="#ffffff"
     bordercolor="#666666"
     borderopacity="1"
     objecttolerance="10"
     gridtolerance="10"
     guidetolerance="10"
     inkscape:pageopacity="0"
     inkscape:pageshadow="2"
     inkscape:window-width="752"
     inkscape:window-height="480"
     id="namedview6"
     showgrid="false"
     inkscape:zoom="3.4766083"
     inkscape:cx="16.950899"
     inkscape:cy="33.990652"
     inkscape:window-x="0"
     inkscape:window-y="0"
     inkscape:window-maximized="0"
     inkscape:current-layer="svg4" />
  <g
     transform="matrix(0.28515082,0,0,0.28515082,-2.5125008,-272.66926)"
     id="g4">
    <path
       inkscape:connector-curvature="0"
       style="color:#000000;font-style:normal;font-variant:normal;font-weight:normal;font-stretch:normal;font-size:medium;line-height:normal;font-family:sans-serif;text-indent:0;text-align:start;text-decoration:none;text-decoration-line:none;text-decoration-style:solid;text-decoration-color:#000000;letter-spacing:normal;word-spacing:normal;text-transform:none;writing-mode:lr-tb;direction:ltr;baseline-shift:baseline;text-anchor:start;white-space:normal;clip-rule:nonzero;display:inline;overflow:visible;visibility:visible;opacity:1;isolation:auto;mix-blend-mode:normal;color-interpolation:sRGB;color-interpolation-filters:linearRGB;solid-color:#000000;solid-opacity:1;fill:#000000;fill-opacity:1;fill-rule:evenodd;stroke:none;stroke-width:6.83980083;stroke-linecap:round;stroke-linejoin:miter;stroke-miterlimit:4;stroke-dasharray:none;stroke-dashoffset:0;stroke-opacity:1;color-rendering:auto;image-rendering:auto;shape-rendering:auto;text-rendering:auto;enable-background:accumulate"
       d="m 56.416091,976.75033 c -0.91837,-0.0259 -1.68342,0.6974 -1.70984,1.61575 -0.002,0.0436 -0.005,0.0812 -0.007,0.12451 l -2.45024,-0.004 -9.7e-4,0.51704 c -3.13123,0.034 -5.20484,0.3945 -6.5799,1.43802 -1.40245,1.06429 -1.92071,2.77924 -2.05011,5.159 -0.0538,0.91837 -0.21911,1.81563 -0.62824,2.56239 -0.20424,0.37278 -0.46924,0.7067 -0.78507,0.96469 -0.31479,0.25716 -0.68596,0.441 -1.06829,0.51515 -0.53627,0.10384 -1.13003,-0.005 -1.64236,-0.26993 -0.51608,-0.2665 -0.9668,-0.68767 -1.32682,-1.1833 -0.72262,-0.99486 -1.08255,-2.26947 -1.48839,-3.56606 v -9.7e-4 c -0.40717,-1.30085 -0.90495,-2.70069 -1.96076,-3.75139 -0.53056,-0.52798 -1.19609,-0.9487 -1.95411,-1.13198 -0.38157,-0.0923 -0.78199,-0.12037 -1.1757,-0.076 -0.39371,0.0443 -0.78112,0.16092 -1.13673,0.36022 -0.51736,0.28995 -0.92181,0.72789 -1.20421,1.22132 -0.28132,0.49158 -0.43989,1.03015 -0.51419,1.56632 -0.14823,1.06979 0.0283,2.10435 0.17679,3.07183 0.14811,0.96562 0.26897,1.90448 0.10359,2.76484 -0.0824,0.42868 -0.23681,0.83562 -0.46856,1.1757 -0.23041,0.3381 -0.54573,0.61401 -0.899122,0.76605 -0.30076,0.12941 -0.65001,0.17966 -0.99797,0.15398 -0.34951,-0.0257 -0.70384,-0.12532 -1.04453,-0.27563 -0.68307,-0.30139 -1.3068,-0.80585 -1.95221,-1.33538 -0.6464,-0.53033 -1.33581,-1.09951 -2.18411,-1.46653 -0.42502,-0.18386 -0.88741,-0.31277 -1.37149,-0.34311 -0.48559,-0.0304 -0.98761,0.0407 -1.45132,0.24807 -0.70046,0.31341 -1.21107,0.88605 -1.56063,1.49884 -0.34699,0.60829 -0.54508,1.25286 -0.72804,1.86097 -0.1828,0.6076 -0.35353,1.18865 -0.61208,1.69559 -0.25662,0.50315 -0.61283,0.93998 -1.05024,1.1871 -0.37176,0.21004 -0.82716,0.29207 -1.24888,0.22431 -0.42179,-0.0685 -0.82936,-0.28929 -1.11582,-0.60639 -0.28644,-0.3171 -0.46599,-0.74439 -0.49138,-1.17094 -0.0255,-0.42656 0.10201,-0.87152 0.34881,-1.22037 a 0.48676884,0.48676884 0 0 0 -0.79362,-0.56361 c -0.3779,0.53415 -0.56544,1.18877 -0.52654,1.84195 0.0389,0.65317 0.3018,1.27944 0.7404,1.76498 0.43862,0.48555 1.03547,0.80948 1.68132,0.91432 h 9.8e-4 c 0.64548,0.10407 1.31409,-0.0146 1.88377,-0.33645 0.66119,-0.37355 1.12136,-0.97205 1.43802,-1.59295 0.31474,-0.6171 0.49694,-1.25645 0.67767,-1.85716 0.18058,-0.60018 0.36332,-1.17171 0.64154,-1.65947 0.2755,-0.48296 0.66006,-0.89 1.11107,-1.09206 0.29838,-0.13341 0.64651,-0.18811 0.99416,-0.16633 0.34917,0.0219 0.70427,0.1185 1.04549,0.26613 0.68415,0.29599 1.30963,0.7971 1.9541,1.32586 0.64547,0.52957 1.33192,1.10055 2.17652,1.47319 0.42313,0.1867 0.88267,0.31898 1.36578,0.35451 0.48472,0.0358 0.98707,-0.0285 1.453232,-0.22905 0.5489,-0.23617 0.99645,-0.63934 1.31921,-1.11297 0.32141,-0.47164 0.5176,-1.00378 0.62064,-1.53971 0.20544,-1.06883 0.0528,-2.12032 -0.0969,-3.09654 h -9.7e-4 c -0.14959,-0.97432 -0.29534,-1.91242 -0.17393,-2.7886 0.0605,-0.4368 0.18786,-0.85656 0.39443,-1.21752 0.20553,-0.35911 0.49593,-0.66607 0.83544,-0.85634 0.464,-0.26006 1.06186,-0.31837 1.60815,-0.18629 0.55139,0.13332 1.07165,0.45307 1.49599,0.87535 0.85371,0.84958 1.31992,2.08204 1.71745,3.35221 0.39891,1.27438 0.76942,2.66258 1.63001,3.84739 0.4317,0.59432 0.98712,1.12536 1.66802,1.47699 0.68461,0.35354 1.48714,0.51344 2.27346,0.36117 l 9.7e-4,-9.8e-4 c 0.55927,-0.10845 1.07083,-0.36698 1.49885,-0.71663 0.427,-0.34881 0.76605,-0.78146 1.02268,-1.24983 0.51231,-0.93509 0.68791,-1.97885 0.74609,-2.97489 v -0.002 l 9.7e-4,-9.8e-4 c 0.12338,-2.26887 0.56863,-3.60306 1.66708,-4.43666 1.07534,-0.81606 2.94249,-1.20458 5.98873,-1.24032 l -9.7e-4,0.55315 2.34189,0.004 c -0.26103,4.07872 -0.58164,6.81378 0.67196,9.1347 0.73229,1.35575 2.16234,2.2423 3.82363,2.59185 1.26714,0.26665 2.74277,0.32857 4.56782,0.27563 -0.0753,6.38376 -0.31572,12.75542 -0.66436,19.12762 -0.1378,2.5194 -0.22969,3.4897 -0.51324,4.1877 -0.28355,0.698 -1.00221,1.6563 -2.77148,3.8312 l -3.5385,4.3492 c -2.03094,2.4623 1.69115,5.4909 3.68866,3.0015 l 3.5385,-4.3511 c 1.76927,-2.1749 2.81814,-3.3919 3.48812,-5.0412 0.66999,-1.6492 0.7176,-3.1981 0.8554,-5.7178 l 0.0618,-1.1358 c 9e-5,0 9.7e-4,0 9.7e-4,0 0.18719,-1.9876 3.51759,-1.9732 4.81398,0 l 0.70048,1.1405 c 1.35912,2.2116 1.85388,3.1134 1.99308,3.7704 0.1392,0.6571 0.0545,1.7117 -0.28323,4.3217 l -0.67482,5.2198 c -0.48214,3.2008 4.3664,3.829 4.71514,0.6112 l 0.67577,-5.2208 c 0.33779,-2.6099 0.59103,-4.1638 0.21955,-5.9175 -0.37149,-1.7533 -1.23556,-3.0636 -2.5947,-5.2749 l -1.80584,-2.9369 -0.729,-1.1871 c -0.002,0 -0.003,-0.01 -0.006,-0.01 -0.48972,-0.796 -0.49204,-0.8035 -0.46286,-1.9085 l 0.30319,-11.47085 12.89654,-0.84114 c 2.17341,-0.10887 2.07527,-3.35023 -0.10074,-3.32655 -0.0387,10e-4 -0.11691,0.006 -0.11691,0.006 l -14.4049,0.89532 -7.67766,0.47712 c -2.58585,0.14657 -4.40093,0.0978 -5.4888,-0.13116 -1.08919,-0.22921 -1.33125,-0.45189 -1.58154,-0.91528 -0.43112,-0.79818 -0.39891,-3.39852 -0.23571,-7.54841 l 1.41806,0.003 0.004,-2.04344 -1.34297,-0.002 c 0.0465,-0.93143 -0.68108,-1.721 -1.6148,-1.74691 z m 12.45839,2.8 c -2.33813,0 -4.23992,1.90178 -4.23992,4.23992 4.9e-4,2.35272 1.90242,4.23992 4.23992,4.23992 2.35273,0 4.25988,-1.8872 4.25988,-4.23992 0,-2.33814 -1.90715,-4.23992 -4.25988,-4.23992 z"
       id="path2" />
  </g>
</svg>
