<?xml version="1.0" encoding="UTF-8"?>
<svg width="400px" height="400px" viewBox="0 0 400 400" version="1.1" xmlns="http://www.w3.org/2000/svg" xmlns:xlink="http://www.w3.org/1999/xlink">
    <title>Profile Photo</title>
    <defs>
        <polygon id="path-1" points="2.76526895e-15 -4.19224745e-16 108 -4.19224745e-16 108 99 2.76526895e-15 99"></polygon>
    </defs>
    <g id="Profile-Photo" stroke="none" stroke-width="1" fill="none" fill-rule="evenodd">
        <rect fill="#00D6F7" x="0" y="0" width="400" height="400"></rect>
        <g id="S-Copy-14" transform="translate(119.000000, 65.000000)">
            <path d="M151.155197,158.293352 C142.492531,151.016311 124.656855,157.59738 114.065903,148.737125 C103.475925,139.876383 106.952299,121.163019 98.2901206,113.885978 C92.9142177,109.370435 84.0058848,110.190028 75.4894487,109.345615 C70.2812228,108.829233 65.219227,107.69183 61.2008261,104.329751 C50.6103607,95.4694965 54.0872231,76.7556453 45.4245567,69.4790906 C33.7456526,59.6683234 16.313572,61.1687994 6.48837707,72.8299751 C-3.33681793,84.4906649 -1.83357333,101.896771 9.84484344,111.707051 C18.5075098,118.983605 36.3431851,112.402049 46.9336506,121.262791 C57.5246034,130.123533 54.0467661,148.836897 62.7104073,156.113938 C65.9654876,158.848183 70.5151908,159.625432 75.4894487,160.001159 C83.7533945,160.6251 93.1876677,160.138407 99.7992147,165.669678 C110.38968,174.53042 106.91233,193.244271 115.575484,200.521312 C127.254388,210.331593 144.686468,208.831117 154.511663,197.169941 C164.336371,185.509251 162.834102,168.103146 151.155197,158.293352" id="Fill-1" fill="#000000" fill-rule="nonzero"></path>
            <g id="Fill-3-Clipped" transform="translate(54.000000, 0.000000)">
                <mask id="mask-2" fill="white">
                    <use xlink:href="#path-1"></use>
                </mask>
                <g id="path-1"></g>
                <path d="M9.83275941,48.4136475 C12.9727947,51.0393993 17.3221087,51.8478812 22.0925282,52.2359138 C30.4644953,52.9185996 40.1372645,52.3021987 46.8754395,57.9136727 C57.4527337,66.7218191 53.9801953,85.3256116 62.632088,92.559372 C74.296467,102.311957 91.7068679,100.820305 101.519843,89.2281944 C111.332819,77.6355995 109.83193,60.3323448 98.1675513,50.5802435 C89.5156586,43.3455159 71.7021649,49.8888487 61.124871,41.0802183 C50.5470901,32.271588 54.020602,13.6682791 45.3677357,6.43355155 C38.6631518,0.827399698 30.0604287,-1.05518741 22.0925282,0.552099753 C16.1989985,1.74135679 10.6525764,4.83690867 6.48046745,9.76521304 C-3.33250801,21.357808 -1.83161981,38.6615463 9.83275941,48.4136475" id="Fill-3" fill="#131413" fill-rule="nonzero" mask="url(#mask-2)"></path>
            </g>
            <path d="M98.1676003,221.585319 C92.9040245,217.184476 84.2511579,217.879728 75.8991502,217.118193 C70.5211696,216.628081 65.2678174,215.535612 61.124431,212.08548 C50.5471361,203.277506 54.0201614,184.674078 45.3677814,177.440459 C33.7038882,167.688066 16.2929997,169.179688 6.48051041,180.772056 C-3.33246572,192.36394 -1.83157742,209.666855 9.8323158,219.418765 C18.4846958,226.653351 36.2977035,220.11063 46.8754852,228.918604 C57.4527801,237.727062 53.9797548,256.330006 62.6321349,263.564592 C66.570567,266.856999 71.1642684,268.862923 75.8991502,269.636071 C85.1878134,271.152851 95.0197758,267.911246 101.519893,260.232996 C111.332382,248.640628 109.831494,231.337713 98.1676003,221.585319" id="Fill-6" fill="#000000" fill-rule="nonzero"></path>
        </g>
    </g>
</svg>