<?xml version="1.0" encoding="UTF-8"?>
<svg id="b"
  xmlns="http://www.w3.org/2000/svg" viewBox="0 0 2948.48 267.7">
  <defs>
    <style>.d{fill:#161a3b;stroke-width:0px;}</style>
  </defs>
  <g id="c">
    <path class="d" d="M194.73,102.33c-9.73,1.53-21.13,1.63-29-3.83,1.24-2.88.78-14.78.8-20.63-3.33-21.29-1.16-44.96-1.79-67.34,25.46-7.6,55.47-1.27,82.39-3.78,7.38-.74,13.68,7.94,13.68,7.94l1.81,63.72c-1.95,8.13.3,17.99-1.81,26.21-7.42.68-8.1.45-15.6.45-17,0-34-1.46-50.47-2.75"/>
    <path class="d" d="M110.47,152.86c-34.17-2.46-68.62.55-103.01.92,1.81-13.93-6.36-23.9-7.46-36.51C2.1,84.27.24,43.65,12.23,14.81l88.97-2.69c13.36-.22,25.49-3.17,38.27-4.68h7.48c1.57,48.46-6.6,99.06-3.59,148.28-1.77.13-3.48.19-5.1.2-9.72-.01-18.42-2.38-27.79-3.04"/>
    <path class="d" d="M176.5,265.92c21.56-4.77,42.68,1.42,61.85-1.71,2.91-1.46,5.09-.88,6.23-1.23,1.35-.41,1.82-.29,3.15-2.06.88-1.91,1.31-2.91,1.52-3.46l.28-.37c1.96-6.01,3.98-14.3,5.56-21.02.72-3.3,1.34-6.05,1.83-8.35h-.22v-.44c.21-.71.65-2.1,1.1-4.59l.21-.3v-.25c1.88-4.08,4.13-62.09,2.42-95.49l-94.97-.79-1.38,19.36c8.59,41.78-4.85,81.65.95,120.72h11.46"/>
    <polyline class="d" points="12.92 267.69 8.83 249.37 8.83 178.28 34.33 177.32 106.27 174.29 142.71 175.3 140.66 259.53 128.49 259.54 119.45 264.6 107.21 267.69 12.92 267.69"/>
    <path class="d" d="M309.4,5.44c14.75-3.1,38.02-5.44,61.69-5.44,33.76,0,55.47,5.82,71.78,19.02,13.58,10.09,21.74,25.6,21.74,46.16-.01,25.21-16.68,47.34-44.25,57.43l.02.77c24.81,6.2,53.91,26.77,53.93,65.56,0,22.5-8.94,39.57-22.12,52.36-18.22,16.69-47.72,24.45-90.39,24.45-23.27,0-41.14-1.55-52.37-3.11l-.02-257.21ZM343.16,112.52h30.66c35.68,0,56.63-18.63,56.63-43.85,0-30.64-23.27-42.65-57.43-42.67-15.52,0-24.41,1.17-29.87,2.32v84.2ZM343.14,237.83c6.62,1.17,16.31,1.55,28.32,1.55,34.92,0,67.14-12.81,67.14-50.82,0-35.69-30.66-50.44-67.51-50.44h-27.94s-.01,99.7-.01,99.7Z"/>
    <path class="d" d="M648.5,212.21c0,19.41.39,36.48,1.55,51.22h-30.24s-1.95-30.65-1.95-30.65h-.77c-8.94,15.14-28.71,34.92-62.08,34.91-29.47,0-64.77-16.28-64.79-82.24l.02-109.79h34.13v103.98c0,35.68,10.86,59.74,41.91,59.75,22.87,0,38.79-15.92,45-31.05,1.92-5.04,3.08-11.25,3.1-17.45l-.02-115.23h34.16v136.56Z"/>
    <path class="d" d="M673.34,228.52c10.09,6.58,27.93,13.58,44.98,13.58,24.86,0,36.48-12.43,36.48-27.94.01-16.31-9.69-25.22-34.92-34.54-33.75-12.02-49.64-30.64-49.64-53.15-.02-30.27,24.43-55.1,64.77-55.09,19.02,0,35.71,5.44,46.18,11.65l-8.53,24.83c-7.39-4.66-20.96-10.88-38.41-10.88-20.17,0-31.42,11.65-31.42,25.62,0,15.51,11.25,22.5,35.68,31.81,32.6,12.41,49.26,28.71,49.26,56.63,0,32.99-25.58,56.64-70.2,56.64-20.55,0-39.56-5.41-52.76-13.18l8.54-25.99Z"/>
    <path class="d" d="M842.5,22.9c.39,11.63-8.16,20.95-21.74,20.95-12.04,0-20.55-9.31-20.55-20.95s8.9-21.34,21.33-21.34c12.79,0,20.95,9.31,20.95,21.34ZM804.47,263.43V75.66h34.14v187.77h-34.14Z"/>
    <path class="d" d="M868.09,126.47c0-19.38-.37-35.3-1.54-50.81h30.25l1.95,31.04h.77c9.32-17.84,31.04-35.31,62.08-35.32,26.01,0,66.34,15.54,66.34,79.94l-.02,112.11h-34.13s-.02-108.25-.02-108.25c.02-30.25-11.23-55.47-43.44-55.47-22.51,0-39.95,15.9-45.78,34.92-1.55,4.26-2.32,10.08-2.32,15.9v112.9h-34.15V126.47Z"/>
    <path class="d" d="M1075.28,175.75c.76,46.16,30.25,65.17,64.4,65.18,24.45,0,39.17-4.28,51.97-9.69l5.84,24.43c-12.03,5.42-32.59,12.02-62.47,12.01-57.81,0-92.34-38.41-92.34-95.04.01-56.64,33.35-101.26,88.07-101.26,61.29,0,77.6,53.93,77.6,88.46,0,6.97-.8,12.4-1.19,15.89h-131.89ZM1175.38,151.32c.39-21.74-8.93-55.5-47.33-55.49-34.54,0-49.66,31.82-52.38,55.49h99.71Z"/>
    <path class="d" d="M1218.83,228.52c10.07,6.58,27.94,13.58,44.99,13.58,24.85,0,36.48-12.43,36.48-27.94.02-16.31-9.7-25.22-34.91-34.53-33.74-12.02-49.66-30.65-49.65-53.15-.01-30.26,24.43-55.09,64.78-55.09,19.01,0,35.69,5.42,46.18,11.65l-8.56,24.83c-7.36-4.66-20.93-10.88-38.38-10.88-20.19,0-31.44,11.64-31.44,25.62,0,15.51,11.25,22.49,35.68,31.81,32.61,12.4,49.29,28.71,49.29,56.63,0,32.99-25.62,56.64-70.21,56.64-20.59,0-39.59-5.42-52.77-13.18l8.52-25.99Z"/>
    <path class="d" d="M1345.31,228.52c10.09,6.58,27.94,13.58,45,13.58,24.83,0,36.45-12.43,36.45-27.94.01-16.31-9.68-25.22-34.92-34.54-33.74-12.02-49.64-30.64-49.64-53.15-.01-30.27,24.44-55.09,64.78-55.09,19.04,0,35.71,5.44,46.18,11.65l-8.55,24.82c-7.35-4.66-20.92-10.87-38.39-10.87-20.17,0-31.44,11.65-31.42,25.62,0,15.51,11.25,22.5,35.68,31.81,32.6,12.41,49.27,28.71,49.27,56.64.02,32.98-25.61,56.63-70.23,56.63-20.53,0-39.54-5.4-52.72-13.17l8.52-25.99Z"/>
    <path class="d" d="M1795.37,5.45C1815.93,2.34,1840.36,0,1867.14,0c48.5,0,83.03,11.24,105.91,32.6,23.27,21.33,36.86,51.59,36.86,93.87s-13.21,77.6-37.63,101.65c-24.45,24.44-64.81,37.63-115.62,37.65-24.04-.01-44.23-1.17-61.29-3.11V5.45ZM1829.13,236.66c8.51,1.56,20.94,1.95,34.13,1.94,72.16,0,111.34-40.35,111.34-110.95.39-61.69-34.52-100.87-105.92-100.88-17.46,0-30.62,1.57-39.54,3.5v206.39Z"/>
    <path class="d" d="M2045.98,175.75c.8,46.17,30.29,65.18,64.41,65.17,24.44,0,39.18-4.26,52-9.68l5.81,24.43c-12.03,5.42-32.58,12.03-62.45,12.02-57.79,0-92.33-38.42-92.33-95.05-.01-56.64,33.37-101.26,88.04-101.26,61.31,0,77.6,53.93,77.6,88.46.02,6.98-.76,12.42-1.14,15.91h-131.93ZM2146.1,151.32c.37-21.74-8.94-55.5-47.34-55.49-34.53,0-49.66,31.82-52.38,55.49h99.72Z"/>
    <path class="d" d="M2336.26,256.45c-8.93,4.66-28.71,11.24-53.93,11.24-56.62,0-93.49-38.79-93.49-96.2.01-57.8,39.56-99.69,100.85-99.69,20.18,0,38.03,5.03,47.34,9.69l-7.73,26.38c-8.18-4.66-20.98-8.92-39.6-8.93-43.04,0-66.33,31.82-66.32,71-.01,43.45,27.94,70.22,65.17,70.21,19.4,0,32.22-5.04,41.89-9.31l5.83,25.61Z"/>
    <path class="d" d="M2387.08,22.89c.4,11.64-8.13,20.96-21.72,20.96-12.02,0-20.56-9.31-20.56-20.95s8.93-21.34,21.33-21.34,20.95,9.31,20.95,21.33ZM2349.08,263.43V75.66h34.13v187.78h-34.13Z"/>
    <path class="d" d="M2408.05,228.52c10.06,6.59,27.94,13.58,45,13.58,24.85,0,36.48-12.42,36.48-27.94,0-16.31-9.7-25.22-34.93-34.53-33.75-12.02-49.66-30.65-49.66-53.15,0-30.26,24.43-55.1,64.78-55.09,19.01,0,35.71,5.42,46.18,11.64l-8.54,24.84c-7.35-4.66-20.94-10.88-38.38-10.88-20.2,0-31.45,11.65-31.45,25.62,0,15.52,11.25,22.5,35.7,31.81,32.58,12.41,49.27,28.71,49.27,56.64,0,32.98-25.61,56.63-70.22,56.64-20.57,0-39.57-5.42-52.76-13.18l8.54-25.99Z"/>
    <path class="d" d="M2577.21,22.9c.39,11.63-8.16,20.95-21.73,20.95-12.05,0-20.56-9.31-20.54-20.95-.01-12.03,8.91-21.34,21.32-21.34,12.79,0,20.95,9.31,20.95,21.34ZM2539.18,263.43V75.66h34.13v187.77h-34.13Z"/>
    <path class="d" d="M2772.72,167.99c0,69.44-48.11,99.7-93.49,99.71-50.82,0-90.01-37.25-90.01-96.61,0-62.84,41.12-99.71,93.1-99.71s90.4,39.2,90.4,96.6ZM2623.75,169.93c0,41.12,23.65,72.18,57.03,72.18,32.58,0,57.04-30.66,57.04-72.95,0-31.8-15.92-72.16-56.27-72.16s-57.81,37.25-57.81,72.94Z"/>
    <path class="d" d="M2788.64,126.48c0-19.39-.39-35.31-1.55-50.82h30.26s1.93,31.04,1.93,31.04h.78c9.31-17.84,31.03-35.31,62.07-35.31,26.01,0,66.35,15.53,66.35,79.93v112.11h-34.13s0-108.25,0-108.25c0-30.25-11.27-55.47-43.47-55.47-22.49,0-39.96,15.9-45.76,34.92-1.58,4.26-2.32,10.08-2.32,15.9v112.9h-34.15V126.48Z"/>
    <path class="d" d="M1578.77,108.46c-15.67-18.82-23.52-35.26-23.52-49.27.02-15.46,6.6-27.94,19.73-37.44,13.11-9.47,30.61-14.22,52.72-14.22,16.62,0,29.6,2.13,46.04,10.01l-17.78,28.28c-10.47-5.93-15.48-7.91-26.54-7.15-9.44.69-17.78,1.99-24.84,5.94-7.22,4.15-10.86,9.59-10.85,16.6-.01,6.87,2.93,14.22,8.65,22.05l74.74,98.48c9.33-16.19,14.14-36.84,14.26-61.87h36.15c-1.61,35.28-11.62,64.71-30.2,88.34l40.65,55.02h-43.17l-20.95-28.43c-22.83,21.51-48.63,32.33-77.39,32.33-27.18,0-48.51-7.68-63.84-23.11-15.33-15.33-23.12-33.38-23.12-54.06.01-33.65,23.06-60.75,69.24-81.49M1655.67,210.63l-62.14-82c-14.77,8.31-26.05,16.87-33.77,25.51-7.87,8.82-11.83,19.54-11.81,32.15,0,13.91,4.89,25.45,14.71,34.62,9.91,9.2,22.99,13.88,39.39,13.88,19.38,0,37.29-8.04,53.61-24.17Z"/>
  </g>
</svg>
