<?xml version="1.0" encoding="utf-8"?>
<!-- Generator: Adobe Illustrator 28.1.0, SVG Export Plug-In . SVG Version: 6.00 Build 0)  -->
<svg version="1.1" id="Ebene_1" xmlns="http://www.w3.org/2000/svg" xmlns:xlink="http://www.w3.org/1999/xlink" x="0px" y="0px"
	 viewBox="0 0 459.4 115.5" style="enable-background:new 0 0 459.4 115.5;" xml:space="preserve">
<g transform="matrix(1.08943,0,0,1.28207,32.3744,323.225)">
	<path d="M296.6-164.8c42.5-17.7,63.7-46.8,56.3-67.2c-1.4-4-5.5-11.8-18.9-18.9c1.3,7.6,1.7,17.2-0.3,27.9
		C328.1-192.5,306.3-172.7,296.6-164.8z"/>
	<path d="M307.5-164.3c10.4-3.6,19.4-5.2,25.7-5.9c10.9-1.3,26.6-3,41.3,4c1.5,0.7,2.7,1.4,3.4,1.8c2-3.2,21.5-36.7,1.7-64.1
		c-5.1-7-11.7-12-17.7-15.6c3.4,11.6,2.2,20.6,0.9,25.9c-5.3,21.5-24.9,35-37,43.3C318.4-170,312-166.5,307.5-164.3z"/>
	<path d="M290.7-163.9c29.3-25.4,40.8-52.8,29.7-67.5c-2.1-2.8-5.7-6-12.2-8.6c1.3,9,2,21.4-0.9,35.9
		C303.8-186.3,296.4-172.6,290.7-163.9z"/>
	<path d="M11.4-177.9h9.9c-1.4,4.7-4.2,8.2-8.3,10.7c-4,2.6-9.2,3.8-15.3,3.8c-7.6,0.1-13.4-2-17.5-6.2c-4.2-4-6.4-9.6-6.4-17.2
		c0-7.1,2-12.7,6.1-16.7c4.1-4.1,10-6.1,17.5-6.1c7.9,0,13.9,2,18.3,6c4.2,4.1,6.4,9.8,6.4,17.2v1.9c0,0.5-0.1,0.9-0.2,1.1h-34
		c0.1,3.6,1.1,6.1,2.9,7.7c1.7,1.8,4.3,2.6,7.6,2.6c2.3,0,4.1-0.3,5.7-1.1c0.4-0.1,0.8-0.3,1.1-0.6c0.3-0.2,0.7-0.6,1.1-0.9
		c0.1-0.3,0.6-0.7,1.4-1.3C8.7-177.6,9.9-177.9,11.4-177.9z M-12.1-191h20c-0.2-3-1.2-5.2-2.7-6.7c-1.7-1.6-4.1-2.3-7.2-2.3
		c-2.9,0-5.3,0.7-7.2,2.3C-11.1-196-12-193.8-12.1-191z"/>
	<path d="M69.9-164.2H56.3v-28.4c0-2.6-0.9-4.6-2.8-5.8c-1.9-1.3-4-1.9-6.4-1.9c-2.4,0-4.5,0.6-6.4,1.9c-1.8,1.2-2.7,3.2-2.7,5.8
		v28.4H24.3v-26.1c0-7.5,2.3-12.6,6.9-15.2c4.7-2.6,9.9-4,15.5-4.2c3,0,6,0.2,8.8,0.9c2.8,0.5,5.5,1.6,7.9,3.3
		c1.9-1.4,4.2-2.5,6.9-3.2c2.7-0.6,5.5-0.9,8.4-1c5.7,0,11.1,1.3,15.9,3.8s7.2,7.7,7.2,15.5v26.1H95c-1.9,0-3.5-0.5-4.8-1.6
		c-1.2-1-1.8-2.4-1.8-4v-22.8c0-2.6-1-4.6-2.9-5.8c-1.8-1.3-4-1.9-6.4-1.9c-2.4,0-4.5,0.6-6.4,1.9c-1.8,1.2-2.8,3.2-2.8,5.8
		L69.9-164.2L69.9-164.2z"/>
	<path d="M119.1-216.1v13.4c1.4-2.1,3.5-3.8,6.3-5.2c2.4-1.1,5.2-1.6,8.7-1.6c6.1,0,11.3,2.1,15.2,6.5c3.9,4.4,5.9,9.9,5.9,16.9
		c0,6.9-1.9,12.6-5.9,16.9c-2,2.1-4.6,3.7-8,4.6c-3.4,0.9-6.8,1.4-10,1.4c-6.4,0-12.2-1.4-17.5-4.2c-5.3-2.8-8-8.2-8-16.1v-38.2h6.7
		c1.9,0,3.4,0.6,4.7,1.7C118.4-219,119.1-217.7,119.1-216.1z M141.5-186.8c0-4-0.9-7.1-2.9-9.4c-1.9-2.3-4.6-3.5-8-3.5
		c-3.6,0-6.4,1.1-8.4,3.3c-1.9,2.3-2.9,5.5-2.9,9.5c0,4.7,0.9,8.2,2.7,10.2c2,2.4,4.7,3.5,8.3,3.5c3.7,0,6.5-1.1,8.4-3.5
		C140.6-178.9,141.5-182.3,141.5-186.8z"/>
	<path d="M187.7-186.6c-1.8,0.7-4.4,1.5-7.6,2.2c-3,0.5-4.5,0.7-4.5,0.7c-2.4,0.6-4.1,1.3-5.1,2.2c-0.9,1.2-1.4,2.4-1.4,3.7
		c0,1.6,0.6,3,1.8,4c1.2,0.9,2.8,1.3,5.1,1.3c3.6,0,6.5-0.9,8.7-2.6c2-1.8,3.1-4.2,3.1-7.3L187.7-186.6L187.7-186.6z M190.9-165.9
		c-2.7,1.2-5.6,2-8.8,2.2c-3,0.2-5.7,0.4-8.2,0.4c-4.7,0-8.8-1.1-12.4-3.3c-3.5-2.2-5.3-5.8-5.3-10.8c0-4.7,1.6-8,4.8-10
		c3.2-2.1,7.3-3.4,12.3-4c0.7,0,1.5-0.1,2.4-0.2c0.9-0.2,1.9-0.3,3.1-0.4c5.7-0.7,8.7-2.1,8.7-4.4c0-1.6-1-2.8-3-3.3
		c-2.1-0.5-3.9-0.7-5.6-0.7c-1.8,0-3.5,0.2-4.9,0.7c-1.4,0.4-2.5,1.3-3.1,2.5h-13.2c0.5-3.4,2.3-6.3,5.6-8.5
		c3.5-2.6,8.6-3.8,15.1-3.8c7.3,0,12.9,1,16.5,3.2c3.8,2.2,5.7,5.3,5.7,9.4v15.2c0,4.5-1,8-2.9,10.4
		C195.8-168.9,193.5-167.1,190.9-165.9z"/>
	<path d="M202.5-164.2v-21.6c0-4.4,0.7-8,2.2-11c1.5-2.9,3.6-5.3,6.3-7.1c2.5-1.6,5.5-2.9,8.8-3.7c3.3-0.7,6.8-1.2,10.3-1.2h2v11.9
		h-4.5c-3.8,0-6.7,0.7-8.4,2.3c-1.8,1.6-2.7,4-2.7,7.3v23L202.5-164.2L202.5-164.2z"/>
	<path d="M269.7-177.9h9.9c-1.4,4.7-4.2,8.2-8.3,10.7c-4,2.6-9.2,3.8-15.3,3.8c-7.6,0-13.4-2.1-17.5-6.3c-4.2-4-6.4-9.6-6.4-17.2
		c0-7.1,2-12.7,6.1-16.7c4.1-4.1,10-6.1,17.5-6.1c7.9,0,13.9,2,18.3,6c2.4,2.5,4.1,5.3,5.1,8.6h-13.8c-0.6-1.1-1.3-2-1.9-2.6
		c-1.7-1.5-4.1-2.3-7.2-2.3c-2.9,0-5.3,0.7-7.2,2.3c-2.3,2.2-3.5,5.9-3.5,11c0,5.1,1.2,8.7,3.5,10.8c1.7,1.8,4.3,2.6,7.6,2.6
		c2.3,0,4.1-0.3,5.7-1.1c0.4-0.1,0.8-0.3,1.1-0.6c0.3-0.2,0.7-0.6,1.1-0.9c0.2-0.3,0.7-0.7,1.5-1.3
		C267-177.6,268.2-177.9,269.7-177.9z"/>
</g>
</svg>
