<?xml version="1.0" encoding="UTF-8"?>
<svg width="151px" height="40px" viewBox="0 0 151 40" version="1.1" xmlns="http://www.w3.org/2000/svg" xmlns:xlink="http://www.w3.org/1999/xlink">
    <title>embarc_logo</title>
    <defs>
        <filter id="filter-1">
            <feColorMatrix in="SourceGraphic" type="matrix" values="0 0 0 0 0.000000 0 0 0 0 0.000000 0 0 0 0 0.000000 0 0 0 1.000000 0"></feColorMatrix>
        </filter>
    </defs>
    <g id="LAYOUT-Desktop" stroke="none" stroke-width="1" fill="none" fill-rule="evenodd">
        <g id="embarc_logo" transform="translate(-227.000000, -678.000000)" filter="url(#filter-1)">
            <g transform="translate(227.000000, 678.000000)">
                <rect id="BG" x="0" y="0" width="151" height="40"></rect>
                <path d="M13.9208277,32.5422865 L17.5220751,32.5422865 C17.0715517,34.3781829 15.9929784,35.9683198 14.4981756,37.0004113 C13.0096175,38.0696364 11.1382873,38.6031162 8.88418504,38.6008581 C6.14949115,38.6008581 4.01447352,37.7411668 2.47913216,36.0217986 C0.943790795,34.3500018 0.176120113,31.9578372 0.176120113,28.845305 C0.176120113,25.8732218 0.920399167,23.5512818 2.40895727,21.879485 C3.94429864,20.1623821 6.07931627,19.3026979 8.81401016,19.3004326 C11.6933068,19.3004326 13.926144,20.136331 15.5125216,21.8081278 C17.047863,23.5274961 17.8155337,25.9196606 17.8155337,28.9846214 L17.8155337,29.7525606 C17.8261874,29.919477 17.8011011,30.0867904 17.742169,30.2418669 L5.30207628,30.2418669 C5.34885954,31.6826024 5.70823999,32.7506948 6.38021765,33.4461441 C7.00328555,34.1891649 7.93895064,34.5606753 9.18721294,34.5606753 C9.90973546,34.5823646 10.6261673,34.4143221 11.2733208,34.071369 C11.4208844,34.0228488 11.5561447,33.9391845 11.668852,33.8267158 L12.0643831,33.4427462 C12.1960973,33.2106984 12.3817673,33.0187616 12.6034538,32.8854806 C13.0004393,32.6332111 13.4593566,32.5136568 13.9208277,32.5422865 Z M5.28293768,27.105549 L12.6194026,27.105549 C12.5215831,25.8505687 12.1855943,24.9217927 11.6114361,24.319221 C10.9926213,23.6713431 10.1079925,23.3474041 8.95754969,23.3474041 C8.00874799,23.306717 7.0815259,23.6558324 6.36745859,24.3226189 C5.69335441,24.9727621 5.3329107,25.9015381 5.28612745,27.1089469 L5.28293768,27.105549 Z" id="Shape" fill="#BDA891" fill-rule="nonzero"></path>
                <path d="M34.6653078,38.5931518 L30.354293,38.5931518 L30.354293,27.2847398 C30.354293,26.2210291 30.0517094,25.4448662 29.4465421,24.9562511 C28.8748499,24.4802661 28.1567165,24.2210397 27.4161311,24.2233285 C26.6835953,24.2169925 25.9732177,24.4771178 25.4145885,24.9562511 C24.8308053,25.4491902 24.5399829,26.2253531 24.5421213,27.2847398 L24.5421213,38.5899088 L20.170162,38.5899088 L20.170162,28.2122436 C20.170162,25.1983967 20.9100485,23.181238 22.3898215,22.1607676 C23.8379353,21.15589 25.5362606,20.5827811 27.2910347,20.5067097 C28.2380597,20.5029778 29.1822422,20.6118271 30.1041002,20.8311292 C31.0324482,21.0599379 31.890681,21.5166273 32.6028208,22.1607676 C33.2371325,21.5807423 33.9974956,21.1597021 34.8224803,20.9316629 C35.6931611,20.6878117 36.5885352,20.5452765 37.4912037,20.5067097 C39.2913029,20.4976121 41.0533552,21.0304845 42.552797,22.0375328 C44.0967219,23.0580032 44.8686844,25.1194832 44.8686844,28.2219726 L44.8686844,38.5996378 L42.681101,38.5996378 C42.1050965,38.6198505 41.5481176,38.3896403 41.1510757,37.9672488 C40.7494689,37.5270418 40.5361801,36.94422 40.5576696,36.3457387 L40.5576696,27.2847398 C40.5576696,26.2210291 40.255086,25.4448662 39.6499187,24.9562511 C38.4680437,23.9779084 36.7677641,23.9779084 35.5858891,24.9562511 C34.9807219,25.4448662 34.6781382,26.2210291 34.6781382,27.2847398 L34.6781382,38.5899088 L34.6653078,38.5931518 Z" id="Path" fill="#BDA891" fill-rule="nonzero"></path>
                <path d="M52.3274123,16.9489025 L52.3274123,22.7348051 C52.9244493,21.7732804 53.7525971,20.9986284 54.7261657,20.4910038 C57.8543043,19.0084145 61.5269466,19.8590237 63.7895998,22.5901575 C65.2890976,24.4717519 66.0388465,26.9072406 66.0388465,29.8966236 C66.0388465,32.8860066 65.2890976,35.3214953 63.7895998,37.2030896 C62.9776851,38.1614279 61.9237072,38.8520545 60.7529507,39.1928757 C59.5258302,39.5945544 58.249535,39.8014134 56.9654452,39.8067458 C54.6322421,39.8251443 52.3341616,39.2029151 50.2941199,38.0004152 C48.245323,36.7961949 47.2209246,34.4818338 47.2209246,31.0573321 L47.2209246,14.4757819 L49.7691849,14.4757819 C50.4335352,14.4629162 51.0770966,14.7218719 51.5665888,15.1990197 C52.05254,15.6332243 52.3313638,16.2745148 52.3274123,16.9489025 Z M60.8725951,29.6778882 C60.8725951,27.9421175 60.4982354,26.5920735 59.749594,25.6277564 C59.0172584,24.6226956 57.8721558,24.0561188 56.6763988,24.107193 C55.2765722,24.107193 54.2023382,24.5893515 53.4536968,25.5536686 C52.7028404,26.5673776 52.3285197,27.9421175 52.3307249,29.6778882 C52.3307249,31.7029542 52.6806913,33.1741257 53.3806046,34.091403 C54.1373374,35.1090164 55.3106161,35.67545 56.5302144,35.6119664 C57.927826,35.6119664 59.00206,35.1051119 59.7529164,34.091403 C60.5037727,33.077694 60.876986,31.6065225 60.8725951,29.6778882 Z" id="Shape" fill="#BDA891" fill-rule="nonzero"></path>
                <path d="M82.1750741,37.4841894 C81.0817509,37.9934822 79.9058497,38.3120388 78.7004113,38.4254902 C77.4726971,38.5410289 76.3886023,38.5987983 75.4481269,38.5987983 C73.6995738,38.6362889 71.9793011,38.1630356 70.5071563,37.2395191 C69.0964432,36.333333 68.3910867,34.8358605 68.3910867,32.7471016 C68.3910867,30.796536 69.0315829,29.4032749 70.3125752,28.5673182 C71.7975751,27.659322 73.4716186,27.0880423 75.2118498,26.8954048 C75.528415,26.8893052 75.8436875,26.8540345 76.1534834,26.7900607 C76.518323,26.7186986 76.9387572,26.6643274 77.4078367,26.6167526 C79.7080635,26.3381004 80.8581769,25.7343539 80.8581769,24.8055132 C80.8581769,24.1100153 80.4527995,23.6569223 79.6420449,23.446234 C78.9140509,23.2489758 78.1631815,23.1439062 77.4078367,23.1335998 C76.7436141,23.1241121 76.0820872,23.218175 75.4481269,23.412252 C74.9007115,23.5777354 74.4470644,23.9562631 74.1937736,24.458897 L68.9227101,24.458897 C69.1244754,23.0293827 69.9186036,21.7439741 71.118697,20.904382 C72.5294101,19.8373479 74.5412399,19.3026981 77.1541863,19.3004326 C80.0798524,19.3004326 82.2804722,19.7421984 83.7560456,20.6257298 C85.1910826,21.4155949 86.0656231,22.9133405 86.0319498,24.5234627 L86.0319498,30.8645 C86.0319498,32.7221814 85.6532115,34.1732119 84.8957351,35.2175914 C84.2138946,36.1987681 83.2739695,36.981825 82.1750741,37.4841894 Z M80.9207208,28.9139344 C79.9353769,29.3164364 78.9109274,29.6204234 77.8630175,29.8212532 L76.0596675,30.161073 C75.3162656,30.302348 74.617449,30.6132134 74.0200404,31.0683918 C73.6782171,31.5108243 73.4862763,32.0466491 73.4710437,32.6009791 C73.4408732,33.2309689 73.6949194,33.8421697 74.1659763,34.2728924 C74.7605093,34.6816621 75.4805258,34.8783983 76.2056034,34.8301969 C77.6695946,34.8301969 78.819708,34.4586606 79.6559435,33.715588 C80.5113928,32.9246699 80.9697743,31.8070392 80.9102968,30.6572099 L80.9207208,28.9139344 Z" id="Shape" fill="#DE2027" fill-rule="nonzero"></path>
                <path d="M87.213643,38.6008653 L87.213643,29.8258388 C87.1690588,28.2960752 87.4466186,26.775032 88.0260813,25.3736326 C88.5279188,24.2239129 89.2967128,23.2284475 90.2602866,22.4806938 C91.2032245,21.7763445 92.2636113,21.2685985 93.3850493,20.9844606 C94.5963117,20.6651986 95.8398639,20.5047581 97.0878931,20.5067097 L97.7940895,20.5067097 L97.7940895,25.3371391 L96.1723377,25.3371391 C94.807858,25.3371391 93.797518,25.6545219 93.1413179,26.2892875 C92.4851177,26.9240531 92.155976,27.9193302 92.1538928,29.2751188 L92.1538928,38.5942301 L87.213643,38.6008653 Z" id="Path" fill="#DE2027" fill-rule="nonzero"></path>
                <path d="M114.128707,32.5422914 L117.788131,32.5422914 C117.329924,34.3781884 116.232955,35.9683259 114.712657,37.0004179 C113.198711,38.0696433 111.295464,38.6031234 109.002916,38.6008653 C106.221581,38.6008653 104.050149,37.7411736 102.488621,36.0218047 C100.927094,34.3500073 100.14633,31.9578419 100.14633,28.8453085 C100.14633,25.8732242 100.903303,23.5512834 102.417249,21.879486 C103.978777,20.1623824 106.150209,19.3026979 108.931545,19.3004326 C111.85995,19.3004326 114.130869,20.1363313 115.744304,21.8081288 C116.622791,22.8303713 117.273265,24.0444265 117.648632,25.3623972 L112.516354,25.3623972 C112.326458,24.9750464 112.078975,24.6217798 111.783171,24.3158249 C111.149476,23.6702121 110.247597,23.3474056 109.077532,23.3474056 C108.112548,23.3067185 107.169512,23.6558341 106.443266,24.3226208 C105.565177,25.2513971 105.126132,26.7838781 105.126132,28.9200637 C105.126132,31.0562493 105.565177,32.5660772 106.443266,33.4495473 C107.07696,34.1925684 108.028584,34.5640789 109.298136,34.5640789 C110.032982,34.5857682 110.761633,34.4177257 111.419824,34.0747724 C111.56995,34.0263623 111.70754,33.9426842 111.822101,33.8301191 L112.224378,33.4461494 C112.395347,33.2348731 112.591616,33.0475731 112.808329,32.8888836 C113.201674,32.6282623 113.664504,32.506772 114.128707,32.5422914 L114.128707,32.5422914 Z" id="Path" fill="#DE2027" fill-rule="nonzero"></path>
                <polyline id="Path" fill="#DE2027" fill-rule="nonzero" points="136.606053 39.8071423 136.53627 0 118.964252 39.3985646"></polyline>
                <polyline id="Path" fill="#DE2027" fill-rule="nonzero" points="138.958293 6.0313852 138.958293 38.6008653 150.719495 38.5975027"></polyline>
            </g>
        </g>
    </g>
</svg>