<?xml version="1.0" encoding="utf-8"?>
<!-- Generator: Adobe Illustrator 25.2.0, SVG Export Plug-In . SVG Version: 6.00 Build 0)  -->
<svg version="1.1" id="Ebene_1" xmlns="http://www.w3.org/2000/svg" xmlns:xlink="http://www.w3.org/1999/xlink" x="0px" y="0px"
	 viewBox="0 0 459.4 115.5" style="enable-background:new 0 0 459.4 115.5;" xml:space="preserve">
<path d="M43.1,97.5h11.3c-1.4,5.4-4.8,10.1-9.5,13.1c-4.7,3.1-10.5,4.7-17.6,4.7c-8.6,0-15.3-2.5-20.1-7.6C2.4,102.9,0,95.8,0,86.7
	C0,78,2.3,71.1,7,66.2c4.8-5.1,11.5-7.6,20.1-7.6c9,0,16,2.5,21,7.4c4.8,5.1,7.2,12.1,7.2,21.1v2.3c0,0.5,0,1-0.2,1.4h-39
	c0.1,4.2,1.3,7.4,3.4,9.4c2,2.2,4.9,3.3,8.8,3.3c2.3,0.1,4.5-0.4,6.5-1.4c0.5-0.1,0.9-0.4,1.2-0.7l1.2-1.1c0.4-0.7,1-1.2,1.7-1.6
	C40.2,97.8,41.6,97.5,43.1,97.5z M16,81.5h23c-0.3-3.7-1.4-6.4-3.2-8.2c-1.9-1.9-4.7-2.9-8.3-2.9c-3-0.1-5.9,0.9-8.1,2.9
	C17.3,75.3,16.2,78,16,81.5L16,81.5z"/>
<path d="M61.2,114.7l0-31.5c0-9.5,2.4-15.9,7.1-19.1c4.7-3.2,10.1-5,15.6-5.2l0.2,0c3.1,0,6.1,0.3,8.8,1c2.8,0.7,5.3,1.9,7.3,3.6
	l0.4,0.3l0.4-0.3c1.7-1.4,3.9-2.6,6.4-3.3c2.5-0.7,5.2-1.2,8.5-1.4l0.2,0c5.6,0,11.2,1.7,16,4.8c4.9,3.3,7.4,9.9,7.4,19.5l0,31.5
	h-7.5c-1.9,0-3.7-0.8-5-2.1c-1.3-1.4-2-4.2-2-6.3v-26c0-3.1-0.9-5.3-2.6-6.7c-1.7-1.4-3.8-2.1-6-2.1c-2.2,0-4.3,0.8-6,2.1
	c-1.8,1.4-2.6,3.6-2.6,6.7l0,34.2l-0.5,0.1H93l0-34.3c0-3.1-0.9-5.3-2.6-6.7c-1.7-1.4-3.8-2.1-6-2.1h-0.1c-2.1,0-4.2,0.8-5.8,2.1
	c-1.7,1.4-2.5,3.6-2.5,6.7l0,34.4H61.2z"/>
<path d="M161.7,50.6V67c1.8-2.7,4.3-4.9,7.2-6.4c9.4-4.2,20.5-1.8,27.3,6c4.5,5.3,6.8,12.2,6.8,20.7s-2.3,15.4-6.8,20.7
	c-2.4,2.7-5.6,4.7-9.1,5.6c-3.7,1.1-7.5,1.7-11.4,1.7c-7,0.1-13.9-1.7-20.1-5.1c-6.2-3.4-9.2-10-9.2-19.7v-47h7.7c2,0,3.9,0.7,5.4,2
	C160.9,46.9,161.7,48.7,161.7,50.6z M187.4,86.7c0-4.9-1.1-8.7-3.4-11.5c-2.2-2.8-5.7-4.5-9.2-4.3c-4.2,0-7.4,1.4-9.7,4.1
	c-2.3,2.9-3.4,6.8-3.4,11.7c0,5.7,1.1,9.9,3.2,12.5c2.3,2.9,5.8,4.5,9.5,4.3c4.2,0,7.4-1.4,9.7-4.3
	C186.3,96.3,187.5,92.1,187.4,86.7z"/>
<path d="M265.3,114.4V86.6c-0.1-4.6,0.7-9.2,2.6-13.4c1.6-3.5,4.1-6.5,7.1-8.7c3-2.1,6.4-3.7,10-4.5c3.9-1,7.9-1.4,11.9-1.4h2.3
	v14.6H294c-4.4,0-7.6,1-9.7,2.9s-3.2,4.9-3.2,9v29.4L265.3,114.4z"/>
<path d="M346.3,97.5h11.3c-1.4,5.4-4.8,10.1-9.5,13.1c-4.7,3.1-10.5,4.7-17.6,4.7c-8.6,0-15.3-2.5-20.1-7.6
	c-4.8-4.9-7.2-12-7.2-21.1c0-8.7,2.3-15.6,7-20.5c4.8-5.1,11.5-7.6,20.1-7.6c9,0,16,2.5,21,7.4c2.7,3,4.7,6.6,5.9,10.5h-15.8
	c-0.6-1.1-1.3-2.2-2.3-3.1c-2-1.9-4.7-2.8-8.3-2.8c-3-0.1-5.9,0.9-8.1,2.9c-2.7,2.7-4.1,7.2-4.1,13.5s1.4,10.7,4.1,13.3
	c2,2.2,4.9,3.3,8.8,3.3c2.3,0.1,4.5-0.4,6.5-1.4c0.5-0.1,0.9-0.4,1.2-0.7l1.2-1.1c0.5-0.6,1.1-1.2,1.8-1.6
	C343.4,97.8,344.9,97.4,346.3,97.5z"/>
<path d="M181.1,108.7"/>
<polygon points="459.4,114.3 421.9,19.1 421.9,114.3 "/>
<polygon points="415.2,114.3 415,0 362.3,114.3 "/>
<path d="M237.4,114.9c-13.2,1.7-19.3-0.8-23.6-3.5c-4.1-2.7-6.1-7.1-6.1-13.2c0-16,15.3-16.3,26-18c5.7-0.9,9.9-2.6,9.9-5.3
	c0-2-1.3-4.9-9.9-4.9c-7,0-8.5,2.4-9.2,3.9h-15.2c0.6-4.2,2.9-8,6.3-10.5c4.1-3.1,9.8-4.7,17.4-4.7c8.4,0,14.8,1.3,19,3.9
	c4.1,2.3,6.6,6.7,6.6,11.5c0,0,0,5,0,18.7S250.6,113.1,237.4,114.9z M243.8,86.9c-8.5,4.1-21.4,2.2-21.4,10.2c0,6.9,5.8,7.4,7.9,7.2
	c4.2,0,7.5-1.1,9.9-3.3c2.5-2.3,3.5-5.4,3.6-9V86.9z"/>
</svg>
