<?xml version="1.0" encoding="utf-8"?>
<!-- Generator: Adobe Illustrator 25.2.0, SVG Export Plug-In . SVG Version: 6.00 Build 0)  -->
<svg version="1.1" id="Ebene_1" xmlns="http://www.w3.org/2000/svg" xmlns:xlink="http://www.w3.org/1999/xlink" x="0px" y="0px"
	 viewBox="0 0 151 40" style="enable-background:new 0 0 151 40;" xml:space="preserve">
<path d="M14.2,33.9h3.7c-0.5,1.8-1.6,3.3-3.1,4.3c-1.5,1-3.5,1.6-5.8,1.6c-2.8,0-5-0.8-6.6-2.5c-1.6-1.6-2.4-3.9-2.4-7
	c0-2.9,0.8-5.1,2.3-6.8C3.9,21.9,6.1,21,8.9,21c3,0,5.3,0.8,6.9,2.4c1.6,1.7,2.4,4,2.4,7v0.7c0,0.2,0,0.3-0.1,0.5H5.3
	c0,1.4,0.4,2.4,1.1,3.1c0.6,0.7,1.6,1.1,2.9,1.1c0.7,0,1.5-0.1,2.2-0.5c0.2,0,0.3-0.1,0.4-0.2l0.4-0.4c0.1-0.2,0.3-0.4,0.6-0.5
	C13.3,33.9,13.7,33.8,14.2,33.9z M5.3,28.6h7.6c-0.1-1.2-0.4-2.1-1-2.7c-0.6-0.6-1.6-0.9-2.7-0.9c-1,0-1.9,0.3-2.7,0.9
	C5.7,26.5,5.4,27.4,5.3,28.6L5.3,28.6z"/>
<path d="M35.3,39.4h-4.4V27.9c0-1.1-0.3-1.9-0.9-2.4c-0.6-0.5-1.3-0.7-2.1-0.7c-0.8,0-1.5,0.3-2.1,0.7c-0.6,0.5-0.9,1.3-0.9,2.4
	v11.5h-4.5V28.8c0-3.1,0.8-5.1,2.3-6.1c1.5-1,3.2-1.6,5-1.7c1,0,1.9,0.1,2.9,0.3c1,0.2,1.8,0.7,2.6,1.4c0.7-0.6,1.4-1,2.3-1.2
	c0.9-0.2,1.8-0.4,2.7-0.4c1.8,0,3.7,0.5,5.2,1.6c1.6,1,2.4,3.1,2.4,6.3v10.5h-2.2c-0.6,0-1.2-0.2-1.6-0.6c-0.4-0.4-0.6-1-0.6-1.6
	v-9.2c0-1.1-0.3-1.9-0.9-2.4c-1.2-1-3-1-4.2,0c-0.6,0.5-0.9,1.3-0.9,2.4L35.3,39.4L35.3,39.4z"/>
<path d="M53.1,18.4v5.4c0.6-0.9,1.4-1.6,2.4-2.1c3.1-1.4,6.7-0.6,9,2c1.5,1.8,2.2,4,2.2,6.8s-0.7,5.1-2.2,6.8
	c-0.8,0.9-1.8,1.5-3,1.9c-1.2,0.4-2.5,0.6-3.8,0.6c-2.3,0-4.6-0.6-6.6-1.7c-2-1.1-3-3.3-3-6.5V16.1h2.5c0.7,0,1.3,0.2,1.8,0.7
	C52.9,17.2,53.2,17.8,53.1,18.4z M61.6,30.3c0-1.6-0.4-2.9-1.1-3.8c-0.7-0.9-1.9-1.5-3-1.4c-1.4,0-2.5,0.5-3.2,1.4
	c-0.7,0.9-1.1,2.2-1.1,3.8c0,1.9,0.3,3.3,1,4.1c0.8,0.9,1.9,1.5,3.1,1.4c1.4,0,2.4-0.5,3.2-1.4C61.3,33.4,61.6,32.1,61.6,30.3z"/>
<path d="M81.6,38.6c-1,0.5-2.2,0.8-3.3,0.9c-1.2,0.1-2.2,0.2-3.1,0.2c-1.7,0-3.3-0.4-4.7-1.3c-1.3-0.9-2-2.3-2-4.4
	c0-1.9,0.6-3.2,1.8-4.1c1.4-0.9,3-1.4,4.6-1.6c0.3,0,0.6,0,0.9-0.1c0.3-0.1,0.7-0.1,1.2-0.2c2.2-0.3,3.3-0.9,3.3-1.8
	c0-0.7-0.4-1.1-1.2-1.3c-0.7-0.2-1.4-0.3-2.1-0.3c-0.6,0-1.3,0.1-1.9,0.3c-0.5,0.2-0.9,0.5-1.2,1h-5c0.2-1.4,0.9-2.6,2.1-3.4
	c1.3-1,3.2-1.6,5.7-1.6c2.8,0,4.9,0.4,6.3,1.3c1.4,0.8,2.2,2.2,2.2,3.8v6.1c0,1.8-0.4,3.2-1.1,4.2C83.5,37.4,82.6,38.2,81.6,38.6z
	 M80.4,30.3c-0.9,0.4-1.9,0.7-2.9,0.9l-1.7,0.3c-0.7,0.1-1.4,0.4-1.9,0.9c-0.3,0.4-0.5,0.9-0.5,1.5c0,0.6,0.2,1.2,0.7,1.6
	c0.6,0.4,1.2,0.6,1.9,0.5c1.4,0,2.5-0.4,3.3-1.1c0.8-0.8,1.2-1.8,1.2-3L80.4,30.3z"/>
<path d="M87.3,39.4v-8.7c0-1.5,0.2-3,0.9-4.4c0.5-1.1,1.3-2.1,2.4-2.9c1-0.7,2.1-1.2,3.3-1.5c1.3-0.3,2.6-0.5,3.9-0.5h0.7v4.8h-1.7
	c-1.4,0-2.5,0.3-3.2,0.9c-0.7,0.6-1,1.6-1,3v9.2L87.3,39.4z"/>
<path d="M114.1,33.9h3.7c-0.5,1.8-1.6,3.3-3.1,4.3c-1.5,1-3.5,1.6-5.8,1.6c-2.8,0-5-0.8-6.6-2.5c-1.6-1.6-2.4-3.9-2.4-7
	c0-2.9,0.8-5.1,2.3-6.8c1.6-1.7,3.8-2.5,6.6-2.5c3,0,5.3,0.8,6.9,2.4c0.9,1,1.6,2.2,1.9,3.4h-5.2c-0.2-0.4-0.4-0.7-0.7-1
	c-0.6-0.6-1.6-0.9-2.7-0.9c-1,0-1.9,0.3-2.7,0.9c-0.9,0.9-1.3,2.4-1.3,4.5s0.4,3.5,1.3,4.4c0.6,0.7,1.6,1.1,2.9,1.1
	c0.7,0,1.5-0.1,2.2-0.5c0.2,0,0.3-0.1,0.4-0.2l0.4-0.4c0.2-0.2,0.4-0.4,0.6-0.5C113.1,33.9,113.6,33.8,114.1,33.9z"/>
<path d="M59.7,37.5"/>
<polyline points="136.8,39.9 136.7,1.7 119.3,39.5 "/>
<polyline points="138.5,8 138.5,39.9 151,39.9 "/>
</svg>
