<?xml version="1.0" encoding="utf-8"?>
<!-- Generator: Adobe Illustrator 25.2.3, SVG Export Plug-In . SVG Version: 6.00 Build 0)  -->
<svg version="1.1" id="Logo" xmlns="http://www.w3.org/2000/svg" xmlns:xlink="http://www.w3.org/1999/xlink" x="0px" y="0px"
	 width="1005.69458px" height="180px" viewBox="0 0 1005.69458 180" style="enable-background:new 0 0 1005.69458 180;"
	 xml:space="preserve">
<style type="text/css">
	.st0{fill:#FE8F11;}
	.st1{fill:#000099;}
</style>
<g id="BlauOrange">
	<path id="Impuls_1_" class="st0" d="M14.18718,102.85714h241.18228V74.48276H14.18718C6.35182,74.48276,0,80.83457,0,88.66994
		v0.00003C0,96.50533,6.35182,102.85714,14.18718,102.85714z"/>
	<path id="Wortmarke_1_" class="st1" d="M559.42804,51.96059c28.1532,0,50.97589,22.8227,50.97589,50.97592v0.00005v74.40334
		h-31.92114v-74.40334v-0.00002c0-11.3072-9.16632-20.4735-20.47351-20.4735H508.4335v94.87685h-31.92117V51.96059H559.42804z
		 M359.82263,30.50246h91.15274V0H358.4039c-28.69702,0-51.96054,23.26352-51.96054,51.96055v0.00009
		c0,14.33227,7.22177,27.30883,16.60602,36.70932c-9.38425,9.40048-16.60602,22.37704-16.60602,36.70931v0.00009
		c0,28.69698,23.26352,51.96054,51.96054,51.96054h92.57147v-30.50247h-91.15274c-11.85098,0-21.4581-9.60713-21.4581-21.45812l0,0
		c0-11.85104,9.60712-21.45813,21.4581-21.45813h60.65027V73.41872h-60.65027c-11.85098,0-21.4581-9.60714-21.4581-21.45813l0,0
		C338.36453,40.10956,347.97165,30.50246,359.82263,30.50246z M778.03967,86.01929
		c7.92261-9.12036,14.1377-21.02919,14.1377-34.05865v-0.00009C792.17737,23.26352,768.91376,0,740.2168,0h-99.6651v116.33498
		h31.9212V30.50246h66.32513c11.85101,0,21.45813,9.6071,21.45813,21.45813l0,0c0,11.85099-9.60712,21.45813-21.45813,21.45813
		h-34.5813v30.50246h39.90149c11.85101,0,21.45813,9.60709,21.45813,21.45813l0,0c0,11.85098-9.60712,21.45811-21.45813,21.45811
		H640.5517v30.50247h104.98535c28.6969,0,51.96051-23.26357,51.96051-51.96055v-0.00009
		C797.49756,109.64655,789.08594,95.54781,778.03967,86.01929z M973.77338,0v127.7734c0,11.99789-9.7262,21.72414-21.72412,21.72414
		l0,0c-11.99786,0-21.72412-9.72626-21.72412-21.72414V51.96059h-31.9212v75.81282c0,11.99789-9.72626,21.72414-21.72412,21.72414
		l0,0c-11.99792,0-21.72412-9.72626-21.72412-21.72414V0h-31.9212v126.35472c0,29.6275,24.01776,53.64528,53.6452,53.64528h0.00018
		c14.6889,0,27.99689-7.32462,37.68463-16.88869C924.05231,172.67538,937.36029,180,952.04919,180h0.00018
		c29.62744,0,53.6452-24.01778,53.6452-53.64528V0H973.77338z"/>
</g>
</svg>
