<?xml version="1.0" encoding="utf-8"?>
<!-- Generator: Adobe Illustrator 25.2.0, SVG Export Plug-In . SVG Version: 6.00 Build 0)  -->
<svg version="1.1" id="Ebene_1" xmlns="http://www.w3.org/2000/svg" xmlns:xlink="http://www.w3.org/1999/xlink" x="0px" y="0px"
	 viewBox="0 0 119 40" style="enable-background:new 0 0 119 40;" xml:space="preserve">
<g id="Page-1">
	<g id="innoq-logo--black">
		<polygon id="Path_3_" points="0.1,10.4 6.6,10.4 6.6,37.7 0.1,37.7 		"/>
		<polygon id="Path_2_" points="53.7,37.7 53.7,10.4 47.2,10.4 47.2,27.1 34.7,10.4 31.8,10.4 28.4,10.4 28.4,27.1 16,10.4 
			9.7,10.4 9.7,37.7 16.2,37.7 16.2,21.1 28.7,37.7 29.8,37.7 33.5,37.7 35,37.7 35,21.1 47.4,37.7 		"/>
		<path id="Shape_3_" d="M70.4,16.1c4.4,0,7.6,3.2,7.6,7.9s-3.2,7.9-7.6,7.9c-4.5,0-7.6-3.2-7.6-7.9S65.9,16.1,70.4,16.1 M70.4,9.8
			c-8.4,0-14.4,6-14.4,14.2s6,14.2,14.4,14.2c8.4,0,14.4-6,14.4-14.2S78.8,9.8,70.4,9.8"/>
		<path id="Shape_2_" d="M101,16.1c4.4,0,7.6,3.2,7.6,7.9c0,0.9-0.1,1.7-0.3,2.5l-0.9-1.2h-7.1l4.3,5.8c-1,0.5-2.3,0.8-3.6,0.8
			c-4.4,0-7.6-3.2-7.6-7.9C93.4,19.4,96.6,16.1,101,16.1 M101,9.8c-8.4,0-14.4,6-14.4,14.2s6,14.2,14.4,14.2c2.9,0,5.3-0.8,7.4-2.1
			l1.2,1.6h7.7l-4.3-5.8c1.5-2.2,2.4-4.7,2.4-7.8C115.5,15.9,109.5,9.8,101,9.8"/>
	</g>
</g>
</svg>
