<?xml version="1.0" encoding="UTF-8"?>
<svg width="119px" height="40px" viewBox="0 0 119 40" version="1.1" xmlns="http://www.w3.org/2000/svg" xmlns:xlink="http://www.w3.org/1999/xlink">
    <title>innoq_logo</title>
    <defs>
        <filter id="filter-1">
            <feColorMatrix in="SourceGraphic" type="matrix" values="0 0 0 0 0.000000 0 0 0 0 0.000000 0 0 0 0 0.000000 0 0 0 1.000000 0"></feColorMatrix>
        </filter>
    </defs>
    <g id="LAYOUT-Desktop" stroke="none" stroke-width="1" fill="none" fill-rule="evenodd">
        <g id="innoq_logo" transform="translate(-421.000000, -678.000000)" filter="url(#filter-1)">
            <g transform="translate(421.000000, 678.000000)">
                <rect id="BG" x="0" y="0" width="118" height="40"></rect>
                <polygon id="Path" fill="#FFFFFF" fill-rule="nonzero" points="0 11.1761201 5.88060057 11.1761201 5.88060057 38.2268827 1.56690676e-16 38.2268827"></polygon>
                <polygon id="Path" fill="#FFFFFF" fill-rule="nonzero" points="54.1015252 38.2268827 54.1015252 11.1761201 47.6565542 11.1761201 47.6565542 27.7157292 35.2822099 11.1761201 32.4464227 11.1761201 29.0950377 11.1761201 29.0950377 27.7157292 16.7722532 11.1761201 10.585081 11.1761201 10.585081 38.2268827 17.030052 38.2268827 17.030052 21.7387988 29.3528366 38.2268827 30.4355917 38.2268827 34.0963352 38.2268827 35.5915685 38.2268827 35.5915685 21.7387988 47.9143531 38.2268827"></polygon>
                <g id="Group" transform="translate(55.277645, 10.000000)" fill-rule="nonzero">
                    <path d="M14.8240551,6.32525993 C19.2765098,6.32525993 22.4718009,9.52305628 22.4718009,14.1650187 C22.4718009,18.8069812 19.2765098,22.0047775 14.8240551,22.0047775 C10.3192186,22.0047775 7.17630936,18.8069812 7.17630936,14.1650187 C7.17630936,9.52305628 10.3716004,6.32525993 14.8240551,6.32525993 M14.8240551,0.135976678 C6.33820024,0.135976678 0.314290921,6.11895049 0.314290921,14.1650187 C0.314290921,22.211087 6.33820024,28.1940608 14.8240551,28.1940608 C23.30991,28.1940608 29.3338193,22.211087 29.3338193,14.1650187 C29.3338193,6.11895049 23.30991,0.135976678 14.8240551,0.135976678" id="Shape" fill="#FFFFFF"></path>
                    <path d="M45.6769472,6.32525993 C50.1294019,6.32525993 53.3246929,9.52305628 53.3246929,14.1650187 C53.3246929,15.0418338 53.2199293,15.8670716 53.010402,16.640732 L52.1199111,15.4544527 L44.9959835,15.4544527 L49.3436746,21.1795397 C48.2960382,21.6953133 47.0388745,22.0047775 45.729329,22.0047775 C41.2768743,22.0047775 38.0815833,18.8069812 38.0815833,14.1650187 C38.0292014,9.57463364 41.2244925,6.32525993 45.6769472,6.32525993 M45.6769472,0.135976678 C37.1910923,0.135976678 31.167183,6.11895049 31.167183,14.1650187 C31.167183,22.211087 37.1910923,28.1940608 45.6769472,28.1940608 C48.5579473,28.1940608 51.0198928,27.4204004 53.1151657,26.079389 L54.3199475,27.6782872 L62.0200751,27.6782872 L57.672384,21.9016228 C59.1914568,19.7353736 60.0819477,17.208083 60.0819477,14.1650187 C60.1867114,6.11895049 54.1628021,0.135976678 45.6769472,0.135976678" id="Shape" fill="#FF4D67"></path>
                </g>
            </g>
        </g>
    </g>
</svg>