<svg xmlns="http://www.w3.org/2000/svg" xmlns:xlink="http://www.w3.org/1999/xlink" width="4500" zoomAndPan="magnify" viewBox="0 0 3374.88 3374.999861" height="4500" preserveAspectRatio="xMidYMid meet" version="1.0"><defs><g/><clipPath id="78631012cc"><path d="M 0 0.0585938 L 3374.761719 0.0585938 L 3374.761719 3374.9375 L 0 3374.9375 Z M 0 0.0585938 " clip-rule="nonzero"/></clipPath><clipPath id="1ae4472eea"><path d="M 0 1415 L 3374.761719 1415 L 3374.761719 3374.9375 L 0 3374.9375 Z M 0 1415 " clip-rule="nonzero"/></clipPath><clipPath id="608ccaa831"><path d="M 2146.585938 2770.421875 L 3374.761719 2770.421875 L 3374.761719 3374.9375 L 2146.585938 3374.9375 Z M 2146.585938 2770.421875 " clip-rule="nonzero"/></clipPath><clipPath id="1392aeb927"><path d="M 0.585938 0.421875 L 1228.761719 0.421875 L 1228.761719 604.9375 L 0.585938 604.9375 Z M 0.585938 0.421875 " clip-rule="nonzero"/></clipPath><clipPath id="3ebb8f9ec3"><rect x="0" width="1229" y="0" height="605"/></clipPath><clipPath id="c246925386"><rect x="0" width="987" y="0" height="449"/></clipPath></defs><g clip-path="url(#78631012cc)"><path fill="#ffffff" d="M 0 0.0585938 L 3374.878906 0.0585938 L 3374.878906 3374.941406 L 0 3374.941406 Z M 0 0.0585938 " fill-opacity="1" fill-rule="nonzero"/><path fill="#ffffff" d="M 0 0.0585938 L 3374.878906 0.0585938 L 3374.878906 3374.941406 L 0 3374.941406 Z M 0 0.0585938 " fill-opacity="1" fill-rule="nonzero"/><path fill="#a2e4b8" d="M 0 0.0585938 L 3374.878906 0.0585938 L 3374.878906 3374.941406 L 0 3374.941406 Z M 0 0.0585938 " fill-opacity="1" fill-rule="nonzero"/></g><path fill="#00bf6f" d="M 871.53125 479.730469 L 871.53125 153.179688 L 153.433594 153.179688 L 153.433594 1262.828125 L 871.53125 1262.828125 L 871.53125 936.589844 L 512.480469 936.589844 C 494.980469 936.589844 479.984375 921.589844 479.984375 904.089844 L 479.984375 512.230469 C 479.984375 494.730469 495.292969 479.730469 512.792969 479.730469 Z M 871.53125 479.730469 " fill-opacity="1" fill-rule="nonzero"/><path fill="#00bf6f" d="M 2829.898438 479.730469 L 3221.449219 479.730469 L 3221.449219 153.179688 L 2503.347656 153.179688 L 2503.347656 1262.828125 L 3221.449219 1262.828125 L 3221.449219 936.277344 L 2829.898438 936.277344 C 2812.085938 936.277344 2797.398438 921.589844 2797.398438 903.777344 C 2797.398438 885.652344 2812.085938 870.964844 2829.898438 870.964844 L 3221.449219 870.964844 L 3221.449219 544.726562 L 2829.898438 544.726562 C 2812.085938 544.726562 2797.398438 530.042969 2797.398438 512.230469 C 2797.085938 494.417969 2811.773438 479.417969 2829.898438 479.730469 " fill-opacity="1" fill-rule="nonzero"/><path fill="#00bf6f" d="M 1328.390625 642.847656 C 1328.703125 661.910156 1312.453125 675.347656 1295.578125 675.347656 C 1278.703125 675.347656 1263.078125 661.910156 1263.078125 642.847656 L 1263.078125 381.609375 C 1263.078125 363.796875 1279.015625 349.109375 1295.890625 349.109375 C 1312.765625 349.109375 1328.390625 363.484375 1328.390625 381.609375 Z M 936.839844 153.179688 L 936.839844 1263.140625 L 1263.078125 1263.140625 L 1263.078125 904.089844 C 1263.078125 885.652344 1277.453125 871.589844 1295.578125 871.589844 L 1491.507812 871.589844 C 1589.316406 871.589844 1654.628906 806.28125 1654.628906 708.472656 L 1654.628906 153.492188 Z M 936.839844 153.179688 " fill-opacity="1" fill-rule="nonzero"/><path fill="#00bf6f" d="M 2112.113281 610.039062 C 2112.113281 627.851562 2097.425781 642.535156 2079.613281 642.535156 C 2061.800781 642.535156 2046.800781 627.539062 2046.800781 610.039062 L 2046.800781 381.609375 C 2046.800781 363.484375 2061.488281 349.109375 2079.300781 349.109375 C 2097.425781 349.109375 2111.800781 363.796875 2111.800781 381.921875 Z M 2438.351562 544.726562 L 2438.351562 153.179688 L 1720.25 153.179688 L 1720.25 1262.828125 L 2046.488281 1262.828125 L 2046.488281 805.96875 C 2046.488281 787.84375 2061.175781 773.15625 2079.300781 773.15625 C 2097.425781 773.15625 2111.800781 787.84375 2111.800781 805.96875 L 2111.800781 1262.828125 L 2438.351562 1262.828125 L 2438.351562 871.277344 C 2438.351562 774.09375 2372.726562 716.285156 2280.542969 716.285156 C 2276.480469 716.285156 2272.417969 712.847656 2272.417969 708.160156 C 2272.417969 704.097656 2275.855469 700.035156 2280.542969 700.035156 C 2372.726562 700.035156 2438.351562 642.535156 2438.351562 544.726562 " fill-opacity="1" fill-rule="nonzero"/><g clip-path="url(#1ae4472eea)"><path fill="#00bf6f" d="M 1718.6875 1415.632812 L 1718.6875 2249.980469 L 0 2249.980469 L 0 3374.941406 L 2147.734375 3374.941406 L 2147.734375 2762.460938 L 3374.878906 2762.460938 L 3374.878906 1415.632812 Z M 1718.6875 1415.632812 " fill-opacity="1" fill-rule="nonzero"/></g><path fill="#00bf6f" d="M 1102.460938 2093.734375 L 1114.335938 2093.734375 C 1115.585938 2093.734375 1116.835938 2093.109375 1117.460938 2092.484375 C 1118.398438 2091.546875 1119.023438 2090.609375 1119.023438 2089.046875 L 1119.023438 2025.925781 C 1119.023438 2015.925781 1121.523438 2008.738281 1126.523438 2003.738281 C 1131.523438 1998.738281 1137.773438 1996.238281 1145.898438 1996.238281 C 1152.457031 1996.238281 1158.082031 1998.113281 1162.457031 2001.863281 C 1166.832031 2005.613281 1169.019531 2010.613281 1169.019531 2016.550781 C 1169.019531 2017.800781 1169.332031 2019.050781 1170.269531 2019.988281 C 1171.207031 2020.925781 1172.144531 2021.238281 1173.707031 2021.238281 L 1185.582031 2021.238281 C 1186.832031 2021.238281 1188.082031 2020.613281 1188.707031 2019.988281 C 1189.644531 2019.050781 1190.269531 2018.113281 1190.269531 2016.550781 C 1190.269531 2008.425781 1188.394531 2001.238281 1185.269531 1994.988281 C 1181.832031 1988.738281 1177.144531 1983.738281 1171.519531 1980.300781 C 1165.582031 1976.863281 1159.332031 1974.988281 1152.457031 1974.988281 C 1145.898438 1974.988281 1140.898438 1975.925781 1137.460938 1977.488281 C 1133.710938 1979.050781 1130.273438 1981.238281 1127.148438 1983.738281 C 1124.335938 1985.925781 1122.460938 1986.863281 1121.210938 1986.863281 C 1118.398438 1986.863281 1116.835938 1984.988281 1115.898438 1980.925781 C 1115.273438 1978.738281 1113.710938 1977.800781 1111.835938 1977.800781 L 1103.398438 1977.800781 C 1102.148438 1977.800781 1100.898438 1978.113281 1100.273438 1979.050781 C 1099.335938 1979.988281 1098.710938 1981.238281 1098.710938 1982.488281 L 1098.710938 2089.359375 C 1098.710938 2090.609375 1099.023438 2091.859375 1100.273438 2092.796875 C 1099.960938 2093.109375 1101.210938 2093.734375 1102.460938 2093.734375 M 976.527344 2022.488281 C 976.527344 2013.738281 979.027344 2006.863281 983.714844 2001.550781 C 988.402344 1996.238281 995.277344 1993.738281 1004.027344 1993.738281 C 1012.777344 1993.738281 1019.339844 1996.238281 1024.027344 2001.550781 C 1028.714844 2006.863281 1030.902344 2013.738281 1030.902344 2022.488281 C 1030.902344 2024.050781 1030.277344 2024.988281 1028.402344 2024.988281 L 978.402344 2024.988281 C 977.152344 2024.988281 976.527344 2024.050781 976.527344 2022.488281 M 1004.339844 2096.234375 C 1016.214844 2096.234375 1026.214844 2093.421875 1034.027344 2087.484375 C 1041.835938 2081.546875 1047.148438 2073.421875 1049.335938 2063.113281 C 1049.648438 2061.863281 1049.335938 2060.613281 1048.710938 2059.675781 C 1047.773438 2058.738281 1046.835938 2058.425781 1045.273438 2058.425781 L 1034.027344 2058.425781 C 1031.214844 2058.425781 1029.339844 2059.675781 1028.402344 2062.488281 C 1026.214844 2068.421875 1023.402344 2072.171875 1019.339844 2074.671875 C 1015.589844 2076.859375 1010.277344 2078.109375 1004.027344 2078.109375 C 995.902344 2078.109375 989.027344 2075.296875 984.027344 2069.984375 C 979.027344 2064.363281 976.214844 2056.550781 976.214844 2045.613281 C 976.214844 2044.050781 976.839844 2043.113281 978.714844 2043.113281 L 1047.460938 2043.113281 C 1048.710938 2043.113281 1049.960938 2042.800781 1050.898438 2041.863281 C 1051.835938 2040.925781 1052.148438 2039.988281 1052.148438 2038.425781 L 1052.148438 2028.113281 C 1052.148438 2011.550781 1048.085938 1998.425781 1039.652344 1989.050781 C 1031.527344 1979.675781 1019.339844 1974.988281 1004.027344 1974.988281 C 971.214844 1974.988281 954.964844 1995.300781 954.964844 2035.613281 C 954.964844 2075.921875 971.527344 2096.234375 1004.339844 2096.234375 M 841.21875 2035.613281 C 841.21875 2028.113281 841.53125 2022.488281 841.84375 2018.738281 C 842.15625 2015.300781 843.09375 2012.175781 844.65625 2009.363281 C 846.84375 2004.988281 849.96875 2001.863281 854.03125 1999.363281 C 858.09375 1996.863281 862.78125 1995.613281 867.78125 1995.613281 C 873.09375 1995.613281 877.46875 1996.863281 881.53125 1999.363281 C 885.59375 2001.863281 888.71875 2004.988281 890.59375 2009.363281 C 892.15625 2012.175781 892.78125 2014.988281 893.40625 2018.738281 C 893.71875 2022.175781 894.03125 2027.800781 894.03125 2035.613281 C 894.03125 2043.113281 893.71875 2048.738281 893.40625 2052.488281 C 893.09375 2055.925781 892.15625 2059.050781 890.59375 2061.863281 C 888.71875 2065.925781 885.59375 2069.363281 881.53125 2071.859375 C 877.46875 2074.359375 872.78125 2075.609375 867.78125 2075.609375 C 862.78125 2075.609375 858.09375 2074.359375 854.03125 2071.859375 C 849.96875 2069.363281 846.84375 2066.238281 844.65625 2061.863281 C 843.09375 2059.050781 842.46875 2055.925781 841.84375 2052.488281 C 841.53125 2048.738281 841.21875 2043.113281 841.21875 2035.613281 M 864.34375 2096.234375 C 869.34375 2096.234375 873.40625 2095.609375 876.53125 2094.671875 C 879.65625 2093.734375 882.78125 2091.859375 885.90625 2089.984375 C 888.71875 2088.109375 890.90625 2087.171875 892.46875 2087.171875 C 894.03125 2087.171875 895.59375 2088.109375 896.84375 2090.296875 C 898.09375 2092.484375 899.65625 2093.421875 901.53125 2093.421875 L 909.65625 2093.421875 C 910.90625 2093.421875 912.15625 2092.796875 913.09375 2092.171875 C 914.03125 2091.234375 914.34375 2090.296875 914.34375 2088.734375 L 914.34375 1931.867188 C 914.34375 1930.617188 914.03125 1929.367188 913.09375 1928.742188 C 912.15625 1927.804688 911.21875 1927.179688 909.65625 1927.179688 L 897.78125 1927.179688 C 896.53125 1927.179688 895.28125 1927.804688 894.34375 1928.742188 C 893.40625 1929.679688 893.09375 1930.617188 893.09375 1931.867188 L 893.09375 1975.925781 C 893.09375 1980.300781 891.53125 1982.175781 888.71875 1982.175781 C 887.46875 1982.175781 885.90625 1981.550781 883.40625 1979.988281 C 880.59375 1978.425781 878.09375 1977.175781 875.28125 1976.238281 C 872.46875 1975.300781 869.03125 1974.675781 864.65625 1974.675781 C 856.84375 1974.675781 849.65625 1976.550781 843.09375 1979.988281 C 836.53125 1983.425781 831.21875 1988.425781 827.15625 1994.988281 C 824.34375 1999.675781 822.160156 2004.988281 821.222656 2010.613281 C 819.972656 2016.550781 819.660156 2024.675781 819.660156 2035.613281 C 819.660156 2046.550781 820.285156 2054.988281 821.222656 2060.609375 C 822.160156 2066.234375 824.34375 2071.546875 827.15625 2076.234375 C 831.21875 2082.796875 836.53125 2087.484375 842.78125 2091.234375 C 849.65625 2094.671875 856.53125 2096.234375 864.34375 2096.234375 M 733.097656 1957.175781 L 749.035156 1957.175781 C 749.972656 1957.175781 750.910156 1956.867188 751.847656 1956.242188 C 752.472656 1955.613281 752.785156 1954.679688 752.785156 1953.429688 L 752.785156 1934.367188 C 752.785156 1933.429688 752.472656 1932.492188 751.847656 1931.867188 C 751.222656 1931.242188 750.285156 1930.617188 749.035156 1930.617188 L 733.097656 1930.617188 C 731.847656 1930.617188 731.222656 1930.929688 730.285156 1931.867188 C 729.660156 1932.804688 729.347656 1933.429688 729.347656 1934.367188 L 729.347656 1953.742188 C 729.347656 1954.679688 729.660156 1955.613281 730.285156 1956.554688 C 731.222656 1956.867188 732.160156 1957.175781 733.097656 1957.175781 M 697.789062 2093.734375 L 783.410156 2093.734375 C 784.660156 2093.734375 785.910156 2093.109375 786.847656 2092.484375 C 787.785156 2091.546875 788.097656 2090.609375 788.097656 2089.046875 L 788.097656 2077.796875 C 788.097656 2076.546875 787.472656 2075.296875 786.847656 2074.359375 C 785.910156 2073.421875 784.660156 2073.109375 783.410156 2073.109375 L 754.347656 2073.109375 C 752.785156 2073.109375 751.847656 2072.484375 751.847656 2070.609375 L 751.847656 1982.175781 C 751.847656 1980.925781 751.535156 1979.675781 750.597656 1978.738281 C 749.660156 1977.800781 748.410156 1977.488281 747.160156 1977.488281 L 699.976562 1977.488281 C 698.726562 1977.488281 697.476562 1977.800781 696.539062 1978.738281 C 695.601562 1979.675781 695.289062 1980.925781 695.289062 1982.175781 L 695.289062 1993.738281 C 695.289062 1994.988281 695.601562 1996.238281 696.539062 1997.175781 C 697.476562 1998.113281 698.414062 1998.425781 699.976562 1998.425781 L 728.097656 1998.425781 C 729.660156 1998.425781 730.597656 1999.363281 730.597656 2000.925781 L 730.597656 2070.925781 C 730.597656 2072.484375 729.972656 2073.421875 728.097656 2073.421875 L 697.476562 2073.421875 C 696.226562 2073.421875 694.976562 2074.046875 694.039062 2074.671875 C 693.101562 2075.609375 692.789062 2076.859375 692.789062 2078.109375 L 692.789062 2089.359375 C 692.789062 2090.609375 693.101562 2091.859375 694.039062 2092.796875 C 695.601562 2093.109375 696.539062 2093.734375 697.789062 2093.734375 M 595.605469 2093.734375 L 609.976562 2093.734375 C 611.851562 2093.734375 613.414062 2092.484375 614.351562 2090.296875 L 654.351562 1984.363281 C 654.664062 1983.738281 654.976562 1982.800781 654.976562 1981.863281 C 654.976562 1980.613281 654.664062 1979.675781 653.726562 1978.738281 C 652.789062 1978.113281 651.851562 1977.488281 650.601562 1977.488281 L 637.476562 1977.488281 C 635.289062 1977.488281 633.726562 1978.738281 633.101562 1980.925781 L 604.664062 2060.300781 C 604.351562 2060.925781 604.039062 2061.238281 603.101562 2061.238281 C 602.167969 2061.238281 601.542969 2060.925781 601.542969 2060.300781 L 572.792969 1980.925781 C 572.167969 1978.425781 570.605469 1977.488281 568.417969 1977.488281 L 555.292969 1977.488281 C 554.042969 1977.488281 553.105469 1977.800781 552.167969 1978.738281 C 551.230469 1979.675781 550.917969 1980.613281 550.917969 1981.863281 C 550.917969 1982.488281 550.917969 1983.425781 551.542969 1984.363281 L 591.855469 2090.296875 C 591.855469 2092.484375 593.417969 2093.734375 595.605469 2093.734375 M 441.546875 2035.613281 C 441.546875 2028.113281 441.859375 2022.488281 442.171875 2019.050781 C 442.484375 2015.613281 443.421875 2012.488281 444.984375 2009.675781 C 447.171875 2005.300781 450.296875 2002.175781 454.671875 1999.675781 C 459.046875 1997.175781 463.734375 1995.925781 469.046875 1995.925781 C 474.359375 1995.925781 479.046875 1997.175781 483.421875 1999.675781 C 487.484375 2002.175781 490.921875 2005.300781 493.109375 2009.675781 C 494.359375 2012.488281 495.605469 2015.613281 495.917969 2019.050781 C 496.542969 2022.800781 496.542969 2028.113281 496.542969 2035.613281 C 496.542969 2043.113281 496.230469 2048.738281 495.917969 2052.175781 C 495.605469 2055.925781 494.671875 2059.050781 493.109375 2061.863281 C 490.921875 2065.921875 487.796875 2069.359375 483.421875 2071.859375 C 479.046875 2074.359375 474.359375 2075.609375 469.046875 2075.609375 C 463.734375 2075.609375 459.046875 2074.359375 454.984375 2071.859375 C 450.921875 2069.359375 447.484375 2066.238281 445.296875 2061.863281 C 444.046875 2059.050781 442.796875 2055.925781 442.484375 2052.175781 C 441.859375 2048.738281 441.546875 2043.113281 441.546875 2035.613281 M 469.046875 2096.234375 C 477.796875 2096.234375 485.609375 2094.359375 492.796875 2090.921875 C 499.980469 2087.484375 505.292969 2082.484375 509.667969 2075.921875 C 513.105469 2071.234375 515.292969 2065.921875 516.230469 2059.988281 C 517.167969 2054.050781 518.105469 2045.925781 518.105469 2035.300781 C 518.105469 2024.675781 517.480469 2016.550781 516.230469 2010.613281 C 514.980469 2004.675781 512.792969 1999.363281 509.667969 1994.675781 C 505.292969 1988.113281 499.667969 1983.425781 492.796875 1979.675781 C 485.609375 1976.238281 477.796875 1974.363281 469.359375 1974.363281 C 460.609375 1974.363281 453.109375 1976.238281 445.921875 1979.675781 C 439.046875 1983.425781 433.109375 1988.113281 428.734375 1994.363281 C 425.296875 1999.050781 423.109375 2004.363281 422.171875 2010.300781 C 421.234375 2016.238281 420.296875 2024.363281 420.296875 2034.988281 C 420.296875 2045.613281 420.921875 2053.738281 422.171875 2059.675781 C 423.421875 2065.613281 425.609375 2070.921875 428.734375 2075.609375 C 432.796875 2082.171875 438.421875 2086.859375 445.609375 2090.609375 C 452.796875 2094.359375 460.296875 2096.234375 469.046875 2096.234375 M 300.925781 2093.734375 L 312.800781 2093.734375 C 314.050781 2093.734375 315.300781 2093.109375 316.238281 2092.484375 C 317.175781 2091.546875 317.488281 2090.609375 317.488281 2089.046875 L 317.488281 2025.925781 C 317.488281 2015.925781 319.988281 2008.738281 324.988281 2003.738281 C 329.988281 1998.738281 336.238281 1996.238281 344.363281 1996.238281 C 350.925781 1996.238281 356.550781 1998.113281 360.925781 2001.863281 C 365.300781 2005.613281 367.488281 2010.613281 367.488281 2016.550781 C 367.488281 2017.800781 367.800781 2019.050781 368.738281 2019.988281 C 369.675781 2020.925781 370.613281 2021.238281 372.175781 2021.238281 L 384.050781 2021.238281 C 385.296875 2021.238281 386.546875 2020.613281 387.171875 2019.988281 C 388.109375 2019.050781 388.734375 2018.113281 388.734375 2016.550781 C 388.734375 2008.425781 386.859375 2001.238281 383.425781 1994.988281 C 379.988281 1988.738281 375.300781 1983.738281 369.675781 1980.300781 C 364.050781 1976.863281 357.488281 1974.988281 350.613281 1974.988281 C 344.050781 1974.988281 339.050781 1975.925781 335.613281 1977.488281 C 331.863281 1979.050781 328.425781 1981.238281 325.300781 1983.738281 C 322.488281 1985.925781 320.613281 1986.863281 319.363281 1986.863281 C 316.550781 1986.863281 314.988281 1984.988281 314.050781 1980.925781 C 313.425781 1978.738281 311.863281 1977.800781 309.988281 1977.800781 L 301.550781 1977.800781 C 300.300781 1977.800781 299.050781 1978.113281 298.113281 1979.050781 C 297.175781 1979.988281 296.863281 1981.238281 296.863281 1982.488281 L 296.863281 2089.359375 C 296.863281 2090.609375 297.175781 2091.859375 298.113281 2092.796875 C 298.425781 2093.109375 299.675781 2093.734375 300.925781 2093.734375 M 180.304688 2003.425781 L 180.304688 1954.054688 C 180.304688 1952.492188 180.929688 1951.554688 182.804688 1951.554688 L 208.742188 1951.554688 C 215.617188 1951.554688 221.554688 1954.054688 226.554688 1959.363281 C 231.554688 1964.675781 234.054688 1970.925781 234.054688 1978.425781 C 234.054688 1985.925781 231.554688 1992.175781 226.554688 1997.488281 C 221.554688 2002.800781 215.617188 2005.300781 208.742188 2005.300781 L 182.804688 2005.300781 C 181.242188 2005.925781 180.304688 2004.988281 180.304688 2003.425781 M 162.496094 2093.734375 L 175.929688 2093.734375 C 177.179688 2093.734375 178.429688 2093.109375 179.054688 2092.484375 C 179.992188 2091.546875 180.617188 2090.609375 180.617188 2089.046875 L 180.617188 2030.300781 C 180.617188 2028.738281 181.242188 2027.800781 183.117188 2027.800781 L 209.367188 2027.800781 C 218.429688 2027.800781 226.554688 2025.613281 233.742188 2021.238281 C 240.929688 2016.863281 246.867188 2010.925781 250.929688 2003.425781 C 254.992188 1995.925781 257.179688 1987.488281 257.179688 1978.425781 C 257.179688 1969.363281 254.992188 1960.929688 250.929688 1953.429688 C 246.867188 1945.929688 240.929688 1939.992188 233.429688 1935.617188 C 225.929688 1931.242188 218.117188 1929.054688 209.054688 1929.054688 L 162.496094 1929.054688 C 161.246094 1929.054688 159.996094 1929.679688 159.058594 1930.617188 C 158.121094 1931.554688 157.808594 1932.492188 157.808594 1933.742188 L 157.808594 2088.421875 C 157.808594 2089.671875 158.121094 2090.921875 159.058594 2091.859375 C 159.996094 2093.109375 160.933594 2093.734375 162.496094 2093.734375 " fill-opacity="1" fill-rule="nonzero"/><path fill="#00bf6f" d="M 1109.960938 1790.621094 C 1109.960938 1782.808594 1109.960938 1777.183594 1110.273438 1774.058594 C 1110.585938 1770.933594 1111.523438 1767.808594 1112.773438 1765.308594 C 1114.648438 1761.246094 1117.773438 1758.121094 1121.835938 1755.621094 C 1125.585938 1753.121094 1129.960938 1752.183594 1134.960938 1752.183594 C 1139.960938 1752.183594 1144.335938 1753.433594 1148.085938 1755.621094 C 1151.835938 1757.808594 1154.957031 1761.246094 1157.144531 1765.308594 C 1158.394531 1768.121094 1159.332031 1770.933594 1159.644531 1774.371094 C 1159.957031 1777.808594 1160.269531 1783.121094 1160.269531 1790.621094 C 1160.269531 1798.121094 1159.957031 1803.121094 1159.644531 1806.558594 C 1159.332031 1809.996094 1158.394531 1812.808594 1157.144531 1815.621094 C 1154.957031 1819.683594 1151.835938 1822.808594 1148.085938 1825.308594 C 1144.335938 1827.808594 1139.960938 1828.746094 1134.960938 1828.746094 C 1129.960938 1828.746094 1125.585938 1827.496094 1121.835938 1825.308594 C 1117.773438 1822.808594 1114.960938 1819.683594 1112.773438 1815.621094 C 1111.210938 1812.808594 1110.585938 1809.996094 1110.273438 1806.871094 C 1110.273438 1803.746094 1109.960938 1798.433594 1109.960938 1790.621094 M 1137.460938 1894.679688 C 1149.960938 1894.679688 1160.269531 1890.929688 1168.394531 1882.804688 C 1176.519531 1874.992188 1180.582031 1864.367188 1180.582031 1850.617188 L 1180.582031 1738.121094 C 1180.582031 1736.871094 1180.269531 1735.625 1179.332031 1734.6875 C 1178.394531 1733.75 1177.457031 1733.4375 1176.207031 1733.4375 L 1168.394531 1733.4375 C 1167.144531 1733.4375 1166.519531 1733.75 1165.894531 1734.0625 C 1165.269531 1734.6875 1164.644531 1735.3125 1163.707031 1736.5625 C 1163.082031 1737.496094 1162.457031 1738.433594 1161.832031 1739.058594 C 1161.207031 1739.683594 1160.582031 1739.996094 1159.332031 1739.996094 C 1157.769531 1739.996094 1155.582031 1739.058594 1153.082031 1737.183594 C 1149.960938 1735.3125 1147.148438 1733.75 1144.023438 1732.5 C 1140.898438 1731.25 1136.835938 1730.625 1131.835938 1730.625 C 1124.335938 1730.625 1117.460938 1732.5 1111.210938 1735.621094 C 1104.960938 1739.058594 1099.960938 1744.058594 1096.210938 1750.308594 C 1093.085938 1754.996094 1090.898438 1759.996094 1089.960938 1765.308594 C 1089.023438 1770.933594 1088.398438 1779.058594 1088.398438 1789.683594 C 1088.398438 1800.308594 1089.023438 1808.433594 1089.960938 1814.058594 C 1090.898438 1819.683594 1093.085938 1824.683594 1096.210938 1829.371094 C 1099.960938 1835.621094 1105.273438 1840.621094 1111.523438 1844.058594 C 1117.773438 1847.492188 1124.648438 1849.367188 1132.460938 1849.367188 C 1136.523438 1849.367188 1139.960938 1848.742188 1142.460938 1847.804688 C 1144.960938 1846.867188 1147.773438 1845.617188 1150.585938 1844.058594 C 1152.773438 1842.496094 1154.335938 1841.871094 1155.585938 1841.871094 C 1157.144531 1841.871094 1158.082031 1842.496094 1159.019531 1843.429688 C 1159.644531 1844.367188 1159.957031 1845.929688 1159.957031 1848.117188 L 1159.957031 1852.179688 C 1159.957031 1859.679688 1157.769531 1865.304688 1153.710938 1869.367188 C 1149.648438 1873.117188 1144.023438 1875.304688 1137.460938 1875.304688 C 1132.148438 1875.304688 1127.773438 1874.054688 1124.023438 1871.867188 C 1120.273438 1869.679688 1117.460938 1866.554688 1115.898438 1862.492188 C 1115.273438 1860.929688 1114.648438 1859.679688 1113.398438 1859.054688 C 1112.460938 1858.429688 1111.210938 1858.117188 1109.648438 1858.117188 L 1098.710938 1858.117188 C 1095.585938 1858.117188 1094.335938 1859.679688 1094.335938 1862.492188 L 1094.335938 1863.429688 C 1095.898438 1872.804688 1100.273438 1880.304688 1108.085938 1885.929688 C 1115.898438 1891.867188 1125.898438 1894.679688 1137.460938 1894.679688 M 964.027344 1849.992188 L 975.902344 1849.992188 C 977.152344 1849.992188 978.402344 1849.367188 979.339844 1848.742188 C 980.277344 1847.804688 980.589844 1846.867188 980.589844 1845.308594 L 980.589844 1776.871094 C 980.589844 1769.058594 982.777344 1762.808594 987.152344 1758.433594 C 991.527344 1754.371094 997.464844 1752.183594 1004.652344 1752.183594 C 1011.839844 1752.183594 1017.464844 1754.371094 1022.152344 1758.433594 C 1026.527344 1762.808594 1028.714844 1768.746094 1028.714844 1776.871094 L 1028.714844 1845.308594 C 1028.714844 1846.558594 1029.027344 1847.804688 1030.277344 1848.742188 C 1031.214844 1849.679688 1032.152344 1849.992188 1033.402344 1849.992188 L 1045.273438 1849.992188 C 1046.523438 1849.992188 1047.773438 1849.367188 1048.398438 1848.742188 C 1049.335938 1847.804688 1049.960938 1846.867188 1049.960938 1845.308594 L 1049.960938 1774.683594 C 1049.960938 1761.246094 1046.210938 1750.621094 1039.027344 1742.808594 C 1031.839844 1735 1022.777344 1731.25 1011.214844 1731.25 C 1005.277344 1731.25 1000.902344 1731.875 997.777344 1733.125 C 994.652344 1734.375 991.527344 1735.9375 988.402344 1737.808594 C 987.464844 1738.433594 986.527344 1739.058594 985.589844 1739.683594 C 984.652344 1740.308594 983.714844 1740.621094 982.777344 1740.621094 C 981.527344 1740.621094 980.902344 1740.308594 980.277344 1739.996094 C 979.652344 1739.371094 979.027344 1738.746094 978.402344 1737.496094 C 977.152344 1734.996094 975.589844 1734.058594 973.714844 1734.058594 L 964.027344 1734.058594 C 962.777344 1734.058594 961.527344 1734.371094 960.902344 1735.3125 C 959.964844 1736.246094 959.339844 1737.496094 959.339844 1738.746094 L 959.339844 1845.617188 C 959.339844 1846.867188 959.652344 1848.117188 960.902344 1849.054688 C 961.839844 1849.367188 962.777344 1849.992188 964.027344 1849.992188 M 866.84375 1713.75 L 882.78125 1713.75 C 884.03125 1713.75 884.65625 1713.4375 885.59375 1712.8125 C 886.21875 1712.1875 886.53125 1711.25 886.53125 1710 L 886.53125 1690.625 C 886.53125 1689.6875 886.21875 1688.75 885.59375 1688.125 C 884.96875 1687.5 884.03125 1686.875 882.78125 1686.875 L 866.84375 1686.875 C 865.59375 1686.875 864.96875 1687.1875 864.03125 1688.125 C 863.40625 1689.0625 863.09375 1689.6875 863.09375 1690.625 L 863.09375 1710 C 863.09375 1710.9375 863.40625 1711.875 864.03125 1712.8125 C 864.96875 1713.125 865.59375 1713.75 866.84375 1713.75 M 831.53125 1849.992188 L 917.15625 1849.992188 C 918.40625 1849.992188 919.65625 1849.367188 920.59375 1848.742188 C 921.53125 1847.804688 921.84375 1846.867188 921.84375 1845.308594 L 921.84375 1834.058594 C 921.84375 1832.808594 921.53125 1831.558594 920.59375 1830.621094 C 919.65625 1829.683594 918.71875 1829.371094 917.15625 1829.371094 L 888.09375 1829.371094 C 886.53125 1829.371094 885.59375 1828.746094 885.59375 1826.871094 L 885.59375 1738.4375 C 885.59375 1737.1875 885.28125 1735.9375 884.03125 1735 C 883.09375 1734.0625 882.15625 1733.75 880.90625 1733.75 L 833.71875 1733.75 C 832.46875 1733.75 831.21875 1734.0625 830.59375 1735 C 829.65625 1735.9375 829.03125 1737.1875 829.03125 1738.4375 L 829.03125 1749.996094 C 829.03125 1751.246094 829.65625 1752.496094 830.59375 1753.121094 C 831.53125 1753.746094 832.46875 1754.683594 833.71875 1754.683594 L 861.84375 1754.683594 C 863.40625 1754.683594 864.34375 1755.621094 864.34375 1757.183594 L 864.34375 1827.183594 C 864.34375 1828.746094 863.71875 1829.683594 861.84375 1829.683594 L 831.21875 1829.683594 C 829.96875 1829.683594 828.71875 1830.308594 828.09375 1830.933594 C 827.15625 1831.871094 826.53125 1833.121094 826.53125 1834.371094 L 826.53125 1845.621094 C 826.53125 1846.871094 827.15625 1848.121094 828.09375 1849.054688 C 829.03125 1849.367188 830.28125 1849.992188 831.53125 1849.992188 M 696.851562 1849.992188 L 708.726562 1849.992188 C 709.976562 1849.992188 711.226562 1849.367188 712.164062 1848.742188 C 713.101562 1847.804688 713.410156 1846.867188 713.410156 1845.308594 L 713.410156 1776.871094 C 713.410156 1769.058594 715.597656 1762.808594 719.972656 1758.433594 C 724.347656 1754.371094 730.285156 1752.183594 737.472656 1752.183594 C 744.660156 1752.183594 750.597656 1754.371094 754.972656 1758.433594 C 759.347656 1762.808594 761.535156 1768.746094 761.535156 1776.871094 L 761.535156 1845.308594 C 761.535156 1846.558594 761.847656 1847.804688 762.785156 1848.742188 C 763.722656 1849.679688 764.660156 1849.992188 766.222656 1849.992188 L 778.097656 1849.992188 C 779.347656 1849.992188 780.597656 1849.367188 781.535156 1848.742188 C 782.472656 1847.804688 782.785156 1846.867188 782.785156 1845.308594 L 782.785156 1774.683594 C 782.785156 1761.246094 779.347656 1750.621094 772.160156 1742.808594 C 764.972656 1735 755.910156 1731.25 744.347656 1731.25 C 738.722656 1731.25 734.035156 1731.875 730.910156 1733.125 C 727.785156 1734.375 724.660156 1735.9375 721.535156 1737.808594 C 720.597656 1738.433594 719.660156 1739.058594 718.722656 1739.683594 C 717.785156 1740.308594 716.847656 1740.621094 715.914062 1740.621094 C 714.664062 1740.621094 714.039062 1740.308594 713.414062 1739.996094 C 712.789062 1739.371094 712.164062 1738.746094 711.539062 1737.496094 C 710.289062 1734.996094 708.726562 1734.058594 706.851562 1734.058594 L 696.851562 1734.058594 C 695.601562 1734.058594 694.351562 1734.371094 693.414062 1735.3125 C 692.476562 1736.246094 692.164062 1737.496094 692.164062 1738.746094 L 692.164062 1845.617188 C 692.164062 1846.867188 692.476562 1848.117188 693.414062 1849.054688 C 694.664062 1849.367188 695.601562 1849.992188 696.851562 1849.992188 M 599.667969 1713.75 L 615.601562 1713.75 C 616.539062 1713.75 617.476562 1713.4375 618.414062 1712.8125 C 619.039062 1712.1875 619.351562 1711.25 619.351562 1710 L 619.351562 1690.625 C 619.351562 1689.6875 619.039062 1688.75 618.414062 1688.125 C 617.789062 1687.5 616.851562 1686.875 615.601562 1686.875 L 599.667969 1686.875 C 598.730469 1686.875 597.792969 1687.1875 596.855469 1688.125 C 596.230469 1689.0625 595.917969 1689.6875 595.917969 1690.625 L 595.917969 1710 C 595.917969 1710.9375 596.230469 1711.875 596.855469 1712.8125 C 597.792969 1713.125 598.417969 1713.75 599.667969 1713.75 M 564.355469 1849.992188 L 649.976562 1849.992188 C 651.226562 1849.992188 652.476562 1849.367188 653.414062 1848.742188 C 654.351562 1847.804688 654.664062 1846.867188 654.664062 1845.308594 L 654.664062 1834.058594 C 654.664062 1832.808594 654.351562 1831.558594 653.414062 1830.621094 C 652.476562 1829.683594 651.539062 1829.371094 649.976562 1829.371094 L 620.914062 1829.371094 C 619.351562 1829.371094 618.414062 1828.746094 618.414062 1826.871094 L 618.414062 1738.4375 C 618.414062 1737.1875 618.101562 1735.9375 617.164062 1735 C 616.226562 1734.0625 615.289062 1733.75 613.726562 1733.75 L 566.542969 1733.75 C 565.292969 1733.75 564.042969 1734.0625 563.417969 1735 C 562.480469 1735.9375 561.855469 1737.1875 561.855469 1738.4375 L 561.855469 1749.996094 C 561.855469 1751.246094 562.480469 1752.496094 563.417969 1753.121094 C 564.355469 1754.058594 565.292969 1754.683594 566.542969 1754.683594 L 594.667969 1754.683594 C 596.230469 1754.683594 597.167969 1755.621094 597.167969 1757.183594 L 597.167969 1827.183594 C 597.167969 1828.746094 596.230469 1829.683594 594.667969 1829.683594 L 564.042969 1829.683594 C 562.792969 1829.683594 561.542969 1830.308594 560.917969 1830.933594 C 559.980469 1831.871094 559.355469 1833.121094 559.355469 1834.371094 L 559.355469 1845.621094 C 559.355469 1846.871094 559.980469 1848.121094 560.917969 1849.054688 C 561.855469 1849.367188 563.105469 1849.992188 564.355469 1849.992188 M 441.859375 1815.308594 C 441.859375 1809.683594 443.734375 1805.308594 447.171875 1802.183594 C 450.609375 1799.058594 455.296875 1797.496094 461.234375 1797.496094 L 488.734375 1797.496094 C 490.296875 1797.496094 491.234375 1798.433594 491.234375 1799.996094 L 491.234375 1809.996094 C 491.234375 1817.808594 488.734375 1823.746094 484.046875 1827.808594 C 479.359375 1831.871094 472.484375 1834.058594 463.734375 1834.058594 C 457.484375 1834.058594 452.171875 1832.496094 448.109375 1829.058594 C 444.046875 1825.933594 441.859375 1821.246094 441.859375 1815.308594 M 460.921875 1852.492188 C 465.921875 1852.492188 470.296875 1851.867188 473.421875 1850.929688 C 476.546875 1849.992188 479.671875 1848.117188 482.796875 1846.242188 C 485.296875 1844.371094 487.484375 1843.429688 489.046875 1843.429688 C 490.921875 1843.429688 492.171875 1844.367188 493.417969 1846.554688 C 494.667969 1848.742188 496.230469 1849.679688 498.105469 1849.679688 L 506.230469 1849.679688 C 507.480469 1849.679688 508.730469 1849.054688 509.667969 1848.429688 C 510.605469 1847.492188 510.917969 1846.554688 510.917969 1844.992188 L 510.917969 1770.933594 C 510.917969 1758.433594 507.167969 1748.746094 499.667969 1741.558594 C 492.171875 1734.371094 481.546875 1730.933594 468.421875 1730.933594 C 459.984375 1730.933594 452.484375 1732.496094 445.921875 1735.308594 C 439.359375 1738.433594 434.359375 1742.183594 430.921875 1747.496094 C 427.484375 1752.496094 425.609375 1758.121094 425.609375 1764.371094 C 425.609375 1767.496094 427.171875 1769.058594 430.296875 1769.058594 L 440.296875 1769.058594 C 441.859375 1769.058594 443.109375 1768.746094 444.046875 1768.433594 C 444.984375 1767.808594 445.296875 1766.871094 445.609375 1765.308594 C 445.921875 1760.933594 448.109375 1757.183594 451.859375 1754.371094 C 455.609375 1751.558594 461.234375 1749.996094 468.109375 1749.996094 C 475.609375 1749.996094 481.234375 1751.871094 484.984375 1755.621094 C 488.734375 1759.371094 490.609375 1764.371094 490.609375 1770.621094 L 490.609375 1776.871094 C 490.609375 1778.433594 489.671875 1779.371094 488.109375 1779.371094 L 458.421875 1779.371094 C 446.546875 1779.371094 437.171875 1782.808594 430.296875 1789.683594 C 423.421875 1796.558594 419.984375 1804.996094 419.984375 1815.621094 C 419.984375 1826.558594 423.421875 1835.308594 430.609375 1842.179688 C 438.421875 1849.054688 448.109375 1852.492188 460.921875 1852.492188 M 300.925781 1849.992188 L 312.800781 1849.992188 C 314.050781 1849.992188 315.300781 1849.367188 316.238281 1848.742188 C 317.175781 1847.804688 317.488281 1846.867188 317.488281 1845.308594 L 317.488281 1782.183594 C 317.488281 1772.496094 319.988281 1764.996094 324.988281 1759.996094 C 329.988281 1754.996094 336.238281 1752.496094 344.363281 1752.496094 C 350.925781 1752.496094 356.550781 1754.371094 360.925781 1758.121094 C 365.300781 1761.871094 367.488281 1766.871094 367.488281 1772.808594 C 367.488281 1774.058594 368.113281 1775.308594 368.738281 1776.246094 C 369.675781 1777.183594 370.613281 1777.496094 372.175781 1777.496094 L 384.050781 1777.496094 C 385.296875 1777.496094 386.546875 1777.183594 387.171875 1776.246094 C 388.109375 1775.308594 388.734375 1774.371094 388.734375 1772.808594 C 388.734375 1764.683594 386.859375 1757.496094 383.425781 1751.246094 C 379.988281 1744.996094 375.300781 1739.996094 369.675781 1736.558594 C 364.050781 1733.125 357.488281 1731.25 350.613281 1731.25 C 344.050781 1731.25 339.050781 1732.183594 335.613281 1733.746094 C 331.863281 1735.308594 328.425781 1737.496094 325.300781 1739.996094 C 322.488281 1742.183594 320.613281 1743.121094 319.363281 1743.121094 C 316.550781 1743.121094 314.988281 1741.246094 314.050781 1737.183594 C 313.425781 1734.996094 311.863281 1734.058594 309.988281 1734.058594 L 301.550781 1734.058594 C 300.300781 1734.058594 299.050781 1734.371094 298.113281 1735.308594 C 297.175781 1736.246094 296.863281 1737.496094 296.863281 1738.746094 L 296.863281 1845.617188 C 296.863281 1846.867188 297.175781 1848.117188 298.113281 1849.054688 C 298.425781 1849.367188 299.675781 1849.992188 300.925781 1849.992188 M 195.304688 1849.992188 L 208.429688 1849.992188 C 209.679688 1849.992188 210.929688 1849.367188 211.867188 1848.742188 C 212.804688 1847.804688 213.117188 1846.867188 213.117188 1845.308594 L 213.117188 1710.9375 C 213.117188 1709.375 213.742188 1708.4375 215.617188 1708.4375 L 251.554688 1708.4375 C 252.804688 1708.4375 254.054688 1708.125 254.992188 1706.875 C 255.929688 1705.9375 256.242188 1705 256.242188 1703.75 L 256.242188 1690.625 C 256.242188 1689.375 255.617188 1688.125 254.992188 1687.5 C 254.054688 1686.5625 252.804688 1685.9375 251.554688 1685.9375 L 152.496094 1685.9375 C 151.246094 1685.9375 149.996094 1686.5625 149.371094 1687.5 C 148.746094 1688.4375 147.808594 1689.6875 147.808594 1690.625 L 147.808594 1703.75 C 147.808594 1705 148.433594 1706.25 149.371094 1706.875 C 150.308594 1707.8125 151.246094 1708.4375 152.496094 1708.4375 L 188.429688 1708.4375 C 189.992188 1708.4375 190.929688 1709.375 190.929688 1710.9375 L 190.929688 1845.308594 C 190.929688 1846.558594 191.242188 1847.804688 192.179688 1848.742188 C 193.117188 1849.367188 194.054688 1849.992188 195.304688 1849.992188 " fill-opacity="1" fill-rule="nonzero"/><path fill="#00bf6f" d="M 1375.574219 1548.128906 C 1375.574219 1540.628906 1375.886719 1535.003906 1376.199219 1531.253906 C 1376.511719 1527.816406 1377.449219 1524.691406 1379.011719 1521.878906 C 1381.199219 1517.820312 1384.324219 1514.382812 1388.386719 1511.882812 C 1392.449219 1509.382812 1397.136719 1508.132812 1402.136719 1508.132812 C 1407.136719 1508.132812 1411.824219 1509.382812 1415.886719 1511.882812 C 1419.949219 1514.382812 1423.074219 1517.503906 1424.949219 1521.878906 C 1426.199219 1524.691406 1427.136719 1527.503906 1427.761719 1531.253906 C 1428.074219 1534.691406 1428.386719 1540.316406 1428.386719 1548.128906 C 1428.386719 1555.941406 1428.074219 1561.253906 1427.761719 1565.003906 C 1427.449219 1568.441406 1426.511719 1571.566406 1424.949219 1574.378906 C 1422.761719 1578.441406 1419.949219 1581.878906 1415.886719 1584.378906 C 1411.824219 1586.878906 1407.136719 1588.128906 1402.136719 1588.128906 C 1397.136719 1588.128906 1392.449219 1586.878906 1388.386719 1584.378906 C 1384.324219 1581.878906 1381.199219 1578.753906 1379.011719 1574.378906 C 1377.761719 1571.566406 1376.824219 1568.441406 1376.199219 1565.003906 C 1375.886719 1561.253906 1375.574219 1555.941406 1375.574219 1548.128906 M 1398.699219 1608.753906 C 1403.699219 1608.753906 1407.761719 1608.128906 1410.886719 1607.191406 C 1414.011719 1606.253906 1417.136719 1604.378906 1420.261719 1602.503906 C 1422.761719 1600.628906 1424.949219 1599.691406 1426.824219 1599.691406 C 1428.386719 1599.691406 1429.949219 1600.628906 1431.199219 1602.816406 C 1432.449219 1605.003906 1434.011719 1605.941406 1435.886719 1605.941406 L 1444.011719 1605.941406 C 1445.261719 1605.941406 1446.511719 1605.628906 1447.136719 1604.691406 C 1448.074219 1603.753906 1448.699219 1602.816406 1448.699219 1601.253906 L 1448.699219 1444.382812 C 1448.699219 1443.132812 1448.386719 1441.882812 1447.136719 1441.257812 C 1446.199219 1440.320312 1444.949219 1439.695312 1444.011719 1439.695312 L 1432.136719 1439.695312 C 1430.886719 1439.695312 1429.636719 1440.320312 1429.011719 1441.257812 C 1428.074219 1442.195312 1427.449219 1443.445312 1427.449219 1444.382812 L 1427.449219 1488.445312 C 1427.449219 1492.507812 1426.199219 1494.695312 1423.074219 1494.695312 C 1421.824219 1494.695312 1420.261719 1494.070312 1417.761719 1492.507812 C 1414.949219 1490.945312 1412.449219 1489.695312 1409.636719 1488.757812 C 1406.824219 1487.820312 1403.074219 1487.195312 1398.699219 1487.195312 C 1390.886719 1487.195312 1383.699219 1489.070312 1377.136719 1492.507812 C 1370.578125 1495.945312 1365.265625 1500.945312 1361.203125 1507.507812 C 1358.078125 1512.195312 1356.203125 1517.507812 1354.953125 1523.128906 C 1353.703125 1529.066406 1353.390625 1537.191406 1353.390625 1548.128906 C 1353.390625 1559.066406 1354.015625 1567.503906 1354.953125 1573.128906 C 1355.890625 1578.753906 1358.078125 1584.066406 1361.203125 1588.753906 C 1365.265625 1595.316406 1370.578125 1600.003906 1376.824219 1603.753906 C 1384.011719 1607.191406 1390.886719 1608.753906 1398.699219 1608.753906 M 1243.707031 1535.003906 C 1243.707031 1526.253906 1246.207031 1519.378906 1250.894531 1514.070312 C 1255.582031 1508.757812 1262.453125 1506.257812 1271.203125 1506.257812 C 1279.953125 1506.257812 1286.515625 1508.757812 1291.203125 1514.070312 C 1295.890625 1519.378906 1298.078125 1526.253906 1298.078125 1535.003906 C 1298.078125 1536.566406 1297.140625 1537.503906 1295.578125 1537.503906 L 1245.582031 1537.503906 C 1244.332031 1537.503906 1243.707031 1536.566406 1243.707031 1535.003906 M 1271.515625 1608.753906 C 1283.390625 1608.753906 1293.390625 1605.941406 1301.203125 1600.003906 C 1309.015625 1594.066406 1314.328125 1585.941406 1316.515625 1575.628906 C 1316.828125 1574.378906 1316.515625 1573.128906 1315.890625 1572.191406 C 1314.953125 1571.253906 1314.015625 1570.941406 1312.453125 1570.941406 L 1301.203125 1570.941406 C 1298.390625 1570.941406 1296.515625 1572.191406 1295.578125 1575.003906 C 1293.390625 1580.941406 1290.578125 1584.691406 1286.515625 1587.191406 C 1282.453125 1589.378906 1277.453125 1590.628906 1271.203125 1590.628906 C 1262.765625 1590.628906 1256.207031 1587.816406 1251.207031 1582.503906 C 1246.207031 1576.878906 1243.394531 1569.066406 1243.394531 1558.128906 C 1243.394531 1556.566406 1244.019531 1555.628906 1245.894531 1555.628906 L 1314.640625 1555.628906 C 1315.890625 1555.628906 1317.140625 1555.003906 1317.765625 1554.066406 C 1318.703125 1553.128906 1319.328125 1552.191406 1319.328125 1550.941406 L 1319.328125 1540.628906 C 1319.328125 1524.066406 1315.265625 1510.945312 1306.828125 1501.570312 C 1298.390625 1492.195312 1286.515625 1487.507812 1271.203125 1487.507812 C 1238.394531 1487.507812 1221.832031 1507.820312 1221.832031 1548.128906 C 1222.144531 1588.753906 1238.707031 1608.753906 1271.515625 1608.753906 M 1094.335938 1606.253906 L 1180.894531 1606.253906 C 1182.144531 1606.253906 1183.394531 1605.941406 1184.019531 1605.003906 C 1184.957031 1604.066406 1185.582031 1603.128906 1185.582031 1601.566406 L 1185.582031 1590.628906 C 1185.582031 1589.378906 1185.269531 1588.128906 1184.019531 1587.503906 C 1183.082031 1586.566406 1181.832031 1585.941406 1180.894531 1585.941406 L 1120.273438 1585.941406 C 1119.023438 1585.941406 1118.398438 1585.316406 1118.398438 1584.066406 C 1118.398438 1583.441406 1118.710938 1582.816406 1119.023438 1582.503906 L 1176.832031 1517.816406 C 1178.394531 1516.253906 1179.644531 1514.382812 1180.582031 1513.132812 C 1181.207031 1511.570312 1181.519531 1510.007812 1181.519531 1508.445312 L 1181.519531 1495.007812 C 1181.519531 1493.757812 1181.207031 1492.507812 1180.269531 1491.570312 C 1179.332031 1490.632812 1178.082031 1490.320312 1176.832031 1490.320312 L 1095.898438 1490.320312 C 1094.648438 1490.320312 1093.398438 1490.632812 1092.773438 1491.570312 C 1091.835938 1492.507812 1091.210938 1493.757812 1091.210938 1495.007812 L 1091.210938 1505.945312 C 1091.210938 1507.195312 1091.835938 1508.445312 1092.773438 1509.070312 C 1093.710938 1510.007812 1094.648438 1510.632812 1095.898438 1510.632812 L 1151.210938 1510.632812 C 1151.835938 1510.632812 1152.148438 1510.945312 1152.773438 1511.257812 C 1153.085938 1511.570312 1153.085938 1512.195312 1153.085938 1512.507812 C 1153.085938 1513.132812 1152.773438 1513.757812 1152.460938 1514.070312 L 1092.773438 1580.316406 C 1091.210938 1581.878906 1090.585938 1583.128906 1089.960938 1584.066406 C 1089.648438 1585.003906 1089.335938 1586.253906 1089.335938 1587.816406 L 1089.335938 1601.566406 C 1089.335938 1602.816406 1089.648438 1604.066406 1090.585938 1605.003906 C 1092.148438 1605.941406 1093.085938 1606.253906 1094.335938 1606.253906 M 1000.277344 1470.007812 L 1016.214844 1470.007812 C 1017.464844 1470.007812 1018.089844 1469.695312 1019.027344 1469.070312 C 1019.652344 1468.445312 1019.964844 1467.507812 1019.964844 1466.257812 L 1019.964844 1446.882812 C 1019.964844 1445.945312 1019.652344 1445.007812 1019.027344 1444.382812 C 1018.402344 1443.757812 1017.464844 1443.132812 1016.214844 1443.132812 L 1000.277344 1443.132812 C 999.027344 1443.132812 998.402344 1443.445312 997.464844 1444.382812 C 996.839844 1445.320312 996.527344 1445.945312 996.527344 1446.882812 L 996.527344 1466.257812 C 996.527344 1467.195312 996.839844 1468.132812 997.464844 1469.070312 C 998.402344 1469.382812 999.339844 1470.007812 1000.277344 1470.007812 M 964.964844 1606.253906 L 1050.585938 1606.253906 C 1051.835938 1606.253906 1053.085938 1605.941406 1053.710938 1605.003906 C 1054.648438 1604.066406 1055.273438 1603.128906 1055.273438 1601.566406 L 1055.273438 1590.316406 C 1055.273438 1589.066406 1054.648438 1587.816406 1053.710938 1587.191406 C 1052.773438 1586.253906 1051.835938 1585.628906 1050.585938 1585.628906 L 1021.527344 1585.628906 C 1019.964844 1585.628906 1019.027344 1585.003906 1019.027344 1583.128906 L 1019.027344 1494.695312 C 1019.027344 1493.445312 1018.402344 1492.195312 1017.464844 1491.257812 C 1016.527344 1490.320312 1015.277344 1490.007812 1014.339844 1490.007812 L 967.152344 1490.007812 C 965.902344 1490.007812 964.652344 1490.320312 964.027344 1491.257812 C 963.089844 1492.195312 962.464844 1493.445312 962.464844 1494.695312 L 962.464844 1506.257812 C 962.464844 1507.507812 962.777344 1508.757812 964.027344 1509.382812 C 964.964844 1510.320312 965.902344 1510.945312 967.152344 1510.945312 L 995.277344 1510.945312 C 996.839844 1510.945312 997.777344 1511.882812 997.777344 1513.445312 L 997.777344 1583.441406 C 997.777344 1585.003906 996.839844 1585.941406 995.277344 1585.941406 L 964.652344 1585.941406 C 963.402344 1585.941406 962.152344 1586.566406 961.527344 1587.503906 C 960.589844 1588.441406 959.964844 1589.378906 959.964844 1590.628906 L 959.964844 1601.878906 C 959.964844 1603.128906 960.277344 1604.378906 961.527344 1605.316406 C 962.777344 1605.941406 963.714844 1606.253906 964.964844 1606.253906 M 830.59375 1606.253906 L 842.46875 1606.253906 C 843.71875 1606.253906 844.96875 1605.941406 845.59375 1605.003906 C 846.53125 1604.066406 847.15625 1603.128906 847.15625 1601.566406 L 847.15625 1533.128906 C 847.15625 1525.316406 849.34375 1519.066406 853.71875 1514.695312 C 858.09375 1510.632812 864.03125 1508.445312 871.21875 1508.445312 C 878.40625 1508.445312 884.03125 1510.632812 888.40625 1514.695312 C 892.78125 1519.066406 894.96875 1525.003906 894.96875 1533.128906 L 894.96875 1601.566406 C 894.96875 1602.816406 895.28125 1604.066406 896.53125 1605.003906 C 897.46875 1605.941406 898.40625 1606.253906 899.65625 1606.253906 L 911.53125 1606.253906 C 912.78125 1606.253906 914.03125 1605.941406 914.65625 1605.003906 C 915.59375 1604.066406 916.21875 1603.128906 916.21875 1601.566406 L 916.21875 1530.941406 C 916.21875 1517.507812 912.46875 1506.882812 905.28125 1499.070312 C 898.09375 1491.257812 889.03125 1487.507812 877.46875 1487.507812 C 871.53125 1487.507812 867.15625 1488.132812 864.03125 1489.382812 C 860.90625 1490.632812 857.78125 1492.195312 854.65625 1494.070312 C 853.71875 1494.695312 852.78125 1495.320312 851.84375 1495.945312 C 850.90625 1496.570312 849.96875 1496.882812 849.03125 1496.882812 C 848.09375 1496.882812 847.15625 1496.570312 846.53125 1496.257812 C 845.90625 1495.632812 845.28125 1495.007812 844.65625 1493.757812 C 843.40625 1491.257812 841.84375 1490.320312 839.96875 1490.320312 L 830.28125 1490.320312 C 829.03125 1490.320312 827.78125 1490.632812 827.15625 1491.570312 C 826.21875 1492.507812 825.59375 1493.757812 825.59375 1495.007812 L 825.59375 1601.878906 C 825.59375 1603.128906 825.90625 1604.378906 827.15625 1605.316406 C 828.09375 1605.941406 829.34375 1606.253906 830.59375 1606.253906 M 709.351562 1546.878906 C 709.351562 1539.066406 709.351562 1533.441406 709.664062 1530.316406 C 709.976562 1527.191406 710.914062 1524.066406 712.164062 1521.566406 C 714.347656 1517.507812 717.160156 1514.382812 721.222656 1511.882812 C 725.285156 1509.382812 729.347656 1508.445312 734.347656 1508.445312 C 739.347656 1508.445312 743.722656 1509.695312 747.472656 1511.882812 C 751.222656 1514.070312 754.347656 1517.507812 756.535156 1521.566406 C 757.785156 1524.378906 758.722656 1527.191406 759.035156 1530.628906 C 759.347656 1534.066406 759.660156 1539.378906 759.660156 1546.878906 C 759.660156 1554.378906 759.347656 1559.378906 759.035156 1562.816406 C 758.722656 1566.253906 757.785156 1569.066406 756.535156 1571.878906 C 754.347656 1575.941406 751.222656 1579.066406 747.472656 1581.566406 C 743.722656 1584.066406 739.347656 1585.003906 734.347656 1585.003906 C 729.347656 1585.003906 725.285156 1583.753906 721.222656 1581.566406 C 717.160156 1579.378906 714.347656 1575.941406 712.164062 1571.878906 C 710.914062 1569.066406 709.976562 1566.253906 709.664062 1563.128906 C 709.351562 1560.003906 709.351562 1554.691406 709.351562 1546.878906 M 736.847656 1650.9375 C 749.347656 1650.9375 759.660156 1647.1875 767.785156 1639.0625 C 775.910156 1631.25 779.972656 1620.628906 779.972656 1606.878906 L 779.972656 1494.382812 C 779.972656 1493.132812 779.660156 1491.882812 778.722656 1490.945312 C 777.785156 1490.007812 776.847656 1489.695312 775.597656 1489.695312 L 767.472656 1489.695312 C 766.535156 1489.695312 765.597656 1490.007812 764.972656 1490.320312 C 764.347656 1490.632812 763.722656 1491.570312 762.785156 1492.820312 C 762.160156 1493.757812 761.535156 1494.695312 760.910156 1495.320312 C 760.285156 1495.945312 759.660156 1496.257812 758.410156 1496.257812 C 756.847656 1496.257812 754.660156 1495.320312 752.160156 1493.445312 C 749.347656 1491.570312 746.222656 1490.007812 743.097656 1488.757812 C 739.972656 1487.507812 735.910156 1486.882812 730.910156 1486.882812 C 723.410156 1486.882812 716.535156 1488.757812 710.289062 1491.882812 C 704.039062 1495.320312 699.039062 1500.320312 695.289062 1506.570312 C 692.164062 1511.257812 689.976562 1516.257812 689.039062 1521.566406 C 688.101562 1527.191406 687.476562 1535.316406 687.476562 1545.941406 C 687.476562 1556.566406 688.101562 1564.691406 689.039062 1570.316406 C 689.976562 1575.941406 692.164062 1580.941406 695.289062 1585.628906 C 699.039062 1591.878906 704.351562 1596.878906 710.601562 1600.316406 C 716.847656 1603.753906 723.722656 1605.628906 731.535156 1605.628906 C 735.597656 1605.628906 739.035156 1605.003906 741.535156 1604.066406 C 744.347656 1603.128906 746.847656 1601.878906 749.660156 1600.316406 C 751.847656 1598.753906 753.410156 1598.128906 754.972656 1598.128906 C 756.535156 1598.128906 757.472656 1598.441406 758.097656 1599.691406 C 758.722656 1600.628906 759.035156 1602.191406 759.035156 1604.378906 L 759.035156 1608.441406 C 759.035156 1615.941406 756.847656 1621.566406 752.785156 1625.625 C 748.722656 1629.375 743.097656 1631.5625 736.535156 1631.5625 C 731.222656 1631.5625 726.847656 1630.3125 722.785156 1628.125 C 719.035156 1625.941406 716.535156 1622.816406 714.972656 1618.753906 C 714.347656 1617.191406 713.410156 1615.941406 712.472656 1615.316406 C 711.535156 1614.691406 710.289062 1614.378906 708.726562 1614.378906 L 697.789062 1614.378906 C 694.976562 1614.378906 693.414062 1615.941406 693.414062 1618.753906 L 693.414062 1619.691406 C 694.664062 1629.066406 699.351562 1636.25 707.164062 1642.1875 C 715.285156 1648.125 724.972656 1650.9375 736.847656 1650.9375 M 575.292969 1548.128906 C 575.292969 1540.628906 575.605469 1535.003906 575.917969 1531.566406 C 576.542969 1528.128906 577.480469 1525.003906 578.730469 1522.191406 C 580.917969 1518.132812 584.042969 1514.695312 588.417969 1512.195312 C 592.792969 1509.695312 597.480469 1508.445312 602.792969 1508.445312 C 608.101562 1508.445312 612.789062 1509.695312 617.164062 1512.195312 C 621.539062 1514.695312 624.664062 1517.816406 626.851562 1522.191406 C 628.101562 1525.003906 629.351562 1528.128906 629.664062 1531.566406 C 629.976562 1535.316406 630.289062 1540.628906 630.289062 1548.128906 C 630.289062 1555.628906 629.976562 1561.253906 629.664062 1564.691406 C 629.351562 1568.441406 628.414062 1571.566406 626.851562 1574.378906 C 624.664062 1578.441406 621.539062 1581.878906 617.164062 1584.378906 C 613.101562 1586.878906 608.101562 1588.128906 602.792969 1588.128906 C 597.480469 1588.128906 592.792969 1586.878906 588.730469 1584.378906 C 584.667969 1581.878906 581.230469 1578.753906 579.042969 1574.378906 C 577.792969 1571.566406 576.542969 1568.441406 576.230469 1564.691406 C 575.605469 1561.253906 575.292969 1555.628906 575.292969 1548.128906 M 602.789062 1608.753906 C 611.539062 1608.753906 619.351562 1606.878906 626.539062 1603.441406 C 633.726562 1600.003906 639.351562 1595.003906 643.414062 1588.441406 C 646.851562 1583.753906 649.039062 1578.441406 649.976562 1572.503906 C 650.914062 1566.566406 651.851562 1558.441406 651.851562 1547.816406 C 651.851562 1537.191406 651.226562 1529.066406 649.976562 1523.128906 C 648.726562 1517.195312 646.539062 1511.882812 643.414062 1507.195312 C 639.039062 1500.632812 633.414062 1495.945312 626.539062 1492.195312 C 619.351562 1488.757812 611.539062 1486.882812 603.101562 1486.882812 C 594.355469 1486.882812 586.855469 1488.757812 579.667969 1492.195312 C 572.792969 1495.945312 566.855469 1500.632812 562.480469 1506.882812 C 559.042969 1511.570312 556.855469 1516.882812 555.917969 1522.816406 C 554.980469 1528.753906 554.042969 1536.878906 554.042969 1547.503906 C 554.042969 1558.128906 554.667969 1566.253906 555.917969 1572.191406 C 557.167969 1578.128906 559.355469 1583.441406 562.480469 1588.128906 C 566.542969 1594.691406 572.167969 1599.378906 579.355469 1603.128906 C 586.542969 1606.878906 594.042969 1608.753906 602.789062 1608.753906 M 471.546875 1608.753906 C 480.609375 1608.753906 488.734375 1606.878906 495.605469 1603.753906 C 502.480469 1600.316406 507.792969 1595.628906 511.855469 1589.691406 C 515.605469 1583.753906 517.480469 1576.878906 517.480469 1569.066406 C 517.480469 1567.816406 517.167969 1566.878906 516.230469 1565.941406 C 515.292969 1565.003906 514.355469 1564.691406 513.417969 1564.691406 L 500.605469 1564.691406 C 499.355469 1564.691406 498.105469 1565.003906 497.167969 1565.628906 C 496.230469 1566.253906 495.917969 1567.191406 495.917969 1568.128906 C 495.605469 1574.066406 493.109375 1578.753906 489.046875 1582.503906 C 484.671875 1586.253906 478.734375 1588.128906 471.546875 1588.128906 C 466.234375 1588.128906 461.546875 1586.878906 457.171875 1584.691406 C 453.109375 1582.191406 449.671875 1579.066406 447.484375 1574.378906 C 445.921875 1571.566406 444.984375 1568.128906 444.359375 1564.378906 C 444.046875 1560.628906 443.734375 1555.316406 443.734375 1548.441406 C 443.734375 1541.566406 444.046875 1536.253906 444.359375 1532.503906 C 444.984375 1528.753906 445.921875 1525.316406 447.484375 1522.503906 C 449.984375 1518.128906 453.109375 1514.691406 457.171875 1512.195312 C 461.546875 1509.695312 466.234375 1508.445312 471.546875 1508.445312 C 479.046875 1508.445312 484.671875 1510.320312 489.046875 1514.066406 C 493.417969 1517.816406 495.605469 1522.503906 495.917969 1528.441406 C 495.917969 1529.378906 496.230469 1530.316406 497.167969 1531.253906 C 498.105469 1531.878906 499.042969 1532.191406 500.605469 1532.191406 L 513.417969 1532.191406 C 514.667969 1532.191406 515.605469 1531.878906 516.230469 1530.941406 C 516.855469 1530.003906 517.167969 1529.066406 517.167969 1527.503906 C 517.167969 1519.691406 515.292969 1512.816406 511.230469 1506.882812 C 507.167969 1500.945312 501.855469 1496.257812 494.980469 1492.820312 C 488.109375 1489.382812 480.296875 1487.820312 471.546875 1487.820312 C 462.796875 1487.820312 454.984375 1489.382812 448.421875 1492.820312 C 441.546875 1495.945312 436.234375 1500.632812 431.859375 1506.570312 C 428.109375 1511.566406 425.296875 1517.503906 424.046875 1523.753906 C 422.796875 1530.316406 422.171875 1538.441406 422.171875 1548.441406 C 422.171875 1558.441406 422.796875 1566.566406 424.046875 1573.128906 C 425.296875 1579.691406 428.109375 1585.316406 431.859375 1590.316406 C 436.234375 1596.253906 441.859375 1600.941406 448.421875 1604.066406 C 455.296875 1607.191406 462.796875 1608.753906 471.546875 1608.753906 M 308.425781 1535.003906 C 308.425781 1526.253906 310.925781 1519.378906 315.613281 1514.070312 C 320.300781 1508.757812 327.175781 1506.257812 335.925781 1506.257812 C 344.675781 1506.257812 351.238281 1508.757812 355.925781 1514.070312 C 360.613281 1519.378906 362.800781 1526.253906 362.800781 1535.003906 C 362.800781 1536.566406 361.863281 1537.503906 360.300781 1537.503906 L 310.300781 1537.503906 C 309.363281 1537.503906 308.425781 1536.566406 308.425781 1535.003906 M 336.550781 1608.753906 C 348.425781 1608.753906 358.425781 1605.941406 366.238281 1600.003906 C 374.363281 1594.066406 379.363281 1585.941406 381.550781 1575.628906 C 381.863281 1574.378906 381.550781 1573.128906 380.925781 1572.191406 C 379.988281 1571.253906 379.050781 1570.941406 377.488281 1570.941406 L 366.238281 1570.941406 C 363.425781 1570.941406 361.550781 1572.191406 360.613281 1575.003906 C 358.738281 1580.941406 355.613281 1584.691406 351.863281 1587.191406 C 348.113281 1589.378906 342.800781 1590.628906 336.550781 1590.628906 C 328.113281 1590.628906 321.550781 1587.816406 316.550781 1582.503906 C 311.238281 1576.878906 308.738281 1569.066406 308.738281 1558.128906 C 308.738281 1556.566406 309.363281 1555.628906 311.238281 1555.628906 L 379.988281 1555.628906 C 381.238281 1555.628906 382.488281 1555.003906 383.113281 1554.066406 C 384.046875 1553.128906 384.671875 1552.191406 384.671875 1550.941406 L 384.671875 1540.628906 C 384.671875 1524.066406 380.613281 1510.945312 372.175781 1501.570312 C 363.738281 1492.195312 351.863281 1487.507812 336.550781 1487.507812 C 303.738281 1487.507812 287.175781 1507.820312 287.175781 1548.128906 C 286.863281 1588.753906 303.425781 1608.753906 336.550781 1608.753906 M 177.804688 1515.945312 L 177.804688 1466.570312 C 177.804688 1465.007812 178.429688 1464.070312 180.304688 1464.070312 L 205.617188 1464.070312 C 213.117188 1464.070312 219.367188 1466.570312 224.367188 1471.570312 C 229.367188 1476.570312 231.867188 1483.132812 231.867188 1491.257812 C 231.867188 1498.757812 229.367188 1505.007812 224.367188 1510.320312 C 219.367188 1515.632812 213.117188 1518.132812 205.929688 1518.132812 L 180.617188 1518.132812 C 178.429688 1518.441406 177.804688 1517.507812 177.804688 1515.945312 M 159.996094 1606.253906 L 173.117188 1606.253906 C 174.367188 1606.253906 175.617188 1605.941406 176.554688 1605.003906 C 177.492188 1604.066406 177.804688 1603.128906 177.804688 1601.566406 L 177.804688 1542.816406 C 177.804688 1541.253906 178.429688 1540.316406 180.304688 1540.316406 L 198.117188 1540.316406 C 199.992188 1540.316406 201.242188 1541.253906 202.179688 1542.816406 L 230.304688 1601.566406 C 230.929688 1603.128906 231.867188 1604.378906 232.804688 1605.003906 C 233.742188 1605.628906 234.992188 1605.941406 236.867188 1605.941406 L 249.992188 1605.941406 C 251.554688 1605.941406 252.492188 1605.628906 253.429688 1604.691406 C 254.367188 1603.753906 254.992188 1602.816406 254.992188 1601.566406 C 254.992188 1600.941406 254.679688 1600.003906 254.054688 1598.441406 L 226.867188 1541.878906 C 225.929688 1540.316406 225.617188 1539.066406 225.617188 1538.441406 C 225.617188 1536.878906 226.554688 1535.941406 228.742188 1535.003906 C 236.554688 1530.316406 242.804688 1524.066406 247.804688 1516.878906 C 252.492188 1509.382812 254.992188 1501.257812 254.992188 1491.570312 C 254.992188 1482.195312 252.804688 1473.445312 248.742188 1465.945312 C 244.679688 1458.445312 238.742188 1452.507812 231.242188 1448.445312 C 223.742188 1444.382812 215.304688 1442.195312 206.242188 1442.195312 L 159.996094 1442.195312 C 158.746094 1442.195312 157.496094 1442.820312 156.558594 1443.757812 C 155.621094 1444.695312 155.308594 1445.945312 155.308594 1446.882812 L 155.308594 1601.566406 C 155.308594 1602.816406 155.621094 1604.066406 156.558594 1605.003906 C 157.808594 1605.941406 158.746094 1606.253906 159.996094 1606.253906 " fill-opacity="1" fill-rule="nonzero"/><path fill="#a2e4b8" d="M 153.433594 3221.820312 L 243.429688 3221.820312 L 243.429688 2915.582031 L 153.433594 2915.582031 Z M 153.433594 3221.820312 " fill-opacity="1" fill-rule="nonzero"/><path fill="#a2e4b8" d="M 567.792969 3005.578125 L 675.914062 3005.578125 L 675.914062 2915.582031 L 477.796875 2915.582031 L 477.796875 3221.820312 L 675.914062 3221.820312 L 675.914062 3131.824219 L 567.792969 3131.824219 C 562.792969 3131.824219 558.730469 3127.761719 558.730469 3122.761719 C 558.730469 3117.761719 562.792969 3113.699219 567.792969 3113.699219 L 675.914062 3113.699219 L 675.914062 3023.703125 L 567.792969 3023.703125 C 562.792969 3023.703125 558.730469 3019.640625 558.730469 3014.640625 C 558.730469 3009.640625 562.792969 3005.578125 567.792969 3005.578125 " fill-opacity="1" fill-rule="nonzero"/><path fill="#a2e4b8" d="M 801.847656 3041.515625 C 801.847656 3046.515625 797.785156 3050.578125 792.785156 3050.578125 C 787.785156 3050.578125 783.722656 3046.515625 783.722656 3041.515625 L 783.722656 2978.390625 C 783.722656 2973.390625 787.785156 2969.328125 792.785156 2969.328125 C 797.785156 2969.328125 801.847656 2973.390625 801.847656 2978.390625 Z M 792.785156 3167.757812 C 787.785156 3167.757812 783.722656 3163.699219 783.722656 3158.699219 L 783.722656 3095.574219 C 783.722656 3090.574219 787.785156 3086.511719 792.785156 3086.511719 C 797.785156 3086.511719 801.847656 3090.574219 801.847656 3095.574219 L 801.847656 3158.699219 C 801.847656 3163.699219 797.785156 3167.757812 792.785156 3167.757812 M 845.90625 3068.699219 C 845.90625 3067.449219 846.84375 3066.511719 848.09375 3066.511719 C 873.71875 3066.511719 891.53125 3050.578125 891.53125 3023.703125 L 891.53125 2915.582031 L 693.414062 2915.582031 L 693.414062 3221.820312 L 891.53125 3221.820312 L 891.53125 3113.699219 C 891.53125 3086.824219 873.71875 3070.886719 848.09375 3070.886719 C 847.15625 3070.886719 845.90625 3069.949219 845.90625 3068.699219 " fill-opacity="1" fill-rule="nonzero"/><path fill="#a2e4b8" d="M 369.675781 3041.828125 C 369.675781 3046.828125 365.613281 3050.890625 360.613281 3050.890625 C 355.613281 3050.890625 351.550781 3046.828125 351.550781 3041.828125 L 351.550781 2978.703125 C 351.550781 2973.703125 355.613281 2969.640625 360.613281 2969.640625 C 365.613281 2969.640625 369.675781 2973.703125 369.675781 2978.703125 Z M 459.671875 3023.703125 L 459.671875 2915.582031 L 261.554688 2915.582031 L 261.554688 3221.820312 L 351.550781 3221.820312 L 351.550781 3095.886719 C 351.550781 3090.886719 355.613281 3086.824219 360.613281 3086.824219 C 365.613281 3086.824219 369.675781 3090.886719 369.675781 3095.886719 L 369.675781 3221.820312 L 459.671875 3221.820312 L 459.671875 3113.699219 C 459.671875 3086.824219 441.546875 3070.886719 416.234375 3070.886719 C 414.984375 3070.886719 414.046875 3069.949219 414.046875 3068.699219 C 414.046875 3067.449219 414.984375 3066.511719 416.234375 3066.511719 C 441.546875 3066.511719 459.671875 3050.578125 459.671875 3023.703125 " fill-opacity="1" fill-rule="nonzero"/><path fill="#00bf6f" d="M 3131.136719 3224.632812 C 3185.824219 3224.632812 3219.886719 3185.257812 3219.886719 3122.136719 C 3219.886719 3058.386719 3188.011719 3019.640625 3135.511719 3019.640625 C 3121.140625 3019.640625 3106.140625 3024.015625 3098.328125 3029.953125 C 3093.640625 3033.703125 3088.953125 3032.140625 3088.953125 3026.515625 L 3088.953125 2961.828125 C 3088.953125 2959.328125 3090.828125 2957.453125 3093.328125 2957.453125 L 3200.199219 2957.453125 C 3204.886719 2957.453125 3208.949219 2953.703125 3208.949219 2948.703125 L 3208.949219 2927.144531 C 3208.949219 2922.457031 3205.199219 2918.394531 3200.199219 2918.394531 L 3060.828125 2918.394531 C 3056.140625 2918.394531 3052.078125 2922.144531 3052.078125 2927.144531 L 3052.078125 3080.261719 C 3052.078125 3084.949219 3055.828125 3089.011719 3060.828125 3089.011719 L 3082.078125 3089.011719 C 3086.453125 3089.011719 3088.640625 3087.761719 3090.203125 3084.324219 C 3098.015625 3068.386719 3113.953125 3058.386719 3131.136719 3058.386719 C 3161.449219 3058.386719 3178.949219 3081.824219 3178.949219 3122.136719 C 3178.949219 3162.136719 3161.136719 3185.882812 3131.136719 3185.882812 C 3103.953125 3185.882812 3084.578125 3169.949219 3082.390625 3144.949219 C 3082.078125 3139.636719 3078.640625 3136.199219 3073.640625 3136.199219 L 3051.765625 3136.199219 C 3046.453125 3136.199219 3043.015625 3139.636719 3043.015625 3144.949219 C 3043.015625 3190.570312 3080.515625 3224.632812 3131.136719 3224.632812 M 2806.773438 3220.257812 L 2963.019531 3220.257812 C 2968.644531 3220.257812 2971.769531 3216.820312 2971.769531 3211.507812 L 2971.769531 3190.257812 C 2971.769531 3184.632812 2968.644531 3181.507812 2963.019531 3181.507812 L 2854.273438 3181.507812 C 2849.898438 3181.507812 2848.335938 3177.757812 2851.148438 3174.320312 L 2931.457031 3082.761719 C 2958.332031 3052.449219 2968.644531 3028.078125 2968.644531 2995.578125 C 2968.644531 2947.140625 2934.582031 2913.707031 2885.835938 2913.707031 C 2835.835938 2913.707031 2801.773438 2947.453125 2801.773438 2996.828125 L 2801.773438 3007.765625 C 2801.773438 3013.078125 2805.210938 3016.515625 2810.523438 3016.515625 L 2833.023438 3016.515625 C 2837.710938 3016.515625 2841.773438 3012.765625 2841.773438 3007.765625 L 2841.773438 3001.203125 C 2841.773438 2970.890625 2858.648438 2952.453125 2886.148438 2952.453125 C 2912.082031 2952.453125 2926.769531 2968.390625 2926.769531 2996.828125 C 2926.769531 3019.640625 2918.644531 3038.078125 2899.273438 3060.574219 L 2802.710938 3172.132812 C 2800.210938 3174.632812 2798.960938 3178.070312 2798.960938 3183.070312 L 2798.960938 3211.195312 C 2798.023438 3216.195312 2802.085938 3220.257812 2806.773438 3220.257812 M 2638.96875 3185.570312 C 2619.28125 3185.570312 2603.96875 3177.757812 2595.53125 3160.574219 C 2586.46875 3142.449219 2583.96875 3121.824219 2583.96875 3069.011719 C 2583.96875 3016.203125 2586.46875 2995.578125 2595.53125 2977.453125 C 2604.28125 2960.265625 2619.28125 2952.453125 2638.96875 2952.453125 C 2658.65625 2952.453125 2673.96875 2960.265625 2682.40625 2977.453125 C 2691.464844 2995.578125 2693.964844 3016.203125 2693.964844 3069.011719 C 2693.964844 3121.824219 2691.464844 3142.449219 2682.40625 3160.574219 C 2673.96875 3178.070312 2658.65625 3185.570312 2638.96875 3185.570312 M 2638.96875 3224.632812 C 2672.09375 3224.632812 2702.402344 3208.382812 2716.464844 3183.382812 C 2730.214844 3159.324219 2734.902344 3124.324219 2734.902344 3069.636719 C 2734.902344 3014.953125 2730.214844 2979.953125 2716.464844 2955.890625 C 2702.089844 2930.894531 2672.09375 2914.644531 2638.96875 2914.644531 C 2605.84375 2914.644531 2576.160156 2931.519531 2561.472656 2955.890625 C 2547.097656 2979.953125 2543.035156 3014.953125 2543.035156 3069.636719 C 2543.035156 3124.324219 2547.722656 3159.324219 2561.472656 3183.382812 C 2575.535156 3208.070312 2605.84375 3224.632812 2638.96875 3224.632812 M 2315.230469 3220.257812 L 2471.472656 3220.257812 C 2477.097656 3220.257812 2480.222656 3216.820312 2480.222656 3211.507812 L 2480.222656 3190.257812 C 2480.222656 3184.632812 2477.097656 3181.507812 2471.472656 3181.507812 L 2362.414062 3181.507812 C 2358.039062 3181.507812 2356.476562 3177.757812 2359.289062 3174.320312 L 2439.601562 3082.761719 C 2466.472656 3052.449219 2476.785156 3028.078125 2476.785156 2995.578125 C 2476.785156 2947.140625 2442.726562 2913.707031 2393.976562 2913.707031 C 2343.980469 2913.707031 2309.917969 2947.453125 2309.917969 2996.828125 L 2309.917969 3007.765625 C 2309.917969 3013.078125 2313.355469 3016.515625 2318.667969 3016.515625 L 2341.167969 3016.515625 C 2345.855469 3016.515625 2349.917969 3012.765625 2349.917969 3007.765625 L 2349.917969 3001.203125 C 2349.917969 2970.890625 2366.789062 2952.453125 2394.289062 2952.453125 C 2420.226562 2952.453125 2434.914062 2968.390625 2434.914062 2996.828125 C 2434.914062 3019.640625 2426.789062 3038.078125 2407.414062 3060.574219 L 2310.855469 3172.132812 C 2308.355469 3174.632812 2307.105469 3178.070312 2307.105469 3183.070312 L 2307.105469 3211.195312 C 2306.480469 3216.195312 2310.230469 3220.257812 2315.230469 3220.257812 " fill-opacity="1" fill-rule="nonzero"/><g clip-path="url(#608ccaa831)"><g transform="matrix(1, 0, 0, 1, 2146, 2770)"><g clip-path="url(#3ebb8f9ec3)"><g clip-path="url(#1392aeb927)"><path fill="#a2e4b8" d="M 0.585938 0.421875 L 1228.511719 0.421875 L 1228.511719 604.941406 L 0.585938 604.941406 Z M 0.585938 0.421875 " fill-opacity="1" fill-rule="nonzero"/></g></g></g></g><g transform="matrix(1, 0, 0, 1, 2271, 2876)"><g clip-path="url(#c246925386)"><g fill="#00bf6f" fill-opacity="1"><g transform="translate(0.972168, 360.792093)"><g><path d="M 42.109375 0 C 39.722656 0 37.632812 -0.894531 35.84375 -2.6875 C 34.050781 -4.476562 33.15625 -6.566406 33.15625 -8.953125 L 33.15625 -39.421875 C 33.15625 -41.804688 33.453125 -43.820312 34.046875 -45.46875 C 34.640625 -47.113281 35.984375 -49.28125 38.078125 -51.96875 L 138.875 -163.515625 C 149.625 -175.160156 157.460938 -185.832031 162.390625 -195.53125 C 167.316406 -205.238281 169.78125 -216.363281 169.78125 -228.90625 C 169.78125 -242.945312 165.894531 -254.894531 158.125 -264.75 C 150.363281 -274.601562 139.019531 -279.53125 124.09375 -279.53125 C 109.457031 -279.53125 98.03125 -274.75 89.8125 -265.1875 C 81.601562 -255.632812 77.5 -244.585938 77.5 -232.046875 L 77.5 -228.015625 C 77.5 -225.628906 76.601562 -223.539062 74.8125 -221.75 C 73.019531 -219.957031 70.929688 -219.0625 68.546875 -219.0625 L 44.34375 -219.0625 C 41.957031 -219.0625 39.867188 -219.957031 38.078125 -221.75 C 36.285156 -223.539062 35.390625 -225.628906 35.390625 -228.015625 L 35.390625 -231.59375 C 35.390625 -248.019531 39.117188 -262.878906 46.578125 -276.171875 C 54.046875 -289.460938 64.5 -299.835938 77.9375 -307.296875 C 91.382812 -314.765625 106.914062 -318.5 124.53125 -318.5 C 151.113281 -318.5 172.394531 -310.359375 188.375 -294.078125 C 204.351562 -277.804688 212.34375 -256.082031 212.34375 -228.90625 C 212.34375 -198.144531 198.753906 -168.28125 171.578125 -139.3125 L 90.9375 -49.28125 C 89.738281 -47.488281 89.140625 -46.144531 89.140625 -45.25 C 89.140625 -44.351562 89.585938 -43.53125 90.484375 -42.78125 C 91.378906 -42.03125 92.578125 -41.65625 94.078125 -41.65625 L 208.75 -41.65625 C 211.144531 -41.65625 213.238281 -40.757812 215.03125 -38.96875 C 216.820312 -37.175781 217.71875 -35.085938 217.71875 -32.703125 L 217.71875 -8.953125 C 217.71875 -6.566406 216.820312 -4.476562 215.03125 -2.6875 C 213.238281 -0.894531 211.144531 0 208.75 0 Z M 42.109375 0 "/></g></g></g><g fill="#00bf6f" fill-opacity="1"><g transform="translate(247.3569, 360.792093)"><g><path d="M 123.1875 4.921875 C 91.238281 4.921875 67.195312 -6.722656 51.0625 -30.015625 C 41.507812 -43.753906 34.71875 -61.148438 30.6875 -82.203125 C 26.65625 -103.253906 24.640625 -128.113281 24.640625 -156.78125 C 24.640625 -185.457031 26.65625 -210.320312 30.6875 -231.375 C 34.71875 -252.425781 41.507812 -269.820312 51.0625 -283.5625 C 67.195312 -306.851562 91.238281 -318.5 123.1875 -318.5 C 155.144531 -318.5 179.1875 -306.851562 195.3125 -283.5625 C 204.875 -269.820312 211.671875 -252.425781 215.703125 -231.375 C 219.734375 -210.320312 221.75 -185.457031 221.75 -156.78125 C 221.75 -128.414062 219.804688 -103.703125 215.921875 -82.640625 C 212.035156 -61.585938 205.164062 -44.046875 195.3125 -30.015625 C 179.1875 -6.722656 155.144531 4.921875 123.1875 4.921875 Z M 68.09375 -156.78125 C 68.09375 -133.195312 69.132812 -113.335938 71.21875 -97.203125 C 73.3125 -81.078125 77.492188 -67.9375 83.765625 -57.78125 C 92.429688 -43.445312 105.570312 -36.28125 123.1875 -36.28125 C 140.8125 -36.28125 153.953125 -43.445312 162.609375 -57.78125 C 168.585938 -68.238281 172.695312 -81.601562 174.9375 -97.875 C 177.175781 -114.15625 178.296875 -133.789062 178.296875 -156.78125 C 178.296875 -179.78125 177.175781 -199.414062 174.9375 -215.6875 C 172.695312 -231.96875 168.585938 -245.335938 162.609375 -255.796875 C 153.953125 -270.128906 140.8125 -277.296875 123.1875 -277.296875 C 105.570312 -277.296875 92.429688 -270.128906 83.765625 -255.796875 C 77.492188 -245.640625 73.3125 -232.492188 71.21875 -216.359375 C 69.132812 -200.234375 68.09375 -180.375 68.09375 -156.78125 Z M 68.09375 -156.78125 "/></g></g></g><g fill="#00bf6f" fill-opacity="1"><g transform="translate(493.741632, 360.792093)"><g><path d="M 42.109375 0 C 39.722656 0 37.632812 -0.894531 35.84375 -2.6875 C 34.050781 -4.476562 33.15625 -6.566406 33.15625 -8.953125 L 33.15625 -39.421875 C 33.15625 -41.804688 33.453125 -43.820312 34.046875 -45.46875 C 34.640625 -47.113281 35.984375 -49.28125 38.078125 -51.96875 L 138.875 -163.515625 C 149.625 -175.160156 157.460938 -185.832031 162.390625 -195.53125 C 167.316406 -205.238281 169.78125 -216.363281 169.78125 -228.90625 C 169.78125 -242.945312 165.894531 -254.894531 158.125 -264.75 C 150.363281 -274.601562 139.019531 -279.53125 124.09375 -279.53125 C 109.457031 -279.53125 98.03125 -274.75 89.8125 -265.1875 C 81.601562 -255.632812 77.5 -244.585938 77.5 -232.046875 L 77.5 -228.015625 C 77.5 -225.628906 76.601562 -223.539062 74.8125 -221.75 C 73.019531 -219.957031 70.929688 -219.0625 68.546875 -219.0625 L 44.34375 -219.0625 C 41.957031 -219.0625 39.867188 -219.957031 38.078125 -221.75 C 36.285156 -223.539062 35.390625 -225.628906 35.390625 -228.015625 L 35.390625 -231.59375 C 35.390625 -248.019531 39.117188 -262.878906 46.578125 -276.171875 C 54.046875 -289.460938 64.5 -299.835938 77.9375 -307.296875 C 91.382812 -314.765625 106.914062 -318.5 124.53125 -318.5 C 151.113281 -318.5 172.394531 -310.359375 188.375 -294.078125 C 204.351562 -277.804688 212.34375 -256.082031 212.34375 -228.90625 C 212.34375 -198.144531 198.753906 -168.28125 171.578125 -139.3125 L 90.9375 -49.28125 C 89.738281 -47.488281 89.140625 -46.144531 89.140625 -45.25 C 89.140625 -44.351562 89.585938 -43.53125 90.484375 -42.78125 C 91.378906 -42.03125 92.578125 -41.65625 94.078125 -41.65625 L 208.75 -41.65625 C 211.144531 -41.65625 213.238281 -40.757812 215.03125 -38.96875 C 216.820312 -37.175781 217.71875 -35.085938 217.71875 -32.703125 L 217.71875 -8.953125 C 217.71875 -6.566406 216.820312 -4.476562 215.03125 -2.6875 C 213.238281 -0.894531 211.144531 0 208.75 0 Z M 42.109375 0 "/></g></g></g><g fill="#00bf6f" fill-opacity="1"><g transform="translate(740.12633, 360.792093)"><g><path d="M 125.4375 4.921875 C 87.800781 4.921875 61.59375 -9.5625 46.8125 -38.53125 C 32.03125 -67.5 24.640625 -106.019531 24.640625 -154.09375 C 24.640625 -204.570312 32.476562 -244.59375 48.15625 -274.15625 C 63.832031 -303.71875 91.082031 -318.5 129.90625 -318.5 C 156.488281 -318.5 177.84375 -311.109375 193.96875 -296.328125 C 210.09375 -281.546875 218.15625 -262.0625 218.15625 -237.875 C 218.15625 -235.476562 217.257812 -233.382812 215.46875 -231.59375 C 213.675781 -229.800781 211.585938 -228.90625 209.203125 -228.90625 L 186.359375 -228.90625 C 183.671875 -228.90625 181.429688 -229.800781 179.640625 -231.59375 C 177.847656 -233.382812 176.800781 -235.476562 176.5 -237.875 C 175.007812 -251.3125 170.378906 -261.3125 162.609375 -267.875 C 154.847656 -274.445312 143.800781 -277.734375 129.46875 -277.734375 C 108.257812 -277.734375 92.875 -269.367188 83.3125 -252.640625 C 73.757812 -235.921875 69.285156 -214.722656 69.890625 -189.046875 C 69.890625 -187.546875 70.335938 -186.347656 71.234375 -185.453125 C 72.128906 -184.554688 73.171875 -184.109375 74.359375 -184.109375 C 75.554688 -184.109375 76.753906 -184.554688 77.953125 -185.453125 C 93.773438 -198.003906 112.4375 -204.28125 133.9375 -204.28125 C 150.96875 -204.28125 166.203125 -199.875 179.640625 -191.0625 C 193.078125 -182.25 203.523438 -170.003906 210.984375 -154.328125 C 218.453125 -138.648438 222.1875 -120.65625 222.1875 -100.34375 C 222.1875 -79.4375 218.15625 -60.992188 210.09375 -45.015625 C 202.03125 -29.035156 190.679688 -16.71875 176.046875 -8.0625 C 161.410156 0.59375 144.539062 4.921875 125.4375 4.921875 Z M 71.671875 -99.890625 C 71.671875 -80.484375 76.597656 -64.804688 86.453125 -52.859375 C 96.304688 -40.910156 109.300781 -34.9375 125.4375 -34.9375 C 141.257812 -34.9375 154.171875 -40.984375 164.171875 -53.078125 C 174.179688 -65.179688 179.1875 -80.785156 179.1875 -99.890625 C 179.1875 -119.304688 174.257812 -134.910156 164.40625 -146.703125 C 154.550781 -158.503906 141.5625 -164.40625 125.4375 -164.40625 C 109.300781 -164.40625 96.304688 -158.503906 86.453125 -146.703125 C 76.597656 -134.910156 71.671875 -119.304688 71.671875 -99.890625 Z M 71.671875 -99.890625 "/></g></g></g></g></g></svg>