<?xml version="1.0" encoding="UTF-8" standalone="no"?>
<!DOCTYPE svg PUBLIC "-//W3C//DTD SVG 1.1//EN" "http://www.w3.org/Graphics/SVG/1.1/DTD/svg11.dtd">
<svg width="100%" height="100%" viewBox="0 0 4500 4500" version="1.1" xmlns="http://www.w3.org/2000/svg" xmlns:xlink="http://www.w3.org/1999/xlink" xml:space="preserve" xmlns:serif="http://www.serif.com/" style="fill-rule:evenodd;clip-rule:evenodd;stroke-linejoin:round;stroke-miterlimit:2;">
    <g transform="matrix(1.33333,0,0,1.33333,0.0799073,0)">
        <clipPath id="_clip1">
            <rect x="0" y="0.059" width="3374.76" height="3374.88"/>
        </clipPath>
        <g clip-path="url(#_clip1)">
            <rect x="0" y="0.059" width="3374.88" height="3374.88" style="fill:rgb(213,213,213);fill-rule:nonzero;"/>
            <rect x="0" y="0.059" width="3374.88" height="3374.88" style="fill:rgb(213,213,213);fill-rule:nonzero;"/>
            <rect x="0" y="0.059" width="3374.88" height="3374.88" style="fill:white;fill-rule:nonzero;"/>
        </g>
    </g>
    <g>
        <g transform="matrix(1.33333,0,0,1.33333,0.0799073,0)">
            <path d="M871.531,479.73L871.531,153.18L153.434,153.18L153.434,1262.83L871.531,1262.83L871.531,936.59L512.48,936.59C494.98,936.59 479.984,921.59 479.984,904.09L479.984,512.23C479.984,494.73 495.293,479.73 512.793,479.73L871.531,479.73Z" style="fill:rgb(28,28,28);fill-rule:nonzero;"/>
        </g>
        <g transform="matrix(1.33333,0,0,1.33333,0.0799073,0)">
            <path d="M2829.9,479.73L3221.45,479.73L3221.45,153.18L2503.35,153.18L2503.35,1262.83L3221.45,1262.83L3221.45,936.277L2829.9,936.277C2812.09,936.277 2797.4,921.59 2797.4,903.777C2797.4,885.652 2812.09,870.965 2829.9,870.965L3221.45,870.965L3221.45,544.727L2829.9,544.727C2812.09,544.727 2797.4,530.043 2797.4,512.23C2797.09,494.418 2811.77,479.418 2829.9,479.73" style="fill:rgb(28,28,28);fill-rule:nonzero;"/>
        </g>
        <g transform="matrix(1.33333,0,0,1.33333,0.0799073,0)">
            <path d="M1328.39,642.848C1328.7,661.91 1312.45,675.348 1295.58,675.348C1278.7,675.348 1263.08,661.91 1263.08,642.848L1263.08,381.609C1263.08,363.797 1279.02,349.109 1295.89,349.109C1312.77,349.109 1328.39,363.484 1328.39,381.609L1328.39,642.848ZM936.84,153.18L936.84,1263.14L1263.08,1263.14L1263.08,904.09C1263.08,885.652 1277.45,871.59 1295.58,871.59L1491.51,871.59C1589.32,871.59 1654.63,806.281 1654.63,708.473L1654.63,153.492L936.84,153.18Z" style="fill:rgb(28,28,28);fill-rule:nonzero;"/>
        </g>
        <g transform="matrix(1.33333,0,0,1.33333,0.0799073,0)">
            <path d="M2112.11,610.039C2112.11,627.852 2097.43,642.535 2079.61,642.535C2061.8,642.535 2046.8,627.539 2046.8,610.039L2046.8,381.609C2046.8,363.484 2061.49,349.109 2079.3,349.109C2097.43,349.109 2111.8,363.797 2111.8,381.922L2112.11,610.039ZM2438.35,544.727L2438.35,153.18L1720.25,153.18L1720.25,1262.83L2046.49,1262.83L2046.49,805.969C2046.49,787.844 2061.18,773.156 2079.3,773.156C2097.43,773.156 2111.8,787.844 2111.8,805.969L2111.8,1262.83L2438.35,1262.83L2438.35,871.277C2438.35,774.094 2372.73,716.285 2280.54,716.285C2276.48,716.285 2272.42,712.848 2272.42,708.16C2272.42,704.098 2275.86,700.035 2280.54,700.035C2372.73,700.035 2438.35,642.535 2438.35,544.727" style="fill:rgb(28,28,28);fill-rule:nonzero;"/>
        </g>
    </g>
    <g transform="matrix(1.33333,0,0,1.33333,0.0799073,0)">
        <clipPath id="_clip2">
            <rect x="0" y="1415" width="3374.76" height="1959.94"/>
        </clipPath>
        <g clip-path="url(#_clip2)">
            <path d="M1718.69,1415.63L1718.69,2249.98L0,2249.98L0,3374.94L2147.73,3374.94L2147.73,2762.46L3374.88,2762.46L3374.88,1415.63L1718.69,1415.63Z" style="fill:rgb(28,28,28);fill-rule:nonzero;"/>
        </g>
    </g>
    <g>
        <g transform="matrix(1.33333,0,0,1.33333,0.0799073,0)">
            <path d="M1102.46,2093.73L1114.34,2093.73C1115.59,2093.73 1116.84,2093.11 1117.46,2092.48C1118.4,2091.55 1119.02,2090.61 1119.02,2089.05L1119.02,2025.93C1119.02,2015.93 1121.52,2008.74 1126.52,2003.74C1131.52,1998.74 1137.77,1996.24 1145.9,1996.24C1152.46,1996.24 1158.08,1998.11 1162.46,2001.86C1166.83,2005.61 1169.02,2010.61 1169.02,2016.55C1169.02,2017.8 1169.33,2019.05 1170.27,2019.99C1171.21,2020.93 1172.14,2021.24 1173.71,2021.24L1185.58,2021.24C1186.83,2021.24 1188.08,2020.61 1188.71,2019.99C1189.64,2019.05 1190.27,2018.11 1190.27,2016.55C1190.27,2008.43 1188.39,2001.24 1185.27,1994.99C1181.83,1988.74 1177.14,1983.74 1171.52,1980.3C1165.58,1976.86 1159.33,1974.99 1152.46,1974.99C1145.9,1974.99 1140.9,1975.93 1137.46,1977.49C1133.71,1979.05 1130.27,1981.24 1127.15,1983.74C1124.34,1985.93 1122.46,1986.86 1121.21,1986.86C1118.4,1986.86 1116.84,1984.99 1115.9,1980.93C1115.27,1978.74 1113.71,1977.8 1111.84,1977.8L1103.4,1977.8C1102.15,1977.8 1100.9,1978.11 1100.27,1979.05C1099.34,1979.99 1098.71,1981.24 1098.71,1982.49L1098.71,2089.36C1098.71,2090.61 1099.02,2091.86 1100.27,2092.8C1099.96,2093.11 1101.21,2093.73 1102.46,2093.73M976.527,2022.49C976.527,2013.74 979.027,2006.86 983.715,2001.55C988.402,1996.24 995.277,1993.74 1004.03,1993.74C1012.78,1993.74 1019.34,1996.24 1024.03,2001.55C1028.71,2006.86 1030.9,2013.74 1030.9,2022.49C1030.9,2024.05 1030.28,2024.99 1028.4,2024.99L978.402,2024.99C977.152,2024.99 976.527,2024.05 976.527,2022.49M1004.34,2096.23C1016.22,2096.23 1026.21,2093.42 1034.03,2087.48C1041.84,2081.55 1047.15,2073.42 1049.34,2063.11C1049.65,2061.86 1049.34,2060.61 1048.71,2059.68C1047.77,2058.74 1046.84,2058.43 1045.27,2058.43L1034.03,2058.43C1031.21,2058.43 1029.34,2059.68 1028.4,2062.49C1026.21,2068.42 1023.4,2072.17 1019.34,2074.67C1015.59,2076.86 1010.28,2078.11 1004.03,2078.11C995.902,2078.11 989.027,2075.3 984.027,2069.98C979.027,2064.36 976.215,2056.55 976.215,2045.61C976.215,2044.05 976.84,2043.11 978.715,2043.11L1047.46,2043.11C1048.71,2043.11 1049.96,2042.8 1050.9,2041.86C1051.84,2040.93 1052.15,2039.99 1052.15,2038.43L1052.15,2028.11C1052.15,2011.55 1048.09,1998.43 1039.65,1989.05C1031.53,1979.68 1019.34,1974.99 1004.03,1974.99C971.215,1974.99 954.965,1995.3 954.965,2035.61C954.965,2075.92 971.527,2096.23 1004.34,2096.23M841.219,2035.61C841.219,2028.11 841.531,2022.49 841.844,2018.74C842.156,2015.3 843.094,2012.18 844.656,2009.36C846.844,2004.99 849.969,2001.86 854.031,1999.36C858.094,1996.86 862.781,1995.61 867.781,1995.61C873.094,1995.61 877.469,1996.86 881.531,1999.36C885.594,2001.86 888.719,2004.99 890.594,2009.36C892.156,2012.18 892.781,2014.99 893.406,2018.74C893.719,2022.18 894.031,2027.8 894.031,2035.61C894.031,2043.11 893.719,2048.74 893.406,2052.49C893.094,2055.93 892.156,2059.05 890.594,2061.86C888.719,2065.93 885.594,2069.36 881.531,2071.86C877.469,2074.36 872.781,2075.61 867.781,2075.61C862.781,2075.61 858.094,2074.36 854.031,2071.86C849.969,2069.36 846.844,2066.24 844.656,2061.86C843.094,2059.05 842.469,2055.93 841.844,2052.49C841.531,2048.74 841.219,2043.11 841.219,2035.61M864.344,2096.23C869.344,2096.23 873.406,2095.61 876.531,2094.67C879.656,2093.73 882.781,2091.86 885.906,2089.98C888.719,2088.11 890.906,2087.17 892.469,2087.17C894.031,2087.17 895.594,2088.11 896.844,2090.3C898.094,2092.48 899.656,2093.42 901.531,2093.42L909.656,2093.42C910.906,2093.42 912.156,2092.8 913.094,2092.17C914.031,2091.23 914.344,2090.3 914.344,2088.73L914.344,1931.87C914.344,1930.62 914.031,1929.37 913.094,1928.74C912.156,1927.81 911.219,1927.18 909.656,1927.18L897.781,1927.18C896.531,1927.18 895.281,1927.81 894.344,1928.74C893.406,1929.68 893.094,1930.62 893.094,1931.87L893.094,1975.93C893.094,1980.3 891.531,1982.18 888.719,1982.18C887.469,1982.18 885.906,1981.55 883.406,1979.99C880.594,1978.43 878.094,1977.18 875.281,1976.24C872.469,1975.3 869.031,1974.68 864.656,1974.68C856.844,1974.68 849.656,1976.55 843.094,1979.99C836.531,1983.43 831.219,1988.43 827.156,1994.99C824.344,1999.68 822.16,2004.99 821.223,2010.61C819.973,2016.55 819.66,2024.68 819.66,2035.61C819.66,2046.55 820.285,2054.99 821.223,2060.61C822.16,2066.23 824.344,2071.55 827.156,2076.23C831.219,2082.8 836.531,2087.48 842.781,2091.23C849.656,2094.67 856.531,2096.23 864.344,2096.23M733.098,1957.18L749.035,1957.18C749.973,1957.18 750.91,1956.87 751.848,1956.24C752.473,1955.61 752.785,1954.68 752.785,1953.43L752.785,1934.37C752.785,1933.43 752.473,1932.49 751.848,1931.87C751.223,1931.24 750.285,1930.62 749.035,1930.62L733.098,1930.62C731.848,1930.62 731.223,1930.93 730.285,1931.87C729.66,1932.81 729.348,1933.43 729.348,1934.37L729.348,1953.74C729.348,1954.68 729.66,1955.61 730.285,1956.56C731.223,1956.87 732.16,1957.18 733.098,1957.18M697.789,2093.73L783.41,2093.73C784.66,2093.73 785.91,2093.11 786.848,2092.48C787.785,2091.55 788.098,2090.61 788.098,2089.05L788.098,2077.8C788.098,2076.55 787.473,2075.3 786.848,2074.36C785.91,2073.42 784.66,2073.11 783.41,2073.11L754.348,2073.11C752.785,2073.11 751.848,2072.48 751.848,2070.61L751.848,1982.18C751.848,1980.93 751.535,1979.68 750.598,1978.74C749.66,1977.8 748.41,1977.49 747.16,1977.49L699.977,1977.49C698.727,1977.49 697.477,1977.8 696.539,1978.74C695.602,1979.68 695.289,1980.93 695.289,1982.18L695.289,1993.74C695.289,1994.99 695.602,1996.24 696.539,1997.18C697.477,1998.11 698.414,1998.43 699.977,1998.43L728.098,1998.43C729.66,1998.43 730.598,1999.36 730.598,2000.93L730.598,2070.93C730.598,2072.48 729.973,2073.42 728.098,2073.42L697.477,2073.42C696.227,2073.42 694.977,2074.05 694.039,2074.67C693.102,2075.61 692.789,2076.86 692.789,2078.11L692.789,2089.36C692.789,2090.61 693.102,2091.86 694.039,2092.8C695.602,2093.11 696.539,2093.73 697.789,2093.73M595.605,2093.73L609.977,2093.73C611.852,2093.73 613.414,2092.48 614.352,2090.3L654.352,1984.36C654.664,1983.74 654.977,1982.8 654.977,1981.86C654.977,1980.61 654.664,1979.68 653.727,1978.74C652.789,1978.11 651.852,1977.49 650.602,1977.49L637.477,1977.49C635.289,1977.49 633.727,1978.74 633.102,1980.93L604.664,2060.3C604.352,2060.93 604.039,2061.24 603.102,2061.24C602.168,2061.24 601.543,2060.93 601.543,2060.3L572.793,1980.93C572.168,1978.43 570.605,1977.49 568.418,1977.49L555.293,1977.49C554.043,1977.49 553.105,1977.8 552.168,1978.74C551.23,1979.68 550.918,1980.61 550.918,1981.86C550.918,1982.49 550.918,1983.43 551.543,1984.36L591.855,2090.3C591.855,2092.48 593.418,2093.73 595.605,2093.73M441.547,2035.61C441.547,2028.11 441.859,2022.49 442.172,2019.05C442.484,2015.61 443.422,2012.49 444.984,2009.68C447.172,2005.3 450.297,2002.18 454.672,1999.68C459.047,1997.18 463.734,1995.93 469.047,1995.93C474.359,1995.93 479.047,1997.18 483.422,1999.68C487.484,2002.18 490.922,2005.3 493.109,2009.68C494.359,2012.49 495.605,2015.61 495.918,2019.05C496.543,2022.8 496.543,2028.11 496.543,2035.61C496.543,2043.11 496.23,2048.74 495.918,2052.18C495.605,2055.93 494.672,2059.05 493.109,2061.86C490.922,2065.92 487.797,2069.36 483.422,2071.86C479.047,2074.36 474.359,2075.61 469.047,2075.61C463.734,2075.61 459.047,2074.36 454.984,2071.86C450.922,2069.36 447.484,2066.24 445.297,2061.86C444.047,2059.05 442.797,2055.93 442.484,2052.18C441.859,2048.74 441.547,2043.11 441.547,2035.61M469.047,2096.23C477.797,2096.23 485.609,2094.36 492.797,2090.92C499.98,2087.48 505.293,2082.48 509.668,2075.92C513.105,2071.23 515.293,2065.92 516.23,2059.99C517.168,2054.05 518.105,2045.93 518.105,2035.3C518.105,2024.68 517.48,2016.55 516.23,2010.61C514.98,2004.68 512.793,1999.36 509.668,1994.68C505.293,1988.11 499.668,1983.43 492.797,1979.68C485.609,1976.24 477.797,1974.36 469.359,1974.36C460.609,1974.36 453.109,1976.24 445.922,1979.68C439.047,1983.43 433.109,1988.11 428.734,1994.36C425.297,1999.05 423.109,2004.36 422.172,2010.3C421.234,2016.24 420.297,2024.36 420.297,2034.99C420.297,2045.61 420.922,2053.74 422.172,2059.68C423.422,2065.61 425.609,2070.92 428.734,2075.61C432.797,2082.17 438.422,2086.86 445.609,2090.61C452.797,2094.36 460.297,2096.23 469.047,2096.23M300.926,2093.73L312.801,2093.73C314.051,2093.73 315.301,2093.11 316.238,2092.48C317.176,2091.55 317.488,2090.61 317.488,2089.05L317.488,2025.93C317.488,2015.93 319.988,2008.74 324.988,2003.74C329.988,1998.74 336.238,1996.24 344.363,1996.24C350.926,1996.24 356.551,1998.11 360.926,2001.86C365.301,2005.61 367.488,2010.61 367.488,2016.55C367.488,2017.8 367.801,2019.05 368.738,2019.99C369.676,2020.93 370.613,2021.24 372.176,2021.24L384.051,2021.24C385.297,2021.24 386.547,2020.61 387.172,2019.99C388.109,2019.05 388.734,2018.11 388.734,2016.55C388.734,2008.43 386.859,2001.24 383.426,1994.99C379.988,1988.74 375.301,1983.74 369.676,1980.3C364.051,1976.86 357.488,1974.99 350.613,1974.99C344.051,1974.99 339.051,1975.93 335.613,1977.49C331.863,1979.05 328.426,1981.24 325.301,1983.74C322.488,1985.93 320.613,1986.86 319.363,1986.86C316.551,1986.86 314.988,1984.99 314.051,1980.93C313.426,1978.74 311.863,1977.8 309.988,1977.8L301.551,1977.8C300.301,1977.8 299.051,1978.11 298.113,1979.05C297.176,1979.99 296.863,1981.24 296.863,1982.49L296.863,2089.36C296.863,2090.61 297.176,2091.86 298.113,2092.8C298.426,2093.11 299.676,2093.73 300.926,2093.73M180.305,2003.43L180.305,1954.06C180.305,1952.49 180.93,1951.56 182.805,1951.56L208.742,1951.56C215.617,1951.56 221.555,1954.06 226.555,1959.36C231.555,1964.68 234.055,1970.93 234.055,1978.43C234.055,1985.93 231.555,1992.18 226.555,1997.49C221.555,2002.8 215.617,2005.3 208.742,2005.3L182.805,2005.3C181.242,2005.93 180.305,2004.99 180.305,2003.43M162.496,2093.73L175.93,2093.73C177.18,2093.73 178.43,2093.11 179.055,2092.48C179.992,2091.55 180.617,2090.61 180.617,2089.05L180.617,2030.3C180.617,2028.74 181.242,2027.8 183.117,2027.8L209.367,2027.8C218.43,2027.8 226.555,2025.61 233.742,2021.24C240.93,2016.86 246.867,2010.93 250.93,2003.43C254.992,1995.93 257.18,1987.49 257.18,1978.43C257.18,1969.36 254.992,1960.93 250.93,1953.43C246.867,1945.93 240.93,1939.99 233.43,1935.62C225.93,1931.24 218.117,1929.06 209.055,1929.06L162.496,1929.06C161.246,1929.06 159.996,1929.68 159.059,1930.62C158.121,1931.56 157.809,1932.49 157.809,1933.74L157.809,2088.42C157.809,2089.67 158.121,2090.92 159.059,2091.86C159.996,2093.11 160.934,2093.73 162.496,2093.73" style="fill:rgb(28,28,28);fill-rule:nonzero;"/>
        </g>
        <g transform="matrix(1.33333,0,0,1.33333,0.0799073,0)">
            <path d="M1109.96,1790.62C1109.96,1782.81 1109.96,1777.18 1110.27,1774.06C1110.59,1770.93 1111.52,1767.81 1112.77,1765.31C1114.65,1761.25 1117.77,1758.12 1121.84,1755.62C1125.59,1753.12 1129.96,1752.18 1134.96,1752.18C1139.96,1752.18 1144.34,1753.43 1148.09,1755.62C1151.84,1757.81 1154.96,1761.25 1157.14,1765.31C1158.39,1768.12 1159.33,1770.93 1159.64,1774.37C1159.96,1777.81 1160.27,1783.12 1160.27,1790.62C1160.27,1798.12 1159.96,1803.12 1159.64,1806.56C1159.33,1810 1158.39,1812.81 1157.14,1815.62C1154.96,1819.68 1151.84,1822.81 1148.09,1825.31C1144.34,1827.81 1139.96,1828.75 1134.96,1828.75C1129.96,1828.75 1125.59,1827.5 1121.84,1825.31C1117.77,1822.81 1114.96,1819.68 1112.77,1815.62C1111.21,1812.81 1110.59,1810 1110.27,1806.87C1110.27,1803.75 1109.96,1798.43 1109.96,1790.62M1137.46,1894.68C1149.96,1894.68 1160.27,1890.93 1168.39,1882.81C1176.52,1874.99 1180.58,1864.37 1180.58,1850.62L1180.58,1738.12C1180.58,1736.87 1180.27,1735.62 1179.33,1734.69C1178.39,1733.75 1177.46,1733.44 1176.21,1733.44L1168.39,1733.44C1167.14,1733.44 1166.52,1733.75 1165.89,1734.06C1165.27,1734.69 1164.64,1735.31 1163.71,1736.56C1163.08,1737.5 1162.46,1738.43 1161.83,1739.06C1161.21,1739.68 1160.58,1740 1159.33,1740C1157.77,1740 1155.58,1739.06 1153.08,1737.18C1149.96,1735.31 1147.15,1733.75 1144.02,1732.5C1140.9,1731.25 1136.84,1730.62 1131.84,1730.62C1124.34,1730.62 1117.46,1732.5 1111.21,1735.62C1104.96,1739.06 1099.96,1744.06 1096.21,1750.31C1093.09,1755 1090.9,1760 1089.96,1765.31C1089.02,1770.93 1088.4,1779.06 1088.4,1789.68C1088.4,1800.31 1089.02,1808.43 1089.96,1814.06C1090.9,1819.68 1093.09,1824.68 1096.21,1829.37C1099.96,1835.62 1105.27,1840.62 1111.52,1844.06C1117.77,1847.49 1124.65,1849.37 1132.46,1849.37C1136.52,1849.37 1139.96,1848.74 1142.46,1847.81C1144.96,1846.87 1147.77,1845.62 1150.59,1844.06C1152.77,1842.5 1154.34,1841.87 1155.59,1841.87C1157.14,1841.87 1158.08,1842.5 1159.02,1843.43C1159.64,1844.37 1159.96,1845.93 1159.96,1848.12L1159.96,1852.18C1159.96,1859.68 1157.77,1865.31 1153.71,1869.37C1149.65,1873.12 1144.02,1875.31 1137.46,1875.31C1132.15,1875.31 1127.77,1874.06 1124.02,1871.87C1120.27,1869.68 1117.46,1866.56 1115.9,1862.49C1115.27,1860.93 1114.65,1859.68 1113.4,1859.06C1112.46,1858.43 1111.21,1858.12 1109.65,1858.12L1098.71,1858.12C1095.59,1858.12 1094.34,1859.68 1094.34,1862.49L1094.34,1863.43C1095.9,1872.81 1100.27,1880.31 1108.09,1885.93C1115.9,1891.87 1125.9,1894.68 1137.46,1894.68M964.027,1849.99L975.902,1849.99C977.152,1849.99 978.402,1849.37 979.34,1848.74C980.277,1847.81 980.59,1846.87 980.59,1845.31L980.59,1776.87C980.59,1769.06 982.777,1762.81 987.152,1758.43C991.527,1754.37 997.465,1752.18 1004.65,1752.18C1011.84,1752.18 1017.47,1754.37 1022.15,1758.43C1026.53,1762.81 1028.71,1768.75 1028.71,1776.87L1028.71,1845.31C1028.71,1846.56 1029.03,1847.81 1030.28,1848.74C1031.21,1849.68 1032.15,1849.99 1033.4,1849.99L1045.27,1849.99C1046.52,1849.99 1047.77,1849.37 1048.4,1848.74C1049.34,1847.81 1049.96,1846.87 1049.96,1845.31L1049.96,1774.68C1049.96,1761.25 1046.21,1750.62 1039.03,1742.81C1031.84,1735 1022.78,1731.25 1011.22,1731.25C1005.28,1731.25 1000.9,1731.88 997.777,1733.12C994.652,1734.38 991.527,1735.94 988.402,1737.81C987.465,1738.43 986.527,1739.06 985.59,1739.68C984.652,1740.31 983.715,1740.62 982.777,1740.62C981.527,1740.62 980.902,1740.31 980.277,1740C979.652,1739.37 979.027,1738.75 978.402,1737.5C977.152,1735 975.59,1734.06 973.715,1734.06L964.027,1734.06C962.777,1734.06 961.527,1734.37 960.902,1735.31C959.965,1736.25 959.34,1737.5 959.34,1738.75L959.34,1845.62C959.34,1846.87 959.652,1848.12 960.902,1849.06C961.84,1849.37 962.777,1849.99 964.027,1849.99M866.844,1713.75L882.781,1713.75C884.031,1713.75 884.656,1713.44 885.594,1712.81C886.219,1712.19 886.531,1711.25 886.531,1710L886.531,1690.62C886.531,1689.69 886.219,1688.75 885.594,1688.12C884.969,1687.5 884.031,1686.88 882.781,1686.88L866.844,1686.88C865.594,1686.88 864.969,1687.19 864.031,1688.12C863.406,1689.06 863.094,1689.69 863.094,1690.62L863.094,1710C863.094,1710.94 863.406,1711.88 864.031,1712.81C864.969,1713.12 865.594,1713.75 866.844,1713.75M831.531,1849.99L917.156,1849.99C918.406,1849.99 919.656,1849.37 920.594,1848.74C921.531,1847.81 921.844,1846.87 921.844,1845.31L921.844,1834.06C921.844,1832.81 921.531,1831.56 920.594,1830.62C919.656,1829.68 918.719,1829.37 917.156,1829.37L888.094,1829.37C886.531,1829.37 885.594,1828.75 885.594,1826.87L885.594,1738.44C885.594,1737.19 885.281,1735.94 884.031,1735C883.094,1734.06 882.156,1733.75 880.906,1733.75L833.719,1733.75C832.469,1733.75 831.219,1734.06 830.594,1735C829.656,1735.94 829.031,1737.19 829.031,1738.44L829.031,1750C829.031,1751.25 829.656,1752.5 830.594,1753.12C831.531,1753.75 832.469,1754.68 833.719,1754.68L861.844,1754.68C863.406,1754.68 864.344,1755.62 864.344,1757.18L864.344,1827.18C864.344,1828.75 863.719,1829.68 861.844,1829.68L831.219,1829.68C829.969,1829.68 828.719,1830.31 828.094,1830.93C827.156,1831.87 826.531,1833.12 826.531,1834.37L826.531,1845.62C826.531,1846.87 827.156,1848.12 828.094,1849.06C829.031,1849.37 830.281,1849.99 831.531,1849.99M696.852,1849.99L708.727,1849.99C709.977,1849.99 711.227,1849.37 712.164,1848.74C713.102,1847.81 713.41,1846.87 713.41,1845.31L713.41,1776.87C713.41,1769.06 715.598,1762.81 719.973,1758.43C724.348,1754.37 730.285,1752.18 737.473,1752.18C744.66,1752.18 750.598,1754.37 754.973,1758.43C759.348,1762.81 761.535,1768.75 761.535,1776.87L761.535,1845.31C761.535,1846.56 761.848,1847.81 762.785,1848.74C763.723,1849.68 764.66,1849.99 766.223,1849.99L778.098,1849.99C779.348,1849.99 780.598,1849.37 781.535,1848.74C782.473,1847.81 782.785,1846.87 782.785,1845.31L782.785,1774.68C782.785,1761.25 779.348,1750.62 772.16,1742.81C764.973,1735 755.91,1731.25 744.348,1731.25C738.723,1731.25 734.035,1731.88 730.91,1733.12C727.785,1734.38 724.66,1735.94 721.535,1737.81C720.598,1738.43 719.66,1739.06 718.723,1739.68C717.785,1740.31 716.848,1740.62 715.914,1740.62C714.664,1740.62 714.039,1740.31 713.414,1740C712.789,1739.37 712.164,1738.75 711.539,1737.5C710.289,1735 708.727,1734.06 706.852,1734.06L696.852,1734.06C695.602,1734.06 694.352,1734.37 693.414,1735.31C692.477,1736.25 692.164,1737.5 692.164,1738.75L692.164,1845.62C692.164,1846.87 692.477,1848.12 693.414,1849.06C694.664,1849.37 695.602,1849.99 696.852,1849.99M599.668,1713.75L615.602,1713.75C616.539,1713.75 617.477,1713.44 618.414,1712.81C619.039,1712.19 619.352,1711.25 619.352,1710L619.352,1690.62C619.352,1689.69 619.039,1688.75 618.414,1688.12C617.789,1687.5 616.852,1686.88 615.602,1686.88L599.668,1686.88C598.73,1686.88 597.793,1687.19 596.855,1688.12C596.23,1689.06 595.918,1689.69 595.918,1690.62L595.918,1710C595.918,1710.94 596.23,1711.88 596.855,1712.81C597.793,1713.12 598.418,1713.75 599.668,1713.75M564.355,1849.99L649.977,1849.99C651.227,1849.99 652.477,1849.37 653.414,1848.74C654.352,1847.81 654.664,1846.87 654.664,1845.31L654.664,1834.06C654.664,1832.81 654.352,1831.56 653.414,1830.62C652.477,1829.68 651.539,1829.37 649.977,1829.37L620.914,1829.37C619.352,1829.37 618.414,1828.75 618.414,1826.87L618.414,1738.44C618.414,1737.19 618.102,1735.94 617.164,1735C616.227,1734.06 615.289,1733.75 613.727,1733.75L566.543,1733.75C565.293,1733.75 564.043,1734.06 563.418,1735C562.48,1735.94 561.855,1737.19 561.855,1738.44L561.855,1750C561.855,1751.25 562.48,1752.5 563.418,1753.12C564.355,1754.06 565.293,1754.68 566.543,1754.68L594.668,1754.68C596.23,1754.68 597.168,1755.62 597.168,1757.18L597.168,1827.18C597.168,1828.75 596.23,1829.68 594.668,1829.68L564.043,1829.68C562.793,1829.68 561.543,1830.31 560.918,1830.93C559.98,1831.87 559.355,1833.12 559.355,1834.37L559.355,1845.62C559.355,1846.87 559.98,1848.12 560.918,1849.06C561.855,1849.37 563.105,1849.99 564.355,1849.99M441.859,1815.31C441.859,1809.68 443.734,1805.31 447.172,1802.18C450.609,1799.06 455.297,1797.5 461.234,1797.5L488.734,1797.5C490.297,1797.5 491.234,1798.43 491.234,1800L491.234,1810C491.234,1817.81 488.734,1823.75 484.047,1827.81C479.359,1831.87 472.484,1834.06 463.734,1834.06C457.484,1834.06 452.172,1832.5 448.109,1829.06C444.047,1825.93 441.859,1821.25 441.859,1815.31M460.922,1852.49C465.922,1852.49 470.297,1851.87 473.422,1850.93C476.547,1849.99 479.672,1848.12 482.797,1846.24C485.297,1844.37 487.484,1843.43 489.047,1843.43C490.922,1843.43 492.172,1844.37 493.418,1846.56C494.668,1848.74 496.23,1849.68 498.105,1849.68L506.23,1849.68C507.48,1849.68 508.73,1849.06 509.668,1848.43C510.605,1847.49 510.918,1846.56 510.918,1844.99L510.918,1770.93C510.918,1758.43 507.168,1748.75 499.668,1741.56C492.172,1734.37 481.547,1730.93 468.422,1730.93C459.984,1730.93 452.484,1732.5 445.922,1735.31C439.359,1738.43 434.359,1742.18 430.922,1747.5C427.484,1752.5 425.609,1758.12 425.609,1764.37C425.609,1767.5 427.172,1769.06 430.297,1769.06L440.297,1769.06C441.859,1769.06 443.109,1768.75 444.047,1768.43C444.984,1767.81 445.297,1766.87 445.609,1765.31C445.922,1760.93 448.109,1757.18 451.859,1754.37C455.609,1751.56 461.234,1750 468.109,1750C475.609,1750 481.234,1751.87 484.984,1755.62C488.734,1759.37 490.609,1764.37 490.609,1770.62L490.609,1776.87C490.609,1778.43 489.672,1779.37 488.109,1779.37L458.422,1779.37C446.547,1779.37 437.172,1782.81 430.297,1789.68C423.422,1796.56 419.984,1805 419.984,1815.62C419.984,1826.56 423.422,1835.31 430.609,1842.18C438.422,1849.06 448.109,1852.49 460.922,1852.49M300.926,1849.99L312.801,1849.99C314.051,1849.99 315.301,1849.37 316.238,1848.74C317.176,1847.81 317.488,1846.87 317.488,1845.31L317.488,1782.18C317.488,1772.5 319.988,1765 324.988,1760C329.988,1755 336.238,1752.5 344.363,1752.5C350.926,1752.5 356.551,1754.37 360.926,1758.12C365.301,1761.87 367.488,1766.87 367.488,1772.81C367.488,1774.06 368.113,1775.31 368.738,1776.25C369.676,1777.18 370.613,1777.5 372.176,1777.5L384.051,1777.5C385.297,1777.5 386.547,1777.18 387.172,1776.25C388.109,1775.31 388.734,1774.37 388.734,1772.81C388.734,1764.68 386.859,1757.5 383.426,1751.25C379.988,1745 375.301,1740 369.676,1736.56C364.051,1733.12 357.488,1731.25 350.613,1731.25C344.051,1731.25 339.051,1732.18 335.613,1733.75C331.863,1735.31 328.426,1737.5 325.301,1740C322.488,1742.18 320.613,1743.12 319.363,1743.12C316.551,1743.12 314.988,1741.25 314.051,1737.18C313.426,1735 311.863,1734.06 309.988,1734.06L301.551,1734.06C300.301,1734.06 299.051,1734.37 298.113,1735.31C297.176,1736.25 296.863,1737.5 296.863,1738.75L296.863,1845.62C296.863,1846.87 297.176,1848.12 298.113,1849.06C298.426,1849.37 299.676,1849.99 300.926,1849.99M195.305,1849.99L208.43,1849.99C209.68,1849.99 210.93,1849.37 211.867,1848.74C212.805,1847.81 213.117,1846.87 213.117,1845.31L213.117,1710.94C213.117,1709.38 213.742,1708.44 215.617,1708.44L251.555,1708.44C252.805,1708.44 254.055,1708.12 254.992,1706.88C255.93,1705.94 256.242,1705 256.242,1703.75L256.242,1690.62C256.242,1689.38 255.617,1688.12 254.992,1687.5C254.055,1686.56 252.805,1685.94 251.555,1685.94L152.496,1685.94C151.246,1685.94 149.996,1686.56 149.371,1687.5C148.746,1688.44 147.809,1689.69 147.809,1690.62L147.809,1703.75C147.809,1705 148.434,1706.25 149.371,1706.88C150.309,1707.81 151.246,1708.44 152.496,1708.44L188.43,1708.44C189.992,1708.44 190.93,1709.38 190.93,1710.94L190.93,1845.31C190.93,1846.56 191.242,1847.81 192.18,1848.74C193.117,1849.37 194.055,1849.99 195.305,1849.99" style="fill:rgb(28,28,28);fill-rule:nonzero;"/>
        </g>
        <g transform="matrix(1.33333,0,0,1.33333,0.0799073,0)">
            <path d="M1375.57,1548.13C1375.57,1540.63 1375.89,1535 1376.2,1531.25C1376.51,1527.82 1377.45,1524.69 1379.01,1521.88C1381.2,1517.82 1384.32,1514.38 1388.39,1511.88C1392.45,1509.38 1397.14,1508.13 1402.14,1508.13C1407.14,1508.13 1411.82,1509.38 1415.89,1511.88C1419.95,1514.38 1423.07,1517.5 1424.95,1521.88C1426.2,1524.69 1427.14,1527.5 1427.76,1531.25C1428.07,1534.69 1428.39,1540.32 1428.39,1548.13C1428.39,1555.94 1428.07,1561.25 1427.76,1565C1427.45,1568.44 1426.51,1571.57 1424.95,1574.38C1422.76,1578.44 1419.95,1581.88 1415.89,1584.38C1411.82,1586.88 1407.14,1588.13 1402.14,1588.13C1397.14,1588.13 1392.45,1586.88 1388.39,1584.38C1384.32,1581.88 1381.2,1578.75 1379.01,1574.38C1377.76,1571.57 1376.82,1568.44 1376.2,1565C1375.89,1561.25 1375.57,1555.94 1375.57,1548.13M1398.7,1608.75C1403.7,1608.75 1407.76,1608.13 1410.89,1607.19C1414.01,1606.25 1417.14,1604.38 1420.26,1602.5C1422.76,1600.63 1424.95,1599.69 1426.82,1599.69C1428.39,1599.69 1429.95,1600.63 1431.2,1602.82C1432.45,1605 1434.01,1605.94 1435.89,1605.94L1444.01,1605.94C1445.26,1605.94 1446.51,1605.63 1447.14,1604.69C1448.07,1603.75 1448.7,1602.82 1448.7,1601.25L1448.7,1444.38C1448.7,1443.13 1448.39,1441.88 1447.14,1441.26C1446.2,1440.32 1444.95,1439.69 1444.01,1439.69L1432.14,1439.69C1430.89,1439.69 1429.64,1440.32 1429.01,1441.26C1428.07,1442.19 1427.45,1443.44 1427.45,1444.38L1427.45,1488.44C1427.45,1492.51 1426.2,1494.69 1423.07,1494.69C1421.82,1494.69 1420.26,1494.07 1417.76,1492.51C1414.95,1490.94 1412.45,1489.69 1409.64,1488.76C1406.82,1487.82 1403.07,1487.19 1398.7,1487.19C1390.89,1487.19 1383.7,1489.07 1377.14,1492.51C1370.58,1495.94 1365.27,1500.94 1361.2,1507.51C1358.08,1512.19 1356.2,1517.51 1354.95,1523.13C1353.7,1529.07 1353.39,1537.19 1353.39,1548.13C1353.39,1559.07 1354.02,1567.5 1354.95,1573.13C1355.89,1578.75 1358.08,1584.07 1361.2,1588.75C1365.27,1595.32 1370.58,1600 1376.82,1603.75C1384.01,1607.19 1390.89,1608.75 1398.7,1608.75M1243.71,1535C1243.71,1526.25 1246.21,1519.38 1250.89,1514.07C1255.58,1508.76 1262.45,1506.26 1271.2,1506.26C1279.95,1506.26 1286.52,1508.76 1291.2,1514.07C1295.89,1519.38 1298.08,1526.25 1298.08,1535C1298.08,1536.57 1297.14,1537.5 1295.58,1537.5L1245.58,1537.5C1244.33,1537.5 1243.71,1536.57 1243.71,1535M1271.52,1608.75C1283.39,1608.75 1293.39,1605.94 1301.2,1600C1309.02,1594.07 1314.33,1585.94 1316.52,1575.63C1316.83,1574.38 1316.52,1573.13 1315.89,1572.19C1314.95,1571.25 1314.02,1570.94 1312.45,1570.94L1301.2,1570.94C1298.39,1570.94 1296.52,1572.19 1295.58,1575C1293.39,1580.94 1290.58,1584.69 1286.52,1587.19C1282.45,1589.38 1277.45,1590.63 1271.2,1590.63C1262.77,1590.63 1256.21,1587.82 1251.21,1582.5C1246.21,1576.88 1243.39,1569.07 1243.39,1558.13C1243.39,1556.57 1244.02,1555.63 1245.89,1555.63L1314.64,1555.63C1315.89,1555.63 1317.14,1555 1317.77,1554.07C1318.7,1553.13 1319.33,1552.19 1319.33,1550.94L1319.33,1540.63C1319.33,1524.07 1315.27,1510.94 1306.83,1501.57C1298.39,1492.19 1286.52,1487.51 1271.2,1487.51C1238.39,1487.51 1221.83,1507.82 1221.83,1548.13C1222.14,1588.75 1238.71,1608.75 1271.52,1608.75M1094.34,1606.25L1180.89,1606.25C1182.14,1606.25 1183.39,1605.94 1184.02,1605C1184.96,1604.07 1185.58,1603.13 1185.58,1601.57L1185.58,1590.63C1185.58,1589.38 1185.27,1588.13 1184.02,1587.5C1183.08,1586.57 1181.83,1585.94 1180.89,1585.94L1120.27,1585.94C1119.02,1585.94 1118.4,1585.32 1118.4,1584.07C1118.4,1583.44 1118.71,1582.82 1119.02,1582.5L1176.83,1517.82C1178.39,1516.25 1179.64,1514.38 1180.58,1513.13C1181.21,1511.57 1181.52,1510.01 1181.52,1508.44L1181.52,1495.01C1181.52,1493.76 1181.21,1492.51 1180.27,1491.57C1179.33,1490.63 1178.08,1490.32 1176.83,1490.32L1095.9,1490.32C1094.65,1490.32 1093.4,1490.63 1092.77,1491.57C1091.84,1492.51 1091.21,1493.76 1091.21,1495.01L1091.21,1505.94C1091.21,1507.19 1091.84,1508.44 1092.77,1509.07C1093.71,1510.01 1094.65,1510.63 1095.9,1510.63L1151.21,1510.63C1151.84,1510.63 1152.15,1510.94 1152.77,1511.26C1153.09,1511.57 1153.09,1512.19 1153.09,1512.51C1153.09,1513.13 1152.77,1513.76 1152.46,1514.07L1092.77,1580.32C1091.21,1581.88 1090.59,1583.13 1089.96,1584.07C1089.65,1585 1089.34,1586.25 1089.34,1587.82L1089.34,1601.57C1089.34,1602.82 1089.65,1604.07 1090.59,1605C1092.15,1605.94 1093.09,1606.25 1094.34,1606.25M1000.28,1470.01L1016.22,1470.01C1017.47,1470.01 1018.09,1469.69 1019.03,1469.07C1019.65,1468.44 1019.97,1467.51 1019.97,1466.26L1019.97,1446.88C1019.97,1445.94 1019.65,1445.01 1019.03,1444.38C1018.4,1443.76 1017.47,1443.13 1016.22,1443.13L1000.28,1443.13C999.027,1443.13 998.402,1443.44 997.465,1444.38C996.84,1445.32 996.527,1445.94 996.527,1446.88L996.527,1466.26C996.527,1467.19 996.84,1468.13 997.465,1469.07C998.402,1469.38 999.34,1470.01 1000.28,1470.01M964.965,1606.25L1050.59,1606.25C1051.84,1606.25 1053.09,1605.94 1053.71,1605C1054.65,1604.07 1055.27,1603.13 1055.27,1601.57L1055.27,1590.32C1055.27,1589.07 1054.65,1587.82 1053.71,1587.19C1052.77,1586.25 1051.84,1585.63 1050.59,1585.63L1021.53,1585.63C1019.97,1585.63 1019.03,1585 1019.03,1583.13L1019.03,1494.69C1019.03,1493.44 1018.4,1492.19 1017.47,1491.26C1016.53,1490.32 1015.28,1490.01 1014.34,1490.01L967.152,1490.01C965.902,1490.01 964.652,1490.32 964.027,1491.26C963.09,1492.19 962.465,1493.44 962.465,1494.69L962.465,1506.26C962.465,1507.51 962.777,1508.76 964.027,1509.38C964.965,1510.32 965.902,1510.94 967.152,1510.94L995.277,1510.94C996.84,1510.94 997.777,1511.88 997.777,1513.44L997.777,1583.44C997.777,1585 996.84,1585.94 995.277,1585.94L964.652,1585.94C963.402,1585.94 962.152,1586.57 961.527,1587.5C960.59,1588.44 959.965,1589.38 959.965,1590.63L959.965,1601.88C959.965,1603.13 960.277,1604.38 961.527,1605.32C962.777,1605.94 963.715,1606.25 964.965,1606.25M830.594,1606.25L842.469,1606.25C843.719,1606.25 844.969,1605.94 845.594,1605C846.531,1604.07 847.156,1603.13 847.156,1601.57L847.156,1533.13C847.156,1525.32 849.344,1519.07 853.719,1514.69C858.094,1510.63 864.031,1508.44 871.219,1508.44C878.406,1508.44 884.031,1510.63 888.406,1514.69C892.781,1519.07 894.969,1525 894.969,1533.13L894.969,1601.57C894.969,1602.82 895.281,1604.07 896.531,1605C897.469,1605.94 898.406,1606.25 899.656,1606.25L911.531,1606.25C912.781,1606.25 914.031,1605.94 914.656,1605C915.594,1604.07 916.219,1603.13 916.219,1601.57L916.219,1530.94C916.219,1517.51 912.469,1506.88 905.281,1499.07C898.094,1491.26 889.031,1487.51 877.469,1487.51C871.531,1487.51 867.156,1488.13 864.031,1489.38C860.906,1490.63 857.781,1492.19 854.656,1494.07C853.719,1494.69 852.781,1495.32 851.844,1495.94C850.906,1496.57 849.969,1496.88 849.031,1496.88C848.094,1496.88 847.156,1496.57 846.531,1496.26C845.906,1495.63 845.281,1495.01 844.656,1493.76C843.406,1491.26 841.844,1490.32 839.969,1490.32L830.281,1490.32C829.031,1490.32 827.781,1490.63 827.156,1491.57C826.219,1492.51 825.594,1493.76 825.594,1495.01L825.594,1601.88C825.594,1603.13 825.906,1604.38 827.156,1605.32C828.094,1605.94 829.344,1606.25 830.594,1606.25M709.352,1546.88C709.352,1539.07 709.352,1533.44 709.664,1530.32C709.977,1527.19 710.914,1524.07 712.164,1521.57C714.348,1517.51 717.16,1514.38 721.223,1511.88C725.285,1509.38 729.348,1508.44 734.348,1508.44C739.348,1508.44 743.723,1509.69 747.473,1511.88C751.223,1514.07 754.348,1517.51 756.535,1521.57C757.785,1524.38 758.723,1527.19 759.035,1530.63C759.348,1534.07 759.66,1539.38 759.66,1546.88C759.66,1554.38 759.348,1559.38 759.035,1562.82C758.723,1566.25 757.785,1569.07 756.535,1571.88C754.348,1575.94 751.223,1579.07 747.473,1581.57C743.723,1584.07 739.348,1585 734.348,1585C729.348,1585 725.285,1583.75 721.223,1581.57C717.16,1579.38 714.348,1575.94 712.164,1571.88C710.914,1569.07 709.977,1566.25 709.664,1563.13C709.352,1560 709.352,1554.69 709.352,1546.88M736.848,1650.94C749.348,1650.94 759.66,1647.19 767.785,1639.06C775.91,1631.25 779.973,1620.63 779.973,1606.88L779.973,1494.38C779.973,1493.13 779.66,1491.88 778.723,1490.94C777.785,1490.01 776.848,1489.69 775.598,1489.69L767.473,1489.69C766.535,1489.69 765.598,1490.01 764.973,1490.32C764.348,1490.63 763.723,1491.57 762.785,1492.82C762.16,1493.76 761.535,1494.69 760.91,1495.32C760.285,1495.94 759.66,1496.26 758.41,1496.26C756.848,1496.26 754.66,1495.32 752.16,1493.44C749.348,1491.57 746.223,1490.01 743.098,1488.76C739.973,1487.51 735.91,1486.88 730.91,1486.88C723.41,1486.88 716.535,1488.76 710.289,1491.88C704.039,1495.32 699.039,1500.32 695.289,1506.57C692.164,1511.26 689.977,1516.26 689.039,1521.57C688.102,1527.19 687.477,1535.32 687.477,1545.94C687.477,1556.57 688.102,1564.69 689.039,1570.32C689.977,1575.94 692.164,1580.94 695.289,1585.63C699.039,1591.88 704.352,1596.88 710.602,1600.32C716.848,1603.75 723.723,1605.63 731.535,1605.63C735.598,1605.63 739.035,1605 741.535,1604.07C744.348,1603.13 746.848,1601.88 749.66,1600.32C751.848,1598.75 753.41,1598.13 754.973,1598.13C756.535,1598.13 757.473,1598.44 758.098,1599.69C758.723,1600.63 759.035,1602.19 759.035,1604.38L759.035,1608.44C759.035,1615.94 756.848,1621.57 752.785,1625.62C748.723,1629.38 743.098,1631.56 736.535,1631.56C731.223,1631.56 726.848,1630.31 722.785,1628.12C719.035,1625.94 716.535,1622.82 714.973,1618.75C714.348,1617.19 713.41,1615.94 712.473,1615.32C711.535,1614.69 710.289,1614.38 708.727,1614.38L697.789,1614.38C694.977,1614.38 693.414,1615.94 693.414,1618.75L693.414,1619.69C694.664,1629.07 699.352,1636.25 707.164,1642.19C715.285,1648.12 724.973,1650.94 736.848,1650.94M575.293,1548.13C575.293,1540.63 575.605,1535 575.918,1531.57C576.543,1528.13 577.48,1525 578.73,1522.19C580.918,1518.13 584.043,1514.69 588.418,1512.19C592.793,1509.69 597.48,1508.44 602.793,1508.44C608.102,1508.44 612.789,1509.69 617.164,1512.19C621.539,1514.69 624.664,1517.82 626.852,1522.19C628.102,1525 629.352,1528.13 629.664,1531.57C629.977,1535.32 630.289,1540.63 630.289,1548.13C630.289,1555.63 629.977,1561.25 629.664,1564.69C629.352,1568.44 628.414,1571.57 626.852,1574.38C624.664,1578.44 621.539,1581.88 617.164,1584.38C613.102,1586.88 608.102,1588.13 602.793,1588.13C597.48,1588.13 592.793,1586.88 588.73,1584.38C584.668,1581.88 581.23,1578.75 579.043,1574.38C577.793,1571.57 576.543,1568.44 576.23,1564.69C575.605,1561.25 575.293,1555.63 575.293,1548.13M602.789,1608.75C611.539,1608.75 619.352,1606.88 626.539,1603.44C633.727,1600 639.352,1595 643.414,1588.44C646.852,1583.75 649.039,1578.44 649.977,1572.5C650.914,1566.57 651.852,1558.44 651.852,1547.82C651.852,1537.19 651.227,1529.07 649.977,1523.13C648.727,1517.19 646.539,1511.88 643.414,1507.19C639.039,1500.63 633.414,1495.94 626.539,1492.19C619.352,1488.76 611.539,1486.88 603.102,1486.88C594.355,1486.88 586.855,1488.76 579.668,1492.19C572.793,1495.94 566.855,1500.63 562.48,1506.88C559.043,1511.57 556.855,1516.88 555.918,1522.82C554.98,1528.75 554.043,1536.88 554.043,1547.5C554.043,1558.13 554.668,1566.25 555.918,1572.19C557.168,1578.13 559.355,1583.44 562.48,1588.13C566.543,1594.69 572.168,1599.38 579.355,1603.13C586.543,1606.88 594.043,1608.75 602.789,1608.75M471.547,1608.75C480.609,1608.75 488.734,1606.88 495.605,1603.75C502.48,1600.32 507.793,1595.63 511.855,1589.69C515.605,1583.75 517.48,1576.88 517.48,1569.07C517.48,1567.82 517.168,1566.88 516.23,1565.94C515.293,1565 514.355,1564.69 513.418,1564.69L500.605,1564.69C499.355,1564.69 498.105,1565 497.168,1565.63C496.23,1566.25 495.918,1567.19 495.918,1568.13C495.605,1574.07 493.109,1578.75 489.047,1582.5C484.672,1586.25 478.734,1588.13 471.547,1588.13C466.234,1588.13 461.547,1586.88 457.172,1584.69C453.109,1582.19 449.672,1579.07 447.484,1574.38C445.922,1571.57 444.984,1568.13 444.359,1564.38C444.047,1560.63 443.734,1555.32 443.734,1548.44C443.734,1541.57 444.047,1536.25 444.359,1532.5C444.984,1528.75 445.922,1525.32 447.484,1522.5C449.984,1518.13 453.109,1514.69 457.172,1512.19C461.547,1509.69 466.234,1508.44 471.547,1508.44C479.047,1508.44 484.672,1510.32 489.047,1514.07C493.418,1517.82 495.605,1522.5 495.918,1528.44C495.918,1529.38 496.23,1530.32 497.168,1531.25C498.105,1531.88 499.043,1532.19 500.605,1532.19L513.418,1532.19C514.668,1532.19 515.605,1531.88 516.23,1530.94C516.855,1530 517.168,1529.07 517.168,1527.5C517.168,1519.69 515.293,1512.82 511.23,1506.88C507.168,1500.94 501.855,1496.26 494.98,1492.82C488.109,1489.38 480.297,1487.82 471.547,1487.82C462.797,1487.82 454.984,1489.38 448.422,1492.82C441.547,1495.94 436.234,1500.63 431.859,1506.57C428.109,1511.57 425.297,1517.5 424.047,1523.75C422.797,1530.32 422.172,1538.44 422.172,1548.44C422.172,1558.44 422.797,1566.57 424.047,1573.13C425.297,1579.69 428.109,1585.32 431.859,1590.32C436.234,1596.25 441.859,1600.94 448.422,1604.07C455.297,1607.19 462.797,1608.75 471.547,1608.75M308.426,1535C308.426,1526.25 310.926,1519.38 315.613,1514.07C320.301,1508.76 327.176,1506.26 335.926,1506.26C344.676,1506.26 351.238,1508.76 355.926,1514.07C360.613,1519.38 362.801,1526.25 362.801,1535C362.801,1536.57 361.863,1537.5 360.301,1537.5L310.301,1537.5C309.363,1537.5 308.426,1536.57 308.426,1535M336.551,1608.75C348.426,1608.75 358.426,1605.94 366.238,1600C374.363,1594.07 379.363,1585.94 381.551,1575.63C381.863,1574.38 381.551,1573.13 380.926,1572.19C379.988,1571.25 379.051,1570.94 377.488,1570.94L366.238,1570.94C363.426,1570.94 361.551,1572.19 360.613,1575C358.738,1580.94 355.613,1584.69 351.863,1587.19C348.113,1589.38 342.801,1590.63 336.551,1590.63C328.113,1590.63 321.551,1587.82 316.551,1582.5C311.238,1576.88 308.738,1569.07 308.738,1558.13C308.738,1556.57 309.363,1555.63 311.238,1555.63L379.988,1555.63C381.238,1555.63 382.488,1555 383.113,1554.07C384.047,1553.13 384.672,1552.19 384.672,1550.94L384.672,1540.63C384.672,1524.07 380.613,1510.94 372.176,1501.57C363.738,1492.19 351.863,1487.51 336.551,1487.51C303.738,1487.51 287.176,1507.82 287.176,1548.13C286.863,1588.75 303.426,1608.75 336.551,1608.75M177.805,1515.94L177.805,1466.57C177.805,1465.01 178.43,1464.07 180.305,1464.07L205.617,1464.07C213.117,1464.07 219.367,1466.57 224.367,1471.57C229.367,1476.57 231.867,1483.13 231.867,1491.26C231.867,1498.76 229.367,1505.01 224.367,1510.32C219.367,1515.63 213.117,1518.13 205.93,1518.13L180.617,1518.13C178.43,1518.44 177.805,1517.51 177.805,1515.94M159.996,1606.25L173.117,1606.25C174.367,1606.25 175.617,1605.94 176.555,1605C177.492,1604.07 177.805,1603.13 177.805,1601.57L177.805,1542.82C177.805,1541.25 178.43,1540.32 180.305,1540.32L198.117,1540.32C199.992,1540.32 201.242,1541.25 202.18,1542.82L230.305,1601.57C230.93,1603.13 231.867,1604.38 232.805,1605C233.742,1605.63 234.992,1605.94 236.867,1605.94L249.992,1605.94C251.555,1605.94 252.492,1605.63 253.43,1604.69C254.367,1603.75 254.992,1602.82 254.992,1601.57C254.992,1600.94 254.68,1600 254.055,1598.44L226.867,1541.88C225.93,1540.32 225.617,1539.07 225.617,1538.44C225.617,1536.88 226.555,1535.94 228.742,1535C236.555,1530.32 242.805,1524.07 247.805,1516.88C252.492,1509.38 254.992,1501.26 254.992,1491.57C254.992,1482.19 252.805,1473.44 248.742,1465.94C244.68,1458.44 238.742,1452.51 231.242,1448.44C223.742,1444.38 215.305,1442.19 206.242,1442.19L159.996,1442.19C158.746,1442.19 157.496,1442.82 156.559,1443.76C155.621,1444.69 155.309,1445.94 155.309,1446.88L155.309,1601.57C155.309,1602.82 155.621,1604.07 156.559,1605C157.809,1605.94 158.746,1606.25 159.996,1606.25" style="fill:rgb(28,28,28);fill-rule:nonzero;"/>
        </g>
    </g>
    <g>
        <g transform="matrix(1.33333,0,0,1.33333,0.0799073,0)">
            <rect x="153.434" y="2915.58" width="89.996" height="306.238" style="fill:white;fill-rule:nonzero;"/>
        </g>
        <g transform="matrix(1.33333,0,0,1.33333,0.0799073,0)">
            <path d="M567.793,3005.58L675.914,3005.58L675.914,2915.58L477.797,2915.58L477.797,3221.82L675.914,3221.82L675.914,3131.82L567.793,3131.82C562.793,3131.82 558.73,3127.76 558.73,3122.76C558.73,3117.76 562.793,3113.7 567.793,3113.7L675.914,3113.7L675.914,3023.7L567.793,3023.7C562.793,3023.7 558.73,3019.64 558.73,3014.64C558.73,3009.64 562.793,3005.58 567.793,3005.58" style="fill:white;fill-rule:nonzero;"/>
        </g>
        <g transform="matrix(1.33333,0,0,1.33333,0.0799073,0)">
            <path d="M801.848,3041.52C801.848,3046.52 797.785,3050.58 792.785,3050.58C787.785,3050.58 783.723,3046.52 783.723,3041.52L783.723,2978.39C783.723,2973.39 787.785,2969.33 792.785,2969.33C797.785,2969.33 801.848,2973.39 801.848,2978.39L801.848,3041.52ZM792.785,3167.76C787.785,3167.76 783.723,3163.7 783.723,3158.7L783.723,3095.57C783.723,3090.57 787.785,3086.51 792.785,3086.51C797.785,3086.51 801.848,3090.57 801.848,3095.57L801.848,3158.7C801.848,3163.7 797.785,3167.76 792.785,3167.76M845.906,3068.7C845.906,3067.45 846.844,3066.51 848.094,3066.51C873.719,3066.51 891.531,3050.58 891.531,3023.7L891.531,2915.58L693.414,2915.58L693.414,3221.82L891.531,3221.82L891.531,3113.7C891.531,3086.82 873.719,3070.89 848.094,3070.89C847.156,3070.89 845.906,3069.95 845.906,3068.7" style="fill:white;fill-rule:nonzero;"/>
        </g>
        <g transform="matrix(1.33333,0,0,1.33333,0.0799073,0)">
            <path d="M369.676,3041.83C369.676,3046.83 365.613,3050.89 360.613,3050.89C355.613,3050.89 351.551,3046.83 351.551,3041.83L351.551,2978.7C351.551,2973.7 355.613,2969.64 360.613,2969.64C365.613,2969.64 369.676,2973.7 369.676,2978.7L369.676,3041.83ZM459.672,3023.7L459.672,2915.58L261.555,2915.58L261.555,3221.82L351.551,3221.82L351.551,3095.89C351.551,3090.89 355.613,3086.82 360.613,3086.82C365.613,3086.82 369.676,3090.89 369.676,3095.89L369.676,3221.82L459.672,3221.82L459.672,3113.7C459.672,3086.82 441.547,3070.89 416.234,3070.89C414.984,3070.89 414.047,3069.95 414.047,3068.7C414.047,3067.45 414.984,3066.51 416.234,3066.51C441.547,3066.51 459.672,3050.58 459.672,3023.7" style="fill:white;fill-rule:nonzero;"/>
        </g>
    </g>
    <g transform="matrix(1.33333,0,0,1.33333,3028.08,3834.67)">
        <g>
            <g transform="matrix(1,0,0,1,0.972168,360.792)">
                <g>
                    <g>
                        <path d="M42.109,0C39.723,0 37.633,-0.895 35.844,-2.688C34.051,-4.477 33.156,-6.566 33.156,-8.953L33.156,-39.422C33.156,-41.805 33.453,-43.82 34.047,-45.469C34.641,-47.113 35.984,-49.281 38.078,-51.969L138.875,-163.516C149.625,-175.16 157.461,-185.832 162.391,-195.531C167.316,-205.238 169.781,-216.363 169.781,-228.906C169.781,-242.945 165.895,-254.895 158.125,-264.75C150.363,-274.602 139.02,-279.531 124.094,-279.531C109.457,-279.531 98.031,-274.75 89.813,-265.188C81.602,-255.633 77.5,-244.586 77.5,-232.047L77.5,-228.016C77.5,-225.629 76.602,-223.539 74.813,-221.75C73.02,-219.957 70.93,-219.063 68.547,-219.063L44.344,-219.063C41.957,-219.063 39.867,-219.957 38.078,-221.75C36.285,-223.539 35.391,-225.629 35.391,-228.016L35.391,-231.594C35.391,-248.02 39.117,-262.879 46.578,-276.172C54.047,-289.461 64.5,-299.836 77.938,-307.297C91.383,-314.766 106.914,-318.5 124.531,-318.5C151.113,-318.5 172.395,-310.359 188.375,-294.078C204.352,-277.805 212.344,-256.082 212.344,-228.906C212.344,-198.145 198.754,-168.281 171.578,-139.313L90.938,-49.281C89.738,-47.488 89.141,-46.145 89.141,-45.25C89.141,-44.352 89.586,-43.531 90.484,-42.781C91.379,-42.031 92.578,-41.656 94.078,-41.656L208.75,-41.656C211.145,-41.656 213.238,-40.758 215.031,-38.969C216.82,-37.176 217.719,-35.086 217.719,-32.703L217.719,-8.953C217.719,-6.566 216.82,-4.477 215.031,-2.688C213.238,-0.895 211.145,0 208.75,0L42.109,0Z" style="fill:rgb(28,28,28);fill-rule:nonzero;"/>
                    </g>
                </g>
            </g>
            <g transform="matrix(1,0,0,1,247.357,360.792)">
                <g>
                    <g>
                        <path d="M123.188,4.922C91.238,4.922 67.195,-6.723 51.063,-30.016C41.508,-43.754 34.719,-61.148 30.688,-82.203C26.656,-103.254 24.641,-128.113 24.641,-156.781C24.641,-185.457 26.656,-210.32 30.688,-231.375C34.719,-252.426 41.508,-269.82 51.063,-283.563C67.195,-306.852 91.238,-318.5 123.188,-318.5C155.145,-318.5 179.188,-306.852 195.313,-283.563C204.875,-269.82 211.672,-252.426 215.703,-231.375C219.734,-210.32 221.75,-185.457 221.75,-156.781C221.75,-128.414 219.805,-103.703 215.922,-82.641C212.035,-61.586 205.164,-44.047 195.313,-30.016C179.188,-6.723 155.145,4.922 123.188,4.922ZM68.094,-156.781C68.094,-133.195 69.133,-113.336 71.219,-97.203C73.313,-81.078 77.492,-67.938 83.766,-57.781C92.43,-43.445 105.57,-36.281 123.188,-36.281C140.813,-36.281 153.953,-43.445 162.609,-57.781C168.586,-68.238 172.695,-81.602 174.938,-97.875C177.176,-114.156 178.297,-133.789 178.297,-156.781C178.297,-179.781 177.176,-199.414 174.938,-215.688C172.695,-231.969 168.586,-245.336 162.609,-255.797C153.953,-270.129 140.813,-277.297 123.188,-277.297C105.57,-277.297 92.43,-270.129 83.766,-255.797C77.492,-245.641 73.313,-232.492 71.219,-216.359C69.133,-200.234 68.094,-180.375 68.094,-156.781Z" style="fill:rgb(28,28,28);fill-rule:nonzero;"/>
                    </g>
                </g>
            </g>
            <g transform="matrix(1,0,0,1,493.742,360.792)">
                <g>
                    <g>
                        <path d="M42.109,0C39.723,0 37.633,-0.895 35.844,-2.688C34.051,-4.477 33.156,-6.566 33.156,-8.953L33.156,-39.422C33.156,-41.805 33.453,-43.82 34.047,-45.469C34.641,-47.113 35.984,-49.281 38.078,-51.969L138.875,-163.516C149.625,-175.16 157.461,-185.832 162.391,-195.531C167.316,-205.238 169.781,-216.363 169.781,-228.906C169.781,-242.945 165.895,-254.895 158.125,-264.75C150.363,-274.602 139.02,-279.531 124.094,-279.531C109.457,-279.531 98.031,-274.75 89.813,-265.188C81.602,-255.633 77.5,-244.586 77.5,-232.047L77.5,-228.016C77.5,-225.629 76.602,-223.539 74.813,-221.75C73.02,-219.957 70.93,-219.063 68.547,-219.063L44.344,-219.063C41.957,-219.063 39.867,-219.957 38.078,-221.75C36.285,-223.539 35.391,-225.629 35.391,-228.016L35.391,-231.594C35.391,-248.02 39.117,-262.879 46.578,-276.172C54.047,-289.461 64.5,-299.836 77.938,-307.297C91.383,-314.766 106.914,-318.5 124.531,-318.5C151.113,-318.5 172.395,-310.359 188.375,-294.078C204.352,-277.805 212.344,-256.082 212.344,-228.906C212.344,-198.145 198.754,-168.281 171.578,-139.313L90.938,-49.281C89.738,-47.488 89.141,-46.145 89.141,-45.25C89.141,-44.352 89.586,-43.531 90.484,-42.781C91.379,-42.031 92.578,-41.656 94.078,-41.656L208.75,-41.656C211.145,-41.656 213.238,-40.758 215.031,-38.969C216.82,-37.176 217.719,-35.086 217.719,-32.703L217.719,-8.953C217.719,-6.566 216.82,-4.477 215.031,-2.688C213.238,-0.895 211.145,0 208.75,0L42.109,0Z" style="fill:rgb(28,28,28);fill-rule:nonzero;"/>
                    </g>
                </g>
            </g>
            <g transform="matrix(1,0,0,1,740.126,360.792)">
                <g>
                    <g>
                        <path d="M125.438,4.922C87.801,4.922 61.594,-9.563 46.813,-38.531C32.031,-67.5 24.641,-106.02 24.641,-154.094C24.641,-204.57 32.477,-244.594 48.156,-274.156C63.832,-303.719 91.082,-318.5 129.906,-318.5C156.488,-318.5 177.844,-311.109 193.969,-296.328C210.094,-281.547 218.156,-262.063 218.156,-237.875C218.156,-235.477 217.258,-233.383 215.469,-231.594C213.676,-229.801 211.586,-228.906 209.203,-228.906L186.359,-228.906C183.672,-228.906 181.43,-229.801 179.641,-231.594C177.848,-233.383 176.801,-235.477 176.5,-237.875C175.008,-251.313 170.379,-261.313 162.609,-267.875C154.848,-274.445 143.801,-277.734 129.469,-277.734C108.258,-277.734 92.875,-269.367 83.313,-252.641C73.758,-235.922 69.285,-214.723 69.891,-189.047C69.891,-187.547 70.336,-186.348 71.234,-185.453C72.129,-184.555 73.172,-184.109 74.359,-184.109C75.555,-184.109 76.754,-184.555 77.953,-185.453C93.773,-198.004 112.438,-204.281 133.938,-204.281C150.969,-204.281 166.203,-199.875 179.641,-191.063C193.078,-182.25 203.523,-170.004 210.984,-154.328C218.453,-138.648 222.188,-120.656 222.188,-100.344C222.188,-79.438 218.156,-60.992 210.094,-45.016C202.031,-29.035 190.68,-16.719 176.047,-8.063C161.41,0.594 144.539,4.922 125.438,4.922ZM71.672,-99.891C71.672,-80.484 76.598,-64.805 86.453,-52.859C96.305,-40.91 109.301,-34.938 125.438,-34.938C141.258,-34.938 154.172,-40.984 164.172,-53.078C174.18,-65.18 179.188,-80.785 179.188,-99.891C179.188,-119.305 174.258,-134.91 164.406,-146.703C154.551,-158.504 141.563,-164.406 125.438,-164.406C109.301,-164.406 96.305,-158.504 86.453,-146.703C76.598,-134.91 71.672,-119.305 71.672,-99.891Z" style="fill:rgb(28,28,28);fill-rule:nonzero;"/>
                    </g>
                </g>
            </g>
        </g>
    </g>
</svg>
