<?xml version="1.0" encoding="utf-8"?>
<!-- Generator: Adobe Illustrator 27.8.1, SVG Export Plug-In . SVG Version: 6.00 Build 0)  -->
<svg version="1.1" id="Ebene_1" xmlns="http://www.w3.org/2000/svg" xmlns:xlink="http://www.w3.org/1999/xlink" x="0px" y="0px"
	 viewBox="0 0 1080 1080" style="enable-background:new 0 0 1080 1080;" xml:space="preserve">
<style type="text/css">
	.st0{fill:#A2E4B8;}
	.st1{fill:#00BF6F;}
</style>
<rect class="st0" width="1080" height="1080"/>
<g>
	<path class="st1" d="M278.9,153.5V49H49.1v355.1h229.8V299.7H164c-5.6,0-10.4-4.8-10.4-10.4V163.9c0-5.6,4.9-10.4,10.5-10.4
		L278.9,153.5z"/>
	<path class="st1" d="M905.6,153.5h125.3V49H801.1v355.1h229.8V299.6H905.6c-5.7,0-10.4-4.7-10.4-10.4c0-5.8,4.7-10.5,10.4-10.5
		h125.3V174.3H905.6c-5.7,0-10.4-4.7-10.4-10.4C895.1,158.2,899.8,153.4,905.6,153.5"/>
	<path class="st1" d="M425.1,205.7c0.1,6.1-5.1,10.4-10.5,10.4s-10.4-4.3-10.4-10.4v-83.6c0-5.7,5.1-10.4,10.5-10.4
		s10.4,4.6,10.4,10.4V205.7z M299.8,49v355.2h104.4V289.3c0-5.9,4.6-10.4,10.4-10.4h62.7c31.3,0,52.2-20.9,52.2-52.2V49.1L299.8,49z
		"/>
	<path class="st1" d="M675.9,195.2c0,5.7-4.7,10.4-10.4,10.4s-10.5-4.8-10.5-10.4v-73.1c0-5.8,4.7-10.4,10.4-10.4
		c5.8,0,10.4,4.7,10.4,10.5L675.9,195.2L675.9,195.2z M780.3,174.3V49H550.5v355.1h104.4V257.9c0-5.8,4.7-10.5,10.5-10.5
		s10.4,4.7,10.4,10.5v146.2h104.5V278.8c0-31.1-21-49.6-50.5-49.6c-1.3,0-2.6-1.1-2.6-2.6c0-1.3,1.1-2.6,2.6-2.6
		C759.3,224,780.3,205.6,780.3,174.3"/>
</g>
<polygon class="st1" points="550,453 550,720 0,720 0,1080 687.3,1080 687.3,884 1080,884 1080,453 "/>
<g>
	<path class="st1" d="M352.8,670h3.8c0.4,0,0.8-0.2,1-0.4c0.3-0.3,0.5-0.6,0.5-1.1v-20.2c0-3.2,0.8-5.5,2.4-7.1s3.6-2.4,6.2-2.4
		c2.1,0,3.9,0.6,5.3,1.8s2.1,2.8,2.1,4.7c0,0.4,0.1,0.8,0.4,1.1s0.6,0.4,1.1,0.4h3.8c0.4,0,0.8-0.2,1-0.4c0.3-0.3,0.5-0.6,0.5-1.1
		c0-2.6-0.6-4.9-1.6-6.9c-1.1-2-2.6-3.6-4.4-4.7c-1.9-1.1-3.9-1.7-6.1-1.7c-2.1,0-3.7,0.3-4.8,0.8c-1.2,0.5-2.3,1.2-3.3,2
		c-0.9,0.7-1.5,1-1.9,1c-0.9,0-1.4-0.6-1.7-1.9c-0.2-0.7-0.7-1-1.3-1h-2.7c-0.4,0-0.8,0.1-1,0.4c-0.3,0.3-0.5,0.7-0.5,1.1v34.2
		c0,0.4,0.1,0.8,0.5,1.1C352,669.8,352.4,670,352.8,670 M312.5,647.2c0-2.8,0.8-5,2.3-6.7s3.7-2.5,6.5-2.5s4.9,0.8,6.4,2.5
		s2.2,3.9,2.2,6.7c0,0.5-0.2,0.8-0.8,0.8h-16C312.7,648,312.5,647.7,312.5,647.2 M321.4,670.8c3.8,0,7-0.9,9.5-2.8
		c2.5-1.9,4.2-4.5,4.9-7.8c0.1-0.4,0-0.8-0.2-1.1c-0.3-0.3-0.6-0.4-1.1-0.4h-3.6c-0.9,0-1.5,0.4-1.8,1.3c-0.7,1.9-1.6,3.1-2.9,3.9
		c-1.2,0.7-2.9,1.1-4.9,1.1c-2.6,0-4.8-0.9-6.4-2.6c-1.6-1.8-2.5-4.3-2.5-7.8c0-0.5,0.2-0.8,0.8-0.8h22c0.4,0,0.8-0.1,1.1-0.4
		c0.3-0.3,0.4-0.6,0.4-1.1V649c0-5.3-1.3-9.5-4-12.5c-2.6-3-6.5-4.5-11.4-4.5c-10.5,0-15.7,6.5-15.7,19.4
		C305.6,664.3,310.9,670.8,321.4,670.8 M269.2,651.4c0-2.4,0.1-4.2,0.2-5.4c0.1-1.1,0.4-2.1,0.9-3c0.7-1.4,1.7-2.4,3-3.2
		s2.8-1.2,4.4-1.2c1.7,0,3.1,0.4,4.4,1.2s2.3,1.8,2.9,3.2c0.5,0.9,0.7,1.8,0.9,3c0.1,1.1,0.2,2.9,0.2,5.4c0,2.4-0.1,4.2-0.2,5.4
		c-0.1,1.1-0.4,2.1-0.9,3c-0.6,1.3-1.6,2.4-2.9,3.2s-2.8,1.2-4.4,1.2s-3.1-0.4-4.4-1.2s-2.3-1.8-3-3.2c-0.5-0.9-0.7-1.9-0.9-3
		C269.3,655.6,269.2,653.8,269.2,651.4 M276.6,670.8c1.6,0,2.9-0.2,3.9-0.5s2-0.9,3-1.5c0.9-0.6,1.6-0.9,2.1-0.9s1,0.3,1.4,1
		s0.9,1,1.5,1h2.6c0.4,0,0.8-0.2,1.1-0.4c0.3-0.3,0.4-0.6,0.4-1.1v-50.2c0-0.4-0.1-0.8-0.4-1c-0.3-0.3-0.6-0.5-1.1-0.5h-3.8
		c-0.4,0-0.8,0.2-1.1,0.5c-0.3,0.3-0.4,0.6-0.4,1v14.1c0,1.4-0.5,2-1.4,2c-0.4,0-0.9-0.2-1.7-0.7c-0.9-0.5-1.7-0.9-2.6-1.2
		s-2-0.5-3.4-0.5c-2.5,0-4.8,0.6-6.9,1.7c-2.1,1.1-3.8,2.7-5.1,4.8c-0.9,1.5-1.6,3.2-1.9,5c-0.4,1.9-0.5,4.5-0.5,8s0.2,6.2,0.5,8
		s1,3.5,1.9,5c1.3,2.1,3,3.6,5,4.8C271.9,670.3,274.1,670.8,276.6,670.8 M234.6,626.3h5.1c0.3,0,0.6-0.1,0.9-0.3
		c0.2-0.2,0.3-0.5,0.3-0.9V619c0-0.3-0.1-0.6-0.3-0.8s-0.5-0.4-0.9-0.4h-5.1c-0.4,0-0.6,0.1-0.9,0.4c-0.2,0.3-0.3,0.5-0.3,0.8v6.2
		c0,0.3,0.1,0.6,0.3,0.9C234,626.2,234.3,626.3,234.6,626.3 M223.3,670h27.4c0.4,0,0.8-0.2,1.1-0.4c0.3-0.3,0.4-0.6,0.4-1.1v-3.6
		c0-0.4-0.2-0.8-0.4-1.1c-0.3-0.3-0.7-0.4-1.1-0.4h-9.3c-0.5,0-0.8-0.2-0.8-0.8v-28.3c0-0.4-0.1-0.8-0.4-1.1
		c-0.3-0.3-0.7-0.4-1.1-0.4H224c-0.4,0-0.8,0.1-1.1,0.4c-0.3,0.3-0.4,0.7-0.4,1.1v3.7c0,0.4,0.1,0.8,0.4,1.1
		c0.3,0.3,0.6,0.4,1.1,0.4h9c0.5,0,0.8,0.3,0.8,0.8v22.4c0,0.5-0.2,0.8-0.8,0.8h-9.8c-0.4,0-0.8,0.2-1.1,0.4
		c-0.3,0.3-0.4,0.7-0.4,1.1v3.6c0,0.4,0.1,0.8,0.4,1.1C222.6,669.8,222.9,670,223.3,670 M190.6,670h4.6c0.6,0,1.1-0.4,1.4-1.1
		l12.8-33.9c0.1-0.2,0.2-0.5,0.2-0.8c0-0.4-0.1-0.7-0.4-1c-0.3-0.2-0.6-0.4-1-0.4H204c-0.7,0-1.2,0.4-1.4,1.1l-9.1,25.4
		c-0.1,0.2-0.2,0.3-0.5,0.3s-0.5-0.1-0.5-0.3l-9.2-25.4c-0.2-0.8-0.7-1.1-1.4-1.1h-4.2c-0.4,0-0.7,0.1-1,0.4c-0.3,0.3-0.4,0.6-0.4,1
		c0,0.2,0,0.5,0.2,0.8l12.9,33.9C189.4,669.6,189.9,670,190.6,670 M141.3,651.4c0-2.4,0.1-4.2,0.2-5.3c0.1-1.1,0.4-2.1,0.9-3
		c0.7-1.4,1.7-2.4,3.1-3.2c1.4-0.8,2.9-1.2,4.6-1.2c1.7,0,3.2,0.4,4.6,1.2c1.3,0.8,2.4,1.8,3.1,3.2c0.4,0.9,0.8,1.9,0.9,3
		c0.2,1.2,0.2,2.9,0.2,5.3s-0.1,4.2-0.2,5.3c-0.1,1.2-0.4,2.2-0.9,3.1c-0.7,1.3-1.7,2.4-3.1,3.2c-1.4,0.8-2.9,1.2-4.6,1.2
		c-1.7,0-3.2-0.4-4.5-1.2s-2.4-1.8-3.1-3.2c-0.4-0.9-0.8-1.9-0.9-3.1C141.4,655.6,141.3,653.8,141.3,651.4 M150.1,670.8
		c2.8,0,5.3-0.6,7.6-1.7s4-2.7,5.4-4.8c1.1-1.5,1.8-3.2,2.1-5.1s0.6-4.5,0.6-7.9s-0.2-6-0.6-7.9s-1.1-3.6-2.1-5.1
		c-1.4-2.1-3.2-3.6-5.4-4.8c-2.3-1.1-4.8-1.7-7.5-1.7c-2.8,0-5.2,0.6-7.5,1.7c-2.2,1.2-4.1,2.7-5.5,4.7c-1.1,1.5-1.8,3.2-2.1,5.1
		s-0.6,4.5-0.6,7.9s0.2,6,0.6,7.9s1.1,3.6,2.1,5.1c1.3,2.1,3.1,3.6,5.4,4.8S147.3,670.8,150.1,670.8 M96.3,670h3.8
		c0.4,0,0.8-0.2,1.1-0.4c0.3-0.3,0.4-0.6,0.4-1.1v-20.2c0-3.2,0.8-5.5,2.4-7.1s3.6-2.4,6.2-2.4c2.1,0,3.9,0.6,5.3,1.8
		s2.1,2.8,2.1,4.7c0,0.4,0.1,0.8,0.4,1.1s0.6,0.4,1.1,0.4h3.8c0.4,0,0.8-0.2,1-0.4c0.3-0.3,0.5-0.6,0.5-1.1c0-2.6-0.6-4.9-1.7-6.9
		s-2.6-3.6-4.4-4.7c-1.8-1.1-3.9-1.7-6.1-1.7c-2.1,0-3.7,0.3-4.8,0.8c-1.2,0.5-2.3,1.2-3.3,2c-0.9,0.7-1.5,1-1.9,1
		c-0.9,0-1.4-0.6-1.7-1.9c-0.2-0.7-0.7-1-1.3-1h-2.7c-0.4,0-0.8,0.1-1.1,0.4c-0.3,0.3-0.4,0.7-0.4,1.1v34.2c0,0.4,0.1,0.8,0.4,1.1
		C95.5,669.8,95.9,670,96.3,670 M57.7,641.1v-15.8c0-0.5,0.2-0.8,0.8-0.8h8.3c2.2,0,4.1,0.8,5.7,2.5s2.4,3.7,2.4,6.1
		c0,2.4-0.8,4.4-2.4,6.1c-1.6,1.7-3.5,2.5-5.7,2.5h-8.3C58,641.9,57.7,641.6,57.7,641.1 M52,670h4.3c0.4,0,0.8-0.2,1-0.4
		c0.3-0.3,0.5-0.6,0.5-1.1v-18.8c0-0.5,0.2-0.8,0.8-0.8H67c2.9,0,5.5-0.7,7.8-2.1c2.3-1.4,4.2-3.3,5.5-5.7s2-5.1,2-8s-0.7-5.6-2-8
		s-3.2-4.3-5.6-5.7s-4.9-2.1-7.8-2.1H52c-0.4,0-0.8,0.2-1.1,0.5s-0.4,0.6-0.4,1v49.5c0,0.4,0.1,0.8,0.4,1.1
		C51.2,669.8,51.5,670,52,670"/>
	<path class="st1" d="M355.2,573c0-2.5,0-4.3,0.1-5.3s0.4-2,0.8-2.8c0.6-1.3,1.6-2.3,2.9-3.1c1.2-0.8,2.6-1.1,4.2-1.1s3,0.4,4.2,1.1
		c1.2,0.7,2.2,1.8,2.9,3.1c0.4,0.9,0.7,1.8,0.8,2.9c0.1,1.1,0.2,2.8,0.2,5.2s-0.1,4-0.2,5.1s-0.4,2-0.8,2.9
		c-0.7,1.3-1.7,2.3-2.9,3.1c-1.2,0.8-2.6,1.1-4.2,1.1s-3-0.4-4.2-1.1c-1.3-0.8-2.2-1.8-2.9-3.1c-0.5-0.9-0.7-1.8-0.8-2.8
		C355.3,577.2,355.2,575.5,355.2,573 M364,606.3c4,0,7.3-1.2,9.9-3.8c2.6-2.5,3.9-5.9,3.9-10.3v-36c0-0.4-0.1-0.8-0.4-1.1
		s-0.6-0.4-1-0.4h-2.5c-0.4,0-0.6,0.1-0.8,0.2c-0.2,0.2-0.4,0.4-0.7,0.8c-0.2,0.3-0.4,0.6-0.6,0.8s-0.4,0.3-0.8,0.3
		c-0.5,0-1.2-0.3-2-0.9c-1-0.6-1.9-1.1-2.9-1.5s-2.3-0.6-3.9-0.6c-2.4,0-4.6,0.6-6.6,1.6c-2,1.1-3.6,2.7-4.8,4.7
		c-1,1.5-1.7,3.1-2,4.8c-0.3,1.8-0.5,4.4-0.5,7.8c0,3.4,0.2,6,0.5,7.8s1,3.4,2,4.9c1.2,2,2.9,3.6,4.9,4.7c2,1.1,4.2,1.7,6.7,1.7
		c1.3,0,2.4-0.2,3.2-0.5c0.8-0.3,1.7-0.7,2.6-1.2c0.7-0.5,1.2-0.7,1.6-0.7c0.5,0,0.8,0.2,1.1,0.5c0.2,0.3,0.3,0.8,0.3,1.5v1.3
		c0,2.4-0.7,4.2-2,5.5c-1.3,1.2-3.1,1.9-5.2,1.9c-1.7,0-3.1-0.4-4.3-1.1c-1.2-0.7-2.1-1.7-2.6-3c-0.2-0.5-0.4-0.9-0.8-1.1
		c-0.3-0.2-0.7-0.3-1.2-0.3h-3.5c-1,0-1.4,0.5-1.4,1.4v0.3c0.5,3,1.9,5.4,4.4,7.2C357.1,605.4,360.3,606.3,364,606.3 M308.5,592h3.8
		c0.4,0,0.8-0.2,1.1-0.4c0.3-0.3,0.4-0.6,0.4-1.1v-21.9c0-2.5,0.7-4.5,2.1-5.9c1.4-1.3,3.3-2,5.6-2c2.3,0,4.1,0.7,5.6,2
		c1.4,1.4,2.1,3.3,2.1,5.9v21.9c0,0.4,0.1,0.8,0.5,1.1c0.3,0.3,0.6,0.4,1,0.4h3.8c0.4,0,0.8-0.2,1-0.4c0.3-0.3,0.5-0.6,0.5-1.1
		v-22.6c0-4.3-1.2-7.7-3.5-10.2s-5.2-3.7-8.9-3.7c-1.9,0-3.3,0.2-4.3,0.6c-1,0.4-2,0.9-3,1.5c-0.3,0.2-0.6,0.4-0.9,0.6
		c-0.3,0.2-0.6,0.3-0.9,0.3c-0.4,0-0.6-0.1-0.8-0.2c-0.2-0.2-0.4-0.4-0.6-0.8c-0.4-0.8-0.9-1.1-1.5-1.1h-3.1c-0.4,0-0.8,0.1-1,0.4
		c-0.3,0.3-0.5,0.7-0.5,1.1v34.2c0,0.4,0.1,0.8,0.5,1.1C307.8,591.8,308.1,592,308.5,592 M277.4,548.4h5.1c0.4,0,0.6-0.1,0.9-0.3
		c0.2-0.2,0.3-0.5,0.3-0.9V541c0-0.3-0.1-0.6-0.3-0.8c-0.2-0.2-0.5-0.4-0.9-0.4h-5.1c-0.4,0-0.6,0.1-0.9,0.4
		c-0.2,0.3-0.3,0.5-0.3,0.8v6.2c0,0.3,0.1,0.6,0.3,0.9C276.8,548.2,277,548.4,277.4,548.4 M266.1,592h27.4c0.4,0,0.8-0.2,1.1-0.4
		c0.3-0.3,0.4-0.6,0.4-1.1v-3.6c0-0.4-0.1-0.8-0.4-1.1s-0.6-0.4-1.1-0.4h-9.3c-0.5,0-0.8-0.2-0.8-0.8v-28.3c0-0.4-0.1-0.8-0.5-1.1
		c-0.3-0.3-0.6-0.4-1-0.4h-15.1c-0.4,0-0.8,0.1-1,0.4c-0.3,0.3-0.5,0.7-0.5,1.1v3.7c0,0.4,0.2,0.8,0.5,1s0.6,0.5,1,0.5h9
		c0.5,0,0.8,0.3,0.8,0.8v22.4c0,0.5-0.2,0.8-0.8,0.8H266c-0.4,0-0.8,0.2-1,0.4c-0.3,0.3-0.5,0.7-0.5,1.1v3.6c0,0.4,0.2,0.8,0.5,1.1
		C265.3,591.8,265.7,592,266.1,592 M223,592h3.8c0.4,0,0.8-0.2,1.1-0.4c0.3-0.3,0.4-0.6,0.4-1.1v-21.9c0-2.5,0.7-4.5,2.1-5.9
		c1.4-1.3,3.3-2,5.6-2s4.2,0.7,5.6,2c1.4,1.4,2.1,3.3,2.1,5.9v21.9c0,0.4,0.1,0.8,0.4,1.1c0.3,0.3,0.6,0.4,1.1,0.4h3.8
		c0.4,0,0.8-0.2,1.1-0.4c0.3-0.3,0.4-0.6,0.4-1.1v-22.6c0-4.3-1.1-7.7-3.4-10.2c-2.3-2.5-5.2-3.7-8.9-3.7c-1.8,0-3.3,0.2-4.3,0.6
		c-1,0.4-2,0.9-3,1.5c-0.3,0.2-0.6,0.4-0.9,0.6c-0.3,0.2-0.6,0.3-0.9,0.3c-0.4,0-0.6-0.1-0.8-0.2c-0.2-0.2-0.4-0.4-0.6-0.8
		c-0.4-0.8-0.9-1.1-1.5-1.1H223c-0.4,0-0.8,0.1-1.1,0.4c-0.3,0.3-0.4,0.7-0.4,1.1v34.2c0,0.4,0.1,0.8,0.4,1.1
		C222.3,591.8,222.6,592,223,592 M191.9,548.4h5.1c0.3,0,0.6-0.1,0.9-0.3c0.2-0.2,0.3-0.5,0.3-0.9V541c0-0.3-0.1-0.6-0.3-0.8
		s-0.5-0.4-0.9-0.4h-5.1c-0.3,0-0.6,0.1-0.9,0.4c-0.2,0.3-0.3,0.5-0.3,0.8v6.2c0,0.3,0.1,0.6,0.3,0.9
		C191.3,548.2,191.5,548.4,191.9,548.4 M180.6,592H208c0.4,0,0.8-0.2,1.1-0.4c0.3-0.3,0.4-0.6,0.4-1.1v-3.6c0-0.4-0.1-0.8-0.4-1.1
		c-0.3-0.3-0.6-0.4-1.1-0.4h-9.3c-0.5,0-0.8-0.2-0.8-0.8v-28.3c0-0.4-0.1-0.8-0.4-1.1c-0.3-0.3-0.6-0.4-1.1-0.4h-15.1
		c-0.4,0-0.8,0.1-1,0.4c-0.3,0.3-0.5,0.7-0.5,1.1v3.7c0,0.4,0.2,0.8,0.5,1c0.3,0.3,0.6,0.5,1,0.5h9c0.5,0,0.8,0.3,0.8,0.8v22.4
		c0,0.5-0.3,0.8-0.8,0.8h-9.8c-0.4,0-0.8,0.2-1,0.4c-0.3,0.3-0.5,0.7-0.5,1.1v3.6c0,0.4,0.2,0.8,0.5,1.1
		C179.8,591.8,180.2,592,180.6,592 M141.4,580.9c0-1.8,0.6-3.2,1.7-4.2c1.1-1,2.6-1.5,4.5-1.5h8.8c0.5,0,0.8,0.3,0.8,0.8v3.2
		c0,2.5-0.8,4.4-2.3,5.7s-3.7,2-6.5,2c-2,0-3.7-0.5-5-1.6C142.1,584.3,141.4,582.8,141.4,580.9 M147.5,592.8c1.6,0,3-0.2,4-0.5
		s2-0.9,3-1.5c0.8-0.6,1.5-0.9,2-0.9c0.6,0,1,0.3,1.4,1s0.9,1,1.5,1h2.6c0.4,0,0.8-0.2,1.1-0.4c0.3-0.3,0.4-0.6,0.4-1.1v-23.7
		c0-4-1.2-7.1-3.6-9.4c-2.4-2.3-5.8-3.4-10-3.4c-2.7,0-5.1,0.5-7.2,1.4c-2.1,1-3.7,2.2-4.8,3.9c-1.1,1.6-1.7,3.4-1.7,5.4
		c0,1,0.5,1.5,1.5,1.5h3.2c0.5,0,0.9-0.1,1.2-0.2c0.3-0.2,0.4-0.5,0.5-1c0.1-1.4,0.8-2.6,2-3.5s3-1.4,5.2-1.4c2.4,0,4.2,0.6,5.4,1.8
		s1.8,2.8,1.8,4.8v2c0,0.5-0.3,0.8-0.8,0.8h-9.5c-3.8,0-6.8,1.1-9,3.3s-3.3,4.9-3.3,8.3c0,3.5,1.1,6.3,3.4,8.5
		C140.3,591.7,143.4,592.8,147.5,592.8 M96.3,592h3.8c0.4,0,0.8-0.2,1.1-0.4c0.3-0.3,0.4-0.6,0.4-1.1v-20.2c0-3.1,0.8-5.5,2.4-7.1
		s3.6-2.4,6.2-2.4c2.1,0,3.9,0.6,5.3,1.8s2.1,2.8,2.1,4.7c0,0.4,0.2,0.8,0.4,1.1c0.3,0.3,0.6,0.4,1.1,0.4h3.8c0.4,0,0.8-0.1,1-0.4
		c0.3-0.3,0.5-0.6,0.5-1.1c0-2.6-0.6-4.9-1.7-6.9s-2.6-3.6-4.4-4.7c-1.8-1.1-3.9-1.7-6.1-1.7c-2.1,0-3.7,0.3-4.8,0.8
		c-1.2,0.5-2.3,1.2-3.3,2c-0.9,0.7-1.5,1-1.9,1c-0.9,0-1.4-0.6-1.7-1.9c-0.2-0.7-0.7-1-1.3-1h-2.7c-0.4,0-0.8,0.1-1.1,0.4
		c-0.3,0.3-0.4,0.7-0.4,1.1v34.2c0,0.4,0.1,0.8,0.4,1.1C95.5,591.8,95.9,592,96.3,592 M62.5,592h4.2c0.4,0,0.8-0.2,1.1-0.4
		c0.3-0.3,0.4-0.6,0.4-1.1v-43c0-0.5,0.2-0.8,0.8-0.8h11.5c0.4,0,0.8-0.1,1.1-0.5c0.3-0.3,0.4-0.6,0.4-1V541c0-0.4-0.2-0.8-0.4-1
		c-0.3-0.3-0.7-0.5-1.1-0.5H48.8c-0.4,0-0.8,0.2-1,0.5s-0.5,0.7-0.5,1v4.2c0,0.4,0.2,0.8,0.5,1c0.3,0.3,0.6,0.5,1,0.5h11.5
		c0.5,0,0.8,0.3,0.8,0.8v43c0,0.4,0.1,0.8,0.4,1.1C61.8,591.8,62.1,592,62.5,592"/>
	<path class="st1" d="M440.2,495.4c0-2.4,0.1-4.2,0.2-5.4c0.1-1.1,0.4-2.1,0.9-3c0.7-1.3,1.7-2.4,3-3.2c1.3-0.8,2.8-1.2,4.4-1.2
		s3.1,0.4,4.4,1.2c1.3,0.8,2.3,1.8,2.9,3.2c0.4,0.9,0.7,1.8,0.9,3c0.1,1.1,0.2,2.9,0.2,5.4s-0.1,4.2-0.2,5.4c-0.1,1.1-0.4,2.1-0.9,3
		c-0.7,1.3-1.6,2.4-2.9,3.2c-1.3,0.8-2.8,1.2-4.4,1.2s-3.1-0.4-4.4-1.2c-1.3-0.8-2.3-1.8-3-3.2c-0.4-0.9-0.7-1.9-0.9-3
		C440.3,499.6,440.2,497.9,440.2,495.4 M447.6,514.8c1.6,0,2.9-0.2,3.9-0.5s2-0.9,3-1.5c0.8-0.6,1.5-0.9,2.1-0.9c0.5,0,1,0.3,1.4,1
		c0.4,0.7,0.9,1,1.5,1h2.6c0.4,0,0.8-0.1,1-0.4c0.3-0.3,0.5-0.6,0.5-1.1v-50.2c0-0.4-0.1-0.8-0.5-1c-0.3-0.3-0.7-0.5-1-0.5h-3.8
		c-0.4,0-0.8,0.2-1,0.5c-0.3,0.3-0.5,0.7-0.5,1v14.1c0,1.3-0.4,2-1.4,2c-0.4,0-0.9-0.2-1.7-0.7c-0.9-0.5-1.7-0.9-2.6-1.2
		c-0.9-0.3-2.1-0.5-3.5-0.5c-2.5,0-4.8,0.6-6.9,1.7s-3.8,2.7-5.1,4.8c-1,1.5-1.6,3.2-2,5c-0.4,1.9-0.5,4.5-0.5,8s0.2,6.2,0.5,8
		s1,3.5,2,5c1.3,2.1,3,3.6,5,4.8C442.9,514.3,445.1,514.8,447.6,514.8 M398,491.2c0-2.8,0.8-5,2.3-6.7s3.7-2.5,6.5-2.5
		s4.9,0.8,6.4,2.5s2.2,3.9,2.2,6.7c0,0.5-0.3,0.8-0.8,0.8h-16C398.2,492,398,491.7,398,491.2 M406.9,514.8c3.8,0,7-0.9,9.5-2.8
		c2.5-1.9,4.2-4.5,4.9-7.8c0.1-0.4,0-0.8-0.2-1.1c-0.3-0.3-0.6-0.4-1.1-0.4h-3.6c-0.9,0-1.5,0.4-1.8,1.3c-0.7,1.9-1.6,3.1-2.9,3.9
		c-1.3,0.7-2.9,1.1-4.9,1.1c-2.7,0-4.8-0.9-6.4-2.6c-1.6-1.8-2.5-4.3-2.5-7.8c0-0.5,0.2-0.8,0.8-0.8h22c0.4,0,0.8-0.2,1-0.5
		c0.3-0.3,0.5-0.6,0.5-1V493c0-5.3-1.3-9.5-4-12.5s-6.5-4.5-11.4-4.5c-10.5,0-15.8,6.5-15.8,19.4
		C391.1,508.4,396.4,514.8,406.9,514.8 M350.2,514h27.7c0.4,0,0.8-0.1,1-0.4c0.3-0.3,0.5-0.6,0.5-1.1V509c0-0.4-0.1-0.8-0.5-1
		c-0.3-0.3-0.7-0.5-1-0.5h-19.4c-0.4,0-0.6-0.2-0.6-0.6c0-0.2,0.1-0.4,0.2-0.5l18.5-20.7c0.5-0.5,0.9-1.1,1.2-1.5
		c0.2-0.5,0.3-1,0.3-1.5v-4.3c0-0.4-0.1-0.8-0.4-1.1c-0.3-0.3-0.7-0.4-1.1-0.4h-25.9c-0.4,0-0.8,0.1-1,0.4c-0.3,0.3-0.5,0.7-0.5,1.1
		v3.5c0,0.4,0.2,0.8,0.5,1c0.3,0.3,0.6,0.5,1,0.5h17.7c0.2,0,0.3,0.1,0.5,0.2c0.1,0.1,0.1,0.3,0.1,0.4c0,0.2-0.1,0.4-0.2,0.5
		l-19.1,21.2c-0.5,0.5-0.7,0.9-0.9,1.2c-0.1,0.3-0.2,0.7-0.2,1.2v4.4c0,0.4,0.1,0.8,0.4,1.1C349.5,513.9,349.8,514,350.2,514
		 M320.1,470.4h5.1c0.4,0,0.6-0.1,0.9-0.3c0.2-0.2,0.3-0.5,0.3-0.9V463c0-0.3-0.1-0.6-0.3-0.8c-0.2-0.2-0.5-0.4-0.9-0.4h-5.1
		c-0.4,0-0.6,0.1-0.9,0.4c-0.2,0.3-0.3,0.5-0.3,0.8v6.2c0,0.3,0.1,0.6,0.3,0.9C319.5,470.2,319.8,470.4,320.1,470.4 M308.8,514h27.4
		c0.4,0,0.8-0.1,1-0.4c0.3-0.3,0.5-0.6,0.5-1.1v-3.6c0-0.4-0.2-0.8-0.5-1c-0.3-0.3-0.6-0.5-1-0.5h-9.3c-0.5,0-0.8-0.2-0.8-0.8v-28.3
		c0-0.4-0.2-0.8-0.5-1.1c-0.3-0.3-0.7-0.4-1-0.4h-15.1c-0.4,0-0.8,0.1-1,0.4c-0.3,0.3-0.5,0.7-0.5,1.1v3.7c0,0.4,0.1,0.8,0.5,1
		c0.3,0.3,0.6,0.5,1,0.5h9c0.5,0,0.8,0.3,0.8,0.8v22.4c0,0.5-0.3,0.8-0.8,0.8h-9.8c-0.4,0-0.8,0.2-1,0.5c-0.3,0.3-0.5,0.6-0.5,1v3.6
		c0,0.4,0.1,0.8,0.5,1.1C308.1,513.9,308.4,514,308.8,514 M265.8,514h3.8c0.4,0,0.8-0.1,1-0.4c0.3-0.3,0.5-0.6,0.5-1.1v-21.9
		c0-2.5,0.7-4.5,2.1-5.9c1.4-1.3,3.3-2,5.6-2c2.3,0,4.1,0.7,5.5,2c1.4,1.4,2.1,3.3,2.1,5.9v21.9c0,0.4,0.1,0.8,0.5,1.1
		c0.3,0.3,0.6,0.4,1,0.4h3.8c0.4,0,0.8-0.1,1-0.4c0.3-0.3,0.5-0.6,0.5-1.1v-22.6c0-4.3-1.2-7.7-3.5-10.2s-5.2-3.7-8.9-3.7
		c-1.9,0-3.3,0.2-4.3,0.6s-2,0.9-3,1.5c-0.3,0.2-0.6,0.4-0.9,0.6s-0.6,0.3-0.9,0.3s-0.6-0.1-0.8-0.2c-0.2-0.2-0.4-0.4-0.6-0.8
		c-0.4-0.8-0.9-1.1-1.5-1.1h-3.1c-0.4,0-0.8,0.1-1,0.4c-0.3,0.3-0.5,0.7-0.5,1.1v34.2c0,0.4,0.1,0.8,0.5,1.1
		C265,513.9,265.4,514,265.8,514 M227,495c0-2.5,0-4.3,0.1-5.3s0.4-2,0.8-2.8c0.7-1.3,1.6-2.3,2.9-3.1s2.6-1.1,4.2-1.1
		c1.6,0,3,0.4,4.2,1.1s2.2,1.8,2.9,3.1c0.4,0.9,0.7,1.8,0.8,2.9s0.2,2.8,0.2,5.2c0,2.4-0.1,4-0.2,5.1c-0.1,1.1-0.4,2-0.8,2.9
		c-0.7,1.3-1.7,2.3-2.9,3.1c-1.2,0.8-2.6,1.1-4.2,1.1c-1.6,0-2.9-0.4-4.2-1.1s-2.2-1.8-2.9-3.1c-0.4-0.9-0.7-1.8-0.8-2.8
		C227,499.2,227,497.5,227,495 M235.8,528.3c4,0,7.3-1.2,9.9-3.8c2.6-2.5,3.9-5.9,3.9-10.3v-36c0-0.4-0.1-0.8-0.4-1.1
		c-0.3-0.3-0.6-0.4-1-0.4h-2.6c-0.3,0-0.6,0.1-0.8,0.2s-0.4,0.4-0.7,0.8c-0.2,0.3-0.4,0.6-0.6,0.8c-0.2,0.2-0.4,0.3-0.8,0.3
		c-0.5,0-1.2-0.3-2-0.9c-0.9-0.6-1.9-1.1-2.9-1.5s-2.3-0.6-3.9-0.6c-2.4,0-4.6,0.6-6.6,1.6c-2,1.1-3.6,2.7-4.8,4.7
		c-1,1.5-1.7,3.1-2,4.8c-0.3,1.8-0.5,4.4-0.5,7.8s0.2,6,0.5,7.8s1,3.4,2,4.9c1.2,2,2.9,3.6,4.9,4.7c2,1.1,4.2,1.7,6.7,1.7
		c1.3,0,2.4-0.2,3.2-0.5c0.9-0.3,1.7-0.7,2.6-1.2c0.7-0.5,1.2-0.7,1.7-0.7s0.8,0.1,1,0.5c0.2,0.3,0.3,0.8,0.3,1.5v1.3
		c0,2.4-0.7,4.2-2,5.5c-1.3,1.2-3.1,1.9-5.2,1.9c-1.7,0-3.1-0.4-4.4-1.1c-1.2-0.7-2-1.7-2.5-3c-0.2-0.5-0.5-0.9-0.8-1.1
		c-0.3-0.2-0.7-0.3-1.2-0.3h-3.5c-0.9,0-1.4,0.5-1.4,1.4v0.3c0.4,3,1.9,5.3,4.4,7.2C228.9,527.4,232,528.3,235.8,528.3 M184.1,495.4
		c0-2.4,0.1-4.2,0.2-5.3c0.2-1.1,0.5-2.1,0.9-3c0.7-1.3,1.7-2.4,3.1-3.2c1.4-0.8,2.9-1.2,4.6-1.2c1.7,0,3.2,0.4,4.6,1.2
		c1.4,0.8,2.4,1.8,3.1,3.2c0.4,0.9,0.8,1.9,0.9,3c0.1,1.2,0.2,2.9,0.2,5.3s-0.1,4.2-0.2,5.3c-0.1,1.2-0.4,2.2-0.9,3.1
		c-0.7,1.3-1.7,2.4-3.1,3.2c-1.3,0.8-2.9,1.2-4.6,1.2c-1.7,0-3.2-0.4-4.5-1.2c-1.3-0.8-2.4-1.8-3.1-3.2c-0.4-0.9-0.8-1.9-0.9-3.1
		C184.2,499.6,184.1,497.8,184.1,495.4 M192.9,514.8c2.8,0,5.3-0.6,7.6-1.7s4.1-2.7,5.4-4.8c1.1-1.5,1.8-3.2,2.1-5.1
		s0.6-4.5,0.6-7.9s-0.2-6-0.6-7.9s-1.1-3.6-2.1-5.1c-1.4-2.1-3.2-3.6-5.4-4.8c-2.3-1.1-4.8-1.7-7.5-1.7c-2.8,0-5.2,0.6-7.5,1.7
		c-2.2,1.2-4.1,2.7-5.5,4.7c-1.1,1.5-1.8,3.2-2.1,5.1s-0.6,4.5-0.6,7.9s0.2,6,0.6,7.9s1.1,3.6,2.1,5.1c1.3,2.1,3.1,3.6,5.4,4.8
		C187.7,514.2,190.1,514.8,192.9,514.8 M150.9,514.8c2.9,0,5.5-0.6,7.7-1.6c2.2-1.1,3.9-2.6,5.2-4.5c1.2-1.9,1.8-4.1,1.8-6.6
		c0-0.4-0.1-0.7-0.4-1c-0.3-0.3-0.6-0.4-0.9-0.4h-4.1c-0.4,0-0.8,0.1-1.1,0.3c-0.3,0.2-0.4,0.5-0.4,0.8c-0.1,1.9-0.9,3.4-2.2,4.6
		c-1.4,1.2-3.3,1.8-5.6,1.8c-1.7,0-3.2-0.4-4.6-1.1c-1.3-0.8-2.4-1.8-3.1-3.3c-0.5-0.9-0.8-2-1-3.2c-0.1-1.2-0.2-2.9-0.2-5.1
		s0.1-3.9,0.2-5.1c0.2-1.2,0.5-2.3,1-3.2c0.8-1.4,1.8-2.5,3.1-3.3c1.4-0.8,2.9-1.2,4.6-1.2c2.4,0,4.2,0.6,5.6,1.8
		c1.4,1.2,2.1,2.7,2.2,4.6c0,0.3,0.1,0.6,0.4,0.9c0.3,0.2,0.6,0.3,1.1,0.3h4.1c0.4,0,0.7-0.1,0.9-0.4s0.3-0.6,0.3-1.1
		c0-2.5-0.6-4.7-1.9-6.6s-3-3.4-5.2-4.5s-4.7-1.6-7.5-1.6s-5.3,0.5-7.4,1.6c-2.2,1-3.9,2.5-5.3,4.4c-1.2,1.6-2.1,3.5-2.5,5.5
		c-0.4,2.1-0.6,4.7-0.6,7.9c0,3.2,0.2,5.8,0.6,7.9c0.4,2.1,1.3,3.9,2.5,5.5c1.4,1.9,3.2,3.4,5.3,4.4
		C145.7,514.3,148.1,514.8,150.9,514.8 M98.7,491.2c0-2.8,0.8-5,2.3-6.7s3.7-2.5,6.5-2.5s4.9,0.8,6.4,2.5s2.2,3.9,2.2,6.7
		c0,0.5-0.3,0.8-0.8,0.8h-16C99,492,98.7,491.7,98.7,491.2 M107.7,514.8c3.8,0,7-0.9,9.5-2.8c2.6-1.9,4.2-4.5,4.9-7.8
		c0.1-0.4,0-0.8-0.2-1.1c-0.3-0.3-0.6-0.4-1.1-0.4h-3.6c-0.9,0-1.5,0.4-1.8,1.3c-0.6,1.9-1.6,3.1-2.8,3.9c-1.2,0.7-2.9,1.1-4.9,1.1
		c-2.7,0-4.8-0.9-6.4-2.6c-1.7-1.8-2.5-4.3-2.5-7.8c0-0.5,0.2-0.8,0.8-0.8h22c0.4,0,0.8-0.2,1-0.5c0.3-0.3,0.5-0.6,0.5-1V493
		c0-5.3-1.3-9.5-4-12.5s-6.5-4.5-11.4-4.5c-10.5,0-15.8,6.5-15.8,19.4C91.8,508.4,97.1,514.8,107.7,514.8 M56.9,485.1v-15.8
		c0-0.5,0.2-0.8,0.8-0.8h8.1c2.4,0,4.4,0.8,6,2.4s2.4,3.7,2.4,6.3c0,2.4-0.8,4.4-2.4,6.1s-3.6,2.5-5.9,2.5h-8.1
		C57.1,485.9,56.9,485.6,56.9,485.1 M51.2,514h4.2c0.4,0,0.8-0.1,1.1-0.4c0.3-0.3,0.4-0.6,0.4-1.1v-18.8c0-0.5,0.2-0.8,0.8-0.8h5.7
		c0.6,0,1,0.3,1.3,0.8l9,18.8c0.2,0.5,0.5,0.9,0.8,1.1s0.7,0.3,1.3,0.3H80c0.5,0,0.8-0.1,1.1-0.4c0.3-0.3,0.5-0.6,0.5-1
		c0-0.2-0.1-0.5-0.3-1l-8.7-18.1c-0.3-0.5-0.4-0.9-0.4-1.1c0-0.5,0.3-0.8,1-1.1c2.5-1.5,4.5-3.5,6.1-5.8c1.5-2.4,2.3-5,2.3-8.1
		c0-3-0.7-5.8-2-8.2c-1.3-2.4-3.2-4.3-5.6-5.6c-2.4-1.3-5.1-2-8-2H51.2c-0.4,0-0.8,0.2-1.1,0.5s-0.4,0.7-0.4,1v49.5
		c0,0.4,0.1,0.8,0.4,1.1C50.5,513.9,50.8,514,51.2,514"/>
</g>
<polygon class="st0" points="49.1,1031 77.9,1031 77.9,933 49.1,933 "/>
<g>
	<path class="st0" d="M181.7,961.8h34.6V933h-63.4v98h63.4v-28.8h-34.6c-1.6,0-2.9-1.3-2.9-2.9c0-1.6,1.3-2.9,2.9-2.9h34.6v-28.8
		h-34.6c-1.6,0-2.9-1.3-2.9-2.9C178.8,963.1,180.1,961.8,181.7,961.8"/>
	<path class="st0" d="M256.6,973.3c0,1.6-1.3,2.9-2.9,2.9s-2.9-1.3-2.9-2.9v-20.2c0-1.6,1.3-2.9,2.9-2.9s2.9,1.3,2.9,2.9V973.3z
		 M253.7,1013.7c-1.6,0-2.9-1.3-2.9-2.9v-20.2c0-1.6,1.3-2.9,2.9-2.9c1.6,0,2.9,1.3,2.9,2.9v20.2
		C256.6,1012.4,255.3,1013.7,253.7,1013.7 M270.7,982c0-0.4,0.3-0.7,0.7-0.7c8.2,0,13.9-5.1,13.9-13.7V933h-63.4v98h63.4v-34.6
		c0-8.6-5.7-13.7-13.9-13.7C271.1,982.7,270.7,982.4,270.7,982"/>
	<path class="st0" d="M118.3,973.4c0,1.6-1.3,2.9-2.9,2.9s-2.9-1.3-2.9-2.9v-20.2c0-1.6,1.3-2.9,2.9-2.9s2.9,1.3,2.9,2.9V973.4z
		 M147.1,967.6V933H83.7v98h28.8v-40.3c0-1.6,1.3-2.9,2.9-2.9s2.9,1.3,2.9,2.9v40.3h28.8v-34.6c0-8.6-5.8-13.7-13.9-13.7
		c-0.4,0-0.7-0.3-0.7-0.7s0.3-0.7,0.7-0.7C141.3,981.3,147.1,976.2,147.1,967.6"/>
</g>
<g>
	<path class="st1" d="M1002,1031.9c17.5,0,28.4-12.6,28.4-32.8c0-20.4-10.2-32.8-27-32.8c-4.6,0-9.4,1.4-11.9,3.3
		c-1.5,1.2-3,0.7-3-1.1v-20.7c0-0.8,0.6-1.4,1.4-1.4h34.2c1.5,0,2.8-1.2,2.8-2.8v-6.9c0-1.5-1.2-2.8-2.8-2.8h-44.6
		c-1.5,0-2.8,1.2-2.8,2.8v49c0,1.5,1.2,2.8,2.8,2.8h6.8c1.4,0,2.1-0.4,2.6-1.5c2.5-5.1,7.6-8.3,13.1-8.3c9.7,0,15.3,7.5,15.3,20.4
		c0,12.8-5.7,20.4-15.3,20.4c-8.7,0-14.9-5.1-15.6-13.1c-0.1-1.7-1.2-2.8-2.8-2.8h-7c-1.7,0-2.8,1.1-2.8,2.8
		C973.8,1021,985.8,1031.9,1002,1031.9 M898.2,1030.5h50c1.8,0,2.8-1.1,2.8-2.8v-6.8c0-1.8-1-2.8-2.8-2.8h-34.8
		c-1.4,0-1.9-1.2-1-2.3l25.7-29.3c8.6-9.7,11.9-17.5,11.9-27.9c0-15.5-10.9-26.2-26.5-26.2c-16,0-26.9,10.8-26.9,26.6v3.5
		c0,1.7,1.1,2.8,2.8,2.8h7.2c1.5,0,2.8-1.2,2.8-2.8v-2.1c0-9.7,5.4-15.6,14.2-15.6c8.3,0,13,5.1,13,14.2c0,7.3-2.6,13.2-8.8,20.4
		l-30.9,35.7c-0.8,0.8-1.2,1.9-1.2,3.5v9C895.4,1029.2,896.7,1030.5,898.2,1030.5 M844.5,1019.4c-6.3,0-11.2-2.5-13.9-8
		c-2.9-5.8-3.7-12.4-3.7-29.3s0.8-23.5,3.7-29.3c2.8-5.5,7.6-8,13.9-8s11.2,2.5,13.9,8c2.9,5.8,3.7,12.4,3.7,29.3
		s-0.8,23.5-3.7,29.3C855.7,1017,850.8,1019.4,844.5,1019.4 M844.5,1031.9c10.6,0,20.3-5.2,24.8-13.2c4.4-7.7,5.9-18.9,5.9-36.4
		s-1.5-28.7-5.9-36.4c-4.6-8-14.2-13.2-24.8-13.2s-20.1,5.4-24.8,13.2c-4.6,7.7-5.9,18.9-5.9,36.4s1.5,28.7,5.9,36.4
		C824.2,1026.6,833.9,1031.9,844.5,1031.9 M740.9,1030.5h50c1.8,0,2.8-1.1,2.8-2.8v-6.8c0-1.8-1-2.8-2.8-2.8H756
		c-1.4,0-1.9-1.2-1-2.3l25.7-29.3c8.6-9.7,11.9-17.5,11.9-27.9c0-15.5-10.9-26.2-26.5-26.2c-16,0-26.9,10.8-26.9,26.6v3.5
		c0,1.7,1.1,2.8,2.8,2.8h7.2c1.5,0,2.8-1.2,2.8-2.8v-2.1c0-9.7,5.4-15.6,14.2-15.6c8.3,0,13,5.1,13,14.2c0,7.3-2.6,13.2-8.8,20.4
		l-30.9,35.7c-0.8,0.8-1.2,1.9-1.2,3.5v9C738.1,1029.2,739.3,1030.5,740.9,1030.5"/>
</g>
</svg>
