<?xml version="1.0" encoding="UTF-8"?>
<svg width="86px" height="40px" viewBox="0 0 86 40" version="1.1" xmlns="http://www.w3.org/2000/svg" xmlns:xlink="http://www.w3.org/1999/xlink">
    <title>ISAQB Logo</title>
    <defs>
        <filter id="filter-1">
            <feColorMatrix in="SourceGraphic" type="matrix" values="0 0 0 0 0.000000 0 0 0 0 0.000000 0 0 0 0 0.000000 0 0 0 1.000000 0"></feColorMatrix>
        </filter>
    </defs>
    <g id="LAYOUT-Desktop" stroke="none" stroke-width="1" fill="none" fill-rule="evenodd">
        <g id="Home" transform="translate(-226.000000, -902.000000)">
            <g id="ISAQB-Logo" transform="translate(194.000000, 851.000000)" filter="url(#filter-1)">
                <g transform="translate(32.000000, 51.000000)">
                    <path d="M0.224663978,21.6891819 L3.82588763,21.6891819 L3.82588763,10.103543 L0.224663978,10.103543 L0.224663978,21.6891819 Z M3.94283962,6.88195133 C3.94283962,7.87670323 3.18621569,8.68243115 2.0016478,8.68243115 C0.864071916,8.68243115 0.10586399,7.87670323 0.129095987,6.88195133 C0.10586399,5.84020743 0.864071916,5.05850351 2.0246158,5.05850351 C3.18621569,5.05850351 3.92039962,5.84020743 3.94283962,6.88195133 L3.94283962,6.88195133 Z" id="Fill-27" fill="#FFFFFE"></path>
                    <path d="M6.47895537,17.9691582 C7.45047527,18.4670622 8.94286713,18.9639102 10.481987,18.9639102 C12.1412268,18.9639102 13.0182347,18.2769822 13.0182347,17.2349743 C13.0182347,16.2402224 12.2597628,15.6702465 10.340747,14.9833185 C7.68781125,14.0609026 5.95808342,12.5914788 5.95808342,10.269335 C5.95808342,7.54511926 8.2319152,5.46083947 11.9984028,5.46083947 C13.7994107,5.46083947 15.1260105,5.84020743 16.0735064,6.26577539 L15.2680425,9.1800711 C14.6275786,8.87224713 13.4910587,8.42186318 11.9271228,8.42186318 C10.363451,8.42186318 9.60656306,9.13281511 9.60656306,9.96098303 C9.60656306,10.9813429 10.506011,11.4309349 12.5675868,12.2123748 C15.3868425,13.2551747 16.7131784,14.7238066 16.7131784,16.9744063 C16.7131784,19.6516301 14.6523946,21.9265179 10.268675,21.9265179 C8.44443518,21.9265179 6.64421935,21.4518459 5.74477144,20.954998 L6.47895537,17.9691582 Z" id="Fill-29" fill="#FFFFFE"></path>
                    <path d="M25.9751159,14.8895721 L24.979572,11.5021885 C24.696036,10.5531086 24.411444,9.37012469 24.174108,8.42183678 L24.12606,8.42183678 C23.8903081,9.37012469 23.6529721,10.5773966 23.3924041,11.5021885 L22.4459642,14.8895721 L25.9751159,14.8895721 Z M21.9240363,17.5900279 L20.7867244,21.6891555 L17.0434687,21.6891555 L21.9240363,5.72058904 L26.6620438,5.72058904 L31.6141553,21.6891555 L27.7283397,21.6891555 L26.4970438,17.5900279 L21.9240363,17.5900279 Z" id="Fill-30" fill="#FFFFFE"></path>
                    <path d="M43.1294646,13.6576163 C43.1294646,10.7438486 41.7553447,8.32824879 39.290377,8.32824879 C36.8275212,8.32824879 35.4056173,10.7438486 35.4056173,13.7283683 C35.3813293,16.7612 36.8507532,19.0825517 39.267409,19.0825517 C41.7072967,19.0825517 43.1294646,16.785224 43.1294646,13.6576163 L43.1294646,13.6576163 Z M45.9719523,24.4375272 C43.6965365,23.7733033 41.8020727,23.0871673 39.6697449,22.1861354 C39.313873,22.0443674 38.935561,21.9730875 38.556457,21.9506475 C34.9549694,21.7117275 31.5916097,19.0585277 31.5916097,13.8466402 C31.5916097,9.06164072 34.6231214,5.46094507 39.384361,5.46094507 C44.2657205,5.46094507 46.9426802,9.15694471 46.9426802,13.5158483 C46.9426802,17.1403039 45.2612644,19.6989917 43.1513766,20.6456956 L43.1513766,20.7425836 C44.3845205,21.0968715 45.7581123,21.3806715 47.0142242,21.6409755 L45.9719523,24.4375272 Z" id="Fill-31" fill="#FFFFFE"></path>
                    <path d="M52.0598181,19.1305997 C52.4170101,19.1778557 52.842314,19.1778557 53.457962,19.1778557 C55.0931778,19.1778557 56.5375217,18.5614158 56.5375217,16.88 C56.5375217,15.2688081 55.0931778,14.6283442 53.292962,14.6283442 L52.0598181,14.6283442 L52.0598181,19.1305997 Z M52.0598181,12.0466884 L53.24465,12.0466884 C55.1404338,12.0466884 56.1581537,11.2641925 56.1581537,10.0809446 C56.1581537,8.87235273 55.2360018,8.2310968 53.600786,8.2310968 C52.819346,8.2310968 52.3694901,8.27914479 52.0598181,8.32824879 L52.0598181,12.0466884 Z M48.4834105,5.93403302 C49.4309064,5.74474504 51.3499222,5.60192105 53.151722,5.60192105 C55.3537458,5.60192105 56.7041057,5.81602503 57.8646496,6.50295297 C58.9782014,7.09536891 59.7839294,8.1846328 59.7839294,9.62976866 C59.7839294,11.0508805 58.9549694,12.3782724 57.1547536,13.0411763 L57.1547536,13.0892243 C58.9782014,13.5863363 60.3285613,14.9609841 60.3285613,17.0217679 C60.3285613,18.4676958 59.6651294,19.6042157 58.6714335,20.4099436 C57.5090416,21.3342075 55.5675858,21.8542875 52.3919301,21.8542875 C50.6154743,21.8542875 49.2891384,21.7357515 48.4834105,21.6177435 L48.4834105,5.93403302 Z" id="Fill-32" fill="#FFFFFE"></path>
                    <polygon id="Fill-33" fill="#FFFFFE" points="47.5795538 27.0852622 50.5883615 32.4090856 74.4080231 21.8358867 85.4719981 16.9262791 61.4780964 0.00071279993 55.719729 1.90204061 73.2044473 15.9692792"></polygon>
                    <path d="M67.9356678,1.46438146 L68.0697798,1.46438146 C68.2260677,1.46438146 68.3535797,1.41237346 68.3535797,1.28565347 C68.3535797,1.17424549 68.2712117,1.09794949 68.0919558,1.09794949 C68.0175078,1.09794949 67.9652358,1.10613349 67.9356678,1.11326149 L67.9356678,1.46438146 Z M67.9280118,2.15051739 L67.6444758,2.15051739 L67.6444758,0.92740551 C67.7561478,0.911301511 67.9132278,0.889653513 68.1143958,0.889653513 C68.3448677,0.889653513 68.4494117,0.92740551 68.5320437,0.986541504 C68.6056997,1.0396055 68.6584997,1.12936549 68.6584997,1.24816548 C68.6584997,1.39706146 68.5462997,1.49500545 68.4050597,1.53803745 L68.4050597,1.55414145 C68.5241237,1.59110144 68.5832597,1.68719744 68.6220677,1.85246142 C68.6584997,2.0383174 68.6891237,2.10563739 68.7110357,2.15051739 L68.4124517,2.15051739 C68.3757557,2.10563739 68.3535797,2.0013574 68.3152997,1.85246142 C68.2931237,1.72494943 68.2176197,1.66554944 68.0621238,1.66554944 L67.9280118,1.66554944 L67.9280118,2.15051739 Z M67.1748198,1.51638945 C67.1748198,2.0607574 67.5853398,2.49371736 68.1286518,2.49371736 C68.6584997,2.50084536 69.0608357,2.0607574 69.0608357,1.52378145 C69.0608357,0.978621505 68.6584997,0.539325547 68.1143958,0.539325547 C67.5853398,0.539325547 67.1748198,0.978621505 67.1748198,1.51638945 L67.1748198,1.51638945 Z M69.3734116,1.51638945 C69.3734116,2.20252539 68.8232357,2.74768533 68.1215238,2.74768533 C67.4208678,2.74768533 66.8614519,2.20252539 66.8614519,1.51638945 C66.8614519,0.829725519 67.4208678,0.294069571 68.1286518,0.294069571 C68.8232357,0.294069571 69.3734116,0.829725519 69.3734116,1.51638945 L69.3734116,1.51638945 Z" id="Fill-34" fill="#FFFFFE"></path>
                    <polygon id="Fill-35" fill="#FFFFFE" points="74.3825207 22.5702026 78.8150803 24.9203304 47.3811314 39.411025 41.7695479 29.6306179 46.9806434 27.3697221 50.0137391 32.7344656 50.3088911 33.2563936 50.856427 33.0132496"></polygon>
                </g>
            </g>
        </g>
    </g>
</svg>