<?xml version="1.0" encoding="UTF-8"?><svg id="b" xmlns="http://www.w3.org/2000/svg" viewBox="0 0 323.27 197.08"><defs><style>.d{fill:#1b1c1b;stroke-width:0px;}</style></defs><g id="c"><path class="d" d="m28.6,167.92h-5.34v14.51h-3.59v-14.51h-5.26v-2.91h14.19v2.91Z"/><path class="d" d="m37.16,172.73c-.47-.06-.89-.1-1.24-.1-1.31,0-2.16.44-2.57,1.33v8.47h-3.46v-12.94h3.27l.1,1.54c.69-1.19,1.65-1.78,2.88-1.78.38,0,.74.05,1.08.16l-.05,3.33Z"/><path class="d" d="m46.21,182.43c-.16-.31-.28-.7-.35-1.16-.84.93-1.93,1.4-3.27,1.4-1.27,0-2.32-.37-3.15-1.1-.83-.73-1.25-1.66-1.25-2.78,0-1.37.51-2.42,1.53-3.16,1.02-.73,2.49-1.1,4.41-1.11h1.59v-.74c0-.6-.15-1.08-.46-1.44-.31-.36-.79-.54-1.45-.54-.58,0-1.04.14-1.37.42-.33.28-.5.66-.5,1.15h-3.46c0-.75.23-1.44.69-2.08.46-.64,1.12-1.14,1.96-1.5.85-.36,1.79-.54,2.85-.54,1.59,0,2.86.4,3.8,1.2.94.8,1.41,1.93,1.41,3.38v5.61c0,1.23.18,2.16.51,2.79v.2h-3.49Zm-2.86-2.4c.51,0,.98-.11,1.41-.34.43-.23.75-.53.96-.92v-2.23h-1.29c-1.73,0-2.65.6-2.76,1.79v.2c-.01.43.14.79.44,1.06.3.28.72.42,1.24.42Z"/><path class="d" d="m52.06,166.14c0-.52.17-.95.52-1.28.35-.34.82-.5,1.42-.5s1.06.17,1.41.5c.35.33.53.76.53,1.28s-.18.96-.53,1.29c-.35.34-.82.5-1.41.5s-1.05-.17-1.41-.5c-.35-.33-.53-.77-.53-1.29Zm3.67,16.29h-3.47v-12.94h3.47v12.94Z"/><path class="d" d="m62.01,169.49l.11,1.5c.92-1.16,2.17-1.74,3.72-1.74,1.37,0,2.39.4,3.06,1.21.67.81,1.01,2.01,1.03,3.61v8.36h-3.46v-8.28c0-.73-.16-1.27-.48-1.6-.32-.33-.85-.5-1.59-.5-.97,0-1.7.42-2.19,1.24v9.13h-3.46v-12.94h3.25Z"/><path class="d" d="m72.77,166.14c0-.52.17-.95.52-1.28.35-.34.82-.5,1.42-.5s1.06.17,1.41.5c.35.33.53.76.53,1.28s-.18.96-.53,1.29c-.35.34-.82.5-1.41.5s-1.05-.17-1.41-.5c-.35-.33-.53-.77-.53-1.29Zm3.67,16.29h-3.47v-12.94h3.47v12.94Z"/><path class="d" d="m82.71,169.49l.11,1.5c.92-1.16,2.16-1.74,3.72-1.74,1.37,0,2.39.4,3.06,1.21s1.01,2.01,1.03,3.61v8.36h-3.46v-8.28c0-.73-.16-1.27-.48-1.6-.32-.33-.85-.5-1.59-.5-.97,0-1.7.42-2.19,1.24v9.13h-3.46v-12.94h3.25Z"/><path class="d" d="m93,175.87c0-1.99.47-3.58,1.42-4.8.94-1.21,2.22-1.82,3.82-1.82,1.42,0,2.52.49,3.31,1.46l.14-1.22h3.13v12.51c0,1.13-.26,2.12-.77,2.96-.51.84-1.24,1.48-2.17,1.91-.93.44-2.03.66-3.28.66-.95,0-1.87-.19-2.78-.57-.9-.38-1.58-.87-2.05-1.47l1.53-2.11c.86.96,1.91,1.45,3.13,1.45.92,0,1.63-.25,2.14-.74.51-.49.77-1.19.77-2.09v-.69c-.8.9-1.85,1.35-3.15,1.35-1.56,0-2.81-.61-3.77-1.82-.96-1.22-1.44-2.83-1.44-4.84v-.14Zm3.46.26c0,1.17.23,2.09.71,2.76.47.67,1.12,1,1.94,1,1.05,0,1.81-.4,2.26-1.19v-5.45c-.46-.79-1.21-1.19-2.24-1.19-.83,0-1.48.34-1.96,1.02-.47.68-.71,1.69-.71,3.04Z"/><path class="d" d="m117.89,176.3v6.14h-3.59v-17.42h6.79c1.31,0,2.46.24,3.45.72.99.48,1.76,1.16,2.29,2.04.53.88.8,1.88.8,3.01,0,1.71-.58,3.05-1.75,4.04-1.17.99-2.79,1.48-4.85,1.48h-3.15Zm0-2.91h3.21c.95,0,1.67-.22,2.17-.67.5-.45.75-1.08.75-1.91s-.25-1.54-.75-2.07c-.5-.53-1.2-.8-2.08-.81h-3.29v5.47Z"/><path class="d" d="m136.91,172.73c-.47-.06-.89-.1-1.24-.1-1.31,0-2.16.44-2.57,1.33v8.47h-3.46v-12.94h3.27l.1,1.54c.69-1.19,1.65-1.78,2.88-1.78.38,0,.74.05,1.08.16l-.05,3.33Z"/><path class="d" d="m137.84,175.84c0-1.28.25-2.43.74-3.43.49-1,1.21-1.78,2.14-2.33.93-.55,2.01-.83,3.24-.83,1.75,0,3.17.54,4.28,1.6,1.1,1.07,1.72,2.52,1.85,4.35l.02.89c0,1.99-.55,3.58-1.66,4.78-1.11,1.2-2.6,1.8-4.46,1.8s-3.36-.6-4.47-1.79c-1.11-1.2-1.67-2.82-1.67-4.88v-.16Zm3.46.25c0,1.23.23,2.17.69,2.82s1.12.98,1.99.98,1.49-.32,1.96-.96c.47-.64.71-1.67.71-3.08,0-1.21-.24-2.14-.71-2.8-.47-.66-1.13-.99-1.99-.99s-1.5.33-1.96.99-.69,1.68-.69,3.06Z"/><path class="d" d="m157.15,178.21l2.4-8.72h3.61l-4.37,12.94h-3.3l-4.37-12.94h3.61l2.4,8.72Z"/><path class="d" d="m164.9,166.14c0-.52.17-.95.52-1.28.35-.34.82-.5,1.42-.5s1.06.17,1.41.5c.35.33.53.76.53,1.28s-.18.96-.53,1.29c-.35.34-.82.5-1.41.5s-1.05-.17-1.41-.5c-.35-.33-.53-.77-.53-1.29Zm3.67,16.29h-3.47v-12.94h3.47v12.94Z"/><path class="d" d="m171.13,175.87c0-2.02.45-3.62,1.36-4.82.91-1.2,2.14-1.79,3.71-1.79,1.26,0,2.3.47,3.12,1.41v-6.6h3.47v18.38h-3.12l-.17-1.38c-.86,1.08-1.97,1.62-3.33,1.62-1.52,0-2.75-.6-3.67-1.8-.92-1.2-1.38-2.87-1.38-5.01Zm3.46.26c0,1.21.21,2.15.63,2.79.42.65,1.04.97,1.84.97,1.07,0,1.82-.45,2.26-1.35v-5.12c-.43-.9-1.18-1.35-2.24-1.35-1.67,0-2.5,1.35-2.5,4.06Z"/><path class="d" d="m191.68,182.67c-1.9,0-3.44-.58-4.64-1.75-1.19-1.16-1.79-2.71-1.79-4.65v-.33c0-1.3.25-2.46.75-3.49.5-1.02,1.21-1.81,2.13-2.37.92-.55,1.97-.83,3.15-.83,1.77,0,3.16.56,4.18,1.68,1.02,1.12,1.52,2.7,1.52,4.75v1.41h-8.24c.11.85.45,1.52,1.01,2.03.56.51,1.27.77,2.14.77,1.33,0,2.37-.48,3.12-1.45l1.7,1.9c-.52.73-1.22,1.31-2.11,1.72-.89.41-1.87.62-2.94.62Zm-.39-10.63c-.69,0-1.24.23-1.67.7-.43.46-.7,1.13-.82,1.99h4.81v-.28c-.02-.77-.22-1.36-.62-1.78-.4-.42-.96-.63-1.7-.63Z"/><path class="d" d="m206.48,172.73c-.47-.06-.89-.1-1.24-.1-1.31,0-2.17.44-2.57,1.33v8.47h-3.46v-12.94h3.27l.1,1.54c.69-1.19,1.65-1.78,2.88-1.78.38,0,.74.05,1.08.16l-.05,3.33Z"/><path class="d" d="m14.45,26.07c0,3.77-2.87,6.82-7.35,6.82S-.09,29.83,0,26.07c-.09-3.95,2.78-6.91,7.18-6.91s7.18,2.96,7.27,6.91ZM.36,82.15v-43.89h13.64v43.89H.36Z"/><path class="d" d="m24.05,68.06c3.68,1.89,9.33,3.77,15.16,3.77,6.29,0,9.61-2.6,9.61-6.55s-2.87-5.93-10.14-8.53c-10.05-3.49-16.6-9.06-16.6-17.86,0-10.32,8.61-18.21,22.88-18.21,6.82,0,11.85,1.44,15.44,3.05l-3.05,11.04c-2.43-1.17-6.73-2.87-12.66-2.87s-8.79,2.69-8.79,5.83c0,3.87,3.41,5.57,11.22,8.53,10.68,3.95,15.7,9.51,15.7,18.04,0,10.14-7.81,18.76-24.41,18.76-6.91,0-13.73-1.8-17.14-3.68l2.78-11.31Z"/><path class="d" d="m82.56,66.63l-4.31,15.53h-14.18l18.49-60.49h17.95l18.76,60.49h-14.72l-4.66-15.53h-17.32Zm15.34-10.23l-3.77-12.83c-1.07-3.59-2.15-8.08-3.05-11.67h-.18c-.89,3.59-1.79,8.16-2.78,11.67l-3.59,12.83h13.37Z"/><path class="d" d="m173.65,92.56c-8.62-2.52-15.79-5.12-23.87-8.53-1.35-.54-2.78-.81-4.22-.89-13.64-.9-26.38-10.95-26.38-30.7,0-18.13,11.48-31.76,29.52-31.76s28.63,14,28.63,30.51c0,13.73-6.37,23.42-14.36,27.01v.37c4.67,1.34,9.87,2.42,14.63,3.4l-3.95,10.59Zm-10.77-40.83c0-11.04-5.2-20.19-14.54-20.19s-14.72,9.15-14.72,20.46c-.09,11.49,5.47,20.28,14.63,20.28s14.63-8.7,14.63-20.55Z"/><path class="d" d="m183.16,22.47c3.59-.72,10.86-1.26,17.68-1.26,8.34,0,13.46.81,17.85,3.41,4.22,2.24,7.27,6.37,7.27,11.84s-3.14,10.41-9.96,12.92v.18c6.91,1.88,12.02,7.09,12.02,14.9,0,5.48-2.51,9.78-6.28,12.83-4.4,3.5-11.76,5.47-23.79,5.47-6.73,0-11.75-.45-14.8-.9V22.47Zm13.55,23.15h4.49c7.18,0,11.04-2.96,11.04-7.45s-3.49-7.01-9.69-7.01c-2.96,0-4.66.18-5.84.37v14.08Zm0,26.83c1.35.18,2.96.18,5.3.18,6.19,0,11.66-2.33,11.66-8.7s-5.47-8.53-12.29-8.53h-4.67v17.05Z"/><polygon class="d" points="179.74 102.59 191.14 122.76 281.36 82.71 323.27 64.11 232.39 0 210.57 7.2 276.8 60.49 179.74 102.59 179.74 102.59"/><path class="d" d="m262.29,5.74c0,2.6-2.08,4.66-4.74,4.66s-4.77-2.06-4.77-4.66,2.12-4.63,4.8-4.63,4.71,2.03,4.71,4.63Zm-8.33,0c0,2.06,1.55,3.7,3.61,3.7,2.01.03,3.53-1.64,3.53-3.67s-1.52-3.73-3.58-3.73-3.56,1.66-3.56,3.7Zm2.85,2.4h-1.07V3.51c.42-.06,1.02-.14,1.78-.14.87,0,1.27.14,1.58.37.28.2.48.54.48.99,0,.56-.42.94-.96,1.1v.06c.45.14.67.5.82,1.13.14.7.25.96.34,1.13h-1.13c-.14-.17-.22-.56-.37-1.13-.08-.48-.37-.71-.96-.71h-.51v1.84Zm.03-2.6h.51c.59,0,1.08-.2,1.08-.68,0-.42-.31-.71-.99-.71-.28,0-.48.03-.59.06v1.33Z"/><path class="d" d="m96.65,140.88c.63-.84.95-2.09.95-3.74v-.74c0-1.65-.32-2.89-.95-3.73-.63-.84-1.55-1.25-2.77-1.25h-1.38v10.72h1.43c1.18,0,2.09-.42,2.72-1.26Z"/><path class="d" d="m66.82,135.48c.39-.41.59-.98.59-1.72s-.2-1.31-.6-1.73-.98-.63-1.76-.63h-2.6v4.7h2.6c.78,0,1.37-.21,1.76-.62Z"/><path class="d" d="m149.54,140.88c.63-.84.95-2.09.95-3.74v-.74c0-1.65-.32-2.89-.95-3.73-.63-.84-1.55-1.25-2.77-1.25h-1.38v10.72h1.43c1.18,0,2.09-.42,2.72-1.26Z"/><polygon class="d" points="16.17 133.02 14.34 138.94 18.01 138.94 16.17 133.02"/><path class="d" d="m281.27,85.49l16.79,8.9-119.07,54.89-21.26-37.05,19.74-8.56,11.49,20.32,1.12,1.98,2.07-.92,89.11-39.56"/><path class="d" d="m177.96,152.51l-1.26-2.2h0l-21.32-37.13H.35v83.9h227.46v-67.55l-49.85,22.98Zm-36.68-24.27h5.5c1.51,0,2.86.34,4.07,1.03,1.2.68,2.14,1.65,2.82,2.89.68,1.25,1.02,2.64,1.03,4.19v.79c0,1.56-.33,2.96-.99,4.2-.66,1.24-1.59,2.21-2.79,2.91-1.2.7-2.54,1.05-4.01,1.06h-5.61v-17.06Zm-13.91,0h11.78v3.18h-7.66v3.6h6.47v3.05h-6.47v4.08h7.64v3.16h-11.75v-17.06Zm-16.48,0h14.26v3.18h-5.12v13.89h-4.11v-13.89h-5.03v-3.18Zm-6.23,0h4.1v17.06h-4.1v-17.06Zm-16.28,0h5.5c1.51,0,2.86.34,4.07,1.03,1.2.68,2.14,1.65,2.82,2.89.68,1.25,1.02,2.64,1.03,4.19v.79c0,1.56-.33,2.96-.99,4.2-.66,1.24-1.59,2.21-2.79,2.91-1.2.7-2.54,1.05-4.01,1.06h-5.61v-17.06Zm-13.91,0h11.78v3.18h-7.66v3.6h6.47v3.05h-6.47v4.08h7.64v3.16h-11.75v-17.06Zm-16.14,0h6.71c2.02,0,3.61.45,4.75,1.35,1.14.9,1.71,2.17,1.71,3.8,0,1.19-.24,2.17-.72,2.95s-1.23,1.41-2.26,1.9l3.56,6.89v.18h-4.41l-3.01-6.04h-2.23v6.04h-4.11v-17.06Zm-16.71,8.07c0-1.67.29-3.13.87-4.39.58-1.25,1.42-2.22,2.51-2.91,1.09-.68,2.36-1.03,3.8-1.03,2.07,0,3.73.54,4.99,1.63s1.97,2.59,2.14,4.51h-4.1c-.03-1.04-.29-1.79-.79-2.24s-1.24-.68-2.25-.68-1.77.38-2.25,1.15c-.48.77-.73,1.99-.75,3.67v1.21c0,1.82.23,3.12.69,3.9.46.78,1.24,1.17,2.36,1.17.95,0,1.67-.22,2.17-.67s.77-1.15.8-2.12h4.09c-.05,1.19-.37,2.24-.96,3.15-.59.91-1.41,1.62-2.47,2.12s-2.27.75-3.63.75c-2.24,0-4.01-.73-5.3-2.19-1.29-1.46-1.93-3.52-1.93-6.19v-.84Zm-16.23,0c0-1.67.29-3.13.87-4.39.58-1.25,1.42-2.22,2.51-2.91,1.09-.68,2.36-1.03,3.8-1.03,2.07,0,3.73.54,4.99,1.63,1.26,1.09,1.97,2.59,2.14,4.51h-4.1c-.03-1.04-.29-1.79-.79-2.24-.49-.45-1.24-.68-2.25-.68s-1.77.38-2.25,1.15c-.48.77-.73,1.99-.75,3.67v1.21c0,1.82.23,3.12.69,3.9.46.78,1.24,1.17,2.36,1.17.95,0,1.67-.22,2.17-.67s.77-1.15.8-2.12h4.09c-.05,1.19-.37,2.24-.96,3.15-.59.91-1.41,1.62-2.47,2.12-1.06.5-2.27.75-3.63.75-2.24,0-4.01-.73-5.3-2.19s-1.93-3.52-1.93-6.19v-.84Zm-11.17-8.07h3.87l6.3,17.06h-4.42l-1-3.19h-5.64l-.98,3.19h-4.39l6.26-17.06Zm206.44,61.75H7.44v-33.3h213.23v33.3Z"/></g></svg>