<?xml version="1.0" encoding="UTF-8"?>
<!DOCTYPE svg PUBLIC "-//W3C//DTD SVG 1.1//EN" "http://www.w3.org/Graphics/SVG/1.1/DTD/svg11.dtd">
<!-- Creator: CorelDRAW 2017 -->
<svg xmlns="http://www.w3.org/2000/svg" xml:space="preserve" width="2075px" height="387px" version="1.1" style="shape-rendering:geometricPrecision; text-rendering:geometricPrecision; image-rendering:optimizeQuality; fill-rule:evenodd; clip-rule:evenodd"
viewBox="0 0 2075.28 387.61"
 xmlns:xlink="http://www.w3.org/1999/xlink">
 <defs>
  <style type="text/css">
   <![CDATA[
    .fil0 {fill:black;fill-rule:nonzero}
   ]]>
  </style>
 </defs>
 <g id="Ebene_x0020_1">
  <metadata id="CorelCorpID_0Corel-Layer"/>
  <polygon class="fil0" points="6.21,118.54 0,124.74 0,375.14 6.21,381.35 55.85,381.35 62.05,375.14 62.05,124.74 55.85,118.54 "/>
  <path class="fil0" d="M549.59 201.8l-136.32 0 -6.19 -6.2c0,-18.61 6.19,-74.43 74.35,-74.43 68.16,0 74.36,55.82 74.36,74.43l-6.2 6.2zm-61.96 185.81c74.36,0 117.73,-43.34 123.93,-92.87l-6.2 -6.19 -49.57 0 -6.2 6.19c-12.39,30.96 -37.18,37.15 -61.96,37.15 -74.36,0 -80.55,-61.97 -80.55,-74.39l6.19 -6.21 204.49 0 6.19 -6.18 0 -18.56c0,-86.77 -43.37,-161.07 -142.52,-161.07 -99.11,0 -142.43,74.3 -142.43,161.07 0,92.96 49.51,161.06 148.63,161.06z"/>
  <path class="fil0" d="M1660.69 201.8l-136.32 0 -6.2 -6.2c0,-18.61 6.2,-74.43 74.36,-74.43 68.16,0 74.36,55.82 74.36,74.43l-6.2 6.2zm-61.97 185.81c74.36,0 117.74,-43.34 123.93,-92.87l-6.19 -6.19 -49.57 0 -6.2 6.19c-12.39,30.96 -37.18,37.15 -61.97,37.15 -74.35,0 -80.55,-61.97 -80.55,-74.39l6.2 -6.21 204.48 0 6.2 -6.18 0 -18.56c0,-86.77 -43.38,-161.07 -142.52,-161.07 -99.12,0 -142.44,74.3 -142.44,161.07 0,92.96 49.52,161.06 148.63,161.06z"/>
  <path class="fil0" d="M1856.34 224.93c0,-67.82 30.83,-104.82 86.32,-104.82 49.32,0 67.82,24.67 73.99,49.33l6.16 6.17 46.31 0 6.16 -6.17c-6.16,-55.49 -46.31,-104.81 -132.62,-104.81 -92.48,0 -147.98,61.65 -147.98,160.3 0,98.65 55.5,160.3 147.98,160.3 86.31,0 126.46,-49.32 132.62,-104.81l-6.16 -6.17 -46.31 0 -6.16 6.17c-6.17,24.66 -24.67,49.32 -73.99,49.32 -55.49,0 -86.32,-36.99 -86.32,-104.81z"/>
  <polygon class="fil0" points="6.21,0 0,5.64 0,56.84 5.73,62.06 55.85,62.06 62.06,56.57 62.06,5.64 55.85,0 "/>
  <path class="fil0" d="M284.69 62.52l-68.25 0 -6.21 -6.2 0 -50.12 -6.21 -6.2 -49.64 0 -6.21 6.2c0,0 0.1,311.24 0.16,313.2l6.04 6.05 49.67 0 6.29 -6.33 -0.1 -194.54 6.21 -6.22 68.25 0 6.21 -6.2 0 -43.44 -6.21 -6.2z"/>
  <polygon class="fil0" points="979.13,172.3 979.13,124.64 972.84,118.37 922.55,118.37 916.27,124.64 916.27,172.3 922.55,178.56 972.84,178.56 "/>
  <path class="fil0" d="M1047.84 61.58l-0.06 -0.04 -60.43 0 -6.28 6.26 0 43.95 6.28 6.26 59.48 0c42.26,0.47 60.49,13.32 60.49,56.39l0 12.54 -6.29 6.27c0,0 -25.15,-6.27 -56.58,-6.27 -81.73,0 -138.3,31.36 -138.3,100.34 0,62.71 37.72,100.33 106.87,100.33 62.86,0 88.01,-37.62 88.01,-37.62l6.29 0 6.28 25.08 6.29 6.28 44 0 6.29 -6.28 0 -175.58c0,-92.92 -30.71,-136.85 -122.34,-137.91zm59.48 206.89c0,37.62 -31.44,62.71 -81.74,62.71 -37.71,0 -56.57,-12.54 -56.57,-43.9 0,-31.36 25.15,-50.17 81.73,-50.17 31.43,0 50.29,6.27 50.29,6.27l6.29 6.28 0 18.81z"/>
  <polygon class="fil0" points="745.49,118.38 695.91,118.38 689.63,124.64 689.63,375.07 695.92,381.35 746.2,381.35 752.49,375.07 752.48,124.64 "/>
  <polygon class="fil0" points="754.79,111.93 754.79,68.72 761.01,62.52 865.69,62.52 871.98,68.78 871.98,112.15 865.69,118.41 761.71,118.13 "/>
  <path class="fil0" d="M1392.77 62.52l-68.25 0 -6.21 -6.2 0 -50.12 -6.21 -6.2 -49.65 0 -6.2 6.2c0,0 0.09,311.24 0.15,313.2l6.05 6.05 49.66 0 6.3 -6.33 -0.1 -194.54 6.21 -6.22 68.25 0 6.2 -6.2 0 -43.44 -6.2 -6.2z"/>
  <path class="fil0" d="M549.6 201.8l-136.32 0 -6.2 -6.2c0,-18.61 6.2,-74.43 74.36,-74.43 68.16,0 74.36,55.82 74.36,74.43l-6.2 6.2zm-61.96 185.81c74.35,0 117.72,-43.34 123.92,-92.87l-6.2 -6.19 -49.56 0 -6.2 6.19c-12.39,30.96 -37.18,37.15 -61.96,37.15 -74.36,0 -80.56,-61.97 -80.56,-74.39l6.2 -6.21 204.48 0 6.19 -6.18 0 -18.57c0,-86.76 -43.37,-161.06 -142.51,-161.06 -99.11,0 -142.44,74.3 -142.44,161.06 0,92.97 49.52,161.07 148.64,161.07z"/>
  <polygon class="fil0" points="284.7,325.7 222.39,325.7 216.44,331.65 216.26,375.17 222.46,381.37 284.52,381.37 290.72,375.17 290.9,331.9 "/>
  <path class="fil0" d="M284.7 62.52l-68.26 0 -6.21 -6.2 0 -50.12 -6.2 -6.2 -49.65 0 -6.2 6.2c0,0 0.09,311.24 0.15,313.2l6.05 6.05 49.66 0 6.3 -6.33 -0.11 -194.54 6.21 -6.22 68.26 0 6.2 -6.2 0 -43.44 -6.2 -6.2z"/>
  <polygon class="fil0" points="1392.77,325.51 1330.46,325.51 1324.51,331.45 1324.51,375.15 1330.71,381.35 1392.77,381.35 1398.97,375.15 1398.97,331.71 "/>
 </g>
</svg>
