<?xml version="1.0" encoding="UTF-8"?><svg id="b" xmlns="http://www.w3.org/2000/svg" viewBox="0 0 469.64 214.56"><defs><style>.d{fill:#322766;}.d,.e{stroke-width:0px;}.e{fill:#9f9f9e;}</style></defs><g id="c"><polygon class="d" points="0 134.05 14.59 134.05 14.59 206.28 0 206.28 0 134.05 0 134.05"/><polygon class="d" points="34.46 134.05 49.04 134.05 49.04 206.28 34.46 206.28 34.46 134.05 34.46 134.05"/><polygon class="d" points="69.06 134.05 83.64 134.05 83.64 206.28 69.06 206.28 69.06 134.05 69.06 134.05"/><polygon class="d" points="103.51 134.05 118.1 134.05 118.1 206.28 103.51 206.28 103.51 134.05 103.51 134.05"/><path class="d" d="M141.3,4.93h19.6v106.19h-14.39V12.53c0-2.82-2.22-4.75-5.21-4.75v-2.85h0Z"/><path class="d" d="M232.48,111.12h-14.39V18.12h-33.81V0h2.58c0,.08,0,.17,0,.25,0,2.55,2.1,4.65,4.65,4.65h76.33v13.25h-35.35v93-.03h0Z"/><path class="d" d="M368.27,4.87v76.47c0,42.68-74,43.15-74.13,0-.13-43.15,0-66.1,0-68.76-.05-2.85-2.43-5.16-5.28-5.14v-2.55h19.66c.1,0,0,72,0,73.37.07,28.23,45.26,28.28,45.36,0,.1-28.28,0-62.87,0-65.53s-3-5.24-5.32-5.26v-2.59h19.71Z"/><path class="d" d="M459,25.41s3.51-8.86,6.45-16.35c-3.06-1.42-6.22-2.64-9.45-3.63-5.61-1.4-11.38-2.07-17.17-2-29.32-.1-45.3,25-46.16,54.78-.48,16.76,4.78,32.51,14.64,42.76,7.6,7.94,18.16,12.39,29.15,12.29,7.19-.03,14.29-1.63,20.79-4.69,4.2-1.94,7.95-4.84,12.34-8-1.25-1.78-5.62-8-7.61-10.59-8.21,7.17-16.72,9.76-24.3,9.49-18-.62-31.57-18.93-29.91-42.34,1.4-19.71,8.1-33.35,20.58-38.51,2-.85,4.09-1.44,6.24-1.75,2.02-.25,4.05-.38,6.08-.39,4.05-.1,8.08.37,12,1.38,3.62,1.06,4.72,3.57,4,6.6,1.06.49,2.35,1,2.35,1l-.02-.05h0Z"/><polygon class="e" points="146.54 162.23 146.54 134.06 148.95 134.06 148.95 162.23 146.54 162.23 146.54 162.23"/><path class="e" d="M152.93,162.23v-20.4h2v2.9c.97-2.25,2.37-3.37,4.2-3.37.78,0,1.54.23,2.19.66.66.43,1.18,1.04,1.5,1.75.36.81.6,1.67.7,2.55.1,1.12.14,2.24.12,3.37v12.55h-2.24v-12.43c.03-1.06-.06-2.12-.26-3.16-.14-.64-.46-1.22-.93-1.67-.42-.41-.98-.64-1.56-.63-1,.02-1.93.55-2.47,1.4-.69.94-1,2.71-1,5.33v11.14h-2.25Z"/><path class="e" d="M166.68,163.92l2.18.5c.02.82.28,1.61.76,2.27.57.66,1.41,1.03,2.28,1,.91.05,1.79-.32,2.4-1,.62-.77,1.01-1.71,1.14-2.69.15-1.47.21-2.96.16-4.44-.97,1.78-2.19,2.67-3.66,2.67-1.82,0-3.23-1-4.22-3-1.05-2.28-1.57-4.77-1.5-7.28-.02-1.82.21-3.63.68-5.39.34-1.42,1.03-2.73,2-3.82.78-.85,1.89-1.34,3.05-1.34,1.56,0,2.85.98,3.86,2.93v-2.46h2.07v17.64c.09,2.27-.12,4.54-.63,6.76-.35,1.22-1.05,2.31-2,3.14-.94.78-2.13,1.19-3.35,1.15-1.46.05-2.86-.55-3.82-1.65-1.07-1.42-1.58-3.18-1.41-4.95v-.04h0ZM168.53,151.66c-.14,2.01.2,4.02,1,5.86.38,1.09,1.43,1.83,2.59,1.83s2.2-.74,2.58-1.83c.8-1.81,1.14-3.79,1-5.76.12-1.94-.25-3.89-1.07-5.65-.44-1.07-1.44-1.8-2.59-1.9-1.13.09-2.12.82-2.54,1.88-.78,1.74-1.13,3.65-1,5.56h.03Z"/><path class="e" d="M190.3,155.66l2.31.44c-.22,1.77-.91,3.45-2,4.87-.93,1.12-2.32,1.76-3.78,1.73-1.92,0-3.69-1.05-4.59-2.75-1.13-1.84-1.7-4.42-1.7-7.73s.57-6.11,1.72-8c.84-1.7,2.56-2.8,4.45-2.85,1.85.06,3.52,1.13,4.33,2.79,1.12,1.85,1.68,4.47,1.68,7.84v.92h-9.85c-.03,1.79.39,3.57,1.23,5.15.52,1.06,1.58,1.74,2.76,1.79.82,0,1.59-.37,2.1-1,.71-.94,1.18-2.03,1.38-3.19h-.04ZM182.95,150.06h7.38c0-1.33-.29-2.65-.84-3.86-.45-1.15-1.54-1.93-2.77-2-1.08.03-2.07.64-2.59,1.59-.76,1.29-1.16,2.76-1.16,4.26h-.02Z"/><path class="e" d="M195.42,162.23v-20.4h2v2.9c.97-2.25,2.37-3.37,4.2-3.37.78,0,1.55.22,2.2.66.66.43,1.18,1.04,1.5,1.75.36.81.6,1.67.7,2.55.1,1.12.14,2.24.12,3.37v12.55h-2.24v-12.43c.03-1.06-.06-2.12-.26-3.16-.14-.64-.46-1.22-.93-1.67-.42-.41-.98-.64-1.56-.63-1,.02-1.93.55-2.47,1.4-.69.94-1,2.71-1,5.33v11.14h-2.26Z"/><path class="e" d="M209.6,138v-4h2.24v4h-2.24ZM209.6,162.19v-20.36h2.24v20.41l-2.24-.05h0Z"/><path class="e" d="M224.28,155.66l2.31.44c-.22,1.77-.91,3.45-2,4.87-.93,1.12-2.32,1.76-3.78,1.73-1.92,0-3.69-1.05-4.59-2.75-1.13-1.84-1.7-4.42-1.7-7.73s.57-6.11,1.72-8c.84-1.7,2.55-2.8,4.45-2.85,1.85.06,3.51,1.13,4.33,2.79,1.12,1.85,1.68,4.47,1.68,7.84v.92h-9.85c-.03,1.79.39,3.57,1.23,5.15.52,1.06,1.58,1.74,2.76,1.79.81,0,1.59-.37,2.1-1,.71-.94,1.18-2.03,1.38-3.19h-.04ZM216.93,150.06h7.38c0-1.33-.29-2.65-.84-3.86-.45-1.15-1.54-1.93-2.77-2-1.08.03-2.07.64-2.59,1.59-.76,1.29-1.16,2.76-1.16,4.26h-.02Z"/><path class="e" d="M238.07,162.23v-3c-1.03,2.31-2.43,3.46-4.19,3.46-.78,0-1.54-.24-2.18-.69-.65-.43-1.17-1.04-1.5-1.74-.36-.81-.59-1.68-.69-2.56-.11-1.07-.16-2.15-.14-3.23v-12.64h2.24v11.31c-.02,1.22.02,2.44.14,3.65.09.78.4,1.52.9,2.14.42.5,1.04.78,1.69.77.71-.01,1.38-.29,1.89-.79.62-.58,1.06-1.34,1.25-2.17.29-1.31.41-2.66.37-4v-10.91h2.24v20.41h-2.02Z"/><path class="e" d="M243.55,162.23v-20.4h2v3.09c.29-1.03.78-2,1.42-2.86.36-.42.88-.68,1.44-.7.88.06,1.71.46,2.3,1.12l-.77,3.21c-.43-.45-1.02-.72-1.64-.75-.52.01-1.01.27-1.32.68-.43.55-.72,1.21-.83,1.9-.26,1.32-.38,2.66-.37,4v10.69l-2.23.02h0Z"/><path class="e" d="M251.65,163.92l2.18.5c.02.82.28,1.61.76,2.27.57.66,1.41,1.03,2.28,1,.91.05,1.79-.32,2.4-1,.62-.78,1.01-1.71,1.13-2.69.15-1.47.21-2.96.16-4.44-.98,1.78-2.2,2.67-3.66,2.67-1.82,0-3.23-1-4.22-3-1.05-2.28-1.56-4.77-1.5-7.28-.02-1.82.21-3.63.68-5.39.34-1.42,1.03-2.73,2-3.82.78-.85,1.89-1.34,3.05-1.34,1.56,0,2.85.98,3.86,2.93v-2.46h2.07v17.64c.1,2.27-.12,4.54-.63,6.76-.35,1.22-1.05,2.31-2,3.14-.94.78-2.13,1.19-3.35,1.15-1.46.05-2.86-.55-3.82-1.65-1.07-1.41-1.58-3.18-1.41-4.95l.02-.04h0ZM253.5,151.66c-.14,2.01.2,4.02,1,5.86.38,1.09,1.43,1.83,2.58,1.83s2.2-.74,2.59-1.83c.8-1.81,1.14-3.79,1-5.76.12-1.94-.25-3.89-1.07-5.65-.44-1.07-1.44-1.8-2.59-1.9-1.13.09-2.12.82-2.54,1.88-.78,1.74-1.13,3.65-1,5.56h.03Z"/><path class="e" d="M275.26,155.66l2.31.44c-.22,1.77-.91,3.45-2,4.87-.93,1.12-2.32,1.76-3.78,1.73-1.92,0-3.7-1.05-4.6-2.75-1.13-1.84-1.7-4.42-1.7-7.73s.57-6.11,1.71-8c.84-1.7,2.55-2.8,4.45-2.85,1.85.06,3.52,1.13,4.33,2.79,1.12,1.85,1.68,4.47,1.68,7.84v.92h-9.85c-.03,1.79.39,3.57,1.23,5.15.52,1.06,1.58,1.75,2.76,1.79.82,0,1.59-.37,2.1-1,.71-.94,1.18-2.03,1.38-3.19h-.02ZM267.91,150.06h7.38c0-1.33-.3-2.65-.85-3.86-.45-1.15-1.54-1.93-2.77-2-1.09.03-2.08.64-2.6,1.59-.76,1.29-1.16,2.76-1.16,4.26h0Z"/><path class="e" d="M279.49,156.14l2.21-.54c.03,1.13.38,2.22,1,3.16.57.73,1.46,1.14,2.38,1.1.88.06,1.73-.32,2.29-1,.5-.65.76-1.46.75-2.28.04-.68-.2-1.35-.66-1.85-.69-.52-1.47-.91-2.29-1.17-1.2-.42-2.34-.98-3.41-1.67-.65-.5-1.15-1.17-1.44-1.94-.34-.87-.5-1.8-.49-2.73,0-.86.13-1.72.41-2.53.23-.71.61-1.38,1.1-1.94.4-.43.88-.77,1.42-1,.61-.28,1.27-.42,1.94-.41.96-.02,1.9.23,2.73.7.76.43,1.37,1.08,1.74,1.87.43,1,.69,2.07.77,3.16l-2.19.47c-.04-.89-.35-1.74-.87-2.46-.49-.59-1.23-.92-2-.89-.81-.08-1.62.21-2.2.79-.43.51-.67,1.17-.66,1.84,0,.42.09.83.28,1.21.2.38.49.7.86.92.23.13.88.42,2,.88,1.15.44,2.26.98,3.31,1.61.66.45,1.17,1.08,1.48,1.82.39.95.57,1.97.54,3,0,1.12-.21,2.23-.65,3.26-.39.95-1.04,1.77-1.88,2.36-.82.56-1.8.85-2.79.83-1.5.1-2.95-.51-3.93-1.65-1.02-1.44-1.62-3.14-1.72-4.9l-.03-.02h0Z"/><path class="e" d="M302.17,155.66l2.32.44c-.22,1.77-.91,3.45-2,4.87-.93,1.12-2.32,1.76-3.78,1.73-1.92,0-3.69-1.05-4.59-2.75-1.13-1.84-1.7-4.42-1.7-7.73s.57-6.11,1.72-8c.83-1.7,2.55-2.8,4.45-2.85,1.85.06,3.52,1.13,4.33,2.79,1.12,1.85,1.68,4.47,1.68,7.84v.92h-9.85c-.04,1.79.39,3.57,1.23,5.15.52,1.06,1.58,1.75,2.76,1.79.82,0,1.59-.37,2.1-1,.71-.94,1.18-2.03,1.38-3.19h-.05ZM294.82,150.06h7.38c0-1.33-.29-2.65-.84-3.86-.45-1.15-1.54-1.93-2.77-2-1.08.04-2.07.65-2.59,1.6-.77,1.29-1.17,2.76-1.17,4.26h-.01Z"/><polygon class="e" points="307.24 162.23 307.24 134.06 309.48 134.06 309.48 162.23 307.24 162.23 307.24 162.23"/><polygon class="e" points="312.9 162.23 312.9 134.06 315.13 134.06 315.13 162.23 312.9 162.23 312.9 162.23"/><path class="e" d="M317.71,156.14l2.21-.54c.03,1.13.38,2.22,1,3.16.57.73,1.46,1.14,2.38,1.1.88.06,1.73-.32,2.29-1,.5-.65.76-1.46.75-2.28.04-.68-.2-1.35-.66-1.85-.69-.52-1.47-.91-2.29-1.17-1.2-.42-2.34-.98-3.41-1.67-.65-.5-1.15-1.17-1.44-1.94-.34-.87-.5-1.8-.49-2.73,0-.86.13-1.72.41-2.53.23-.71.61-1.38,1.1-1.94.4-.43.88-.77,1.42-1,.61-.28,1.27-.42,1.94-.41.96-.02,1.9.23,2.73.7.76.43,1.37,1.08,1.74,1.87.43,1,.69,2.07.77,3.16l-2.19.47c-.04-.89-.35-1.74-.87-2.46-.49-.59-1.23-.92-2-.89-.81-.08-1.62.21-2.2.79-.44.51-.67,1.17-.66,1.84,0,.42.09.83.28,1.21.2.38.49.7.86.92.22.13.88.42,2,.88,1.15.44,2.26.98,3.31,1.61.66.45,1.17,1.08,1.48,1.82.39.95.58,1.97.54,3,0,1.12-.21,2.23-.65,3.26-.39.95-1.04,1.77-1.88,2.36-.82.55-1.79.84-2.78.83-1.49.1-2.95-.51-3.93-1.65-1.03-1.44-1.62-3.14-1.72-4.9l-.04-.02h0Z"/><path class="e" d="M340,154.75l2.2.45c-.11,1.97-.75,3.87-1.85,5.5-.81,1.23-2.18,1.98-3.65,2-1.85-.02-3.54-1.08-4.36-2.74-1.1-1.83-1.65-4.44-1.65-7.85-.03-1.95.21-3.89.71-5.78.34-1.42,1.09-2.72,2.16-3.72.86-.79,1.98-1.23,3.15-1.24,1.35-.03,2.65.57,3.49,1.63,1.02,1.4,1.63,3.05,1.76,4.78l-2.18.52c-.11-1.11-.49-2.17-1.1-3.1-.44-.62-1.15-1-1.91-1-1.2.05-2.27.78-2.75,1.88-.81,1.86-1.16,3.89-1.02,5.92-.14,2.05.2,4.11,1,6,.44,1.09,1.49,1.82,2.66,1.86.9-.01,1.73-.48,2.2-1.25.69-1.16,1.08-2.49,1.12-3.84l.02-.02h0Z"/><path class="e" d="M344.08,162.23v-28.17h2.24v10.11c1.05-1.87,2.38-2.8,4-2.81.93-.02,1.84.3,2.55.9.76.65,1.3,1.51,1.55,2.47.36,1.5.52,3.03.47,4.57v12.94h-2.29v-12.94c.09-1.3-.16-2.6-.72-3.77-.41-.75-1.21-1.21-2.06-1.19-.7.02-1.37.3-1.87.8-.62.58-1.05,1.33-1.25,2.16-.28,1.24-.41,2.5-.37,3.77v11.16h-2.25Z"/><path class="e" d="M366.87,159.71c-.64.91-1.46,1.7-2.39,2.31-.75.44-1.6.67-2.47.67-1.32.07-2.59-.55-3.35-1.64-.82-1.24-1.23-2.71-1.17-4.2-.01-.93.14-1.86.44-2.74.24-.74.63-1.42,1.15-2,.46-.47,1.01-.85,1.62-1.11.65-.24,1.32-.41,2-.52,1.38-.2,2.73-.6,4-1.19v-.9c.09-1.04-.13-2.09-.64-3-1.25-1.42-3.45-1.56-4.88-.32-.62.89-1.01,1.92-1.11,3l-2.19-.46c.14-1.21.48-2.4,1-3.5.44-.88,1.14-1.59,2-2.06.92-.49,1.95-.74,3-.72.95-.04,1.9.17,2.75.62.65.36,1.19.9,1.56,1.55.37.74.6,1.53.7,2.35.09,1.06.13,2.12.11,3.19v4.61c0,3.22.05,5.25.14,6.1.09.84.28,1.66.56,2.45h-2.34c-.25-.82-.4-1.67-.45-2.52l-.04.03h0ZM366.68,151.98c-1.14.64-2.39,1.09-3.68,1.32-.7.11-1.38.34-2,.69-.4.28-.71.67-.88,1.13-.21.52-.32,1.08-.31,1.64-.03.82.21,1.63.68,2.31.47.62,1.22.97,2,.92.85,0,1.67-.3,2.3-.87.71-.64,1.22-1.47,1.48-2.39.28-1.13.4-2.3.36-3.46v-1.27l.05-.02h0Z"/><path class="e" d="M372.94,162.23v-17.72h-2v-2.69h2v-2.17c-.03-1.03.05-2.05.24-3.06.18-.82.57-1.57,1.14-2.18.61-.59,1.44-.89,2.29-.83.71.01,1.42.13,2.09.35l-.33,3c-.43-.13-.87-.19-1.32-.2-.57-.06-1.12.21-1.44.68-.35.79-.5,1.66-.43,2.52v1.88h2.57v2.69h-2.57v17.72h-2.24Z"/><path class="e" d="M384.38,159.14l.32,3.06c-.54.19-1.11.29-1.69.31-.68.04-1.36-.17-1.89-.6-.46-.42-.79-.97-.94-1.57-.24-1.35-.33-2.71-.28-4.08v-11.75h-1.64v-2.69h1.64v-5.06l2.23-2.07v7.13h2.25v2.69h-2.25v11.93c-.02.64.02,1.27.12,1.9.07.26.2.49.39.68.21.18.48.27.76.25.34-.01.67-.06,1-.14h-.02Z"/><path class="e" d="M146.38,206.2v-17.72h-2v-2.69h2v-2.17c-.03-1.03.05-2.05.24-3.06.17-.82.57-1.58,1.14-2.19.61-.59,1.44-.89,2.28-.83.71.01,1.42.13,2.09.35l-.34,3c-.43-.13-.87-.2-1.32-.2-.57-.05-1.12.21-1.44.68-.35.79-.49,1.66-.42,2.52v1.88h2.57v2.69h-2.57v17.74h-2.23Z"/><path class="e" d="M161.59,206.2v-3c-1.03,2.31-2.43,3.46-4.2,3.46-.78,0-1.54-.24-2.18-.69-.65-.43-1.17-1.03-1.5-1.74-.36-.81-.59-1.68-.69-2.56-.11-1.07-.16-2.15-.14-3.23v-12.65h2.24v11.32c-.02,1.22.02,2.44.14,3.65.09.78.4,1.53.9,2.14.42.5,1.04.78,1.69.77.71-.01,1.38-.3,1.89-.79.62-.58,1.06-1.34,1.25-2.17.29-1.31.41-2.66.37-4v-10.92h2.24v20.41h-2.01ZM154.75,181.79v-3.94h2.34v3.94h-2.34ZM159.39,181.79v-3.94h2.34v3.94h-2.34Z"/><path class="e" d="M167.07,206.2v-20.41h2v3.09c.3-1.03.78-2,1.43-2.86.36-.42.88-.68,1.43-.7.88.06,1.71.46,2.3,1.11l-.77,3.22c-.43-.45-1.02-.73-1.64-.76-.52.02-1.01.27-1.32.68-.43.55-.72,1.2-.83,1.89-.26,1.32-.38,2.66-.37,4v10.74h-2.23Z"/><polygon class="e" points="187.59 206.2 187.59 181.35 181.58 181.35 181.58 178.03 196.03 178.03 196.03 181.35 190 181.35 190 206.2 187.59 206.2 187.59 206.2"/><path class="e" d="M204.44,199.63l2.31.44c-.22,1.77-.91,3.45-2,4.87-.93,1.12-2.32,1.76-3.78,1.73-1.92,0-3.69-1.06-4.59-2.76-1.13-1.83-1.7-4.41-1.7-7.73s.57-6.11,1.72-8c.83-1.7,2.55-2.8,4.45-2.85,1.85.06,3.51,1.13,4.33,2.79,1.12,1.86,1.68,4.47,1.68,7.84v.92h-9.86c-.04,1.78.38,3.54,1.2,5.12.52,1.06,1.58,1.74,2.76,1.79.82,0,1.59-.37,2.1-1,.71-.94,1.18-2.03,1.38-3.19v.03h0ZM197.09,194.03h7.38c0-1.33-.29-2.65-.84-3.86-.45-1.15-1.54-1.93-2.77-2-1.08.03-2.07.64-2.59,1.59-.76,1.29-1.16,2.76-1.16,4.26h-.02Z"/><path class="e" d="M218.19,198.72l2.2.45c-.11,1.97-.75,3.87-1.85,5.5-.81,1.23-2.18,1.98-3.65,2-1.85-.02-3.54-1.08-4.36-2.74-1.1-1.82-1.65-4.44-1.65-7.85-.03-1.95.21-3.9.71-5.79.34-1.43,1.09-2.72,2.16-3.72.86-.79,1.98-1.23,3.15-1.24,1.37-.03,2.68.6,3.52,1.69,1.02,1.4,1.63,3.05,1.76,4.78l-2.18.52c-.11-1.11-.49-2.17-1.1-3.1-.44-.62-1.15-1-1.91-1-1.2.04-2.27.78-2.75,1.88-.83,1.86-1.19,3.89-1.06,5.92-.14,2.05.2,4.11,1,6,.45,1.09,1.49,1.81,2.66,1.86.9-.01,1.73-.48,2.2-1.25.69-1.16,1.08-2.49,1.12-3.84l.03-.07h0Z"/><path class="e" d="M222.31,206.2v-28.2h2.24v10.11c1.05-1.87,2.38-2.8,4-2.81.93-.02,1.84.3,2.55.9.76.64,1.3,1.51,1.55,2.47.36,1.49.52,3.03.47,4.57v12.96h-2.24v-12.93c.09-1.3-.16-2.6-.73-3.77-.41-.75-1.21-1.21-2.06-1.19-.7.02-1.37.3-1.87.8-.62.58-1.05,1.33-1.25,2.16-.28,1.24-.41,2.5-.37,3.77v11.16h-2.29Z"/><path class="e" d="M236.47,206.2v-20.41h2v2.9c.97-2.25,2.37-3.37,4.2-3.37.78,0,1.54.23,2.19.66.66.43,1.18,1.04,1.5,1.75.36.81.59,1.67.7,2.55.1,1.12.14,2.24.12,3.37v12.55h-2.18v-12.42c.03-1.06-.05-2.12-.26-3.16-.14-.63-.46-1.21-.92-1.67-.42-.41-.98-.63-1.56-.63-1,.02-1.93.55-2.47,1.4-.69.94-1,2.71-1,5.33v11.15h-2.32Z"/><path class="e" d="M249.8,196c0-3.78.67-6.58,2-8.4.92-1.4,2.48-2.25,4.15-2.27,1.88.03,3.59,1.09,4.46,2.76,1.28,2.33,1.88,4.97,1.73,7.62.07,2.09-.19,4.19-.77,6.2-.41,1.35-1.18,2.56-2.22,3.51-.87.79-2.01,1.24-3.19,1.25-1.88-.02-3.61-1.08-4.48-2.75-1.14-1.83-1.71-4.47-1.71-7.92h.03ZM252.1,196c-.12,2.02.26,4.04,1.11,5.87.46,1.13,1.56,1.87,2.78,1.87s2.32-.74,2.78-1.87c.85-1.88,1.23-3.94,1.1-6,.12-1.98-.26-3.95-1.11-5.74-.46-1.12-1.56-1.86-2.77-1.86s-2.31.74-2.77,1.86c-.85,1.83-1.23,3.85-1.11,5.87h0Z"/><polygon class="e" points="264.75 206.2 264.75 178.03 266.99 178.03 266.99 206.2 264.75 206.2 264.75 206.2"/><path class="e" d="M269.62,196c0-3.78.67-6.58,2-8.4.92-1.4,2.48-2.25,4.15-2.27,1.88.03,3.59,1.1,4.45,2.76,1.28,2.33,1.87,4.97,1.73,7.62.07,2.09-.18,4.19-.76,6.2-.41,1.35-1.18,2.56-2.23,3.51-.87.79-2.01,1.24-3.19,1.25-1.88-.02-3.61-1.08-4.48-2.75-1.14-1.83-1.71-4.47-1.71-7.92h.04ZM271.92,196c-.12,2.02.26,4.04,1.11,5.87.46,1.13,1.56,1.87,2.78,1.87s2.32-.74,2.78-1.87c.86-1.88,1.24-3.94,1.11-6,.12-1.98-.26-3.95-1.11-5.74-.46-1.12-1.56-1.86-2.77-1.86s-2.31.74-2.78,1.86c-.85,1.83-1.23,3.85-1.11,5.86h-.01Z"/><path class="e" d="M284.21,207.89l2.18.5c.02.82.28,1.61.76,2.27.57.66,1.41,1.03,2.28,1,.91.05,1.79-.32,2.4-1,.63-.76,1.03-1.68,1.17-2.66.15-1.48.2-2.96.16-4.44-.97,1.78-2.19,2.67-3.66,2.67-1.81,0-3.22-1-4.22-3-1.05-2.28-1.56-4.77-1.49-7.28-.02-1.82.21-3.63.68-5.39.34-1.42,1.03-2.73,2-3.82.78-.86,1.89-1.34,3.05-1.34,1.55,0,2.84.98,3.86,2.93v-2.46h2.07v17.64c.09,2.27-.12,4.55-.63,6.76-.35,1.22-1.05,2.31-2,3.14-.94.78-2.13,1.19-3.35,1.15-1.45.05-2.86-.56-3.82-1.65-1.07-1.41-1.58-3.18-1.41-4.95l-.03-.07h0ZM286.06,195.63c-.14,2.01.2,4.02,1,5.86.39,1.1,1.43,1.83,2.59,1.83s2.2-.74,2.59-1.83c.8-1.81,1.14-3.79,1-5.76.12-1.94-.25-3.88-1.07-5.65-.44-1.07-1.45-1.81-2.6-1.9-1.13.09-2.12.82-2.54,1.88-.78,1.74-1.13,3.65-1,5.56h.04Z"/><path class="e" d="M298.79,182v-4h2.21v4h-2.21ZM298.79,206.19v-20.4h2.21v20.41h-2.21Z"/><path class="e" d="M313.48,199.63l2.31.44c-.22,1.77-.91,3.45-2,4.87-.93,1.12-2.32,1.76-3.78,1.73-1.92,0-3.69-1.06-4.59-2.76-1.13-1.83-1.7-4.41-1.7-7.73s.57-6.11,1.71-8c.84-1.7,2.56-2.81,4.46-2.85,1.85.06,3.51,1.13,4.33,2.79,1.12,1.86,1.68,4.47,1.68,7.84v.92h-9.9c-.03,1.79.39,3.57,1.23,5.15.52,1.06,1.58,1.74,2.76,1.79.82,0,1.59-.37,2.1-1,.71-.94,1.18-2.03,1.38-3.19h0ZM306.13,194.03h7.38c0-1.33-.29-2.65-.84-3.86-.45-1.15-1.54-1.93-2.77-2-1.08.03-2.07.64-2.59,1.59-.76,1.29-1.16,2.76-1.16,4.26h-.02Z"/><path class="e" d="M327.27,206.2v-3c-1.03,2.31-2.43,3.46-4.2,3.46-.78,0-1.54-.24-2.18-.69-.65-.43-1.17-1.03-1.5-1.74-.36-.81-.59-1.68-.69-2.56-.11-1.07-.16-2.15-.14-3.23v-12.65h2.24v11.32c-.03,1.22.02,2.44.13,3.65.09.78.4,1.52.9,2.14.42.5,1.04.78,1.69.77.71-.01,1.38-.3,1.89-.79.62-.58,1.06-1.34,1.25-2.17.29-1.31.41-2.66.37-4v-10.92h2.24v20.41h-2Z"/><path class="e" d="M332.77,206.2v-20.41h2v2.9c.97-2.25,2.37-3.37,4.2-3.37.78,0,1.55.22,2.2.66.66.43,1.18,1.04,1.5,1.75.36.81.6,1.67.7,2.55.1,1.12.14,2.24.12,3.37v12.55h-2.24v-12.42c.03-1.06-.06-2.12-.26-3.16-.14-.64-.46-1.22-.93-1.67-.42-.41-.98-.64-1.56-.63-1.01.02-1.93.55-2.47,1.4-.69.94-1,2.71-1,5.33v11.15h-2.26Z"/><path class="e" d="M351.82,203.1l.32,3.06c-.54.19-1.11.29-1.69.31-.68.04-1.36-.17-1.89-.6-.46-.42-.79-.97-.94-1.57-.24-1.35-.34-2.71-.28-4.08v-11.74h-1.64v-2.69h1.64v-5.06l2.23-2.07v7.13h2.25v2.69h-2.25v11.93c-.02.64.02,1.27.12,1.9.07.26.2.49.39.68.21.18.48.27.76.25.34,0,.67-.06,1-.14h-.02Z"/><path class="e" d="M363.06,199.63l2.31.44c-.22,1.77-.91,3.45-2,4.87-.93,1.12-2.32,1.76-3.78,1.73-1.93,0-3.7-1.06-4.6-2.76-1.13-1.83-1.7-4.41-1.7-7.73s.57-6.11,1.71-8c.84-1.7,2.56-2.81,4.46-2.85,1.85.06,3.52,1.13,4.33,2.79,1.12,1.86,1.68,4.47,1.68,7.84v.92h-9.85c-.03,1.79.39,3.57,1.23,5.15.52,1.06,1.58,1.74,2.76,1.79.82,0,1.59-.37,2.1-1,.71-.94,1.18-2.03,1.38-3.19h-.03ZM355.71,194.03h7.38c0-1.33-.3-2.65-.85-3.86-.45-1.15-1.54-1.93-2.77-2-1.09.03-2.08.64-2.6,1.59-.76,1.29-1.16,2.76-1.16,4.26h0Z"/><path class="e" d="M368.16,206.2v-20.41h2v3.09c.3-1.04.79-2.02,1.44-2.88.36-.42.88-.68,1.44-.7.88.06,1.71.46,2.3,1.11l-.77,3.22c-.43-.46-1.02-.73-1.64-.76-.52.01-1.01.27-1.32.68-.43.55-.72,1.2-.83,1.89-.26,1.32-.38,2.66-.37,4v10.76h-2.25Z"/><path class="e" d="M375.77,200.11l2.21-.54c.03,1.13.38,2.22,1,3.16.57.73,1.46,1.14,2.38,1.1.88.06,1.73-.32,2.29-1,.5-.65.76-1.46.75-2.28.04-.68-.2-1.35-.66-1.85-.69-.52-1.47-.91-2.29-1.17-1.2-.42-2.34-.98-3.41-1.67-.65-.5-1.15-1.17-1.44-1.94-.33-.87-.5-1.8-.49-2.73,0-.86.13-1.72.41-2.53.23-.71.61-1.37,1.1-1.94.4-.43.88-.77,1.42-1,.61-.28,1.27-.42,1.94-.41.96-.02,1.9.23,2.73.7.76.43,1.37,1.08,1.74,1.87.43,1,.69,2.07.77,3.16l-2.19.46c-.04-.89-.35-1.74-.87-2.46-.49-.59-1.23-.92-2-.88-.81-.08-1.62.21-2.2.79-.44.51-.67,1.17-.66,1.84,0,.42.09.84.28,1.21.2.38.49.7.86.92.22.13.88.42,2,.88,1.15.44,2.26.98,3.31,1.61.66.45,1.17,1.08,1.48,1.82.39.95.58,1.97.54,3,0,1.12-.21,2.23-.65,3.26-.39.95-1.04,1.77-1.89,2.36-.82.56-1.8.85-2.79.83-1.49.1-2.95-.51-3.93-1.65-1.02-1.44-1.62-3.14-1.72-4.9l-.02-.02h0Z"/><path class="e" d="M394.29,203.1l.32,3.06c-.54.19-1.11.29-1.69.31-.68.04-1.36-.17-1.89-.6-.46-.42-.79-.97-.94-1.57-.24-1.35-.34-2.71-.28-4.08v-11.74h-1.64v-2.69h1.64v-5.06l2.23-2.07v7.13h2.25v2.69h-2.29v11.93c-.03.64.01,1.27.11,1.9.07.26.2.49.39.68.21.18.49.27.77.25.34,0,.67-.06,1-.14h.02Z"/><path class="e" d="M405.15,206.2v-3c-1.03,2.31-2.43,3.46-4.2,3.46-.78,0-1.54-.24-2.18-.69-.65-.43-1.17-1.03-1.5-1.74-.36-.81-.59-1.68-.69-2.56-.1-1.07-.15-2.15-.13-3.23v-12.65h2.24v11.32c-.02,1.22.02,2.44.14,3.65.09.78.4,1.53.9,2.14.42.5,1.04.78,1.69.77.71-.01,1.38-.3,1.89-.79.62-.58,1.06-1.34,1.25-2.17.29-1.31.41-2.66.37-4v-10.92h2.24v20.41h-2.02ZM398.31,181.79v-3.94h2.34v3.94h-2.34ZM402.95,181.79v-3.94h2.34v3.94h-2.34Z"/><path class="e" d="M415.54,203.1l.32,3.06c-.54.19-1.11.29-1.69.31-.68.04-1.36-.17-1.89-.6-.46-.42-.79-.97-.94-1.57-.24-1.35-.34-2.71-.28-4.08v-11.74h-1.64v-2.69h1.64v-5.06l2.23-2.07v7.13h2.25v2.69h-2.25v11.93c-.03.64.01,1.27.11,1.9.07.26.2.49.39.68.21.18.48.27.76.25.34,0,.67-.06,1-.14h-.01Z"/><path class="e" d="M416.55,206.2v-2.81l8.45-14.91c-1,.08-1.8.11-2.53.11h-5.39v-2.8h10.8v2.28l-7.15,13-1.38,2.36c.94-.11,1.88-.16,2.82-.17h6.11v3l-11.73-.06h0Z"/><path class="e" d="M439.13,206.2v-3c-1.03,2.31-2.43,3.46-4.2,3.46-.78,0-1.54-.24-2.18-.69-.65-.43-1.17-1.03-1.5-1.74-.36-.81-.59-1.68-.69-2.56-.1-1.07-.15-2.15-.13-3.23v-12.65h2.24v11.32c-.02,1.22.02,2.44.14,3.65.09.78.4,1.52.9,2.14.42.5,1.04.78,1.69.77.71-.01,1.38-.3,1.89-.79.62-.58,1.06-1.34,1.25-2.17.29-1.31.41-2.66.37-4v-10.92h2.24v20.41h-2.02Z"/><path class="e" d="M444.64,206.2v-20.41h2v2.9c.97-2.25,2.37-3.37,4.2-3.37.78,0,1.55.22,2.2.66.66.43,1.18,1.04,1.5,1.75.36.81.6,1.67.7,2.55.1,1.12.14,2.24.12,3.37v12.55h-2.24v-12.42c.03-1.06-.06-2.12-.26-3.16-.14-.64-.46-1.22-.93-1.67-.42-.41-.98-.64-1.56-.63-1.01.02-1.93.55-2.47,1.4-.69.94-1,2.71-1,5.33v11.15h-2.26Z"/><path class="e" d="M458.4,207.89l2.18.5c.02.82.28,1.61.76,2.27.57.66,1.41,1.03,2.28,1,.91.05,1.79-.32,2.4-1,.62-.78,1.01-1.71,1.14-2.69.15-1.48.21-2.96.16-4.44-.97,1.78-2.19,2.67-3.65,2.67-1.82,0-3.23-1-4.22-3-1.05-2.28-1.56-4.77-1.49-7.28-.02-1.82.21-3.63.68-5.39.34-1.42,1.03-2.73,2-3.82.78-.86,1.89-1.34,3.05-1.34,1.56,0,2.85.98,3.86,2.93v-2.46h2.07v17.64c.09,2.27-.12,4.55-.63,6.76-.35,1.22-1.05,2.31-2,3.14-.94.78-2.13,1.19-3.35,1.15-1.46.05-2.86-.55-3.82-1.65-1.07-1.41-1.58-3.18-1.41-4.95v-.04h-.01ZM460.25,195.63c-.14,2.01.2,4.02,1,5.86.39,1.1,1.43,1.83,2.59,1.83s2.2-.74,2.58-1.83c.8-1.81,1.14-3.79,1-5.76.12-1.94-.25-3.88-1.07-5.65-.44-1.07-1.44-1.8-2.59-1.9-1.13.09-2.12.82-2.54,1.88-.78,1.74-1.13,3.65-1,5.56h.03Z"/></g></svg>