<?xml version="1.0" encoding="utf-8"?>
<!-- Generator: Adobe Illustrator 28.2.0, SVG Export Plug-In . SVG Version: 6.00 Build 0)  -->
<svg version="1.1" id="b" xmlns="http://www.w3.org/2000/svg" xmlns:xlink="http://www.w3.org/1999/xlink" x="0px" y="0px"
	 viewBox="0 0 141.7 18.9" style="enable-background:new 0 0 141.7 18.9;" xml:space="preserve">
<style type="text/css">
	.st0{fill:#005940;}
</style>
<g id="c">
	<path class="st0" d="M8.8,7c0,2.1-0.7,3.1-2.7,3.1H4.8V3.3h1.3c2,0,2.8,1.1,2.8,3.1L8.8,7L8.8,7L8.8,7z M13.7,6.9V6.3
		c0-4.7-4-5.7-8.2-5.7S0.1,0.7,0.1,0.7L0,0.9V18l0.1,0.1h4.6L4.8,18v-5.4h1.5C11.4,12.6,13.8,10.5,13.7,6.9L13.7,6.9L13.7,6.9z
		 M24.3,7.1c0,2.1-0.8,3-2.8,3h-1.3V3.3h1.3c2,0,2.8,1.1,2.8,3.1V7.1L24.3,7.1z M24.7,18.1h4.8V18l-2.8-5.2c-0.4-0.6-0.7-1.1-1-1.4
		c2.4-0.9,3.3-2.9,3.3-4.8V6.1c0-4.7-4.1-5.6-8.3-5.6c-3.8,0-5.2,0.1-5.2,0.1l-0.1,0.1V18l0.1,0.1h4.6l0.1-0.1v-5.3h1.3
		c0.3,0,0.5,0.2,0.8,0.6L24.7,18.1L24.7,18.1L24.7,18.1z M43.5,9.6c0,4.2-1.3,6.2-3.9,6.2s-3.9-2.1-3.9-6.2V9.2
		c0-4.1,1.3-6.2,3.9-6.2s3.9,2.2,3.9,6.2V9.6L43.5,9.6z M48.5,9.2c0-5.8-3.6-9.2-9-9.2s-9,3.5-9,9.2v0.4c0,5.8,3.6,9.2,9,9.2
		s9-3.5,9-9.2V9.2L48.5,9.2z M59,18.1l5.5-17.2l-0.1-0.2h-3.8l-3.2,10.9c-0.2,0.6-0.3,1.1-0.4,1.5H57L53.4,0.7h-4.9l-0.1,0.1
		l5.5,17.3L59,18.1L59,18.1z M70.6,18.1l0.2-0.2V0.9l-0.1-0.1h-4.4l-0.1,0.1V18l0.2,0.2H70.6L70.6,18.1z M87.8,18.1V0.9l-0.1-0.1
		h-3.4l-0.1,0.1v9.3h-0.1C84.1,10,84,9.9,83.7,9.5l-6.8-7.9C76.4,1,76.1,0.7,75,0.7h-1.2l-0.1,0.1V18l0.1,0.1h3.4l0.1-0.1V8.7h0.1
		C77.6,9,77.7,9.1,78,9.5l7,8c0.6,0.6,0.7,0.7,1.1,0.7C86,18.1,87.8,18.1,87.8,18.1z M102.7,18.1l0.2-0.2v-2.9l-0.2-0.2h-7.1v-0.1
		c0.2-0.1,0.4-0.5,0.5-0.7l6.4-11.5c0.2-0.4,0.3-0.7,0.3-1.2V0.8l-0.1-0.1H90l-0.1,0.1v3L90,4h6.8V4c-0.2,0.2-0.3,0.4-0.5,0.8
		l-6.1,11.3c-0.3,0.5-0.4,0.7-0.4,1.3V18l0.2,0.2L102.7,18.1L102.7,18.1z M109.4,18.1l0.2-0.2V0.9l-0.1-0.1H105l-0.1,0.1V18l0.2,0.2
		H109.4L109.4,18.1z M121.3,12.7h-4.7l2.1-6.8c0.1-0.2,0.1-0.4,0.2-0.7h0.1L121.3,12.7L121.3,12.7L121.3,12.7z M127.9,18.1L128,18
		l-6-17.2l-0.1-0.1H117l-0.1,0.1L111.3,18l0.1,0.1h3.5l0.7-2.3h6.7l0.7,2.3L127.9,18.1L127.9,18.1z M141.7,18v-3l-0.1-0.1h-7.2V0.9
		l-0.1-0.1h-4.6l-0.1,0.1V18l0.1,0.1h11.9L141.7,18L141.7,18L141.7,18z"/>
</g>
</svg>
