<?xml version="1.0" encoding="UTF-8"?>
<svg width="202px" height="40px" viewBox="0 0 202 40" version="1.1" xmlns="http://www.w3.org/2000/svg" xmlns:xlink="http://www.w3.org/1999/xlink">
    <title>sca_logo</title>
    <defs>
        <polygon id="path-1" points="0.0376603189 0.061218638 15.9405018 0.061218638 15.9405018 14.7290915 0.0376603189 14.7290915"></polygon>
    </defs>
    <g id="LAYOUT-Desktop" stroke="none" stroke-width="1" fill="none" fill-rule="evenodd">
        <g id="Home-Sofia" transform="translate(-25.000000, -16.000000)">
            <g id="sca_logo" transform="translate(25.000000, 16.000000)">
                <g id="S">
                    <path d="M22.303871,23.4359283 C21.0298925,22.3641004 18.4068817,23.3334194 16.849319,22.0284014 C15.2918996,20.7233118 15.8031541,17.9670394 14.5292473,16.8952115 C13.738638,16.2301219 12.4285305,16.3508387 11.1760573,16.2264659 C10.4101075,16.1504086 9.66566308,15.9828817 9.07469534,15.4876846 C7.5172043,14.1826667 8.02853047,11.4263226 6.75455197,10.3545663 C5.03698925,8.90954839 2.47333333,9.13055197 1.0283871,10.8481147 C-0.41655914,12.5656057 -0.195483871,15.1293333 1.52200717,16.5742796 C2.79598566,17.6460358 5.41899642,16.6766452 6.97648746,17.9817348 C8.53405018,19.2868244 8.02258065,22.0430968 9.29670251,23.1149247 C9.77541219,23.5176487 10.4445161,23.632129 11.1760573,23.6874695 C12.3913978,23.7793692 13.778853,23.7076846 14.7511828,24.5223799 C16.3086738,25.8274695 15.797276,28.5838136 17.0713262,29.6556416 C18.7888889,31.1005878 21.3525448,30.8795842 22.797491,29.1620215 C24.2423656,27.4445305 24.0214337,24.8808029 22.303871,23.4359283" id="Fill-1" fill="#000000"></path>
                    <g id="Group-5" transform="translate(7.885305, 0.010466)">
                        <mask id="mask-2" fill="white">
                            <use xlink:href="#path-1"></use>
                        </mask>
                        <g id="Clip-4"></g>
                        <path d="M1.48551971,7.23420072 C1.9478853,7.62323297 2.58831541,7.74301792 3.29075269,7.80050896 C4.52351254,7.90165591 5.94781362,7.81032975 6.94,8.6417276 C8.49749104,9.94674552 7.98616487,12.7030896 9.26014337,13.7748459 C10.9777061,15.2197921 13.541362,14.9987885 14.9863082,13.2812975 C16.4312545,11.5637348 16.2102509,9.00007885 14.4926882,7.5552043 C13.2187097,6.48330466 10.5956989,7.45276703 9.03820789,6.14767742 C7.48064516,4.84258781 7.9921147,2.08631541 6.71799283,1.01441577 C5.73075269,0.183806452 4.46401434,-0.0951182796 3.29075269,0.143017921 C2.42293907,0.319218638 1.60623656,0.777856631 0.991899642,1.50803584 C-0.453046595,3.22559857 -0.232043011,5.78932616 1.48551971,7.23420072" id="Fill-3" fill="#131413" mask="url(#mask-2)"></path>
                    </g>
                    <path d="M14.4550394,32.7654982 C13.6799857,32.1134552 12.4058638,32.2164659 11.176043,32.1036344 C10.3841434,32.0310179 9.61059498,31.8691541 9.00048746,31.3579713 C7.44299642,30.0529534 7.95439427,27.2966093 6.68034409,26.224853 C4.96285305,24.7799068 2.39912545,25.0009104 0.954250896,26.7184731 C-0.490695341,28.4359642 -0.269691756,30.9996201 1.44779928,32.4444946 C2.72184946,33.5163943 5.34478853,32.5470036 6.90235125,33.8520215 C8.45984229,35.1571111 7.94844444,37.9133835 9.22249462,38.9852832 C9.80242294,39.4730968 10.4788387,39.7703011 11.176043,39.884853 C12.5437849,40.1095842 13.9915269,39.6292975 14.9486595,38.4916631 C16.3935341,36.7741004 16.1725305,34.2104444 14.4550394,32.7654982" id="Fill-6" fill="#000000"></path>
                </g>
                <path d="M41.088,17.168 C42.852,17.168 44.644,16.244 44.644,14.172 C44.644,12.422 43.244,11.722 41.872,11.302 L40.864,10.98 C39.968,10.728 39.912,10.294 39.912,10.098 C39.912,9.566 40.36,9.104 41.046,9.104 C41.802,9.104 42.152,9.594 42.152,10.168 L44.35,10.168 C44.35,8.292 42.936,7.186 41.088,7.186 C39.17,7.186 37.686,8.404 37.686,10.14 C37.686,11.05 38.092,12.352 40.22,12.926 L41.368,13.276 C42.222,13.556 42.432,13.906 42.432,14.284 C42.432,14.914 41.886,15.278 41.172,15.278 C40.416,15.278 39.8,14.802 39.8,14.186 L37.602,14.186 C37.602,15.964 39.03,17.168 41.088,17.168 Z M51.792,17.168 C54.508,17.168 56.706,14.9 56.706,12.17 C56.706,9.44 54.508,7.186 51.792,7.186 C49.034,7.186 46.864,9.44 46.864,12.17 C46.864,14.9 49.034,17.168 51.792,17.168 Z M51.778,15.096 C50.154,15.096 49.076,13.78 49.076,12.17 C49.076,10.56 50.154,9.258 51.778,9.258 C53.388,9.258 54.494,10.56 54.494,12.17 C54.494,13.78 53.388,15.096 51.778,15.096 Z M61.656,17 L61.656,13.206 L64.75,13.206 L64.75,11.302 L61.656,11.302 L61.656,9.272 L65.562,9.272 L65.562,7.354 L59.458,7.354 L59.458,17 L61.656,17 Z M72.164,17 L72.164,9.272 L74.712,9.272 L74.712,7.354 L67.418,7.354 L67.418,9.272 L69.966,9.272 L69.966,17 L72.164,17 Z M81.16,17 L82.406,12.1 L83.694,17 L85.402,17 L88.678,7.354 L86.284,7.354 L84.506,13.15 L83.33,8.726 L81.524,8.726 L80.334,13.122 L78.556,7.354 L76.19,7.354 L79.438,17 L81.16,17 Z M91.542,17 L92.256,14.76 L95.644,14.76 L96.372,17 L98.71,17 L95.154,7.354 L92.76,7.354 L89.19,17 L91.542,17 Z M95.028,12.856 L92.858,12.856 L93.936,9.454 L95.028,12.856 Z M102.988,17 L102.988,13.612 L103.436,13.612 L105.648,17 L108.21,17 L105.732,13.486 C106.978,13.206 107.986,11.904 107.986,10.546 C107.986,8.95 106.978,7.354 104.738,7.354 L100.79,7.354 L100.79,17 L102.988,17 Z M104.388,11.876 L102.988,11.876 L102.988,9.272 L104.444,9.272 C105.34,9.272 105.774,9.958 105.774,10.602 C105.774,11.246 105.354,11.876 104.388,11.876 Z M117.192,17 L117.192,15.082 L113.076,15.082 L113.076,13.234 L116.576,13.234 L116.576,11.26 L113.076,11.26 L113.076,9.272 L117.066,9.272 L117.066,7.354 L110.878,7.354 L110.878,17 L117.192,17 Z M128.786,17.168 C130.48,17.168 131.964,16.314 132.846,15.026 L131.138,13.836 C130.634,14.62 129.892,15.096 128.87,15.096 C127.218,15.096 126.098,13.752 126.098,12.156 C126.098,10.56 127.26,9.258 128.884,9.258 C129.892,9.258 130.634,9.734 131.138,10.518 L132.846,9.328 C131.964,8.04 130.48,7.186 128.786,7.186 C126.07,7.186 123.886,9.44 123.886,12.156 C123.886,14.9 126.07,17.168 128.786,17.168 Z M137.572,17 L137.572,13.612 L138.02,13.612 L140.232,17 L142.794,17 L140.316,13.486 C141.562,13.206 142.57,11.904 142.57,10.546 C142.57,8.95 141.562,7.354 139.322,7.354 L135.374,7.354 L135.374,17 L137.572,17 Z M138.972,11.876 L137.572,11.876 L137.572,9.272 L139.028,9.272 C139.924,9.272 140.358,9.958 140.358,10.602 C140.358,11.246 139.938,11.876 138.972,11.876 Z M151.776,17 L151.776,15.082 L147.66,15.082 L147.66,13.234 L151.16,13.234 L151.16,11.26 L147.66,11.26 L147.66,9.272 L151.65,9.272 L151.65,7.354 L145.462,7.354 L145.462,17 L151.776,17 Z M155.802,17 L156.516,14.76 L159.904,14.76 L160.632,17 L162.97,17 L159.414,7.354 L157.02,7.354 L153.45,17 L155.802,17 Z M159.288,12.856 L157.118,12.856 L158.196,9.454 L159.288,12.856 Z M168.186,17 L168.186,9.272 L170.734,9.272 L170.734,7.354 L163.44,7.354 L163.44,9.272 L165.988,9.272 L165.988,17 L168.186,17 Z M177.266,17.168 C179.982,17.168 182.18,14.9 182.18,12.17 C182.18,9.44 179.982,7.186 177.266,7.186 C174.508,7.186 172.338,9.44 172.338,12.17 C172.338,14.9 174.508,17.168 177.266,17.168 Z M177.252,15.096 C175.628,15.096 174.55,13.78 174.55,12.17 C174.55,10.56 175.628,9.258 177.252,9.258 C178.862,9.258 179.968,10.56 179.968,12.17 C179.968,13.78 178.862,15.096 177.252,15.096 Z M187.13,17 L187.13,13.612 L187.578,13.612 L189.79,17 L192.352,17 L189.874,13.486 C191.12,13.206 192.128,11.904 192.128,10.546 C192.128,8.95 191.12,7.354 188.88,7.354 L184.932,7.354 L184.932,17 L187.13,17 Z M188.53,11.876 L187.13,11.876 L187.13,9.272 L188.586,9.272 C189.482,9.272 189.916,9.958 189.916,10.602 C189.916,11.246 189.496,11.876 188.53,11.876 Z M198.002,17.168 C199.766,17.168 201.558,16.244 201.558,14.172 C201.558,12.422 200.158,11.722 198.786,11.302 L197.778,10.98 C196.882,10.728 196.826,10.294 196.826,10.098 C196.826,9.566 197.274,9.104 197.96,9.104 C198.716,9.104 199.066,9.594 199.066,10.168 L201.264,10.168 C201.264,8.292 199.85,7.186 198.002,7.186 C196.084,7.186 194.6,8.404 194.6,10.14 C194.6,11.05 195.006,12.352 197.134,12.926 L198.282,13.276 C199.136,13.556 199.346,13.906 199.346,14.284 C199.346,14.914 198.8,15.278 198.086,15.278 C197.33,15.278 196.714,14.802 196.714,14.186 L194.516,14.186 C194.516,15.964 195.944,17.168 198.002,17.168 Z M39.24,34 L39.954,31.76 L43.342,31.76 L44.07,34 L46.408,34 L42.852,24.354 L40.458,24.354 L36.888,34 L39.24,34 Z M42.726,29.856 L40.556,29.856 L41.634,26.454 L42.726,29.856 Z M52.646,34.168 C54.34,34.168 55.824,33.314 56.706,32.026 L54.998,30.836 C54.494,31.62 53.752,32.096 52.73,32.096 C51.078,32.096 49.958,30.752 49.958,29.156 C49.958,27.56 51.12,26.258 52.744,26.258 C53.752,26.258 54.494,26.734 54.998,27.518 L56.706,26.328 C55.824,25.04 54.34,24.186 52.646,24.186 C49.93,24.186 47.746,26.44 47.746,29.156 C47.746,31.9 49.93,34.168 52.646,34.168 Z M60.368,34 L61.082,31.76 L64.47,31.76 L65.198,34 L67.536,34 L63.98,24.354 L61.586,24.354 L58.016,34 L60.368,34 Z M63.854,29.856 L61.684,29.856 L62.762,26.454 L63.854,29.856 Z M73.424,34 C76.21,34 77.82,31.928 77.82,29.198 C77.82,26.454 76.21,24.354 73.424,24.354 L69.616,24.354 L69.616,34 L73.424,34 Z M73.424,32.082 L71.814,32.082 L71.814,26.272 L73.424,26.272 C74.866,26.272 75.608,27.686 75.608,29.198 C75.608,30.696 74.866,32.082 73.424,32.082 Z M86.928,34 L86.928,32.082 L82.812,32.082 L82.812,30.234 L86.312,30.234 L86.312,28.26 L82.812,28.26 L82.812,26.272 L86.802,26.272 L86.802,24.354 L80.614,24.354 L80.614,34 L86.928,34 Z M91.584,34 L92.228,28.526 L94.328,32.894 L96.008,32.894 L98.108,28.512 L98.738,34 L100.992,34 L99.816,24.354 L97.94,24.354 L95.168,30.388 L92.354,24.354 L90.52,24.354 L89.33,34 L91.584,34 Z M108.238,34 L108.238,29.688 L112.004,24.354 L109.386,24.354 L107.118,27.91 L104.892,24.354 L102.274,24.354 L106.026,29.646 L106.026,34 L108.238,34 Z" id="SOFTWARECREATORSACADEMY" fill="#000000" fill-rule="nonzero"></path>
            </g>
        </g>
    </g>
</svg>