<?xml version="1.0" encoding="utf-8"?>
<!-- Generator: Adobe Illustrator 25.2.1, SVG Export Plug-In . SVG Version: 6.00 Build 0)  -->
<svg version="1.1" id="Ebene_1" xmlns="http://www.w3.org/2000/svg" xmlns:xlink="http://www.w3.org/1999/xlink" x="0px" y="0px"
	 viewBox="0 0 197.3 40.2" style="enable-background:new 0 0 197.3 40.2;" xml:space="preserve">
<style type="text/css">
	.st0{fill-rule:evenodd;clip-rule:evenodd;}
	.st1{filter:url(#Adobe_OpacityMaskFilter);}
	.st2{fill-rule:evenodd;clip-rule:evenodd;fill:#FFFFFF;}
	.st3{mask:url(#mask-2_1_);fill-rule:evenodd;clip-rule:evenodd;fill:#131413;}
</style>
<g id="Symbols">
	<g id="Group-4">
		<path id="SOCREATORY" d="M42.8,28.6c2.9,0,5.9-1.5,5.9-5c0-2.9-2.3-4.1-4.6-4.8l-1.7-0.5c-1.5-0.4-1.6-1.1-1.6-1.5
			c0-0.9,0.7-1.7,1.9-1.7c1.3,0,1.8,0.8,1.8,1.8h3.7c0-3.1-2.4-5-5.4-5c-3.2,0-5.7,2-5.7,4.9c0,1.5,0.7,3.7,4.2,4.6l1.9,0.6
			c1.4,0.5,1.8,1.1,1.8,1.7c0,1.1-0.9,1.7-2.1,1.7c-1.3,0-2.3-0.8-2.3-1.8H37C37,26.5,39.4,28.6,42.8,28.6z M59.8,28.6
			c4.5,0,8.2-3.8,8.2-8.3s-3.7-8.3-8.2-8.3c-4.6,0-8.2,3.8-8.2,8.3S55.2,28.6,59.8,28.6z M59.8,25.1c-2.7,0-4.5-2.2-4.5-4.9
			s1.8-4.9,4.5-4.9c2.7,0,4.5,2.2,4.5,4.9S62.5,25.1,59.8,25.1z M79,28.6c2.8,0,5.3-1.4,6.8-3.6L83,23c-0.8,1.3-2.1,2.1-3.8,2.1
			c-2.8,0-4.6-2.2-4.6-4.9s1.9-4.8,4.6-4.8c1.7,0,2.9,0.8,3.8,2.1l2.8-2c-1.5-2.1-3.9-3.6-6.8-3.6c-4.5,0-8.2,3.8-8.2,8.3
			C70.9,24.8,74.5,28.6,79,28.6z M92.9,28.3v-5.7h0.7l3.7,5.7h4.3l-4.1-5.9c2.1-0.5,3.8-2.6,3.8-4.9c0-2.7-1.7-5.3-5.4-5.3h-6.6
			v16.1H92.9z M95.2,19.7h-2.3v-4.3h2.4c1.5,0,2.2,1.1,2.2,2.2C97.5,18.7,96.8,19.7,95.2,19.7z M115.7,28.3v-3.2h-6.9V22h5.8v-3.3
			h-5.8v-3.3h6.7v-3.2h-10.3v16.1H115.7z M121.6,28.3l1.2-3.7h5.7l1.2,3.7h3.9l-5.9-16.1h-4l-6,16.1H121.6z M127.4,21.4h-3.6
			l1.8-5.7L127.4,21.4z M141.4,28.3V15.4h4.3v-3.2h-12.2v3.2h4.3v12.9H141.4z M155.8,28.6c4.5,0,8.2-3.8,8.2-8.3s-3.7-8.3-8.2-8.3
			c-4.6,0-8.2,3.8-8.2,8.3S151.1,28.6,155.8,28.6z M155.7,25.1c-2.7,0-4.5-2.2-4.5-4.9s1.8-4.9,4.5-4.9c2.7,0,4.5,2.2,4.5,4.9
			S158.4,25.1,155.7,25.1z M171.4,28.3v-5.7h0.7l3.7,5.7h4.3l-4.1-5.9c2.1-0.5,3.8-2.6,3.8-4.9c0-2.7-1.7-5.3-5.4-5.3h-6.6v16.1
			H171.4z M173.7,19.7h-2.3v-4.3h2.4c1.5,0,2.2,1.1,2.2,2.2C176,18.7,175.3,19.7,173.7,19.7z M191,28.3v-7.2l6.3-8.9h-4.4l-3.8,5.9
			l-3.7-5.9H181l6.3,8.8v7.3H191z"/>
		<g id="S-Copy-14">
			<path id="Fill-1" class="st0" d="M22.4,23.6c-1.3-1.1-3.9-0.1-5.5-1.4c-1.6-1.3-1.1-4.1-2.3-5.2c-0.8-0.7-2.1-0.5-3.4-0.7
				c-0.8-0.1-1.5-0.2-2.1-0.7c-1.6-1.3-1.1-4.1-2.3-5.2C5.1,9,2.5,9.2,1,10.9c-1.5,1.7-1.2,4.3,0.5,5.8c1.3,1.1,3.9,0.1,5.5,1.4
				c1.6,1.3,1.1,4.1,2.3,5.2c0.5,0.4,1.2,0.5,1.9,0.6c1.2,0.1,2.6,0,3.6,0.8c1.6,1.3,1.1,4.1,2.3,5.2c1.7,1.5,4.3,1.2,5.8-0.5
				C24.4,27.6,24.2,25,22.4,23.6"/>
			<g id="Group-5" transform="translate(7.928160, 0.010523)">
				<g id="Clip-4">
				</g>
				<defs>
					<filter id="Adobe_OpacityMaskFilter" filterUnits="userSpaceOnUse" x="0" y="0.1" width="16" height="14.7">
						<feColorMatrix  type="matrix" values="1 0 0 0 0  0 1 0 0 0  0 0 1 0 0  0 0 0 1 0"/>
					</filter>
				</defs>
				<mask maskUnits="userSpaceOnUse" x="0" y="0.1" width="16" height="14.7" id="mask-2_1_">
					<g class="st1">
						<polygon id="path-1_1_" class="st2" points="0,0.1 16,0.1 16,14.8 0,14.8 						"/>
					</g>
				</mask>
				<path id="Fill-3" class="st3" d="M1.5,7.3C2,7.7,2.6,7.8,3.3,7.8C4.5,7.9,6,7.9,7,8.7C8.5,10,8,12.8,9.3,13.8
					c1.7,1.5,4.3,1.2,5.8-0.5c1.5-1.7,1.2-4.3-0.5-5.8c-1.3-1.1-3.9-0.1-5.5-1.4C7.5,4.9,8,2.1,6.8,1c-1-0.8-2.3-1.1-3.4-0.9
					C2.4,0.3,1.6,0.8,1,1.5C-0.5,3.2-0.2,5.8,1.5,7.3"/>
			</g>
			<path id="Fill-6" class="st0" d="M14.5,32.9c-0.8-0.7-2.1-0.6-3.3-0.7C10.4,32.2,9.7,32,9,31.5c-1.6-1.3-1.1-4.1-2.3-5.2
				C5,24.9,2.4,25.1,1,26.9c-1.5,1.7-1.2,4.3,0.5,5.8c1.3,1.1,3.9,0.1,5.5,1.4c1.6,1.3,1.1,4.1,2.3,5.2c0.6,0.5,1.3,0.8,2,0.9
				c1.4,0.2,2.8-0.3,3.8-1.4C16.5,37,16.3,34.4,14.5,32.9"/>
		</g>
	</g>
</g>
</svg>
