<?xml version="1.0" encoding="utf-8"?>
<!-- Generator: Adobe Illustrator 27.8.0, SVG Export Plug-In . SVG Version: 6.00 Build 0)  -->
<svg version="1.0" xmlns="http://www.w3.org/2000/svg" xmlns:xlink="http://www.w3.org/1999/xlink" x="0px" y="0px"
	 viewBox="0 0 983 321" enable-background="new 0 0 983 321" xml:space="preserve">
<g id="Layer_2">
</g>
<g id="Layer_1">
	<path fill="#FE7A00" d="M223.8,196.4h-7.2c-4.4,0-4.8-1-4.8-6.9V147h12c1.6,0,2.9-1.3,2.9-2.9v-11.8c0-1.6-1.3-2.9-2.9-2.9h-12
		v-19.5c0-1.5-1.2-2.5-2.6-2.5h-0.4l-17.8,3.1c-1.6,0.3-2.9,1.3-2.9,2.9v15.9h-11.7c-1.6,0-3.1,1.5-3.1,3.1v11.5
		c0,1.6,1.5,2.8,3.1,3.1H188v42.4c0,20.7,8.5,25,24.5,25c4.2,0,7.2-0.4,11.5-1.2c1.8-0.3,2.8-1.5,2.8-2.9v-11.4
		C226.8,197.3,225.7,196.4,223.8,196.4L223.8,196.4z"/>
	<path fill="#FE7A00" d="M275.4,128.8c-0.8-0.5-1.7-0.7-2.7-0.7c-12.8,0-23.6,1.4-32.3,4.3c-3,1-4.5,2.5-4.5,4.6V210
		c0,0.8,0.3,1.5,0.9,2.1c0.6,0.6,1.3,0.9,2.1,0.9h17.7c0.8,0,1.5-0.3,2.1-0.9c0.6-0.6,0.9-1.3,0.9-2.1v-61.2
		c3.1-0.6,7.5-0.9,13.1-0.9c2.6,0,3.9-0.9,3.9-2.8v-14.2C276.6,130,276.2,129.3,275.4,128.8L275.4,128.8z"/>
	<path fill="#FE7A00" d="M330.7,194.1c-3.7,0.6-7.7,0.9-12,0.9c-4.9,0-8.3-1.6-10.2-4.7c-2-3.1-2.9-7.6-2.9-13.3v-11.4
		c0-5.7,1-10,2.9-13.1c2-3.1,5.3-4.6,10.2-4.6s8.9,0.2,12,0.7V194.1z M349.7,131.9c-10.2-2.5-20.5-3.8-31-3.8
		c-11.8,0-20.9,3.3-27.2,9.8c-6.3,6.5-9.5,15.7-9.5,27.6V177c0,11.9,3.2,21.1,9.5,27.6c6.3,6.5,15.4,9.8,27.2,9.8
		c10.5,0,20.8-1.3,31-3.8c1.9-0.4,3.1-0.9,3.7-1.5c0.6-0.6,0.9-1.5,0.9-2.7v-70.1c0-1.2-0.3-2.2-0.9-2.7
		C352.8,132.9,351.6,132.4,349.7,131.9z"/>
	<path fill="#FE7A00" d="M418.8,130.4c-6-1.5-12.5-2.2-19.5-2.2c-10.5,0-18.8,3.2-24.9,9.7c-6.1,6.4-9.2,15.5-9.2,27.3v12.3
		c0,11.7,3.1,20.8,9.2,27.3c6.1,6.4,14.4,9.7,24.9,9.7c7.2,0,13.7-0.7,19.5-2.1c1.2-0.3,2-0.7,2.4-1.1c0.4-0.5,0.6-1.2,0.6-2.3
		v-13.1c0-0.7-0.3-1.3-0.8-1.7c-0.5-0.5-1.2-0.7-2-0.7h-0.3c-6.3,0.7-12.3,1-17.8,1c-8,0-12-5.7-12-17v-12.3c0-11.3,4-16.9,12-16.9
		c5.6,0,11.5,0.3,17.8,1h0.3c0.7,0,1.4-0.2,1.9-0.7c0.6-0.5,0.9-1.1,0.9-1.8v-13c0-1.1-0.2-1.8-0.6-2.3
		C420.8,131,420,130.7,418.8,130.4L418.8,130.4z"/>
	<path fill="#FE7A00" d="M480.2,164h-26.6v-0.6c0-5.2,1.2-9.2,3.6-12.1c2.4-2.8,5.7-4.2,9.8-4.2c4.1,0,7.4,1.4,9.7,4.1
		c2.3,2.8,3.5,6.8,3.5,12.1V164z M487,133.2c-5.5-3.4-12.2-5.1-19.9-5.1c-11.6,0-20.6,3.5-27.1,10.3c-6.5,6.9-9.8,16.3-9.8,28.1
		v10.2c0,5.4,0.7,10.3,2.1,14.7c1.4,4.4,3.3,7.9,5.7,10.7c2.4,2.8,5.1,5.1,8.3,7s6.5,3.2,9.9,4c3.4,0.8,6.9,1.2,10.6,1.2
		c10.7,0,20.7-1.2,30-3.5c1.2-0.3,2.1-0.7,2.5-1.2c0.4-0.5,0.6-1.4,0.6-2.7v-11.1c0-1.5-0.9-2.3-2.8-2.3h-0.4
		c-8.8,0.9-18.1,1.3-28,1.3c-2.8,0-5.2-0.4-7.2-1.3c-2-0.9-3.6-2-4.7-3.6c-1.1-1.5-1.9-3.2-2.4-5c-0.5-1.8-0.8-3.8-0.8-6v-0.3h46.6
		c2,0,3.1-1.2,3.1-3.5v-8.5c0-7.5-1.3-14.1-4-19.8C496.7,141.1,492.6,136.6,487,133.2L487,133.2z"/>
	<path fill="#FE7A00" d="M558.4,196.4h-7.2c-4.4,0-4.8-1-4.8-6.9V147h12c1.6,0,2.9-1.3,2.9-2.9v-11.8c0-1.6-1.3-2.9-2.9-2.9h-12
		v-19.5c0-1.5-1.2-2.5-2.6-2.5h-0.4l-17.8,3.1c-1.6,0.3-2.9,1.3-2.9,2.9v15.9h-11.7c-1.6,0-3.1,1.5-3.1,3.1v11.5
		c0,1.6,1.5,2.8,3.1,3.1h11.7v42.4c0,20.7,8.5,25,24.5,25c4.2,0,7.2-0.4,11.5-1.2c1.8-0.3,2.8-1.5,2.8-2.9v-11.4
		C561.4,197.3,560.3,196.4,558.4,196.4L558.4,196.4z"/>
	<path fill="#FE7A00" d="M610,128.8c-0.8-0.5-1.7-0.7-2.7-0.7c-12.8,0-23.6,1.4-32.3,4.3c-3,1-4.5,2.5-4.5,4.6V210
		c0,0.8,0.3,1.5,0.9,2.1c0.6,0.6,1.3,0.9,2.1,0.9h17.7c0.8,0,1.5-0.3,2.1-0.9c0.6-0.6,0.9-1.3,0.9-2.1v-61.2
		c3.1-0.6,7.5-0.9,13.1-0.9c2.6,0,3.9-0.9,3.9-2.8v-14.2C611.2,130,610.8,129.3,610,128.8L610,128.8z"/>
	<path fill="#FE7A00" d="M666.3,176.4c0,5.9-1.1,10.4-3.3,13.4c-2.2,3-5.4,4.6-9.7,4.6c-4.2,0-7.5-1.5-9.8-4.6
		c-2.2-3-3.4-7.5-3.4-13.4v-10.2c0-5.9,1.1-10.3,3.4-13.3c2.2-3,5.5-4.5,9.8-4.5c8.7,0,13,5.9,13,17.8V176.4z M653.3,128.2
		c-11.7,0-20.7,3.4-27.1,10.2s-9.6,16.1-9.6,27.9v10.2c0,11.8,3.2,21.1,9.6,27.8c6.4,6.8,15.4,10.1,27.1,10.1s20.7-3.4,27-10.1
		c6.3-6.8,9.5-16,9.5-27.8v-10.2c0-11.8-3.2-21.1-9.5-27.9C674.1,131.6,665,128.2,653.3,128.2z"/>
	<path fill="#FE7A00" d="M763.7,135.8c-5.5-5.1-13.5-7.7-24-7.7h-7.4c-10.6,0-18.6,2.6-24,7.7c-5.5,5.1-8.2,12.7-8.2,22.7V210
		c0,0.9,0.3,1.6,0.8,2.2c0.5,0.6,1.2,0.9,2,0.9h17.9c0.8,0,1.5-0.3,2.1-0.9c0.6-0.6,0.9-1.3,0.9-2.1v-51.4c0-3.7,0.6-6.4,1.7-8.2
		s3.5-2.7,6.9-2.7h7.4c3.5,0,5.8,0.9,6.9,2.7c1.1,1.8,1.7,4.6,1.7,8.3V210c0,0.8,0.3,1.5,0.9,2.1c0.6,0.6,1.3,0.9,2.1,0.9h18
		c0.8,0,1.5-0.3,2-0.9c0.5-0.6,0.8-1.3,0.8-2.2v-51.4C771.9,148.5,769.2,140.9,763.7,135.8z"/>
	<path fill="#FE7A00" d="M805.7,129.3h-17.8c-0.8,0-1.5,0.3-2.1,0.9s-0.9,1.3-0.9,2.1v77.9c0,0.8,0.3,1.5,0.9,2.1
		c0.6,0.6,1.3,0.9,2.1,0.9h17.8c0.8,0,1.5-0.3,2.1-0.9c0.6-0.6,0.9-1.3,0.9-2.1v-77.9c0-0.8-0.3-1.5-0.9-2.1
		S806.5,129.3,805.7,129.3z"/>
	<path fill="#FE7A00" d="M806.3,95h-13.2c-4.8,0-8.7,3.9-8.7,8.7v13.2c0,1.6,1.3,2.9,2.9,2.9h13.2c4.8,0,8.7-3.9,8.7-8.7V97.9
		C809.2,96.3,807.9,95,806.3,95z"/>
	<path fill="#FE7A00" d="M855.9,148.2c5.6,0,11.5,0.3,17.8,1h0.3c0.7,0,1.4-0.2,1.9-0.7c0.6-0.5,0.9-1.1,0.9-1.8v-13
		c0-1.1-0.2-1.8-0.6-2.3c-0.4-0.5-1.2-0.8-2.4-1.1c-6-1.5-12.5-2.2-19.5-2.2c-10.5,0-18.8,3.2-24.9,9.7c-6.1,6.4-9.2,15.5-9.2,27.3
		v12.3c0,11.7,3.1,20.8,9.2,27.3c6.1,6.4,14.4,9.7,24.9,9.7c7.2,0,13.7-0.7,19.5-2.1c1.2-0.3,2-0.7,2.4-1.1c0.4-0.5,0.6-1.2,0.6-2.3
		v-13.1c0-0.7-0.3-1.3-0.8-1.7c-0.5-0.5-1.2-0.7-2-0.7h-0.3c-6.3,0.7-12.3,1-17.8,1c-8,0-12-5.7-12-17v-12.3
		C843.9,153.9,847.9,148.2,855.9,148.2L855.9,148.2z"/>
	<path fill="#FE7A00" d="M157.9,166.3h-29.5c-7.9,0-14.4,8.5-14.4,16.4h27.3c1.6,0,2.9,1.3,2.9,2.9v27.5c7.9,0,16.6-6.4,16.6-14.4
		v-29.5C160.8,167.6,159.5,166.3,157.9,166.3z"/>
	<path fill="#FE7A00" d="M128.9,195.1h-13.2c-4.8,0-8.7,3.9-8.7,8.7v13.2c0,1.6,1.3,2.9,2.9,2.9h13.2c4.8,0,8.7-3.9,8.7-8.7v-13.2
		C131.8,196.4,130.5,195.1,128.9,195.1z"/>
</g>
</svg>
