<?xml version="1.0" encoding="UTF-8"?><svg id="Layer_1" xmlns="http://www.w3.org/2000/svg" viewBox="0 0 1425.17 1144.8"><defs><style>.cls-1{fill:#ed8b00;}.cls-2{fill:#63666a;}</style></defs><g><path class="cls-1" d="M169.03,0s-52.98,0-52.98,52.98V196.78s0,13.24,13.24,13.24h143.8s52.98,0,52.98-52.98V13.25s0-13.25-13.24-13.25H169.03Z"/><path class="cls-2" d="M169.03,478.96s-52.98,0-52.98,52.98v143.8s0,13.25,13.24,13.25h143.8s52.98,0,52.98-52.98v-143.8s0-13.24-13.24-13.24H169.03Z"/><path class="cls-1" d="M408.5,0s-52.98,0-52.98,52.98V196.78s0,13.24,13.25,13.24h143.8s52.98,0,52.98-52.98V13.25s0-13.25-13.24-13.25h-143.81Z"/><path class="cls-1" d="M408.5,239.48s-52.98,0-52.98,52.98v143.8s0,13.25,13.25,13.25h143.8s52.98,0,52.98-52.98V252.72s0-13.24-13.24-13.24h-143.81Z"/><path class="cls-1" d="M647.98,0s-52.98,0-52.98,52.98V196.78s0,13.24,13.25,13.24h143.8s52.98,0,52.98-52.98V13.25s0-13.25-13.24-13.25h-143.81Z"/><path class="cls-2" d="M647.98,478.96s-52.98,0-52.98,52.98v143.8s0,13.25,13.25,13.25h143.8s52.98,0,52.98-52.98v-143.8s0-13.24-13.24-13.24h-143.81Z"/><path class="cls-2" d="M887.46,239.48s-52.98,0-52.98,52.98v143.8s0,13.25,13.25,13.25h143.8s52.98,0,52.98-52.98V252.72s0-13.24-13.24-13.24h-143.8Z"/><path class="cls-2" d="M887.46,478.96s-52.98,0-52.98,52.98v143.8s0,13.25,13.25,13.25h143.8s52.98,0,52.98-52.98v-143.8s0-13.24-13.24-13.24h-143.8Z"/><path class="cls-1" d="M1126.94,0s-52.98,0-52.98,52.98V196.78s0,13.24,13.24,13.24h143.8s52.98,0,52.98-52.98V13.25s0-13.25-13.24-13.25h-143.81Z"/><path class="cls-2" d="M1126.94,478.96s-52.98,0-52.98,52.98v143.8s0,13.25,13.24,13.25h143.8s52.98,0,52.98-52.98v-143.8s0-13.24-13.24-13.24h-143.81Z"/><path class="cls-1" d="M1425.01,982.96v-26.43c0-2.97-2.68-5.05-5.64-5.05h-.59c-10.99,1.19-19.3,2.08-36.23,2.08-13.36,0-24.35-8.02-24.35-34.45v-24.95c0-26.43,10.99-34.45,24.35-34.45,16.93,0,25.25,.89,36.23,2.08h.59c2.97,0,5.64-2.08,5.64-5.05v-26.43c0-4.45-1.78-5.64-6.24-6.83-8.31-2.08-21.68-4.45-39.5-4.45-41.88,0-69.2,26.73-69.2,75.14v24.95c0,48.4,27.32,75.13,69.2,75.13,17.82,0,31.19-2.37,39.5-4.45,4.45-1.19,6.24-2.38,6.24-6.83m-139.88,2.67v-158.29c0-3.27-2.67-5.94-5.94-5.94h-36.23c-3.27,0-5.94,2.67-5.94,5.94v158.29c0,3.27,2.67,5.94,5.94,5.94h36.23c3.27,0,5.94-2.67,5.94-5.94m1.19-189.48v-27.61c0-3.27-2.67-5.94-5.94-5.94h-38.61c-3.27,0-5.94,2.67-5.94,5.94v27.61c0,3.27,2.67,5.94,5.94,5.94h38.61c3.26,0,5.94-2.67,5.94-5.94m-77.21,189.18v-104.54c0-40.99-22.87-61.77-65.63-61.77h-14.85c-42.77,0-65.63,20.79-65.63,61.77v104.54c0,3.27,2.37,6.23,5.64,6.23h36.53c3.27,0,5.94-2.97,5.94-6.23v-104.54c0-13.07,2.08-22.28,17.52-22.28h14.85c15.44,0,17.52,9.21,17.52,22.28v104.54c0,3.27,2.68,6.23,5.94,6.23h36.53c3.26,0,5.64-2.97,5.64-6.23m-215.9-68.31c0,24.06-9.21,36.53-26.43,36.53s-26.73-12.48-26.73-36.53v-20.79c0-24.06,9.5-36.23,26.73-36.23s26.43,12.18,26.43,36.23v20.79Zm47.81,0v-20.79c0-47.22-26.13-77.22-74.25-77.22s-74.54,30-74.54,77.22v20.79c0,47.22,26.43,77.21,74.54,77.21s74.25-30,74.25-77.21m-161.26-63.55v-28.81c0-4.16-4.46-5.64-8.02-5.64-28.21,0-46.63,2.37-65.63,8.61-6.83,2.37-9.21,5.35-9.21,9.5v148.2c0,3.27,2.97,6.23,6.24,6.23h35.93c3.27,0,5.94-2.97,5.94-6.23v-124.43c6.23-1.19,18.12-1.78,26.73-1.78,5.64,0,8.02-2.38,8.02-5.64m-100.38-2.08v-24.06c0-3.27-2.67-5.94-5.94-5.94h-40.69v-31.48c0-2.97-2.67-5.94-5.35-5.94h-.89l-36.24,6.24c-3.27,.59-5.94,2.67-5.94,5.94v149.09c0,38.61,19.6,49,52.87,49,12.77,0,27.02-1.18,35.64-2.67,3.86-.59,5.94-2.67,5.94-5.94v-22.87c0-3.27-2.37-5.05-6.24-5.05h-22.27c-12.77,0-17.52-1.78-17.52-12.17v-88.21h40.69c3.27,0,5.94-2.67,5.94-5.94"/><path class="cls-2" d="M614.55,891.78h-54.05v-1.19c0-21.68,10.99-32.96,27.32-32.96s26.73,10.99,26.73,32.96v1.19Zm46.92,22.57v-17.22c0-44.84-24.65-78.1-73.35-78.1s-75.14,30.29-75.14,78.1v20.79c0,57.32,38.61,76.32,74.54,76.32,25.84,0,41.88-2.37,60.88-7.12,5.05-1.19,6.24-3.27,6.24-8.02v-22.57c0-3.27-2.38-4.76-5.65-4.76h-.89c-11.88,1.19-38.31,2.67-57.02,2.67-23.46,0-30.59-15.44-30.59-32.37v-.59h94.74c3.86,0,6.23-2.67,6.23-7.13m-166.9,68.61v-26.43c0-2.97-2.67-5.05-5.64-5.05h-.59c-10.99,1.19-19.31,2.08-36.24,2.08-13.36,0-24.35-8.02-24.35-34.45v-24.95c0-26.43,10.98-34.45,24.35-34.45,16.93,0,25.24,.89,36.24,2.08h.59c2.97,0,5.64-2.08,5.64-5.05v-26.43c0-4.45-1.78-5.64-6.23-6.83-8.32-2.08-21.68-4.45-39.5-4.45-41.87,0-69.2,26.73-69.2,75.14v24.95c0,48.4,27.32,75.13,69.2,75.13,17.82,0,31.19-2.37,39.5-4.45,4.45-1.19,6.23-2.38,6.23-6.83m-186.5-30c-5.64,.89-14.55,1.78-24.35,1.78-21.08,0-26.73-15.44-26.73-36.53v-23.16c0-21.09,5.64-36.23,26.73-36.23,9.8,0,18.71,.59,24.35,1.48v92.66Zm47.82,24.94v-142.55c0-4.75-1.19-6.83-9.21-8.61-16.93-4.15-40.09-7.72-62.96-7.72-48.11,0-74.54,27.91-74.54,76.03v23.16c0,48.11,26.43,76.02,74.54,76.02,22.87,0,46.03-3.56,62.96-7.72,8.02-1.78,9.21-3.86,9.21-8.62m-159.18-124.43v-28.81c0-4.16-4.46-5.64-8.02-5.64-28.21,0-46.63,2.37-65.63,8.61-6.83,2.37-9.21,5.35-9.21,9.5v148.2c0,3.27,2.97,6.23,6.23,6.23h35.94c3.27,0,5.94-2.97,5.94-6.23v-124.43c6.23-1.19,18.11-1.78,26.73-1.78,5.64,0,8.02-2.38,8.02-5.64m-100.38-2.08v-24.06c0-3.27-2.67-5.94-5.94-5.94H49.7v-31.48c0-2.97-2.67-5.94-5.35-5.94h-.89l-36.23,6.24c-3.27,.59-5.94,2.67-5.94,5.94v149.09c0,38.61,19.6,49,52.87,49,12.77,0,27.02-1.18,35.64-2.67,3.86-.59,5.94-2.67,5.94-5.94v-22.87c0-3.27-2.37-5.05-6.24-5.05h-22.27c-12.77,0-17.52-1.78-17.52-12.17v-88.21h40.69c3.27,0,5.94-2.67,5.94-5.94"/></g><g><path class="cls-2" d="M15.47,1144.8c-5.33,0-9.3-.53-12.65-1.07-1.3-.23-1.45-.53-1.45-1.37v-3.05c0-.84,.61-1.22,1.3-1.22h.23c3.51,.31,9.07,.46,12.57,.46,9.14,0,11.58-3.66,11.58-8.99,0-3.81-2.21-5.94-9.14-10.21l-7.39-4.5c-7.01-4.27-10.52-8.15-10.52-14.25,0-9.22,6.63-13.49,18.21-13.49,4.5,0,10.36,.46,13.26,.91,.76,.15,1.3,.53,1.3,1.29v3.28c0,.76-.53,1.22-1.3,1.22h-.15c-3.35-.23-8.69-.46-13.11-.46-7.85,0-11.2,1.68-11.2,7.24,0,3.58,2.51,5.71,8.31,9.22l7.01,4.19c8.84,5.26,11.96,9.45,11.96,15.54,0,7.32-3.81,15.24-18.82,15.24Z"/><path class="cls-2" d="M74.37,1144.8c-11.96,0-20.65-7.01-20.65-23.93v-9.83c0-16.92,8.69-23.93,20.65-23.93s20.57,7.01,20.57,23.93v9.83c0,16.92-8.61,23.93-20.57,23.93Zm13.56-33.76c0-12.8-5.18-17.68-13.56-17.68s-13.64,4.88-13.64,17.68v9.83c0,12.8,5.26,17.68,13.64,17.68s13.56-4.88,13.56-17.68v-9.83Z"/><path class="cls-2" d="M146.84,1117.83h-23.39v24.92c0,.84-.69,1.52-1.52,1.52h-3.89c-.84,0-1.52-.69-1.52-1.52v-41.45c0-10.13,5.56-14.17,16.23-14.17,4.5,0,11.66,.15,14.86,.46,.46,.08,.76,.61,.76,1.07v3.81c0,.53-.3,.91-.84,.91h-14.71c-8.08,0-9.37,2.13-9.37,7.92v10.59h23.39c.84,0,1.52,.69,1.52,1.52v2.9c0,.84-.69,1.52-1.52,1.52Z"/><path class="cls-2" d="M204.45,1093.59h-14.86v49.15c0,.76-.53,1.52-1.37,1.52h-4.19c-.76,0-1.37-.69-1.37-1.52v-49.15h-14.86c-.84,0-1.52-.38-1.52-1.22v-3.35c0-.76,.69-1.37,1.52-1.37h36.65c.84,0,1.45,.53,1.45,1.37v3.35c0,.76-.61,1.22-1.45,1.22Z"/><path class="cls-2" d="M279.9,1089.17l-8.46,51.51c-.53,3.12-2.29,3.89-4.72,3.89h-3.28c-2.13,0-3.73-1.52-4.34-3.81l-7.47-28.2c-.15-.69-.23-.69-.46-.69h-.15c-.23,0-.3,0-.46,.69l-7.54,28.2c-.61,2.29-2.21,3.81-4.34,3.81h-3.2c-2.44,0-4.19-.76-4.72-3.89l-8.46-51.51v-.23c0-.76,.53-1.29,1.3-1.29h4.42c.61,0,1.14,.46,1.3,1.29l7.39,48.54c.15,.76,.08,1.14,.38,1.14s.38-.46,.53-1.14l7.47-28.19c.53-2.06,1.6-3.05,3.58-3.05h4.88c1.98,0,3.05,.99,3.58,3.05l7.47,28.19c.15,.69,.23,1.14,.53,1.14s.23-.38,.38-1.14l7.39-48.54c.15-.84,.69-1.29,1.3-1.29h4.42c.76,0,1.3,.53,1.3,1.29v.23Z"/><path class="cls-2" d="M335.3,1144.27h-4.19c-.76,0-1.37-.69-1.37-1.52v-22.56h-23.32v22.56c0,.76-.53,1.52-1.37,1.52h-4.19c-.76,0-1.37-.76-1.37-1.52v-39.85c0-11.66,5.41-15.77,16.38-15.77h4.42c10.9,0,16.38,4.11,16.38,15.77v39.85c0,.76-.61,1.52-1.37,1.52Zm-5.56-41.38c0-7.92-2.51-9.68-9.45-9.68h-4.42c-6.93,0-9.45,1.75-9.45,9.68v11.2h23.32v-11.2Z"/><path class="cls-2" d="M397.48,1144.27h-5.33c-.91,0-1.07,0-1.68-.99l-13.64-22.71h-1.98c-2.51,0-6.48-.15-8.38-.23v22.4c0,.76-.53,1.52-1.37,1.52h-4.11c-.76,0-1.37-.69-1.37-1.52v-53.34c0-1.07,.46-1.52,1.83-1.68,3.28-.38,8.99-.61,13.41-.61,12.04,0,21.34,4.04,21.34,16.38v.53c0,8.54-5.03,13.56-11.96,15.39l14.02,23.39c.15,.23,.23,.46,.23,.69,0,.46-.3,.76-.99,.76Zm-8.15-40.77c0-7.62-4.95-10.13-14.48-10.13-2.36,0-6.55,0-8.38,.23v20.88c1.6,0,6.63,.15,8.38,.15,9.37,0,14.48-2.36,14.48-10.59v-.53Z"/><path class="cls-2" d="M449.38,1144.42c-2.9,.3-10.36,.38-14.86,.38-10.67,0-16.23-4.04-16.23-14.17v-29.34c0-10.13,5.56-14.17,16.23-14.17,4.5,0,11.66,.15,14.86,.46,.46,.08,.76,.61,.76,1.07v3.81c0,.53-.3,.91-.84,.91h-14.71c-8.08,0-9.37,2.13-9.37,7.92v10.59h23.39c.84,0,1.52,.69,1.52,1.52v2.9c0,.84-.69,1.52-1.52,1.52h-23.39v12.8c0,5.79,1.3,7.93,9.37,7.93h14.71c.53,0,.84,.38,.84,.91v3.89c0,.46-.3,.99-.76,1.07Z"/><path class="cls-2" d="M538.08,1093.59h-14.86v49.15c0,.76-.53,1.52-1.37,1.52h-4.19c-.76,0-1.37-.69-1.37-1.52v-49.15h-14.86c-.84,0-1.52-.38-1.52-1.22v-3.35c0-.76,.69-1.37,1.52-1.37h36.65c.84,0,1.45,.53,1.45,1.37v3.35c0,.76-.61,1.22-1.45,1.22Z"/><path class="cls-2" d="M590.28,1144.42c-2.9,.3-10.36,.38-14.86,.38-10.67,0-16.23-4.04-16.23-14.17v-29.34c0-10.13,5.56-14.17,16.23-14.17,4.5,0,11.66,.15,14.86,.46,.46,.08,.76,.61,.76,1.07v3.81c0,.53-.3,.91-.84,.91h-14.71c-8.08,0-9.37,2.13-9.37,7.92v10.59h23.39c.84,0,1.52,.69,1.52,1.52v2.9c0,.84-.69,1.52-1.52,1.52h-23.39v12.8c0,5.79,1.3,7.93,9.37,7.93h14.71c.53,0,.84,.38,.84,.91v3.89c0,.46-.3,.99-.76,1.07Z"/><path class="cls-2" d="M625.56,1144.8c-5.33,0-9.3-.53-12.65-1.07-1.3-.23-1.45-.53-1.45-1.37v-3.05c0-.84,.61-1.22,1.3-1.22h.23c3.51,.31,9.07,.46,12.57,.46,9.14,0,11.58-3.66,11.58-8.99,0-3.81-2.21-5.94-9.14-10.21l-7.39-4.5c-7.01-4.27-10.52-8.15-10.52-14.25,0-9.22,6.63-13.49,18.21-13.49,4.5,0,10.36,.46,13.26,.91,.76,.15,1.3,.53,1.3,1.29v3.28c0,.76-.53,1.22-1.3,1.22h-.15c-3.35-.23-8.69-.46-13.11-.46-7.85,0-11.2,1.68-11.2,7.24,0,3.58,2.51,5.71,8.31,9.22l7.01,4.19c8.84,5.26,11.96,9.45,11.96,15.54,0,7.32-3.81,15.24-18.82,15.24Z"/><path class="cls-2" d="M700.09,1093.59h-14.86v49.15c0,.76-.53,1.52-1.37,1.52h-4.19c-.76,0-1.37-.69-1.37-1.52v-49.15h-14.86c-.84,0-1.52-.38-1.52-1.22v-3.35c0-.76,.69-1.37,1.52-1.37h36.65c.84,0,1.45,.53,1.45,1.37v3.35c0,.76-.61,1.22-1.45,1.22Z"/><path class="cls-2" d="M727.52,1144.27h-4.19c-.76,0-1.37-.69-1.37-1.52v-53.65c0-.76,.53-1.45,1.37-1.45h4.19c.76,0,1.37,.61,1.37,1.45v53.65c0,.76-.53,1.52-1.37,1.52Z"/><path class="cls-2" d="M790.39,1144.27h-4.27c-.76,0-1.29-.69-1.29-1.52v-33.68c0-13.26-4.57-15.93-14.02-15.93-3.28,0-9.37,.3-11.28,.46v49.15c0,.76-.53,1.52-1.37,1.52h-4.19c-.84,0-1.37-.69-1.37-1.52v-52.12c0-1.91,.61-2.44,2.13-2.67,4.04-.61,12.34-.91,16.23-.91,13.72,0,20.8,5.18,20.8,22.02v33.68c0,.76-.53,1.52-1.37,1.52Z"/><path class="cls-2" d="M847.47,1143.66c-3.73,.61-8,1.14-15.16,1.14-9.53,0-19.74-6.25-19.74-23.7v-10.21c0-18.52,10.67-23.77,20.42-23.77,7.09,0,11.58,.61,14.48,1.07,.69,.08,1.3,.38,1.3,1.14v3.81c0,.53-.3,.76-.99,.76h-.3c-4.5-.38-8-.53-14.48-.53-7.09,0-13.49,3.81-13.49,17.53v10.21c0,12.57,5.71,17.53,12.8,17.53,4.65,0,7.77-.3,9.6-.46v-21.79c0-.84,.53-1.52,1.37-1.52h4.12c.76,0,1.45,.69,1.45,1.52v25.6c0,.84-.53,1.52-1.37,1.68Z"/><path class="cls-2" d="M875.81,1144.19h-3.66c-.76,0-1.45-.69-1.45-1.52v-7.09c0-.76,.61-1.45,1.45-1.45h3.66c.76,0,1.45,.61,1.45,1.45v7.09c0,.84-.61,1.52-1.45,1.52Z"/><path class="cls-1" d="M944.32,1144.8c-5.33,0-9.3-.53-12.65-1.07-1.3-.23-1.45-.53-1.45-1.37v-3.05c0-.84,.61-1.22,1.3-1.22h.23c3.5,.31,9.07,.46,12.57,.46,9.14,0,11.58-3.66,11.58-8.99,0-3.81-2.21-5.94-9.14-10.21l-7.39-4.5c-7.01-4.27-10.52-8.15-10.52-14.25,0-9.22,6.63-13.49,18.21-13.49,4.5,0,10.36,.46,13.26,.91,.76,.15,1.3,.53,1.3,1.29v3.28c0,.76-.53,1.22-1.3,1.22h-.15c-3.35-.23-8.69-.46-13.11-.46-7.85,0-11.2,1.68-11.2,7.24,0,3.58,2.51,5.71,8.31,9.22l7.01,4.19c8.84,5.26,11.96,9.45,11.96,15.54,0,7.32-3.81,15.24-18.82,15.24Z"/><path class="cls-1" d="M990.27,1144.27h-4.19c-.76,0-1.37-.69-1.37-1.52v-53.65c0-.76,.53-1.45,1.37-1.45h4.19c.76,0,1.37,.61,1.37,1.45v53.65c0,.76-.53,1.52-1.37,1.52Z"/><path class="cls-1" d="M1060.23,1144.27h-4.19c-.61,0-1.29-.46-1.29-1.3v-47.85c0-.76-.23-.84-.53-.84s-.53,.15-.76,.84l-9.45,24.23c-.76,1.98-1.6,3.05-3.58,3.05h-3.96c-1.98,0-2.82-1.07-3.58-3.05l-9.45-24.23c-.23-.69-.46-.84-.76-.84s-.53,.08-.53,.84v47.85c0,.84-.69,1.3-1.29,1.3h-4.19c-.84,0-1.3-.61-1.3-1.52v-49.68c0-5.11,2.21-5.41,5.18-5.41h2.82c3.35,0,4.11,.99,5.71,5.11l8.84,23.17c.23,.69,.3,.69,.53,.69s.3,0,.53-.69l8.84-23.17c1.6-4.12,2.51-5.11,5.71-5.11h2.82c2.97,0,5.18,.3,5.18,5.41v49.68c0,.92-.46,1.52-1.29,1.52Z"/><path class="cls-1" d="M1098.94,1121.71c-2.44,0-5.64-.23-7.62-.38v21.41c0,.76-.53,1.52-1.37,1.52h-4.12c-.76,0-1.37-.69-1.37-1.52v-53.11c0-1.07,.69-1.75,1.83-1.91,3.28-.38,8.23-.61,12.65-.61,12.34,0,21.34,4.27,21.34,16.54v.99c0,12.73-8.99,17.07-21.34,17.07Zm14.4-18.06c0-7.7-4.57-10.67-14.4-10.67-2.36,0-5.79,.15-7.62,.3v22.33c1.75,.08,5.64,.3,7.62,.3,10.44,0,14.4-3.35,14.4-11.28v-.99Z"/><path class="cls-1" d="M1171.79,1144.12c-1.98,.3-7.7,.69-14.86,.69-8.15,0-16.23-1.6-16.23-14.17v-41.45c0-.84,.69-1.52,1.52-1.52h3.89c.84,0,1.52,.69,1.52,1.52v41.45c0,5.79,1.3,7.93,9.37,7.93h14.71c.53,0,.84,.38,.84,.91v3.58c0,.46-.3,.99-.76,1.07Z"/><path class="cls-1" d="M1197.24,1144.27h-4.19c-.76,0-1.37-.69-1.37-1.52v-53.65c0-.76,.53-1.45,1.37-1.45h4.19c.76,0,1.37,.61,1.37,1.45v53.65c0,.76-.53,1.52-1.37,1.52Z"/><path class="cls-1" d="M1252.64,1117.83h-23.39v24.92c0,.84-.69,1.52-1.52,1.52h-3.89c-.84,0-1.52-.69-1.52-1.52v-41.45c0-10.13,5.56-14.17,16.23-14.17,4.5,0,11.66,.15,14.86,.46,.46,.08,.76,.61,.76,1.07v3.81c0,.53-.3,.91-.84,.91h-14.71c-8.08,0-9.37,2.13-9.37,7.92v10.59h23.39c.84,0,1.52,.69,1.52,1.52v2.9c0,.84-.69,1.52-1.52,1.52Z"/><path class="cls-1" d="M1281.68,1144.27h-4.19c-.76,0-1.37-.69-1.37-1.52v-53.65c0-.76,.53-1.45,1.37-1.45h4.19c.76,0,1.37,.61,1.37,1.45v53.65c0,.76-.53,1.52-1.37,1.52Z"/><path class="cls-1" d="M1337.84,1144.42c-2.9,.3-10.36,.38-14.86,.38-10.67,0-16.23-4.04-16.23-14.17v-29.34c0-10.13,5.56-14.17,16.23-14.17,4.5,0,11.66,.15,14.86,.46,.46,.08,.76,.61,.76,1.07v3.81c0,.53-.31,.91-.84,.91h-14.71c-8.08,0-9.37,2.13-9.37,7.92v10.59h23.39c.84,0,1.52,.69,1.52,1.52v2.9c0,.84-.69,1.52-1.52,1.52h-23.39v12.8c0,5.79,1.3,7.93,9.37,7.93h14.71c.53,0,.84,.38,.84,.91v3.89c0,.46-.31,.99-.76,1.07Z"/><path class="cls-1" d="M1375.26,1144.8c-5.79,0-11.66-.38-13.87-.76-.99-.15-1.6-.76-1.6-1.91v-52.35c0-1.07,.61-1.75,1.6-1.91,2.21-.38,8.08-.76,13.87-.76,14.1,0,23.09,7.24,23.09,23.7v10.29c0,16.31-8.99,23.7-23.09,23.7Zm16.15-33.99c0-13.79-7.01-17.75-16.15-17.75-3.58,0-5.94,.08-8.46,.23v45.42c2.44,.15,4.88,.15,8.46,.15,9.14,0,16.15-4.04,16.15-17.75v-10.29Z"/><path class="cls-1" d="M1423.72,1144.19h-3.66c-.76,0-1.45-.69-1.45-1.52v-7.09c0-.76,.61-1.45,1.45-1.45h3.66c.76,0,1.45,.61,1.45,1.45v7.09c0,.84-.61,1.52-1.45,1.52Z"/></g></svg>