<?xml version="1.0" encoding="utf-8"?>
<!-- Generator: Adobe Illustrator 28.2.0, SVG Export Plug-In . SVG Version: 6.00 Build 0)  -->
<svg version="1.1" id="a" xmlns="http://www.w3.org/2000/svg" xmlns:xlink="http://www.w3.org/1999/xlink" x="0px" y="0px"
	 viewBox="0 0 283.5 283.5" style="enable-background:new 0 0 283.5 283.5;" xml:space="preserve">
<style type="text/css">
	.st0{fill-rule:evenodd;clip-rule:evenodd;fill:#965B9A;}
	.st1{fill:#FFFFFF;}
</style>
<path class="st0" d="M0,0h283.5v283.5H0V0z"/>
<path class="st1" d="M58.1,181.5v7.4H12.2l32.1-39.8H17.5v-7.3h41.9l-31.9,39.7L58.1,181.5L58.1,181.5z"/>
<path class="st1" d="M73.8,168.1c0,7.9,0.9,14.7,10.6,14.7s10.6-6.8,10.6-14.7v-26.3h8V169c0,12.5-4.7,21.3-18.7,21.3
	s-18.7-8.7-18.7-21.3v-27.2h8V168.1z"/>
<path class="st1" d="M81.4,116.6c0,3-2.4,5.4-5.4,5.4s-5.4-2.4-5.4-5.4s2.4-5.4,5.4-5.4S81.4,113.6,81.4,116.6z"/>
<path class="st1" d="M98.4,116.6c0,3-2.4,5.4-5.4,5.4s-5.4-2.4-5.4-5.4s2.4-5.4,5.4-5.4S98.4,113.6,98.4,116.6z"/>
<path class="st1" d="M122.8,111.5v35.9l0.2,0.2c3.3-4.5,7.6-7,13.4-7c13,0,16,9.4,16,20.5v28h-8v-26.6c0-7.6-0.6-14.4-9.9-14.4
	c-11,0-11.7,10.2-11.7,18.6v22.4h-8v-77.5L122.8,111.5L122.8,111.5z"/>
<path class="st1" d="M172.3,188.9h-8v-77.5h8V188.9z"/>
<path class="st1" d="M193.6,159.3l17.1-17.4h10.7l-20.2,20.1l24,27.1h-10.6l-21.1-23.9v23.9h-8v-77.5h8L193.6,159.3L193.6,159.3z"/>
<path class="st1" d="M262.6,173.9c-3,5.2-7.2,8.9-13.6,8.9c-8.9,0-15-7-15.1-15.8h36.2c0.8-14-7.1-26.6-21.9-26.6
	S225.8,152,225.8,166s8.8,24.3,22.6,24.3c9.1,0,16.2-4.6,20.7-12.5L262.6,173.9z M248.3,147.9c6.9,0,12.5,5.5,13.6,12.3h-27.6
	C235.3,153.4,241.6,147.9,248.3,147.9L248.3,147.9z"/>
<path class="st1" d="M27.2,227.2c-1.3,2.6-3.5,4.1-6.5,4.1c-5.5,0-7.7-4.8-7.7-9.7c0-5.1,2.3-9.7,8-9.7c2.9,0,5.1,1.4,6.2,4
	c0.3,0.7,0.5,1.5,0.5,2.3c0,0.8-0.4,1-1,1.1L15.7,221c0.2,3.2,1.6,7.4,5.5,7.4c2.4,0,3.9-1.5,5.1-3.5c0.2-0.4,0.3-0.8,0.9-0.8
	s0.7,0.4,0.7,0.9C27.9,225.6,27.5,226.7,27.2,227.2L27.2,227.2z M24.2,218c-0.2-2-1.6-4-3.8-4c-3.1,0-4.4,2.6-4.7,5.4L24.2,218z"/>
<path class="st1" d="M54.3,230.2c0,0.5-0.1,0.7-0.6,0.7h-1.9c-0.5,0-0.6-0.1-0.6-0.7v-11.6c0-2.4-0.4-4.6-3.4-4.6
	c-1.4,0-2.8,0.6-3.3,2c-0.1,0.4-0.2,1.2-0.2,1.7v12.5c0,0.4,0,0.7-0.6,0.7h-2c-0.4,0-0.6-0.2-0.6-0.6v-12.3c0-2.3-0.9-4.1-3.5-4.1
	c-1.4,0-2.7,0.6-3.2,2c-0.2,0.5-0.2,1.3-0.2,1.9v12.5c0,0.5-0.1,0.7-0.7,0.7h-1.8c-0.5,0-0.6-0.1-0.6-0.7v-14.3c0-1,0-1.5,0.7-2.3
	c1-1.1,4.5-1.6,5.9-1.6c2.1,0,4,0.4,5.3,2.2c1.6-1.7,3.3-2.2,5.6-2.2c3.7,0,5.8,1.6,5.8,5.4V230.2L54.3,230.2z"/>
<path class="st1" d="M65.6,231.3c-1.5,0-2.6-0.4-3.8-1.3v8.6c0,0.4-0.2,0.6-0.6,0.6h-1.9c-0.5,0-0.7-0.1-0.7-0.6V217
	c0-0.9-0.1-2,0.4-2.8c1.1-1.6,4.8-2.3,6.6-2.3c5.5,0,8.3,3.6,8.3,8.9C73.8,225.7,71.1,231.3,65.6,231.3L65.6,231.3z M64.8,213.9
	c-2.4,0-3.1,0.9-3.1,3.1v10.9c1.1,0.7,2.3,1.2,3.6,1.2c3.9,0,5.3-4.5,5.3-7.7C70.6,217.8,69,213.9,64.8,213.9z"/>
<path class="st1" d="M84.4,231.3c-5.4,0-8.2-4.8-8.2-9.7s3-9.6,8.2-9.6s8.1,5.1,8.1,9.8S89.5,231.3,84.4,231.3z M89.1,221.3
	c0-2.8-1.5-7.3-5-7.3s-4.6,4.3-4.6,7.2s1.2,8,5,8c3.5,0,4.6-4.4,4.6-7.2V221.3L89.1,221.3z"/>
<path class="st1" d="M116.5,213.4l-5.3,16.9c-0.1,0.3-0.1,0.5-0.5,0.5h-1.2c-0.5,0-0.6,0-0.8-0.5l-3.5-11.5l-3.5,11.5
	c-0.1,0.5-0.2,0.5-0.7,0.5h-1c-0.5,0-0.6-0.1-0.7-0.5l-5.4-16.9c-0.1-0.2-0.1-0.4-0.1-0.6c0-0.3,0.2-0.4,0.5-0.4h2
	c0.6,0,0.7,0.1,0.9,0.7l3.9,13.2l3.8-13.2c0.2-0.8,0.1-0.7,1-0.7c0.4,0,0.4,0.2,0.5,0.6l4.1,13.4L114,213c0.1-0.5,0.2-0.7,0.8-0.7
	h1.3c0.2,0,0.6,0,0.6,0.4C116.6,213,116.6,213.2,116.5,213.4L116.5,213.4z"/>
<path class="st1" d="M132,227.2c-1.3,2.6-3.5,4.1-6.5,4.1c-5.5,0-7.7-4.8-7.7-9.7c0-5.1,2.3-9.7,8-9.7c2.9,0,5.1,1.4,6.2,4
	c0.3,0.7,0.5,1.5,0.5,2.3c0,0.8-0.4,1-1,1.1l-10.9,1.6c0.2,3.2,1.6,7.4,5.5,7.4c2.4,0,3.9-1.5,5.1-3.5c0.2-0.4,0.3-0.8,0.9-0.8
	s0.7,0.4,0.7,0.9C132.7,225.6,132.3,226.7,132,227.2L132,227.2z M129,218c-0.2-2-1.6-4-3.8-4c-3.1,0-4.4,2.6-4.7,5.4L129,218z"/>
<path class="st1" d="M144.7,215.6c-1.4,0-1.4-1.9-3.6-1.9c-1.7,0-2.1,1.1-2.1,2.5v14c0,0.4-0.1,0.6-0.5,0.6h-1.9
	c-0.5,0-0.8,0-0.8-0.6v-14.9c0-0.7,0-1.3,0.5-1.9c1-1,4.7-1.5,6.1-1.5s3.7,0.2,3.7,2.1C146.1,214.8,145.5,215.5,144.7,215.6
	L144.7,215.6z"/>
<path class="st1" d="M150.1,209.2c-1.1,0-1.9-0.7-1.9-1.9s0.8-1.9,1.9-1.9c1.2,0,1.9,0.8,1.9,2C151.9,208.4,151.1,209.2,150.1,209.2
	L150.1,209.2z M151.6,230.2c0,0.5-0.1,0.7-0.6,0.7h-2.1c-0.4,0-0.5-0.1-0.5-0.5v-17.4c0-0.5,0.1-0.6,0.6-0.6h1.9
	c0.6,0,0.7,0.1,0.7,0.7L151.6,230.2L151.6,230.2z"/>
<path class="st1" d="M170.1,230.1c0,0.4-0.1,0.7-0.6,0.7h-1.9c-0.5,0-0.8-0.1-0.8-0.6v-12.1c0-0.8,0-1.8-0.3-2.5
	c-0.7-1.5-2.3-1.9-3.9-1.9c-1.2,0-2.8,0.3-3.5,1.4c-0.3,0.5-0.4,1.2-0.4,1.8v13.2c0,0.5-0.1,0.7-0.6,0.7h-2c-0.5,0-0.6-0.2-0.6-0.7
	v-14.4c0-0.9,0-1.5,0.7-2.1c1.4-1.3,5.1-1.7,6.9-1.7c2.6,0,5.3,0.5,6.4,3.1c0.3,0.8,0.4,2,0.4,2.8L170.1,230.1L170.1,230.1z"/>
<path class="st1" d="M173.9,236.6c0.1-0.1,0.2-0.2,0.3-0.3c0.1-0.1,0.2-0.1,0.4-0.2c1.4,0.1,2.5,0.9,4.1,0.9c3.7,0,6-1.9,6-5.9v-1.5
	c-1.8,0.8-2.9,1.9-4.9,1.9c-4.7,0-6.8-4.4-6.8-8.8c0-5.4,3.1-10.9,8.7-10.9c1.6,0,6.1,0.8,6.1,3.3v16.6c0,4.9-4.5,7.7-8.7,7.7
	c-0.7,0-2.1-0.2-3.2-0.7c-1.1-0.5-1.9-0.9-1.9-1.8V236.6L173.9,236.6z M180.9,228.9c0.8,0,3.8-0.6,3.8-1.5v-11.5
	c0-1.6-2.1-2.1-3.3-2.1c-3.9,0-5.2,4.8-5.2,8.1S177.3,228.9,180.9,228.9L180.9,228.9z"/>
<path class="st1" d="M201.4,209.2c-1.1,0-1.9-0.7-1.9-1.9s0.8-1.9,1.9-1.9c1.2,0,1.9,0.8,1.9,2C203.3,208.4,202.4,209.2,201.4,209.2
	L201.4,209.2z M203,230.2c0,0.5-0.1,0.7-0.6,0.7h-2.1c-0.4,0-0.5-0.1-0.5-0.5v-17.4c0-0.5,0.1-0.6,0.6-0.6h1.9
	c0.6,0,0.7,0.1,0.7,0.7L203,230.2L203,230.2z"/>
<path class="st1" d="M221.7,227.3c0,0.7-0.1,1.2-0.5,1.8c-1.2,1.6-4.6,2.2-6.6,2.2c-5.6,0-8.4-3.8-8.4-9.1c0-5,2.9-10.2,8.4-10.2
	c1.4,0,2.6,0.4,3.8,1.2v-8.9c0-0.5,0.2-0.7,0.7-0.7h1.8c0.5,0,0.7,0.1,0.7,0.6L221.7,227.3L221.7,227.3z M218.5,215.1
	c-1-0.9-2-1.3-3.4-1.3c-3.9,0-5.6,4.2-5.6,7.5c0,3.7,1.6,7.8,5.9,7.8c2.1,0,3.2-0.7,3.2-2.8V215.1L218.5,215.1z"/>
<path class="st1" d="M239.1,227.2c-1.3,2.6-3.5,4.1-6.5,4.1c-5.5,0-7.7-4.8-7.7-9.7c0-5.1,2.3-9.7,8-9.7c2.9,0,5.1,1.4,6.2,4
	c0.3,0.7,0.5,1.5,0.5,2.3c0,0.8-0.4,1-1,1.1l-10.9,1.6c0.2,3.2,1.6,7.4,5.5,7.4c2.4,0,3.9-1.5,5.1-3.5c0.2-0.4,0.3-0.8,0.9-0.8
	s0.7,0.4,0.7,0.9C239.7,225.6,239.3,226.7,239.1,227.2L239.1,227.2z M236.1,218c-0.2-2-1.6-4-3.8-4c-3.1,0-4.4,2.6-4.7,5.4
	L236.1,218z"/>
<path class="st1" d="M254.6,227.2c0,0.7-0.1,1.6-0.5,2.2c-1.1,1.5-4.4,1.8-6.1,1.8c-3.2,0-6.2-1.2-6.2-4.9c0-4.7,6.2-5.9,9.7-7v-1.8
	c0-1.9-0.3-3.8-2.7-3.8c-1.5,0-2.5,0.9-3,2.3c-0.1,0.1-0.1,0.3-0.2,0.5c-0.3,0.7-0.7,1.1-1.4,1.1c-0.9,0-1.4-0.7-1.4-1.5
	c0-3,4.1-4.2,6.5-4.2c3.9,0,5.3,2,5.3,5.7L254.6,227.2L254.6,227.2z M251.4,221.1c-2.4,0.8-6.5,1.6-6.5,4.8c0,2.2,1.5,3.4,3.6,3.4
	c1.8,0,2.9-0.6,2.9-2.6L251.4,221.1L251.4,221.1z"/>
<path class="st1" d="M263.8,231.3c-2,0-3.6-0.5-5-1.9c-0.6-0.6-1.1-1.4-1.1-2.2s0.7-1.6,1.5-1.6c1.8,0,1.6,3.6,4.9,3.6
	c1.6,0,2.8-1,2.8-2.7c0-4.6-8.8-3.5-8.8-9.6c0-3.2,2.6-5,5.6-5c1.8,0,3.8,0.5,4.9,2c0.4,0.5,0.7,1,0.7,1.6c0,0.8-0.6,1.4-1.4,1.4
	c-1.9,0-1.4-3.1-4.2-3.1c-1.5,0-2.7,1-2.7,2.6c0,4.4,8.9,3.2,8.9,9.6C269.9,229.5,267.2,231.3,263.8,231.3L263.8,231.3z"/>
</svg>
