<svg fill="none" viewBox="0 0 110 110" xmlns="http://www.w3.org/2000/svg"><path d="m55 110c30.3757 0 55-24.6243 55-55s-24.6243-55-55-55-55 24.6243-55 55 24.6243 55 55 55z" fill="#2ae78b"/><path d="m35 74.5c0 1.105.895 2 2 2h36c1.105 0 2-.895 2-2v-25.5c0-1.105-.895-2-2-2h-36c-1.105 0-2 .895-2 2z" fill="#d4a263"/><path d="m55 47h-18c-1.104 0-2 .896-2 2v25.5c0 1.104.896 2 2 2h18z" fill="#edbc7c"/><path d="m37 47c-1.105 0-2 .895-2 2v7h40v-7c0-1.105-.895-2-2-2z" fill="#fff"/><path d="m73 47h-18v9h20v-7c0-1.104-.896-2-2-2z" fill="#e2e4e5"/><path d="m56 27h-2l-3 20h8z" fill="#d4a263"/><path d="m54 27-3 20h4v-20z" fill="#edbc7c"/><path d="m56.34 25.481.345-2.031c.165.033 2.824.566 14.779 2.959 4.989.999 8.359 6.057 7.361 11.046-.876 4.372-4.743 7.545-9.196 7.545-5.305 0-15.619-5.799-13.289-19.519z" fill="#818284"/><path d="m58.315 25.8159c.215.043 8.863 1.775 12.76 2.555s6.593 4.692 5.792 8.692c-.703 3.51-3.786 5.937-7.234 5.937-4.121 0-13.431-4.741-11.318-17.184z" fill="#fff"/><path d="m53.66 25.481-.345-2.031c-.165.033-2.824.566-14.779 2.959-4.989.999-8.359 6.057-7.361 11.046.876 4.372 4.743 7.545 9.196 7.545 5.305 0 15.619-5.799 13.289-19.519z" fill="#818284"/><path d="m51.685 25.8159c-.215.043-8.863 1.775-12.76 2.555s-6.593 4.692-5.792 8.692c.703 3.51 3.786 5.937 7.234 5.937 4.121 0 13.431-4.741 11.318-17.184z" fill="#fff"/><path d="m51 66h-12v4h12z" fill="#8e6134"/><path d="m69 49h-6v5h6z" fill="#4ac3af"/><path d="m75 85c0 1.105.895 2 2 2h8c1.105 0 2-.895 2-2v-20c0-1.105-.895-2-2-2h-8c-1.105 0-2 .895-2 2z" fill="#3e3e3f"/><g fill="#5b5c5f"><path d="m87 65h-12v4h12z"/><path d="m87 73h-12v4h12z"/><path d="m87 81h-12v4h12z"/></g><path d="m23 85c0 1.105.895 2 2 2h8c1.105 0 2-.895 2-2v-20c0-1.105-.895-2-2-2h-8c-1.105 0-2 .895-2 2z" fill="#3e3e3f"/><path d="m35 65h-12v4h12z" fill="#5b5c5f"/><path d="m35 73h-12v4h12z" fill="#5b5c5f"/><path d="m35 81h-12v4h12z" fill="#5b5c5f"/><path d="m67.375 70.25c1.4497 0 2.625-1.1753 2.625-2.625s-1.1753-2.625-2.625-2.625-2.625 1.1753-2.625 2.625 1.1753 2.625 2.625 2.625z" fill="#df2c2c"/><path d="m64.979 38.574c3.0276 0 5.482-2.4544 5.482-5.482s-2.4544-5.482-5.482-5.482-5.482 2.4544-5.482 5.482 2.4544 5.482 5.482 5.482z" fill="#3e3e3f"/><path d="m65.238 34.258c.9731 0 1.762-.7889 1.762-1.762s-.7889-1.762-1.762-1.762-1.762.7889-1.762 1.762.7889 1.762 1.762 1.762z" fill="#fff"/><path d="m45.021 38.574c3.0276 0 5.482-2.4544 5.482-5.482s-2.4544-5.482-5.482-5.482-5.482 2.4544-5.482 5.482 2.4544 5.482 5.482 5.482z" fill="#3e3e3f"/><path d="m44.762 34.258c.9731 0 1.762-.7889 1.762-1.762s-.7889-1.762-1.762-1.762-1.762.7889-1.762 1.762.7889 1.762 1.762 1.762z" fill="#fff"/></svg>