<svg xmlns="http://www.w3.org/2000/svg" fill="none" viewBox="0 0 110 110" id="Wall-E--Streamline-Kameleon.svg"><desc>Wall E Streamline Icon: https://streamlinehq.com</desc><path fill="#2ae78b" d="M55 110c30.3757 0 55 -24.6243 55 -55S85.3757 0 55 0 0 24.6243 0 55s24.6243 55 55 55Z" stroke-width="1"></path><path fill="#d4a263" d="M35 74.5c0 1.105 0.895 2 2 2h36c1.105 0 2 -0.895 2 -2V49c0 -1.105 -0.895 -2 -2 -2H37c-1.105 0 -2 0.895 -2 2v25.5Z" stroke-width="1"></path><path fill="#edbc7c" d="M55 47H37c-1.104 0 -2 0.896 -2 2v25.5c0 1.104 0.896 2 2 2h18V47Z" stroke-width="1"></path><path fill="#fff" d="M37 47c-1.105 0 -2 0.895 -2 2v7h40v-7c0 -1.105 -0.895 -2 -2 -2H37Z" stroke-width="1"></path><path fill="#e2e4e5" d="M73 47H55v9h20v-7c0 -1.104 -0.896 -2 -2 -2Z" stroke-width="1"></path><path fill="#d4a263" d="M56 27h-2l-3 20h8l-3 -20Z" stroke-width="1"></path><path fill="#edbc7c" d="m54 27 -3 20h4V27h-1Z" stroke-width="1"></path><path fill="#818284" d="m56.34 25.481 0.345 -2.031c0.165 0.033 2.824 0.566 14.779 2.959 4.989 0.999 8.359 6.057 7.361 11.046C77.949 41.827 74.082 45 69.629 45c-5.305 0 -15.619 -5.799 -13.289 -19.519Z" stroke-width="1"></path><path fill="#fff" d="M58.315 25.8159c0.215 0.043 8.863 1.775 12.76 2.555 3.897 0.78 6.593 4.692 5.792 8.692 -0.703 3.51 -3.786 5.937 -7.234 5.937 -4.121 0 -13.431 -4.741 -11.318 -17.184Z" stroke-width="1"></path><path fill="#818284" d="m53.66 25.481 -0.345 -2.031c-0.165 0.033 -2.824 0.566 -14.779 2.959 -4.989 0.999 -8.359 6.057 -7.361 11.046 0.876 4.372 4.743 7.545 9.196 7.545 5.305 0 15.619 -5.799 13.289 -19.519Z" stroke-width="1"></path><path fill="#fff" d="M51.685 25.8159c-0.215 0.043 -8.863 1.775 -12.76 2.555 -3.897 0.78 -6.593 4.692 -5.792 8.692 0.703 3.51 3.786 5.937 7.234 5.937 4.121 0 13.431 -4.741 11.318 -17.184Z" stroke-width="1"></path><path fill="#8e6134" d="M51 66H39v4h12v-4Z" stroke-width="1"></path><path fill="#4ac3af" d="M69 49h-6v5h6v-5Z" stroke-width="1"></path><path fill="#3e3e3f" d="M75 85c0 1.105 0.895 2 2 2h8c1.105 0 2 -0.895 2 -2V65c0 -1.105 -0.895 -2 -2 -2h-8c-1.105 0 -2 0.895 -2 2v20Z" stroke-width="1"></path><path fill="#5b5c5f" d="M87 65H75v4h12v-4Z" stroke-width="1"></path><path fill="#5b5c5f" d="M87 73H75v4h12v-4Z" stroke-width="1"></path><path fill="#5b5c5f" d="M87 81H75v4h12v-4Z" stroke-width="1"></path><path fill="#3e3e3f" d="M23 85c0 1.105 0.895 2 2 2h8c1.105 0 2 -0.895 2 -2V65c0 -1.105 -0.895 -2 -2 -2h-8c-1.105 0 -2 0.895 -2 2v20Z" stroke-width="1"></path><path fill="#5b5c5f" d="M35 65H23v4h12v-4Z" stroke-width="1"></path><path fill="#5b5c5f" d="M35 73H23v4h12v-4Z" stroke-width="1"></path><path fill="#5b5c5f" d="M35 81H23v4h12v-4Z" stroke-width="1"></path><path fill="#df2c2c" d="M67.375 70.25c1.4497 0 2.625 -1.1753 2.625 -2.625S68.8247 65 67.375 65s-2.625 1.1753 -2.625 2.625 1.1753 2.625 2.625 2.625Z" stroke-width="1"></path><path fill="#3e3e3f" d="M64.979 38.574c3.0276 0 5.482 -2.4544 5.482 -5.482s-2.4544 -5.482 -5.482 -5.482 -5.482 2.4544 -5.482 5.482 2.4544 5.482 5.482 5.482Z" stroke-width="1"></path><path fill="#fff" d="M65.238 34.258c0.9731 0 1.762 -0.7889 1.762 -1.762s-0.7889 -1.762 -1.762 -1.762 -1.762 0.7889 -1.762 1.762 0.7889 1.762 1.762 1.762Z" stroke-width="1"></path><path fill="#3e3e3f" d="M45.021 38.574c3.0276 0 5.482 -2.4544 5.482 -5.482s-2.4544 -5.482 -5.482 -5.482 -5.482 2.4544 -5.482 5.482 2.4544 5.482 5.482 5.482Z" stroke-width="1"></path><path fill="#fff" d="M44.762 34.258c0.9731 0 1.762 -0.7889 1.762 -1.762s-0.7889 -1.762 -1.762 -1.762S43 31.5229 43 32.496s0.7889 1.762 1.762 1.762Z" stroke-width="1"></path></svg>