<svg xmlns="http://www.w3.org/2000/svg" viewBox="0 0 24 24"><g><g><path d="M3.79 16.7a1.74 1.74 0 0 1 .27-.44c.42-.54.24-.38.76-.66a.3.3 0 0 0 0-.43s-.13-.16-.72 0l-.74.35a2.21 2.21 0 0 0-.52.54 1.73 1.73 0 0 0-.25.71 2.31 2.31 0 0 0 .26 1.4.34.34 0 1 0 .64-.22 1.9 1.9 0 0 1 .3-1.25Z" fill="#000000" fill-rule="evenodd"></path><path d="M21.81 13.17A5.35 5.35 0 0 0 17 12.6a5.2 5.2 0 0 0-1.79 1.33 5.49 5.49 0 0 0-.64.88 2.31 2.31 0 0 0-.24-.47 1.94 1.94 0 0 0-1-.72 5.67 5.67 0 0 0-1.11-.09 5.22 5.22 0 0 0-1.1.1 2 2 0 0 0-1 .73 3.14 3.14 0 0 0-.38 1 3.25 3.25 0 0 0-.38-.77 5.32 5.32 0 0 0-1.22-1.35 3.26 3.26 0 0 0-1.17-.6 8.55 8.55 0 0 0-2.54-.22 4.64 4.64 0 0 0-1.74.45A5.34 5.34 0 0 0 0 17a4.47 4.47 0 0 0 2 4.39 5.87 5.87 0 0 0 2.88.66 6.89 6.89 0 0 0 2.86-.48.34.34 0 1 0-.3-.62A6.12 6.12 0 0 1 5 21.3a5.06 5.06 0 0 1-2.4-.63 3.53 3.53 0 0 1-1.42-3.51 4.25 4.25 0 0 1 2.02-3.25 4.07 4.07 0 0 1 1.67-.36 7.82 7.82 0 0 1 1.83.13 2.56 2.56 0 0 1 1 .53 5 5 0 0 1 .87.91A4 4 0 0 1 9.25 17a7.58 7.58 0 0 1-.09 2.15 4.92 4.92 0 0 1-.14.55 2 2 0 0 1-.23.49.3.3 0 0 0 .51.33 2.77 2.77 0 0 0 .26-.48 4.69 4.69 0 0 0 .24-.75 8 8 0 0 0 .2-2.8 2.38 2.38 0 0 0-.05-.26.29.29 0 0 0 .26-.21 4.28 4.28 0 0 1 .49-1 1 1 0 0 1 .69-.37h1.63a1 1 0 0 1 .68.38 3.84 3.84 0 0 1 .37.76 4.9 4.9 0 0 0-.21 1.54 5.55 5.55 0 0 0 .24 1.51A5.15 5.15 0 0 0 15.48 21a6.57 6.57 0 0 0 2 1.29 3.49 3.49 0 0 0 1.48.17 4.83 4.83 0 0 0 1.4-.31.31.31 0 0 0 .16-.4.3.3 0 0 0-.39-.16 4.11 4.11 0 0 1-1.21.21 2.76 2.76 0 0 1-1.15-.18 6.13 6.13 0 0 1-1.72-1.24A4.05 4.05 0 0 1 15 18.61a4.3 4.3 0 0 1-.14-1.22 3.91 3.91 0 0 1 .21-1.19 4.41 4.41 0 0 1 .93-1.5 4.22 4.22 0 0 1 1.4-1 4.25 4.25 0 0 1 3.84.4 3.55 3.55 0 0 1 1.86 3.32 6.15 6.15 0 0 1-.53 2.34 2.85 2.85 0 0 1-1 1.13.34.34 0 1 0 .37.57 3.54 3.54 0 0 0 1.3-1.34 7 7 0 0 0 .76-2.65 4.27 4.27 0 0 0-1.36-3.66s-.81-.64-.83-.64Z" fill="#000000" fill-rule="evenodd"></path><path d="M21.67 16.94a1.81 1.81 0 0 0-.22-.72 2.36 2.36 0 0 0-.46-.56l-.76-.48c-.65-.26-.74-.12-.78-.09a.31.31 0 0 0 0 .43l.42.31.37.56a2.64 2.64 0 0 1 .28.47 1.84 1.84 0 0 1 .21.46 1.36 1.36 0 0 1 0 .72.34.34 0 0 0 .13.46.35.35 0 0 0 .47-.14 2 2 0 0 0 .34-1.42Z" fill="#000000" fill-rule="evenodd"></path><path d="M9.42 11.35a.31.31 0 0 0 .36.23c.48 0 1.07 0 1.72.05h1.49c.65-.05 1.25-.14 1.76-.18a.35.35 0 0 0 0-.69c-.52-.06-1.13-.16-1.79-.21a7.44 7.44 0 0 0-1.54 0 8.75 8.75 0 0 0-1.77.45.3.3 0 0 0-.23.35Z" fill="#000000" fill-rule="evenodd"></path></g><path d="M22.33 12.36c-.62-1.89-1.29-3.93-1.78-5.29A14.17 14.17 0 0 0 20 5.6a1 1 0 0 0-.23-.31l-.29-.21c-.11-.4-.28-.87-.44-1.29a6.29 6.29 0 0 0-.6-1.24 3.2 3.2 0 0 0-2.53-1 3.62 3.62 0 0 0-2.51 1.13 4.54 4.54 0 0 0-.16 2.36v.18a1.48 1.48 0 0 0-.34.28 1.67 1.67 0 0 0-.11.83 18.21 18.21 0 0 0 .33 2H13a12.19 12.19 0 0 0-1.5.12.31.31 0 0 0-.27.33.29.29 0 0 0 .33.27h1.21a1.11 1.11 0 0 1 .6.13c.07 0 .6.13.58-.37v-.3c-.05-.44-.16-1.26-.2-1.89s.21-.61.37-.68a5.68 5.68 0 0 1 2.28-.57 4 4 0 0 1 2.56.79c0 .07.14.24.23.44.25.55.62 1.43 1 2.45s.88 2.22 1.33 3.36c.14.33.95.45.81-.05Zm-6-8.18a6.08 6.08 0 0 0-2.4.67 3 3 0 0 1 .25-1.59 1.11 1.11 0 0 1 .38-.26 3.55 3.55 0 0 1 1.37-.31 2.33 2.33 0 0 1 1.76.55 9 9 0 0 1 .75 1.25 4.9 4.9 0 0 0-2.12-.31Z" fill="#000000" fill-rule="evenodd"></path><path d="M1.63 12.17A.3.3 0 0 0 2 12a.4.4 0 0 0 0-.15c.08 0 .09-.28.2-.52.49-1.07 1.64-3.17 2.37-4.46.31-.55.31-1.39 3.06-1.31a8.5 8.5 0 0 1 2.5.44h.06a1 1 0 0 1 0 .2c0 .39-.13.89-.17 1.16v.21a.38.38 0 0 0 .11.31.31.31 0 0 0 .39 0 .34.34 0 0 0 .19-.29s0-.07 0-.13A10.16 10.16 0 0 0 11 6.07a.88.88 0 0 0-.15-.61 1.69 1.69 0 0 0-.36-.23 5 5 0 0 0 .35-1 2.51 2.51 0 0 0 .05-1.2 1.7 1.7 0 0 0-.75-.75 3.82 3.82 0 0 0-1.85-.55 3.73 3.73 0 0 0-2.57 1 1.23 1.23 0 0 0-.24.36C5.32 3.51 5 4.38 4.78 5h-.2a1.41 1.41 0 0 0-.53.58C3.67 6.25 3 7.75 2.42 9.1c-.43 1-.78 2-.91 2.42a1.1 1.1 0 0 0-.06.37.29.29 0 0 0 .18.28Zm4.75-8.65a2.88 2.88 0 0 1 1.91-.59 3.31 3.31 0 0 1 1.38.31c.34.17.53 0 .33 1.09a5.24 5.24 0 0 1-.17.67 7.45 7.45 0 0 0-2.11-.43 8.25 8.25 0 0 0-2 .18 8 8 0 0 1 .66-1.23Z" fill="#000000" fill-rule="evenodd"></path></g></svg>