<svg xmlns="http://www.w3.org/2000/svg" viewBox="0 0 100 100" id="Various-Building-Lighthouse-1--Streamline-Freehand.svg" height="100" width="100"><desc>Various Building Lighthouse 1 Streamline Icon: https://streamlinehq.com</desc><title>various-building-lighthouse-1</title><g><path d="M51.208333333333336 67.08333333333334c-0.5833333333333335 -3.041666666666667 -1.2083333333333333 -6.083333333333334 -1.916666666666667 -9.125 -1.5 -6.25 -3.333333333333334 -12.25 -5.166666666666667 -18.208333333333336a41.66666666666667 41.66666666666667 0 0 0 4.458333333333334 -0.625A3.125 3.125 0 0 0 50 37.5a7.750000000000001 7.750000000000001 0 0 0 0.25 -2.4166666666666665L50 28.91666666666667a1.6250000000000002 1.6250000000000002 0 0 0 -3.2083333333333335 0l0 5.833333333333333 0 0.625h-3.7083333333333335a1.25 1.25 0 0 0 0.29166666666666674 -0.625L43.833333333333336 25a12.958333333333334 12.958333333333334 0 0 0 0.375 -5.375000000000001 5.875 5.875 0 0 0 -1.166666666666667 -1.9583333333333333c-1.0833333333333335 -1.25 -3.125 -2.7083333333333335 -3.8750000000000004 -3.5l-3.3750000000000004 -3.2500000000000004 -2.2083333333333335 -1.75a7.250000000000001 7.250000000000001 0 0 0 -4.833333333333333 -1.5c-1.666666666666667 0 -3.0833333333333335 1.5833333333333335 -5.291666666666667 3.791666666666667L20.833333333333336 14.041666666666668c-0.9166666666666667 1.166666666666667 -2.333333333333334 2.4583333333333335 -3.291666666666667 3.833333333333334a10.083333333333334 10.083333333333334 0 0 0 -0.875 2.4166666666666665S16.666666666666668 20.833333333333336 16.416666666666668 20.833333333333336a4.791666666666667 4.791666666666667 0 0 0 0 1.3750000000000002c0 1 0.41666666666666674 2.166666666666667 0.5 2.791666666666667l1.3750000000000002 10.5 -2.541666666666667 0a9.708333333333334 9.708333333333334 0 0 1 -1.5416666666666667 0c0 -0.625 -0.29166666666666674 -1.3333333333333335 -0.29166666666666674 -1.416666666666667l0 -5.291666666666667a1.3750000000000002 1.3750000000000002 0 0 0 -1.2916666666666667 -1.5416666666666667 1.4583333333333333 1.4583333333333333 0 0 0 -1.5833333333333335 1.25l-0.41666666666666674 5.458333333333334c0 0.25 -0.29166666666666674 2.4166666666666665 -0.29166666666666674 3.333333333333334a2.541666666666667 2.541666666666667 0 0 0 0.6666666666666667 1.5416666666666667 4.916666666666667 4.916666666666667 0 0 0 2.5 0.9166666666666667c0.875 0 2.125 0.29166666666666674 3.5 0.41666666666666674 -1.8333333333333335 5.666666666666668 -3.666666666666667 11.375 -5.125 17.25 -0.75 2.9583333333333335 -1.3750000000000002 6 -2 9.041666666666668s-1.5416666666666667 6.125 -1.8750000000000002 9.166666666666668c-1.0416666666666667 7.083333333333334 -1.7916666666666667 14.25 -2.5833333333333335 21.416666666666668a1.5833333333333335 1.5833333333333335 0 0 0 3.166666666666667 0.5c1.25 -6.25 2.625 -12.5 3.9166666666666665 -18.625 4.625000000000001 0.25 9.208333333333334 0.5833333333333335 13.833333333333334 0.6666666666666667 3.6250000000000004 0 7.208333333333334 -0.25 10.833333333333334 -0.29166666666666674l10.916666666666668 -0.125c1.416666666666667 6.500000000000001 2.9166666666666665 13.000000000000002 4.166666666666667 19.416666666666668a1.6250000000000002 1.6250000000000002 0 0 0 1.8750000000000002 1.2916666666666667 1.5833333333333335 1.5833333333333335 0 0 0 1.2916666666666667 -1.8333333333333335c-0.9166666666666667 -7.125 -1.7916666666666667 -14.333333333333334 -2.833333333333334 -21.583333333333332 -0.29166666666666674 -3.2500000000000004 -0.7916666666666667 -6.291666666666667 -1.3750000000000002 -9.375ZM16.666666666666668 58.54166666666667c0.41666666666666674 -2.5 0.9166666666666667 -4.916666666666667 1.3333333333333335 -7.416666666666667 2.7083333333333335 0.41666666666666674 5.416666666666667 0.875 8.333333333333334 1.0416666666666667l4.166666666666667 0c1.25 0 2.875 0 4.166666666666667 -0.25 2.7500000000000004 -0.20833333333333337 5.458333333333334 -0.625 8.333333333333334 -0.9583333333333335 0.41666666666666674 2.666666666666667 0.875 5.208333333333334 1.3333333333333335 7.916666666666667l0.5 2.791666666666667 -9.333333333333336 -1.1250000000000002c-3.0833333333333335 0 -6.208333333333334 -0.25 -9.333333333333336 0s-6.750000000000001 0.7083333333333335 -10.083333333333334 1.25ZM27.250000000000004 15.333333333333336c1.916666666666667 -1.9583333333333333 1.8750000000000002 -2.541666666666667 3.333333333333334 -1.5833333333333335l1.7916666666666667 1.2916666666666667 3.333333333333334 2.9166666666666665 -2.9583333333333335 0a41.66666666666667 41.66666666666667 0 0 0 -5.583333333333334 0 28.666666666666668 28.666666666666668 0 0 0 -3.2083333333333335 0.5416666666666667l1.0416666666666667 -0.8333333333333335ZM20.833333333333336 30.791666666666668 20.833333333333336 25v-2.4166666666666665c1.75 0.25 3.541666666666667 0.5 5.333333333333334 0.5833333333333335a33.333333333333336 33.333333333333336 0 0 0 3.541666666666667 0c1.2083333333333333 0 2.333333333333334 0 3.541666666666667 -0.29166666666666674 2.2500000000000004 -0.29166666666666674 4.458333333333334 -0.75 6.708333333333334 -1.166666666666667l0 3.166666666666667v9.666666666666666a1.3750000000000002 1.3750000000000002 0 0 0 0.29166666666666674 0.7083333333333335l-10.375000000000002 0 -7.125 0 -1.5833333333333335 0C20.833333333333336 33.91666666666667 20.833333333333336 32.333333333333336 20.833333333333336 30.791666666666668Zm5.416666666666667 9.916666666666666c3.6250000000000004 0 7.375000000000001 0 10.750000000000002 -0.33333333333333337l4.166666666666667 -0.29166666666666674c0.45833333333333337 2.4166666666666665 0.8333333333333335 4.916666666666667 1.25 7.375000000000001 -2.541666666666667 0 -5.041666666666667 -0.375 -7.583333333333334 -0.5l-4.166666666666667 0 -4.166666666666667 0c-2.5 0 -5 0.5 -7.500000000000001 0.7916666666666667 0.41666666666666674 -2.4166666666666665 0.875 -4.916666666666667 1.3333333333333335 -7.333333333333334 1.5 0.16666666666666669 3.6250000000000004 0.29166666666666674 5.916666666666667 0.29166666666666674Zm0 33.333333333333336c-4.166666666666667 0.20833333333333337 -8.708333333333334 0.7916666666666667 -13.041666666666668 1.3333333333333335 0.5833333333333335 -2.666666666666667 1.1250000000000002 -5.333333333333334 1.666666666666667 -8 0 -0.7083333333333335 0.25 -1.4583333333333333 0.41666666666666674 -2.166666666666667 3.6250000000000004 0.20833333333333337 7.250000000000001 0.5416666666666667 10.916666666666668 0.5833333333333335 3.041666666666667 0 6.125 -0.25 9.166666666666668 -0.29166666666666674l9.958333333333334 -0.375c0 0.9583333333333335 0.33333333333333337 1.8750000000000002 0.5416666666666667 2.833333333333334 0.45833333333333337 2.375 0.9583333333333335 4.791666666666667 1.4583333333333333 7.166666666666667l-10.166666666666668 -1.0416666666666667c-3.6250000000000004 0.125 -7.291666666666667 -0.08333333333333334 -10.916666666666668 0.125Z" fill="#000000" fill-rule="evenodd" stroke-width="1"></path><path d="M80.83333333333333 38.75000000000001c-2.791666666666667 -1.7916666666666667 -5.708333333333334 -3.541666666666667 -8.708333333333334 -5.125a129.41666666666666 129.41666666666666 0 0 0 -15.625000000000002 -6.916666666666667 1.3750000000000002 1.3750000000000002 0 0 0 -1.8750000000000002 0.7083333333333335 1.416666666666667 1.416666666666667 0 0 0 0.625 1.8750000000000002c4.541666666666667 2.5 8.541666666666666 5.375000000000001 12.791666666666666 8.041666666666668 2.833333333333334 1.8333333333333335 5.791666666666667 3.5 8.750000000000002 5.125a154.70833333333334 154.70833333333334 0 0 0 15.500000000000002 7.166666666666667 1.6250000000000002 1.6250000000000002 0 0 0 2.166666666666667 -0.75 1.666666666666667 1.666666666666667 0 0 0 -0.75 -2.166666666666667c-4.500000000000001 -2.5 -8.625 -5.333333333333334 -12.875 -7.958333333333334Z" fill="#000000" fill-rule="evenodd" stroke-width="1"></path><path d="M56.50000000000001 23.083333333333336a129.41666666666666 129.41666666666666 0 0 0 15.625000000000002 -6.916666666666667c3 -1.5833333333333335 5.916666666666667 -3.333333333333334 8.708333333333334 -5.166666666666667 4.166666666666667 -2.5833333333333335 8.333333333333334 -5.416666666666667 12.875 -7.916666666666667a1.666666666666667 1.666666666666667 0 0 0 0.75 -2.166666666666667 1.6250000000000002 1.6250000000000002 0 0 0 -2.166666666666667 -0.9166666666666667 145.83333333333334 145.83333333333334 0 0 0 -15.500000000000002 7.166666666666667c-2.9583333333333335 1.5833333333333335 -5.916666666666667 3.291666666666667 -8.750000000000002 5.125 -4.166666666666667 2.625 -8.333333333333334 5.541666666666667 -12.791666666666666 8.041666666666668a1.416666666666667 1.416666666666667 0 0 0 -0.625 1.8750000000000002 1.3750000000000002 1.3750000000000002 0 0 0 1.8750000000000002 0.875Z" fill="#000000" fill-rule="evenodd" stroke-width="1"></path><path d="M32.333333333333336 84.75a7.208333333333334 7.208333333333334 0 0 0 -8.333333333333334 3.041666666666667 11.125 11.125 0 0 0 -1.7083333333333333 4.500000000000001 15.625000000000002 15.625000000000002 0 0 0 0.45833333333333337 6.458333333333334 1.416666666666667 1.416666666666667 0 0 0 1.5833333333333335 1.25 1.3750000000000002 1.3750000000000002 0 0 0 1.2083333333333333 -1.5833333333333335 16.25 16.25 0 0 1 0.5 -4.166666666666667 7.166666666666667 7.166666666666667 0 0 1 2 -3.125 2.375 2.375 0 0 1 2.666666666666667 -1.0416666666666667 4.75 4.75 0 0 1 2.9166666666666665 2.5833333333333335 11.791666666666668 11.791666666666668 0 0 1 0.875 2.5833333333333335c0.20833333333333337 0.9583333333333335 0.375 1.9583333333333333 0.5 2.9166666666666665a1.5833333333333335 1.5833333333333335 0 0 0 1.5833333333333335 1.6250000000000002 1.6250000000000002 1.6250000000000002 0 0 0 1.6250000000000002 -1.666666666666667 32.541666666666664 32.541666666666664 0 0 0 0 -4.166666666666667 17.916666666666668 17.916666666666668 0 0 0 -0.45833333333333337 -2.875 9.250000000000002 9.250000000000002 0 0 0 -5.416666666666667 -6.333333333333334Z" fill="#000000" fill-rule="evenodd" stroke-width="1"></path></g></svg>