<svg height="100" viewBox="0 0 100 100" width="100" xmlns="http://www.w3.org/2000/svg"><g fill-rule="evenodd"><path d="m51.20833333 67.08333333c-.58333333-3.04166667-1.20833333-6.08333333-1.91666667-9.125-1.5-6.25-3.33333333-12.25-5.16666667-18.20833333a41.66666667 41.66666667 0 0 0 4.45833333-.625 3.125 3.125 0 0 0 1.41666668-1.625 7.75 7.75 0 0 0 .25-2.41666667l-.25-6.16666666a1.625 1.625 0 0 0 -3.20833333 0v5.83333333.625h-3.70833333a1.25 1.25 0 0 0 .29166667-.625l.45833332-9.75a12.95833333 12.95833333 0 0 0 .375-5.375 5.875 5.875 0 0 0 -1.16666667-1.95833333c-1.08333333-1.25-3.125-2.70833333-3.875-3.5l-3.375-3.25-2.20833333-1.75a7.25 7.25 0 0 0 -4.83333333-1.5c-1.66666667 0-3.08333333 1.58333333-5.29166667 3.79166667l-2.625 2.58333333c-.91666667 1.16666667-2.33333333 2.45833333-3.29166667 3.83333333a10.08333333 10.08333333 0 0 0 -.875 2.41666667s.00000001.54166666-.24999999.54166666a4.79166667 4.79166667 0 0 0 0 1.375c0 1 .41666667 2.16666667.5 2.79166667l1.375 10.5h-2.54166667a9.70833333 9.70833333 0 0 1 -1.54166667 0c0-.625-.29166667-1.33333333-.29166667-1.41666667v-5.29166667a1.375 1.375 0 0 0 -1.29166667-1.54166667 1.45833333 1.45833333 0 0 0 -1.58333333 1.25l-.41666667 5.45833333c0 .25-.29166667 2.41666667-.29166667 3.33333333a2.54166667 2.54166667 0 0 0 .66666667 1.54166667 4.91666667 4.91666667 0 0 0 2.5.91666667c.875 0 2.125.29166667 3.5.41666667-1.83333333 5.66666667-3.66666667 11.375-5.125 17.25-.75 2.95833333-1.375 6-2 9.04166667s-1.54166667 6.125-1.875 9.16666667c-1.04166667 7.08333333-1.79166667 14.25-2.58333333 21.41666667a1.58333333 1.58333333 0 0 0 3.16666667.5c1.25-6.25 2.625-12.5 3.91666667-18.625 4.625.25 9.20833333.58333333 13.83333333.66666667 3.625 0 7.20833333-.25 10.83333333-.29166667l10.91666667-.125c1.41666667 6.5 2.91666667 13 4.16666667 19.41666667a1.625 1.625 0 0 0 1.875 1.29166667 1.58333333 1.58333333 0 0 0 1.29166667-1.83333333c-.91666667-7.125-1.79166667-14.33333333-2.83333333-21.58333333-.29166667-3.25-.79166667-6.29166667-1.375-9.375zm-34.54166666-8.54166666c.41666667-2.5.91666667-4.91666667 1.33333333-7.41666667 2.70833333.41666667 5.41666667.875 8.33333333 1.04166667h4.16666667c1.25 0 2.875 0 4.16666667-.25 2.75-.20833333 5.45833333-.625 8.33333333-.95833333.41666667 2.66666667.875 5.20833333 1.33333333 7.91666667l.5 2.79166667-9.33333333-1.125c-3.08333333 0-6.20833333-.25-9.33333333 0s-6.75.70833333-10.08333333 1.25zm10.58333333-43.20833334c1.91666667-1.95833333 1.875-2.54166667 3.33333333-1.58333333l1.79166667 1.29166667 3.33333333 2.91666667h-2.95833333a41.66666667 41.66666667 0 0 0 -5.58333333 0 28.66666667 28.66666667 0 0 0 -3.20833333.54166667l1.04166667-.83333333zm-6.41666667 15.45833334v-5.79166667-2.41666667c1.75.25 3.54166667.5 5.33333333.58333333a33.33333333 33.33333333 0 0 0 3.54166667 0c1.20833333 0 2.33333333 0 3.54166667-.29166667 2.25-.29166667 4.45833333-.75 6.70833333-1.16666667v3.16666667 9.66666667a1.375 1.375 0 0 0 .29166667.70833333h-10.375-7.125-1.58333333c-.33333334-1.33333332-.33333334-2.91666666-.33333334-4.45833332zm5.41666667 9.91666667c3.625 0 7.375 0 10.75-.33333333l4.16666667-.29166667c.45833333 2.41666667.83333333 4.91666667 1.25 7.375-2.54166667 0-5.04166667-.375-7.58333333-.5h-4.16666667-4.16666667c-2.5 0-5 .5-7.5.79166667.41666667-2.41666667.875-4.91666667 1.33333333-7.33333333 1.5.16666667 3.625.29166667 5.91666667.29166667zm0 33.33333333c-4.16666667.20833333-8.70833333.79166667-13.04166667 1.33333333.58333333-2.66666667 1.125-5.33333333 1.66666667-8 0-.70833333.25-1.45833333.41666667-2.16666667 3.625.20833333 7.25.54166667 10.91666667.58333333 3.04166667 0 6.125-.25 9.16666667-.29166667l9.95833333-.375c0 .95833333.33333333 1.875.54166667 2.83333333.45833333 2.375.95833333 4.79166667 1.45833333 7.16666667l-10.16666667-1.04166667c-3.625.125-7.29166667-.08333333-10.91666667.125z"/><path d="m80.83333333 38.75c-2.79166667-1.79166667-5.70833333-3.54166667-8.70833333-5.125a129.41666667 129.41666667 0 0 0 -15.625-6.91666667 1.375 1.375 0 0 0 -1.875.70833333 1.41666667 1.41666667 0 0 0 .625 1.875c4.54166667 2.5 8.54166667 5.375 12.79166667 8.04166667 2.83333333 1.83333333 5.79166667 3.5 8.75 5.125a154.70833333 154.70833333 0 0 0 15.5 7.16666667 1.625 1.625 0 0 0 2.16666667-.75 1.66666667 1.66666667 0 0 0 -.75-2.16666667c-4.5-2.5-8.625-5.33333333-12.875-7.95833333z"/><path d="m56.5 23.08333333a129.41666667 129.41666667 0 0 0 15.625-6.91666667c3-1.58333333 5.91666667-3.33333333 8.70833333-5.16666667 4.16666667-2.58333333 8.33333333-5.41666667 12.875-7.91666667a1.66666667 1.66666667 0 0 0 .75-2.16666667 1.625 1.625 0 0 0 -2.16666667-.91666667 145.83333333 145.83333333 0 0 0 -15.5 7.16666667c-2.95833333 1.58333333-5.91666667 3.29166667-8.75 5.125-4.16666667 2.625-8.33333333 5.54166667-12.79166667 8.04166667a1.41666667 1.41666667 0 0 0 -.625 1.875 1.375 1.375 0 0 0 1.875.875z"/><path d="m32.33333333 84.75a7.20833333 7.20833333 0 0 0 -8.33333333 3.04166667 11.125 11.125 0 0 0 -1.70833333 4.5 15.625 15.625 0 0 0 .45833333 6.45833333 1.41666667 1.41666667 0 0 0 1.58333333 1.25 1.375 1.375 0 0 0 1.20833333-1.58333333 16.25 16.25 0 0 1 .5-4.16666667 7.16666667 7.16666667 0 0 1 2-3.125 2.375 2.375 0 0 1 2.66666667-1.04166667 4.75 4.75 0 0 1 2.91666667 2.58333333 11.79166667 11.79166667 0 0 1 .875 2.58333333c.20833333.95833333.375 1.95833333.5 2.91666667a1.58333333 1.58333333 0 0 0 1.58333333 1.625 1.625 1.625 0 0 0 1.625-1.66666667 32.54166667 32.54166667 0 0 0 0-4.16666667 17.91666667 17.91666667 0 0 0 -.45833333-2.875 9.25 9.25 0 0 0 -5.41666667-6.33333333z"/></g></svg>